<?xml version="1.0" encoding="UTF-8" standalone="no"?>
<svg width="260px" height="100px" viewBox="0 0 260 100" version="1.1" xmlns="http://www.w3.org/2000/svg" xmlns:xlink="http://www.w3.org/1999/xlink">
    <!-- Generator: Sketch 3.6.1 (26313) - http://www.bohemiancoding.com/sketch -->
    <title>ex-ol</title>
    <desc>Created with Sketch.</desc>
    <defs></defs>
    <g id="WEBSITE---IMG-etc-" stroke="none" stroke-width="1" fill="none" fill-rule="evenodd">
        <g id="ex-ol">
            <g id="Imported-Layers-+-OPENLEDGER" transform="translate(31.000000, 32.000000)">
                <path d="M39.7075967,29.4595299 C40.2131307,29.7278251 40.3798971,30.3710182 40.0994603,30.8539496 C39.9297026,31.1759038 39.5385869,31.3375964 39.2020628,31.3375964 C39.0330529,31.3375964 38.8662866,31.2846528 38.6972767,31.1759038 C38.1917428,30.9076086 38.0249764,30.2644156 38.3054131,29.7807687 C38.5305103,29.3536427 39.2020628,29.1912347 39.7075967,29.4595299 L39.7075967,29.4595299 Z M39.8773544,26.2929309 C40.0463643,25.7563405 40.6633251,25.4880453 41.2241986,25.6504533 C41.785072,25.8128614 42.0655087,26.4023954 41.895751,26.9389858 L41.895751,26.9389858 C41.7259933,27.3689736 41.3348776,27.6372688 40.8846832,27.6372688 C40.7740041,27.6372688 40.6603338,27.6372688 40.5489069,27.5843252 C39.9880335,27.3661118 39.7075967,26.8295214 39.8773544,26.2929309 L39.8773544,26.2929309 Z M41.895751,19.532607 L41.785072,19.532607 C41.2241986,19.532607 40.7740041,19.1584246 40.7186646,18.6218342 C40.6633251,18.0852438 41.0544409,17.5486533 41.6706538,17.4957098 C42.2315273,17.4420507 42.7924007,17.8169486 42.8477402,18.4064826 C42.9068189,18.9960166 42.4566245,19.4796634 41.895751,19.532607 L41.895751,19.532607 Z M41.6706538,23.6099788 C41.1097804,23.5570352 40.6603338,23.0733884 40.7186646,22.4838544 C40.7740041,21.9472639 41.2795381,21.5172761 41.895751,21.5730815 C42.4566245,21.6260251 42.9068189,22.109672 42.8477402,22.699206 C42.7924007,23.2357964 42.3429541,23.6099788 41.7820807,23.6099788 L41.6706538,23.6099788 L41.6706538,23.6099788 Z M25.7411,2.47117778 L25.5167506,2.47117778 C24.9558772,2.36457515 24.5640136,1.82798472 24.6754405,1.2913943 C24.7861195,0.754803868 25.3469929,0.380621477 25.9078664,0.486508654 L25.9078664,0.486508654 C26.4687398,0.593111286 26.8606034,1.12970171 26.7491766,1.66629214 C26.6968284,2.14636171 26.246634,2.47117778 25.7411,2.47117778 L25.7411,2.47117778 Z M41.2241986,15.5081788 C41.1127717,15.5611224 40.9991013,15.5611224 40.8876745,15.5611224 C40.4382279,15.5611224 40.0463643,15.2928272 39.8773544,14.8628394 C39.7075967,14.326249 39.9880335,13.7367149 40.5489069,13.5743069 C41.1097804,13.4126143 41.7259933,13.6809095 41.895751,14.2175 C42.1208482,14.7562368 41.785072,15.2928272 41.2241986,15.5081788 L41.2241986,15.5081788 Z M39.7075967,11.6461586 C39.5385869,11.7520458 39.3718205,11.8078512 39.2020628,11.8078512 C38.8109471,11.8078512 38.4721795,11.6461586 38.3054131,11.3249198 C38.0249764,10.841273 38.1947341,10.1980799 38.6972767,9.92978472 C39.2020628,9.66148951 39.8743631,9.82389755 40.1547998,10.3046826 C40.3828884,10.7883294 40.2131307,11.3778634 39.7075967,11.6461586 L39.7075967,11.6461586 Z M32.8664363,35.5244327 C33.3158829,35.2031939 33.9881832,35.309081 34.3239595,35.7397843 C34.6597357,36.1697721 34.5490567,36.8129651 34.0988623,37.1342039 C33.9298524,37.2400911 33.7077465,37.3495556 33.4826493,37.3495556 C33.146873,37.3495556 32.8110968,37.1871475 32.6413391,36.9188523 C32.3055629,36.4881491 32.3609024,35.8456715 32.8664363,35.5244327 L32.8664363,35.5244327 Z M29.3314379,37.4554427 C29.8923114,37.2400911 30.5085243,37.4554427 30.7336216,37.9920332 C30.9587188,38.5286236 30.7336216,39.1181576 30.1727481,39.3335092 C30.0037382,39.3864528 29.8923114,39.4393964 29.7233015,39.4393964 C29.3314379,39.4393964 28.9373309,39.2247602 28.7705645,38.8498624 C28.6045459,38.313272 28.825904,37.723738 29.3314379,37.4554427 L29.3314379,37.4554427 Z M25.519742,38.6910316 C26.0806154,38.584429 26.6414889,38.9056678 26.7521679,39.4959173 C26.8628469,40.0325077 26.5270707,40.5690981 25.9108577,40.6749853 L25.9108577,40.6749853 L25.6857605,40.6749853 C25.1802266,40.6749853 24.7337713,40.3537465 24.6754405,39.8700997 C24.5640136,39.3335092 24.9588685,38.7969188 25.519742,38.6910316 L25.519742,38.6910316 Z M29.7816324,3.7031894 C29.6118747,3.7031894 29.5011956,3.65024581 29.3314379,3.59730223 C28.7705645,3.3819506 28.5454673,2.79241658 28.7705645,2.25582616 C28.9956617,1.71923573 29.6118747,1.5038841 30.1727481,1.71923573 C30.7336216,1.93458735 30.9587188,2.52412137 30.7336216,3.0607118 C30.567603,3.48783778 30.2280876,3.7031894 29.7816324,3.7031894 L29.7816324,3.7031894 Z M36.6781323,8.47955966 C36.3976956,8.47955966 36.1172588,8.37367248 35.8929095,8.15832086 C35.5010459,7.72761761 35.5563854,7.08514 35.948249,6.71024216 C36.3976956,6.33605977 37.0699959,6.38900336 37.4611116,6.7639012 C37.8529752,7.193889 37.7976357,7.83708206 37.4057721,8.21126445 C37.1836662,8.42661607 36.9032295,8.47955966 36.6781323,8.47955966 L36.6781323,8.47955966 Z M37.3534239,32.8944241 C37.8028705,33.2686065 37.8028705,33.9146614 37.4087634,34.3417874 C37.1836662,34.557139 36.9032295,34.6637416 36.6227928,34.6637416 C36.3976956,34.6637416 36.1172588,34.557139 35.8929095,34.3954464 C35.442715,34.0205486 35.442715,33.3752091 35.8368221,32.9473677 C36.231677,32.5202417 36.9032295,32.5202417 37.3534239,32.8944241 L37.3534239,32.8944241 Z M33.4826493,5.79660752 C33.2575521,5.79660752 33.0324549,5.74366394 32.8664363,5.5812559 C32.4162419,5.2600171 32.3055629,4.61467768 32.6413391,4.18683624 C32.9771154,3.75613299 33.652407,3.65024581 34.0988623,3.97148462 C34.5490567,4.29272342 34.6597357,4.93877829 34.3239595,5.36590427 C34.1542018,5.63419949 33.8184255,5.79660752 33.4826493,5.79660752 L33.4826493,5.79660752 Z M-7.46069873e-14,20.5528443 C-7.46069873e-14,9.23150171 9.64552767,0 21.482201,0 C21.8740645,0 22.1545013,0.162408036 22.3788506,0.43070325 L22.3788506,0.43070325 C22.4902775,0.593111286 22.5486083,0.751942052 22.5486083,0.967293677 C22.5486083,1.23558889 22.4371815,1.5038841 22.2128321,1.66629214 L22.2128321,1.66629214 C22.0430744,1.77217932 21.876308,1.88092831 21.7072982,1.93458735 L21.482201,1.93458735 L21.482201,1.93458735 C10.8256054,1.93458735 2.13206694,10.251739 2.13206694,20.4469571 C2.13206694,30.6421752 10.8256054,38.9593268 21.482201,38.9593268 C22.0430744,38.9593268 22.5486083,39.3893146 22.5486083,39.9788487 C22.5486083,40.4624955 22.1567448,40.8903369 21.7072982,40.9990859 L21.6519587,40.9990859 L21.482201,40.9990859 L21.482201,40.9990859 C9.64552767,41.1056886 -7.46069873e-14,31.8741868 -7.46069873e-14,20.5528443 L-7.46069873e-14,20.5528443 Z" id="Imported-Layers" fill="#4990E2"></path>
                <path d="M70.7388865,26.9085738 C74.5962464,26.9085738 77.2200344,24.0636695 77.2200344,20.2768713 C77.2200344,16.4900731 74.5962464,13.6451688 70.7388865,13.6451688 C66.8619461,13.6451688 64.2577386,16.4900731 64.2577386,20.2768713 C64.2577386,24.0636695 66.8619461,26.9085738 70.7388865,26.9085738 L70.7388865,26.9085738 Z M70.7388865,25.4861216 C67.8018104,25.4861216 65.9416622,23.2563318 65.9416622,20.2768713 C65.9416622,17.2781884 67.8018104,15.0676209 70.7388865,15.0676209 C73.6563821,15.0676209 75.5361108,17.2781884 75.5361108,20.2768713 C75.5361108,23.2563318 73.6563821,25.4861216 70.7388865,25.4861216 L70.7388865,25.4861216 Z M83.0223913,26.6779058 L83.0223913,21.5839895 L86.6447852,21.5839895 C89.2294121,21.5839895 90.7371112,19.8155355 90.7371112,17.7203019 C90.7371112,15.6250684 89.2685731,13.8566144 86.6447852,13.8566144 L81.3972093,13.8566144 L81.3972093,26.6779058 L83.0223913,26.6779058 Z M86.4489801,20.1615373 L83.0223913,20.1615373 L83.0223913,15.2790665 L86.4489801,15.2790665 C87.9958402,15.2790665 89.0531876,16.2786275 89.0531876,17.7203019 C89.0531876,19.1619764 87.9958402,20.1615373 86.4489801,20.1615373 L86.4489801,20.1615373 Z M103.079358,26.6779058 L103.079358,25.2554537 L96.147858,25.2554537 L96.147858,20.8343187 L102.942294,20.8343187 L102.942294,19.4118666 L96.147858,19.4118666 L96.147858,15.2790665 L103.079358,15.2790665 L103.079358,13.8566144 L94.5226759,13.8566144 L94.5226759,26.6779058 L103.079358,26.6779058 Z M118.104133,26.6779058 L118.104133,13.8566144 L116.478951,13.8566144 L116.478951,23.8714463 L108.960037,13.8566144 L107.295693,13.8566144 L107.295693,26.6779058 L108.920876,26.6779058 L108.920876,16.4516284 L116.537693,26.6779058 L118.104133,26.6779058 Z M130.172253,26.6779058 L130.172253,26.1012361 L123.612783,26.1012361 L123.612783,13.8566144 L122.986207,13.8566144 L122.986207,26.6779058 L130.172253,26.6779058 Z M142.377435,26.6779058 L142.377435,26.1012361 L135.015165,26.1012361 L135.015165,20.3729829 L142.240372,20.3729829 L142.240372,19.7963131 L135.015165,19.7963131 L135.015165,14.4332842 L142.377435,14.4332842 L142.377435,13.8566144 L134.388589,13.8566144 L134.388589,26.6779058 L142.377435,26.6779058 Z M150.823161,26.6779058 C154.876326,26.6779058 157.323889,23.73689 157.323889,20.2768713 C157.323889,16.8552973 154.876326,13.8566144 150.823161,13.8566144 L146.94622,13.8566144 L146.94622,26.6779058 L150.823161,26.6779058 Z M150.823161,26.1012361 L147.572797,26.1012361 L147.572797,14.4332842 L150.823161,14.4332842 C154.523877,14.4332842 156.638572,17.0667428 156.638572,20.2768713 C156.638572,23.5254444 154.523877,26.1012361 150.823161,26.1012361 L150.823161,26.1012361 Z M168.040954,26.9277961 C169.999004,26.9277961 171.702508,26.1012361 172.818597,24.8710072 L172.818597,20.5267615 L166.807382,20.5267615 L166.807382,21.1034313 L172.192021,21.1034313 L172.192021,24.621117 C171.428381,25.4092323 169.959843,26.3511263 168.040954,26.3511263 C164.771009,26.3511263 162.205962,23.8522239 162.205962,20.2768713 C162.205962,16.663074 164.771009,14.2218386 168.040954,14.2218386 C169.783619,14.2218386 171.38922,14.9138423 172.407407,16.0479596 L172.818597,15.6250684 C171.545864,14.3371725 170.018585,13.6451688 168.040954,13.6451688 C164.41856,13.6451688 161.520645,16.3362945 161.520645,20.2768713 C161.520645,24.2174481 164.41856,26.9277961 168.040954,26.9277961 L168.040954,26.9277961 Z M185.454551,26.6779058 L185.454551,26.1012361 L178.092281,26.1012361 L178.092281,20.3729829 L185.317488,20.3729829 L185.317488,19.7963131 L178.092281,19.7963131 L178.092281,14.4332842 L185.454551,14.4332842 L185.454551,13.8566144 L177.465704,13.8566144 L177.465704,26.6779058 L185.454551,26.6779058 Z M198.560437,26.6779058 L194.526853,21.141876 C196.641548,21.141876 198.384213,19.8347578 198.384213,17.489634 C198.384213,15.1445102 196.641548,13.8566144 194.526853,13.8566144 L190.023336,13.8566144 L190.023336,26.6779058 L190.649913,26.6779058 L190.649913,21.141876 L193.782794,21.141876 L197.757637,26.6779058 L198.560437,26.6779058 Z M194.526853,20.5652062 L190.649913,20.5652062 L190.649913,14.4332842 L194.526853,14.4332842 C196.445743,14.4332842 197.698895,15.72118 197.698895,17.489634 C197.698895,19.258088 196.445743,20.5652062 194.526853,20.5652062 L194.526853,20.5652062 Z" id="OPENLEDGER" fill="#546979"></path>
            </g>
        </g>
    </g>
</svg>