<?xml version="1.0" encoding="UTF-8" standalone="no"?>
<svg width="260px" height="100px" viewBox="0 0 260 100" version="1.1" xmlns="http://www.w3.org/2000/svg" xmlns:xlink="http://www.w3.org/1999/xlink">
    <!-- Generator: Sketch 3.6.1 (26313) - http://www.bohemiancoding.com/sketch -->
    <title>ex-placeholder</title>
    <desc>Created with Sketch.</desc>
    <defs>
        <path id="path-1" d="M121.970301,77.5690796 L121.970301,0 L0,0 L0,38.7845398 L0,77.5690796 L121.970301,77.5690796 L121.970301,77.5690796 Z"></path>
    </defs>
    <g id="WEBSITE---IMG-etc-" stroke="none" stroke-width="1" fill="none" fill-rule="evenodd" opacity="0.110890858">
        <g id="ex-placeholder">
            <g id="Page-1" style="mix-blend-mode: luminosity;" transform="translate(59.000000, 20.000000)">
                <mask id="mask-2" fill="white">
                    <use xlink:href="#path-1"></use>
                </mask>
                <g id="Clip-1"></g>
                <path d="M0,61.2845022 C38.8830446,48.0622199 79.0966735,44.378937 120.470149,42.757079 C117.518025,46.3909723 115.092147,49.4914588 112.504653,52.4487156 C112.076873,52.9374367 110.943923,52.9146235 110.132101,52.9343793 C96.3507658,53.2711688 82.5219515,52.9682464 68.7976847,54.0331787 C48.1533975,55.6352809 27.5816153,58.1835454 6.98106502,60.3493938 C4.64710469,60.5946951 2.32670982,60.9695851 0,61.2845022" id="Fill-2" fill="#1A5099" mask="url(#mask-2)"></path>
                <path d="M113.035951,24.4201818 C106.514006,16.3268845 100.021064,8.27004131 93.3566823,-0.000117594115 C93.2830078,1.16759197 93.2128416,1.66148725 93.2268749,2.15303065 C93.3707155,7.16889002 93.4593587,12.188042 93.7121908,17.1984921 C93.8314733,19.5642505 93.5225083,21.1790528 90.7743337,21.9088419 C86.4469528,23.0575012 82.1579294,24.457812 77.997544,26.1187112 C62.7604949,32.2016196 47.583087,38.4359892 32.3834598,44.613208 C32.4522226,44.7188075 32.5214532,44.8246423 32.59045,44.9302418 C47.4043972,42.9349048 62.183729,40.6077173 77.0421148,39.0383062 C91.8368833,37.4757156 106.711173,36.6741942 121.970442,35.506955 C120.146823,33.2439738 118.334198,30.9948688 116.52508,28.749762" id="Fill-3" fill="#4BA2F2" mask="url(#mask-2)"></path>
            </g>
        </g>
    </g>
</svg>