<?xml version="1.0" encoding="UTF-8" standalone="no"?>
<svg width="135px" height="91px" viewBox="0 0 135 91" version="1.1" xmlns="http://www.w3.org/2000/svg" xmlns:xlink="http://www.w3.org/1999/xlink">
    <!-- Generator: Sketch 3.6.1 (26313) - http://www.bohemiancoding.com/sketch -->
    <title>ico-sec-chat</title>
    <desc>Created with Sketch.</desc>
    <defs></defs>
    <g id="Icons" stroke="none" stroke-width="1" fill="none" fill-rule="evenodd">
        <g id="icons-copy" transform="translate(-1012.000000, -80.000000)">
            <g id="ico-sec-chat" transform="translate(1012.000000, 81.000000)">
                <g id="Group-5" transform="translate(0.000000, 22.000000)">
                    <path d="M67.305603,65.9829588 C102.651827,60.1853871 132.751418,45.7032684 134.535798,33.6303135 C136.319785,21.5600126 106.228358,7.07651465 67.305603,1.27766829 C28.3914044,-4.51990336 -1.7089713,9.95966592 0.0754082664,33.6303135 C1.85939558,57.2957577 31.9516074,71.7818051 67.305603,65.9829588 Z" id="Fill-1-Copy-6" fill="#EEF1F6"></path>
                    <path d="M63.5000022,45.9942285 C76.8915884,43.7977087 88.2953885,38.3108838 88.9714345,33.7368163 C89.6473319,29.1637542 78.2466248,23.6764068 63.5000022,21.479404 C48.7566212,19.2828842 37.3525239,24.7687432 38.0285698,33.7368163 C38.7044672,42.7029179 50.1054715,48.1912313 63.5000022,45.9942285 Z" id="Fill-1-Copy-8" fill="#CFD7E6"></path>
                </g>
                <g id="Group-6" transform="translate(38.000000, 0.000000)">
                    <g id="Group-24" transform="translate(15.000000, 0.000000)">
                        <path d="M52,24 C52,25.104 51.105,26 50,26 L15,26 L7,34 L7,26 L2,26 C0.896,26 0,25.104 0,24 L0,2 C0,0.895 0.896,0 2,0 L50,0 C51.105,0 52,0.895 52,2 L52,24 L52,24 Z" id="Fill-2" fill="#FFFFFF"></path>
                        <path d="M7,30 L50,30 C51.105,30 52,30.895 52,32 L52,36 L62,36 L52,46 L52,56 C52,57.104 51.105,58 50,58 L9,58 C7.896,58 7,57.104 7,56 L7,37 L7,30 Z" id="Fill-4" fill="#FFFFFF"></path>
                        <path d="M52,24 C52,25.104 51.105,26 50,26 L15,26 L7,34 L7,26 L2,26 C0.896,26 0,25.104 0,24 L0,2 C0,0.895 0.896,0 2,0 L50,0 C51.105,0 52,0.895 52,2 L52,24 L52,24 Z" id="Stroke-6" stroke="#4D6892" stroke-width="2" stroke-linejoin="round"></path>
                        <path d="M16,30 L50,30 C51.105,30 52,30.895 52,32 L52,36 L62,36 L52,46 L52,56 C52,57.104 51.105,58 50,58 L9,58 C7.896,58 7,57.104 7,56 L7,37" id="Stroke-8" stroke="#4D6892" stroke-width="2" stroke-linejoin="round"></path>
                        <path d="M13,9 L39,9 L39,3 L13,3 L13,9 Z" id="Fill-10" fill="#FFC857"></path>
                        <path d="M10,45 L49,45 L49,39 L10,39 L10,45 Z" id="Fill-12" fill="#4BA2F2"></path>
                        <path d="M3,12 L49,12" id="Stroke-13" stroke="#4D6892" stroke-width="2" stroke-linejoin="round"></path>
                        <path d="M3,16 L49,16" id="Stroke-14" stroke="#4D6892" stroke-width="2" stroke-linejoin="round"></path>
                        <path d="M10,48 L49,48" id="Stroke-15" stroke="#4D6892" stroke-width="2" stroke-linejoin="round"></path>
                        <path d="M10,52 L39,52" id="Stroke-16" stroke="#4D6892" stroke-width="2" stroke-linejoin="round"></path>
                        <path d="M3,20 L19,20" id="Stroke-17" stroke="#4D6892" stroke-width="2" stroke-linejoin="round"></path>
                        <path d="M25,6 L27,6" id="Stroke-18" stroke="#4D6892" stroke-width="2" stroke-linejoin="round"></path>
                        <path d="M29,6 L31,6" id="Stroke-19" stroke="#4D6892" stroke-width="2" stroke-linejoin="round"></path>
                        <path d="M21,6 L23,6" id="Stroke-20" stroke="#4D6892" stroke-width="2" stroke-linejoin="round"></path>
                        <path d="M20,36 L22,36" id="Stroke-21" stroke="#4D6892" stroke-width="2" stroke-linejoin="round"></path>
                        <path d="M24,36 L26,36" id="Stroke-22" stroke="#4D6892" stroke-width="2" stroke-linejoin="round"></path>
                        <path d="M16,36 L18,36" id="Stroke-23" stroke="#4D6892" stroke-width="2" stroke-linejoin="round"></path>
                    </g>
                    <g id="Group-29" transform="translate(0.000000, 8.000000)">
                        <path d="M15,0 C8.925,0 4,4.925 4,11 L4,18 L10,18 L10,11 C10,8.238 12.238,6 15,6 C17.762,6 20,8.238 20,11 L20,18 L26,18 L26,11 C26,4.925 21.075,0 15,0" id="Fill-11" fill="#FFFFFF"></path>
                        <path d="M30,39 C30,40.656 28.656,42 27,42 L3,42 C1.344,42 0,40.656 0,39 L0,21 C0,19.344 1.344,18 3,18 L27,18 C28.656,18 30,19.344 30,21 L30,39 Z" id="Fill-13" fill="#FFFFFF"></path>
                        <path d="M30,39 C30,40.656 28.656,42 27,42 L3,42 C1.344,42 0,40.656 0,39 L0,21 C0,19.344 1.344,18 3,18 L27,18 C28.656,18 30,19.344 30,21 L30,39 L30,39 Z" id="Stroke-21-Copy" stroke="#4D6892" stroke-width="2" fill="#FFFFFF"></path>
                        <path d="M15,31 L9,31 L15,25 L21,25 L15,31 Z" id="Fill-15" fill="#FFC857"></path>
                        <path d="M30,31 L19,31 L25,25 L30,25 L30,31 Z" id="Fill-17" fill="#FFC857"></path>
                        <path d="M0,25 L11,25 L5,31 L0,31 L0,25 Z" id="Fill-19" fill="#FFC857"></path>
                        <path d="M30,39 C30,40.656 28.656,42 27,42 L3,42 C1.344,42 0,40.656 0,39 L0,21 C0,19.344 1.344,18 3,18 L27,18 C28.656,18 30,19.344 30,21 L30,39 L30,39 Z" id="Stroke-21" stroke="#4D6892" stroke-width="2"></path>
                        <path d="M20,18 L20,11 C20,8.238 17.762,6 15,6 C12.238,6 10,8.238 10,11 L10,18" id="Stroke-23" stroke="#4D6892" stroke-width="2"></path>
                        <path d="M26,18 L26,11 C26,4.925 21.075,0 15,0 C8.925,0 4,4.925 4,11 L4,18" id="Stroke-25" stroke="#4D6892" stroke-width="2"></path>
                        <path d="M0,38 L30,38" id="Stroke-27" stroke="#4D6892" stroke-width="2"></path>
                    </g>
                </g>
            </g>
        </g>
    </g>
</svg>