<?xml version="1.0" encoding="UTF-8" standalone="no"?>
<svg width="135px" height="95px" viewBox="0 0 135 95" version="1.1" xmlns="http://www.w3.org/2000/svg" xmlns:xlink="http://www.w3.org/1999/xlink">
    <!-- Generator: Sketch 3.6.1 (26313) - http://www.bohemiancoding.com/sketch -->
    <title>ico-sale</title>
    <desc>Created with Sketch.</desc>
    <defs></defs>
    <g id="Icons" stroke="none" stroke-width="1" fill="none" fill-rule="evenodd">
        <g id="icons-copy" transform="translate(-689.000000, -302.000000)">
            <g id="ico-sale" transform="translate(689.000000, 302.000000)">
                <path d="M67.305603,92.9829588 C102.651827,87.1853871 132.751418,72.7032684 134.535798,60.6303135 C136.319785,48.5600126 106.228358,34.0765147 67.305603,28.2776683 C28.3914044,22.4800966 -1.7089713,36.9596659 0.0754082664,60.6303135 C1.85939558,84.2957577 31.9516074,98.7818051 67.305603,92.9829588 Z" id="Fill-1-Copy-5" fill="#EEF1F6"></path>
                <path d="M70.5000022,72.9942285 C83.8915884,70.7977087 95.2953885,65.3108838 95.9714345,60.7368163 C96.6473319,56.1637542 85.2466248,50.6764068 70.5000022,48.479404 C55.7566212,46.2828842 44.3525239,51.7687432 45.0285698,60.7368163 C45.7044672,69.7029179 57.1054715,75.1912313 70.5000022,72.9942285 Z" id="Fill-1-Copy-7" fill="#CFD7E6"></path>
                <path d="M107,32 C107,49.674 92.674,64 75,64 C57.326,64 43,49.674 43,32 C43,14.326 57.326,0 75,0 C92.674,0 107,14.326 107,32" id="Fill-2" fill="#4BA2F2"></path>
                <path d="M96,22 C96,36 75,63 75,63 C75,63 54,36 54,22 C54,10.402 63.402,1 75,1 C86.598,1 96,10.402 96,22" id="Fill-4" fill="#FFFFFF"></path>
                <path d="M96,22 C96,36 75,63 75,63 C75,63 54,36 54,22 C54,10.402 63.402,1 75,1 C86.598,1 96,10.402 96,22 L96,22 Z" id="Stroke-6" stroke="#4D6892" stroke-width="2" stroke-linejoin="round"></path>
                <path d="M90,22 C90,30.284 83.284,37 75,37 C66.716,37 60,30.284 60,22 C60,13.716 66.716,7 75,7 C83.284,7 90,13.716 90,22" id="Fill-8" fill="#FFC857"></path>
                <path d="M60,22 C60,13.716 66.716,7 75,7 C83.284,7 90,13.716 90,22" id="Stroke-10" stroke="#4D6892" stroke-width="2" stroke-linejoin="round"></path>
                <path d="M75,22 C77,23 79,23.791 79,26 C79,28.209 77.209,30 75,30 C72.791,30 71,28.209 71,26" id="Stroke-12" stroke="#4D6892" stroke-width="2"></path>
                <path d="M75,22 C73,21 71,20.209 71,18 C71,15.791 72.791,14 75,14 C77.209,14 79,15.791 79,18" id="Stroke-14" stroke="#4D6892" stroke-width="2"></path>
                <path d="M75,14 L75,11" id="Stroke-16" stroke="#4D6892" stroke-width="2"></path>
                <path d="M75,30 L75,33" id="Stroke-18" stroke="#4D6892" stroke-width="2"></path>
                <path d="M74,52 L76,52" id="Stroke-20" stroke="#4D6892" stroke-width="2" stroke-linejoin="round"></path>
                <path d="M74,48 L76,48" id="Stroke-22" stroke="#4D6892" stroke-width="2" stroke-linejoin="round"></path>
                <path d="M74,44 L76,44" id="Stroke-24" stroke="#4D6892" stroke-width="2" stroke-linejoin="round"></path>
            </g>
        </g>
    </g>
</svg>