<?xml version="1.0" encoding="UTF-8" standalone="no"?>
<svg width="135px" height="90px" viewBox="0 0 135 90" version="1.1" xmlns="http://www.w3.org/2000/svg" xmlns:xlink="http://www.w3.org/1999/xlink">
    <!-- Generator: Sketch 3.6.1 (26313) - http://www.bohemiancoding.com/sketch -->
    <title>ico-confident</title>
    <desc>Created with Sketch.</desc>
    <defs></defs>
    <g id="Icons" stroke="none" stroke-width="1" fill="none" fill-rule="evenodd">
        <g id="icons-copy" transform="translate(-909.000000, -559.000000)">
            <g id="ico-confident" transform="translate(909.000000, 560.000000)">
                <g id="ico-sale-2-copy" transform="translate(0.000000, 21.000000)">
                    <g id="Group-4">
                        <path d="M67.305603,65.9829588 C102.651827,60.1853871 132.751418,45.7032684 134.535798,33.6303135 C136.319785,21.5600126 106.228358,7.07651465 67.305603,1.27766829 C28.3914044,-4.51990336 -1.7089713,9.95966592 0.0754082664,33.6303135 C1.85939558,57.2957577 31.9516074,71.7818051 67.305603,65.9829588 Z" id="Fill-1-Copy-6" fill="#EEF1F6"></path>
                        <path d="M63.5000022,45.9942285 C76.8915884,43.7977087 88.2953885,38.3108838 88.9714345,33.7368163 C89.6473319,29.1637542 78.2466248,23.6764068 63.5000022,21.479404 C48.7566212,19.2828842 37.3525239,24.7687432 38.0285698,33.7368163 C38.7044672,42.7029179 50.1054715,48.1912313 63.5000022,45.9942285 Z" id="Fill-1-Copy-8" fill="#CFD7E6"></path>
                    </g>
                </g>
                <g id="Page-1" transform="translate(43.000000, 0.000000)" stroke-width="2">
                    <g id="Group-32">
                        <path d="M27,59 L27,12 L62,12" id="Stroke-4" stroke="#4BA2F2"></path>
                        <path d="M23,3 L23,0 L49,0" id="Stroke-6" stroke="#4D6892"></path>
                        <path d="M23,59 L23,9" id="Stroke-8" stroke="#4D6892"></path>
                        <path d="M35,32 L35,18 L44,18" id="Stroke-10" stroke="#4D6892"></path>
                        <path d="M31,9 L31,6 L0,6" id="Stroke-12" stroke="#4D6892"></path>
                        <path d="M31,47 L31,15" id="Stroke-14" stroke="#4D6892"></path>
                        <path d="M19,39 L19,14 L3,14" id="Stroke-16" stroke="#4D6892"></path>
                        <path d="M34,6 L36,6" id="Stroke-18" stroke="#4D6892"></path>
                        <path d="M38,6 L40,6" id="Stroke-20" stroke="#4D6892"></path>
                        <path d="M51,0 L53,0" id="Stroke-22" stroke="#4D6892"></path>
                        <path d="M55,0 L57,0" id="Stroke-24" stroke="#4D6892"></path>
                        <path d="M46,18 L48,18" id="Stroke-26" stroke="#4D6892"></path>
                        <path d="M58,16 L62,12 L58,8" id="Stroke-28" stroke="#4BA2F2" stroke-linejoin="round"></path>
                        <path d="M4,10 L0,6 L4,2" id="Stroke-30" stroke="#4D6892" stroke-linejoin="round"></path>
                    </g>
                </g>
                <g id="Group-29" transform="translate(67.000000, 25.000000)">
                    <path d="M15,0 C8.925,0 4,4.925 4,11 L4,18 L10,18 L10,11 C10,8.238 12.238,6 15,6 C17.762,6 20,8.238 20,11 L20,18 L26,18 L26,11 C26,4.925 21.075,0 15,0" id="Fill-11" fill="#FFFFFF"></path>
                    <path d="M30,39 C30,40.656 28.656,42 27,42 L3,42 C1.344,42 0,40.656 0,39 L0,21 C0,19.344 1.344,18 3,18 L27,18 C28.656,18 30,19.344 30,21 L30,39 Z" id="Fill-13" fill="#FFFFFF"></path>
                    <path d="M30,39 C30,40.656 28.656,42 27,42 L3,42 C1.344,42 0,40.656 0,39 L0,21 C0,19.344 1.344,18 3,18 L27,18 C28.656,18 30,19.344 30,21 L30,39 L30,39 Z" id="Stroke-21-Copy" stroke="#4D6892" stroke-width="2" fill="#FFFFFF"></path>
                    <path d="M15,31 L9,31 L15,25 L21,25 L15,31 Z" id="Fill-15" fill="#FFC857"></path>
                    <path d="M30,31 L19,31 L25,25 L30,25 L30,31 Z" id="Fill-17" fill="#FFC857"></path>
                    <path d="M0,25 L11,25 L5,31 L0,31 L0,25 Z" id="Fill-19" fill="#FFC857"></path>
                    <path d="M30,39 C30,40.656 28.656,42 27,42 L3,42 C1.344,42 0,40.656 0,39 L0,21 C0,19.344 1.344,18 3,18 L27,18 C28.656,18 30,19.344 30,21 L30,39 L30,39 Z" id="Stroke-21" stroke="#4D6892" stroke-width="2"></path>
                    <path d="M20,18 L20,11 C20,8.238 17.762,6 15,6 C12.238,6 10,8.238 10,11 L10,18" id="Stroke-23" stroke="#4D6892" stroke-width="2"></path>
                    <path d="M26,18 L26,11 C26,4.925 21.075,0 15,0 C8.925,0 4,4.925 4,11 L4,18" id="Stroke-25" stroke="#4D6892" stroke-width="2"></path>
                    <path d="M0,38 L30,38" id="Stroke-27" stroke="#4D6892" stroke-width="2"></path>
                </g>
                <g id="Page-1" transform="translate(43.000000, 25.000000)">
                    <path d="M21,37.8 L25.2,42 L27.3,36.4 L32.9,38.5 L32.9,32.9 L38.5,32.9 L36.4,27.3 L42,25.2 L37.8,21 L42,16.8 L36.4,14.7 L38.5,9.1 L32.9,9.1 L32.9,3.5 L27.3,5.6 L25.2,0 L21,4.2 L16.8,0 L14.7,5.6 L9.1,3.5 L9.1,9.1 L3.5,9.1 L5.6,14.7 L0,16.8 L4.2,21 L0,25.2 L5.6,27.3 L3.5,32.9 L9.1,32.9 L9.1,38.5 L14.7,36.4 L16.8,42 L21,37.8 Z" id="Fill-1" fill="#FFC857"></path>
                    <g id="Group-16" stroke="#4D6892" stroke-width="2">
                        <path d="M23.1,25.9 L19.6,25.9 C18.4408,25.9 17.5,24.9592 17.5,23.8 L17.5,18.2 C17.5,17.0408 18.4408,16.1 19.6,16.1 L23.1,16.1" id="Stroke-2"></path>
                        <path d="M18.2,21 L21.7,21" id="Stroke-4"></path>
                        <path d="M9.8,26.6 L9.8,16.1 L14.7,25.9 L14.7,15.4" id="Stroke-6" stroke-linejoin="round"></path>
                        <path d="M25.2,15.4 L25.2,25.9 L28.7,19.6 L32.2,25.9 L32.2,15.4" id="Stroke-8" stroke-linejoin="round"></path>
                        <path d="M21,37.8 L25.2,42 L27.3,36.4 L32.9,38.5 L32.9,32.9 L38.5,32.9 L36.4,27.3 L42,25.2 L37.8,21 L42,16.8 L36.4,14.7 L38.5,9.1 L32.9,9.1 L32.9,3.5 L27.3,5.6 L25.2,0 L21,4.2 L16.8,0 L14.7,5.6 L9.1,3.5 L9.1,9.1 L3.5,9.1 L5.6,14.7 L0,16.8 L4.2,21 L0,25.2 L5.6,27.3 L3.5,32.9 L9.1,32.9 L9.1,38.5 L14.7,36.4 L16.8,42 L21,37.8 L21,37.8 Z" id="Stroke-10" stroke-linejoin="round"></path>
                        <path d="M20.3,33.6 L21.7,33.6" id="Stroke-12" stroke-linejoin="round"></path>
                        <path d="M20.3,8.4 L21.7,8.4" id="Stroke-14" stroke-linejoin="round"></path>
                    </g>
                </g>
            </g>
        </g>
    </g>
</svg>