<?xml version="1.0" encoding="UTF-8" standalone="no"?>
<svg width="135px" height="96px" viewBox="0 0 135 96" version="1.1" xmlns="http://www.w3.org/2000/svg" xmlns:xlink="http://www.w3.org/1999/xlink">
    <!-- Generator: Sketch 3.6.1 (26313) - http://www.bohemiancoding.com/sketch -->
    <title>ico-ipfs</title>
    <desc>Created with Sketch.</desc>
    <defs>
        <path id="path-1" d="M3.51108696,3.51496474 L3.51108696,0.149580128 L0.14158913,0.149580128 L0.14158913,3.51496474 L3.51108696,3.51496474 L3.51108696,3.51496474 Z"></path>
        <path id="path-3" d="M3.51108696,3.40745192 L3.51108696,0.0420673077 L0.14158913,0.0420673077 L0.14158913,3.40745192 L3.51108696,3.40745192 L3.51108696,3.40745192 Z"></path>
    </defs>
    <g id="Icons" stroke="none" stroke-width="1" fill="none" fill-rule="evenodd">
        <g id="icons-copy" transform="translate(-1189.000000, -78.000000)">
            <g id="ico-ipfs" transform="translate(1189.000000, 78.000000)">
                <g>
                    <g id="Group-4" transform="translate(0.000000, 28.000000)">
                        <path d="M67.305603,65.9829588 C102.651827,60.1853871 132.751418,45.7032684 134.535798,33.6303135 C136.319785,21.5600126 106.228358,7.07651465 67.305603,1.27766829 C28.3914044,-4.51990336 -1.7089713,9.95966592 0.0754082664,33.6303135 C1.85939558,57.2957577 31.9516074,71.7818051 67.305603,65.9829588 Z" id="Fill-1-Copy-6" fill="#EEF1F6"></path>
                        <path d="M63.5000022,45.9942285 C76.8915884,43.7977087 88.2953885,38.3108838 88.9714345,33.7368163 C89.6473319,29.1637542 78.2466248,23.6764068 63.5000022,21.479404 C48.7566212,19.2828842 37.3525239,24.7687432 38.0285698,33.7368163 C38.7044672,42.7029179 50.1054715,48.1912313 63.5000022,45.9942285 Z" id="Fill-1-Copy-8" fill="#CFD7E6"></path>
                    </g>
                    <g id="Group-7" transform="translate(35.000000, 0.000000)">
                        <g id="Page-1">
                            <g id="Group-21">
                                <path d="M1.41324058,10.5448718 C1.41324058,9.92788462 1.85016087,9.16910256 2.38412464,8.85903846 L14.5583638,1.78455128 C15.0923275,1.47426282 15.9670667,1.47291667 16.501929,1.78141026 L28.6725739,8.79935897 C29.2076609,9.10785256 29.6452551,9.8650641 29.6452551,10.4820513 L29.6452551,24.5179487 C29.6452551,25.1349359 29.2076609,25.8921474 28.6725739,26.200641 L16.501929,33.2185897 C15.9670667,33.5270833 15.0907551,33.5286538 14.5547696,33.2219551 L2.38771884,26.2603205 C1.85173333,25.9536218 1.41324058,25.1977564 1.41324058,24.5807692 L1.41324058,10.5448718 L1.41324058,10.5448718 Z" id="Stroke-19" stroke="#4D6892" stroke-width="1.57499996" fill="#4BA2F2"></path>
                                <path d="M15.5292703,33.4294872 L15.5292703,17.275641 L15.5292703,17.5 L1.68485,9.59875 L15.2484732,17.6541346 L29.4006471,9.57721154" id="Stroke-1" stroke="#4D6892" stroke-width="1.12499997"></path>
                                <path d="M17.2140529,17.5 C17.2140529,18.4292949 16.4597196,19.1826923 15.5292703,19.1826923 C14.598821,19.1826923 13.8444877,18.4292949 13.8444877,17.5 C13.8444877,16.5707051 14.598821,15.8173077 15.5292703,15.8173077 C16.4597196,15.8173077 17.2140529,16.5707051 17.2140529,17.5" id="Fill-3" fill="#4D6892"></path>
                                <path d="M17.2140529,33.3173077 C17.2140529,34.2466026 16.4597196,35 15.5292703,35 C14.598821,35 13.8444877,34.2466026 13.8444877,33.3173077 C13.8444877,32.3880128 14.598821,31.6346154 15.5292703,31.6346154 C16.4597196,31.6346154 17.2140529,32.3880128 17.2140529,33.3173077" id="Fill-5" fill="#4D6892"></path>
                                <path d="M17.2971014,1.68269231 C17.2971014,2.61198718 16.5427681,3.36538462 15.6123188,3.36538462 C14.6818696,3.36538462 13.9275362,2.61198718 13.9275362,1.68269231 C13.9275362,0.753397436 14.6818696,0 15.6123188,0 C16.5427681,0 17.2971014,0.753397436 17.2971014,1.68269231" id="Fill-7" fill="#4D6892"></path>
                                <g id="Group-11" transform="translate(27.405797, 23.782051)">
                                    <mask id="mask-2" fill="white">
                                        <use xlink:href="#path-1"></use>
                                    </mask>
                                    <g id="Clip-10"></g>
                                    <path d="M3.51115435,1.83227244 C3.51115435,2.76156731 2.75682101,3.51496474 1.82637174,3.51496474 C0.895922464,3.51496474 0.14158913,2.76156731 0.14158913,1.83227244 C0.14158913,0.902977564 0.895922464,0.149580128 1.82637174,0.149580128 C2.75682101,0.149580128 3.51115435,0.902977564 3.51115435,1.83227244" id="Fill-9" fill="#4D6892" mask="url(#mask-2)"></path>
                                </g>
                                <path d="M3.36956522,25.6143237 C3.36956522,26.5436186 2.61523188,27.297016 1.68478261,27.297016 C0.754333333,27.297016 0,26.5436186 0,25.6143237 C0,24.6850288 0.754333333,23.9316314 1.68478261,23.9316314 C2.61523188,23.9316314 3.36956522,24.6850288 3.36956522,25.6143237" id="Fill-12" fill="#4D6892"></path>
                                <g id="Group-16" transform="translate(27.405797, 7.852564)">
                                    <mask id="mask-4" fill="white">
                                        <use xlink:href="#path-3"></use>
                                    </mask>
                                    <g id="Clip-15"></g>
                                    <path d="M3.51115435,1.72475962 C3.51115435,2.65405449 2.75682101,3.40745192 1.82637174,3.40745192 C0.895922464,3.40745192 0.14158913,2.65405449 0.14158913,1.72475962 C0.14158913,0.795464744 0.895922464,0.0420673077 1.82637174,0.0420673077 C2.75682101,0.0420673077 3.51115435,0.795464744 3.51115435,1.72475962" id="Fill-14" fill="#4D6892" mask="url(#mask-4)"></path>
                                </g>
                                <path d="M3.54729855,9.57732372 C3.54729855,10.5066186 2.79296522,11.260016 1.86251594,11.260016 C0.932066667,11.260016 0.177733333,10.5066186 0.177733333,9.57732372 C0.177733333,8.64802885 0.932066667,7.89463141 1.86251594,7.89463141 C2.79296522,7.89463141 3.54729855,8.64802885 3.54729855,9.57732372" id="Fill-17" fill="#4D6892"></path>
                            </g>
                        </g>
                        <path d="M29,31.128 L30.248,31.128 L30.248,36.72 L29,36.72 L29,31.128 Z M36.476,31.628 C36.868002,31.961335 37.064,32.4733299 37.064,33.164 C37.064,33.8546701 36.8626687,34.3599984 36.46,34.68 C36.0573313,35.0000016 35.4426708,35.16 34.616,35.16 L33.872,35.16 L33.872,36.72 L32.624,36.72 L32.624,31.128 L34.6,31.128 C35.458671,31.128 36.083998,31.294665 36.476,31.628 L36.476,31.628 Z M35.56,33.828 C35.7093341,33.6599992 35.784,33.4146683 35.784,33.092 C35.784,32.7693317 35.6866676,32.5400007 35.492,32.404 C35.2973324,32.2679993 34.9946687,32.2 34.584,32.2 L33.872,32.2 L33.872,34.08 L34.712,34.08 C35.1280021,34.08 35.4106659,33.9960008 35.56,33.828 L35.56,33.828 Z M42.88,31.128 L42.88,32.224 L40.288,32.224 L40.288,33.432 L42.752,33.432 L42.752,34.528 L40.288,34.528 L40.288,36.72 L39.04,36.72 L39.04,31.128 L42.88,31.128 Z M46.244,32.244 C46.1239994,32.3426672 46.064,32.4733325 46.064,32.636 C46.064,32.7986675 46.1373326,32.9279995 46.284,33.024 C46.4306674,33.1200005 46.7693307,33.2333327 47.3,33.364 C47.8306693,33.4946673 48.2426652,33.6906654 48.536,33.952 C48.8293348,34.2133346 48.976,34.5946642 48.976,35.096 C48.976,35.5973358 48.7880019,36.0039984 48.412,36.316 C48.0359981,36.6280016 47.5413364,36.784 46.928,36.784 C46.0426622,36.784 45.2453369,36.4560033 44.536,35.8 L45.28,34.888 C45.8826697,35.4160026 46.4399974,35.68 46.952,35.68 C47.1813345,35.68 47.3613327,35.6306672 47.492,35.532 C47.6226673,35.4333328 47.688,35.3000008 47.688,35.132 C47.688,34.9639992 47.6186674,34.8306672 47.48,34.732 C47.3413326,34.6333328 47.0666687,34.5333338 46.656,34.432 C46.0053301,34.2773326 45.5293348,34.0760012 45.228,33.828 C44.9266652,33.5799988 44.776,33.1906693 44.776,32.66 C44.776,32.1293307 44.9666648,31.7200014 45.348,31.432 C45.7293352,31.1439986 46.2053305,31 46.776,31 C47.1493352,31 47.5226648,31.0639994 47.896,31.192 C48.2693352,31.3200006 48.5946653,31.5013322 48.872,31.736 L48.24,32.648 C47.7546642,32.2799982 47.2533359,32.096 46.736,32.096 C46.527999,32.096 46.3640006,32.1453328 46.244,32.244 L46.244,32.244 Z" id="IPFS" fill="#4D6892"></path>
                        <g id="Page-1" transform="translate(11.000000, 19.000000)">
                            <g id="Group-33">
                                <path d="M50,4 C50,6.209 48.209,8 46,8 C43.791,8 42,6.209 42,4 C42,1.791 43.791,0 46,0 C48.209,0 50,1.791 50,4 L50,4 Z" id="Fill-2" fill="#FFFFFF"></path>
                                <path d="M0,38 C0,35.791 1.791,34 4,34 C6.209,34 8,35.791 8,38 C8,40.209 6.209,42 4,42 C1.791,42 0,40.209 0,38" id="Fill-4" fill="#FFFFFF"></path>
                                <path d="M36,52 L44,52 L44,48 L36,48 L36,52 Z" id="Fill-17" fill="#FFFFFF"></path>
                                <path d="M56,27 C56,25.343 54.656,24 53,24 L27,24 C25.344,24 24,25.343 24,27 L24,45 C24,46.657 25.344,48 27,48 L53,48 C54.656,48 56,46.657 56,45 L56,27 Z" id="Fill-18" fill="#FFFFFF"></path>
                                <path d="M56,27 C56,25.343 54.656,24 53,24 L27,24 C25.344,24 24,25.343 24,27 L24,45 C24,46.657 25.344,48 27,48 L53,48 C54.656,48 56,46.657 56,45 L56,27 L56,27 Z" id="Stroke-19" stroke="#4D6892" stroke-width="2"></path>
                                <path d="M44,48 L44,52" id="Stroke-20" stroke="#4D6892" stroke-width="2"></path>
                                <path d="M36,52 L36,48" id="Stroke-21" stroke="#4D6892" stroke-width="2"></path>
                                <path d="M27,45 L53,45 L53,27 L27,27 L27,45 Z" id="Fill-22" fill="#FFB957"></path>
                                <path d="M39,42 L41,42" id="Stroke-23" stroke="#4D6892" stroke-width="2"></path>
                                <path d="M35,42 L37,42" id="Stroke-24" stroke="#4D6892" stroke-width="2"></path>
                                <path d="M43,42 L45,42" id="Stroke-25" stroke="#4D6892" stroke-width="2"></path>
                                <path d="M47,52 L33,52" id="Stroke-26" stroke="#4D6892" stroke-width="2"></path>
                                <path d="M46,11 L46,21" id="Stroke-27" stroke="#4D6892" stroke-width="2"></path>
                                <path d="M29,4 L39,4" id="Stroke-28" stroke="#4D6892" stroke-width="2"></path>
                                <path d="M50,4 C50,6.209 48.209,8 46,8 C43.791,8 42,6.209 42,4 C42,1.791 43.791,0 46,0 C48.209,0 50,1.791 50,4 L50,4 Z" id="Stroke-29" stroke="#4D6892" stroke-width="2"></path>
                                <path d="M4,31 L4,21" id="Stroke-30" stroke="#4D6892" stroke-width="2"></path>
                                <path d="M21,38 L11,38" id="Stroke-31" stroke="#4D6892" stroke-width="2"></path>
                                <path d="M0,38 C0,35.791 1.791,34 4,34 C6.209,34 8,35.791 8,38 C8,40.209 6.209,42 4,42 C1.791,42 0,40.209 0,38 L0,38 Z" id="Stroke-32" stroke="#4D6892" stroke-width="2"></path>
                            </g>
                        </g>
                    </g>
                </g>
            </g>
        </g>
    </g>
</svg>