<?xml version="1.0" encoding="UTF-8" standalone="no"?>
<svg width="135px" height="88px" viewBox="0 0 135 88" version="1.1" xmlns="http://www.w3.org/2000/svg" xmlns:xlink="http://www.w3.org/1999/xlink">
    <!-- Generator: Sketch 3.6.1 (26313) - http://www.bohemiancoding.com/sketch -->
    <title>ico-sale-2</title>
    <desc>Created with Sketch.</desc>
    <defs></defs>
    <g id="Icons" stroke="none" stroke-width="1" fill="none" fill-rule="evenodd">
        <g id="icons-copy" transform="translate(-909.000000, -309.000000)">
            <g id="ico-sale-2" transform="translate(909.000000, 310.000000)">
                <g id="Group-4" transform="translate(0.000000, 19.000000)">
                    <path d="M67.305603,65.9829588 C102.651827,60.1853871 132.751418,45.7032684 134.535798,33.6303135 C136.319785,21.5600126 106.228358,7.07651465 67.305603,1.27766829 C28.3914044,-4.51990336 -1.7089713,9.95966592 0.0754082664,33.6303135 C1.85939558,57.2957577 31.9516074,71.7818051 67.305603,65.9829588 Z" id="Fill-1-Copy-6" fill="#EEF1F6"></path>
                    <path d="M63.5000022,45.9942285 C76.8915884,43.7977087 88.2953885,38.3108838 88.9714345,33.7368163 C89.6473319,29.1637542 78.2466248,23.6764068 63.5000022,21.479404 C48.7566212,19.2828842 37.3525239,24.7687432 38.0285698,33.7368163 C38.7044672,42.7029179 50.1054715,48.1912313 63.5000022,45.9942285 Z" id="Fill-1-Copy-8" fill="#CFD7E6"></path>
                </g>
                <g id="Group-3" transform="translate(45.000000, 0.000000)">
                    <g id="Page-1"></g>
                    <path d="M33,30 L59,42 L59,21 L33,21 L33,30 Z" id="Fill-2" fill="#FBB326"></path>
                    <path d="M33,12 L33,21 L59,21 L59,0 L33,12 Z" id="Fill-3" fill="#FFC857"></path>
                    <path d="M25,40 L29,40 L29,44 L25,44" id="Fill-4" fill="#FFFFFF"></path>
                    <path d="M14,36 L17,56 L25,56 L25,36" id="Fill-5" fill="#FBB326"></path>
                    <path d="M11,32 L11,36 L29,36 L29,32" id="Fill-6" fill="#FFFFFF"></path>
                    <path d="M7,16 L3,16 L3,26 L7,26" id="Fill-7" fill="#FFFFFF"></path>
                    <path d="M7,32 L33,32 L33,10 L7,10 L7,32 Z" id="Fill-8" fill="#4BA2F2"></path>
                    <path d="M11,18 L29,18 L29,14 L11,14 L11,18 Z" id="Fill-9" fill="#FFC857"></path>
                    <path d="M59,42 L63,42 L63,0 L59,0 L59,42 Z" id="Fill-10" fill="#FFFFFF"></path>
                    <path d="M7,32 L33,32 L33,10 L7,10 L7,32 Z" id="Stroke-11" stroke="#4D6892" stroke-width="2"></path>
                    <path d="M7,16 L3,16 L3,26 L7,26" id="Stroke-12" stroke="#4D6892" stroke-width="2"></path>
                    <path d="M11,32 L11,36 L29,36 L29,32" id="Stroke-13" stroke="#4D6892" stroke-width="2"></path>
                    <path d="M14,36 L17,56 L25,56 L25,36" id="Stroke-14" stroke="#4D6892" stroke-width="2"></path>
                    <path d="M59,42 L63,42 L63,0 L59,0 L59,42 Z" id="Stroke-15" stroke="#4D6892" stroke-width="2" stroke-linejoin="round"></path>
                    <path d="M33,12 L59,0" id="Stroke-16" stroke="#4D6892" stroke-width="2"></path>
                    <path d="M33,30 L59,42" id="Stroke-17" stroke="#4D6892" stroke-width="2"></path>
                    <path d="M3,21 L0,21" id="Stroke-18" stroke="#4D6892" stroke-width="2"></path>
                    <path d="M11,18 L29,18 L29,14 L11,14 L11,18 Z" id="Stroke-19" stroke="#4D6892" stroke-width="2"></path>
                    <path d="M15,22 L17,22" id="Stroke-20" stroke="#4D6892" stroke-width="2"></path>
                    <path d="M19,22 L21,22" id="Stroke-21" stroke="#4D6892" stroke-width="2"></path>
                    <path d="M23,22 L25,22" id="Stroke-22" stroke="#4D6892" stroke-width="2"></path>
                    <path d="M22,40 L29,40 L29,44 L22,44" id="Stroke-23" stroke="#4D6892" stroke-width="2"></path>
                    <path d="M25,48 L22,48" id="Stroke-24" stroke="#4D6892" stroke-width="2"></path>
                    <path d="M25,52 L22,52" id="Stroke-25" stroke="#4D6892" stroke-width="2"></path>
                </g>
            </g>
        </g>
    </g>
</svg>