<?xml version="1.0" encoding="UTF-8" standalone="no"?>
<svg width="82px" height="87px" viewBox="0 0 82 87" version="1.1" xmlns="http://www.w3.org/2000/svg" xmlns:xlink="http://www.w3.org/1999/xlink">
    <!-- Generator: Sketch 3.6.1 (26313) - http://www.bohemiancoding.com/sketch -->
    <title>Page 1</title>
    <desc>Created with Sketch.</desc>
    <defs></defs>
    <g id="STEEMIT" stroke="none" stroke-width="1" fill="none" fill-rule="evenodd">
        <g id="STEEM/steem_logo_final" transform="translate(-108.000000, -77.000000)">
            <g id="Group-Copy" transform="translate(108.000000, 77.000000)">
                <g id="Page-1">
                    <path d="M11.6877333,9.69587234 C10.8346667,9.27012766 0.0136,18.2144681 0.0136,24.795 C-0.00133333333,33.7893191 12.636,54.1658298 14.764,62.0476596 C16.5952,68.8077447 11.6578667,76.9209574 13.0149333,77.2893191 C14.2544,78.0852766 26.0442667,66.1459149 26.5034667,61.0554894 C27.0952,52.9496809 12.7368,29.3134468 11.5925333,23.2104894 C10.2653333,16.0875957 12.6434667,9.85506383 11.6877333,9.69587234 L11.6877333,9.69587234 Z" id="Fill-1" fill="#A7B8D1"></path>
                    <path d="M38.6965333,0.390574468 C37.6101333,-0.151787234 23.8061333,11.2433617 23.8061333,19.6453404 C23.7912,31.1145319 39.9061333,57.101617 42.6184,67.1436383 C44.9517333,75.7640426 38.6592,86.1114894 40.3802667,86.5742553 C41.9706667,87.5849362 56.9973333,72.3728936 57.5890667,65.8719574 C58.3469333,55.5393191 40.0293333,25.4021489 38.5714667,17.6073191 C36.8802667,8.5463617 39.9061333,0.592340426 38.6965333,0.390574468 L38.6965333,0.390574468 Z" id="Fill-2" fill="#CFD7E6"></path>
                    <path d="M66.5714667,9.69587234 C65.7258667,9.27012766 54.8973333,18.2144681 54.8973333,24.795 C54.8842667,33.7893191 67.5197333,54.1658298 69.6496,62.0476596 C71.4789333,68.8077447 66.5434667,76.9209574 67.8986667,77.2893191 C69.1456,78.0852766 80.9373333,66.1459149 81.3890667,61.0554894 C81.9789333,52.9496809 67.6224,29.3134468 66.4762667,23.2104894 C65.1509333,16.0875957 67.5272,9.85506383 66.5714667,9.69587234 L66.5714667,9.69587234 Z" id="Fill-3" fill="#A7B8D1"></path>
                </g>
            </g>
        </g>
    </g>
</svg>