<?xml version="1.0" encoding="UTF-8" standalone="no"?>
<svg width="320px" height="64px" viewBox="0 0 320 64" version="1.1" xmlns="http://www.w3.org/2000/svg" xmlns:xlink="http://www.w3.org/1999/xlink">
    <!-- Generator: Sketch 3.7.2 (28276) - http://www.bohemiancoding.com/sketch -->
    <title>Group</title>
    <desc>Created with Sketch.</desc>
    <defs></defs>
    <g id="ico-frontpage" stroke="none" stroke-width="1" fill="none" fill-rule="evenodd">
        <g id="Artboard-18" transform="translate(-36.000000, -25.000000)">
            <g id="Group" transform="translate(36.000000, 26.000000)">
                <g id="Group-2" transform="translate(0.000000, 12.000000)" fill="#4D6892">
                    <path d="M105,34 L97,34 C96.448,34 96,33.552 96,33 C96,32.448 96.448,32 97,32 L105,32 C105.552,32 106,32.448 106,33 C106,33.552 105.552,34 105,34" id="Fill-165"></path>
                    <path d="M108,21 C108,20.45 108.45,20 109,20 C109.55,20 110,20.45 110,21 C110,21.55 109.55,22 109,22 C108.45,22 108,21.55 108,21 M112,21 C112,20.45 112.45,20 113,20 C113.55,20 114,20.45 114,21 C114,21.55 113.55,22 113,22 C112.45,22 112,21.55 112,21 M116,21 C116,20.45 116.45,20 117,20 C117.55,20 118,20.45 118,21 C118,21.55 117.55,22 117,22 C116.45,22 116,21.55 116,21 M120,21 C120,20.45 120.45,20 121,20 C121.55,20 122,20.45 122,21 C122,21.55 121.55,22 121,22 C120.45,22 120,21.55 120,21" id="Fill-175"></path>
                    <path d="M32,29 C32,28.45 32.45,28 33,28 C33.55,28 34,28.45 34,29 C34,29.55 33.55,30 33,30 C32.45,30 32,29.55 32,29 M36,29 C36,28.45 36.45,28 37,28 C37.55,28 38,28.45 38,29 C38,29.55 37.55,30 37,30 C36.45,30 36,29.55 36,29 M40,29 C40,28.45 40.45,28 41,28 C41.55,28 42,28.45 42,29 C42,29.55 41.55,30 41,30 C40.45,30 40,29.55 40,29 M44,29 C44,28.45 44.45,28 45,28 C45.55,28 46,28.45 46,29 C46,29.55 45.55,30 45,30 C44.45,30 44,29.55 44,29 M48,29 C48,28.45 48.45,28 49,28 C49.55,28 50,28.45 50,29 C50,29.55 49.55,30 49,30 C48.45,30 48,29.55 48,29" id="Fill-176"></path>
                    <path d="M109,18 L101,18 C100.448,18 100,17.552 100,17 C100,16.448 100.448,16 101,16 L109,16 C109.552,16 110,16.448 110,17 C110,17.552 109.552,18 109,18" id="Fill-189"></path>
                    <path d="M75,10 C74.449,10 74,10.449 74,11 C74,11.551 74.449,12 75,12 C75.551,12 76,11.551 76,11 C76,10.449 75.551,10 75,10 M75,14 C73.346,14 72,12.654 72,11 C72,9.346 73.346,8 75,8 C76.654,8 78,9.346 78,11 C78,12.654 76.654,14 75,14" id="Fill-203"></path>
                    <path d="M25,38 L17,38 C16.448,38 16,37.552 16,37 C16,36.448 16.448,36 17,36 L25,36 C25.552,36 26,36.448 26,37 C26,37.552 25.552,38 25,38" id="Fill-211"></path>
                    <path d="M65,22 L61,22 C60.448,22 60,21.552 60,21 C60,20.448 60.448,20 61,20 L65,20 C65.552,20 66,20.448 66,21 C66,21.552 65.552,22 65,22" id="Fill-212"></path>
                    <path d="M95,2 L93,2 C92.448,2 92,1.552 92,1 C92,0.448 92.448,0 93,0 L95,0 C95.552,0 96,0.448 96,1 C96,1.552 95.552,2 95,2" id="Fill-222"></path>
                    <path d="M79.25,30 L77,30 C76.448,30 76,29.552 76,29 C76,28.448 76.448,28 77,28 L79.25,28 C79.802,28 80.25,28.448 80.25,29 C80.25,29.552 79.802,30 79.25,30" id="Fill-225"></path>
                    <path d="M51.667,2 L49,2 C48.448,2 48,1.552 48,1 C48,0.448 48.448,0 49,0 L51.667,0 C52.219,0 52.667,0.448 52.667,1 C52.667,1.552 52.219,2 51.667,2" id="Fill-227"></path>
                    <path d="M37,10 C35.346,10 34,11.346 34,13 C34,14.654 35.346,16 37,16 C38.654,16 40,14.654 40,13 C40,11.346 38.654,10 37,10 M37,18 C34.243,18 32,15.757 32,13 C32,10.243 34.243,8 37,8 C39.757,8 42,10.243 42,13 C42,15.757 39.757,18 37,18" id="Fill-254"></path>
                    <path d="M5,30 L1,30 C0.448,30 0,29.552 0,29 C0,28.448 0.448,28 1,28 L5,28 C5.552,28 6,28.448 6,29 C6,29.552 5.552,30 5,30" id="Fill-257"></path>
                </g>
                <g id="Group-Copy" transform="translate(159.000000, 0.000000)">
                    <polygon id="Fill-248" fill="#FFC857" points="113.019248 48.8846154 115.007218 52.8752692 119.449925 53.5155385 116.234887 56.6220962 116.993383 61.0091923 113.019248 58.9381538 109.045113 61.0091923 109.803609 56.6220962 106.587368 53.5155385 111.031278 52.8752692"></polygon>
                    <polygon id="Stroke-249" stroke="#4D6892" stroke-width="1.79999989" points="113.019248 48.8846154 115.007218 52.8752692 119.449925 53.5155385 116.234887 56.6220962 116.993383 61.0091923 113.019248 58.9381538 109.045113 61.0091923 109.803609 56.6220962 106.587368 53.5155385 111.031278 52.8752692"></polygon>
                    <path d="M96.9633083,10.7307692 L110.104962,10.7307692" id="Stroke-280" stroke="#4D6892" stroke-width="1.79999989"></path>
                    <path d="M101.775338,5.96153846 L114.916992,5.96153846" id="Stroke-281" stroke="#4D6892" stroke-width="1.79999989"></path>
                    <path d="M95.158797,5.96153846 L99.5377444,5.96153846" id="Stroke-282" stroke="#4D6892" stroke-width="1.79999989"></path>
                    <path d="M90.3467669,10.7307692 L94.7269173,10.7307692" id="Stroke-283" stroke="#4D6892" stroke-width="1.79999989"></path>
                    <path d="M129.508052,11.750015 C127.582037,11.7667073 126.0073,10.2316112 125.989856,8.32213042 C125.974217,6.4120535 127.522488,4.85191888 129.449105,4.83522657 C131.375721,4.81913042 132.951661,6.35422657 132.967902,8.26370734 C132.984142,10.172592 131.43527,11.7339189 129.508052,11.750015 M136.604593,4.00120734 C134.720684,2.16386119 132.23527,1.16888042 129.601285,1.19272657 C126.965496,1.21538042 124.492714,2.2592458 122.642488,4.13236119 C120.799481,5.99772657 119.797977,8.45626504 119.820834,11.0590727 C119.84309,13.714342 120.940232,16.113265 122.694217,17.8629766 C122.688202,17.124342 122.679781,16.2730343 122.670759,15.0455535 C122.662338,14.082765 123.417826,12.9566304 124.385044,12.6537843 C127.72339,11.6367458 131.291511,11.606342 134.645496,12.5679381 C135.620533,12.8534958 136.392864,13.9647266 136.402488,14.9293035 C136.414518,16.3523227 136.422939,17.2733804 136.429556,18.0948804 C136.533014,17.9977073 136.641285,17.9094766 136.740533,17.8087266 C138.583541,15.9445535 139.584443,13.4872073 139.560984,10.8879766 C139.53512,8.28159196 138.486097,5.83318811 136.604593,4.00120734" id="Fill-288" fill="#47B8EC"></path>
                    <path d="M136.740533,17.8087266 C134.884894,19.686015 132.413315,20.7292843 129.773917,20.7519381 C124.330909,20.802015 119.865345,16.4530727 119.820834,11.0590727 C119.797977,8.45626504 120.799481,5.99832273 122.642488,4.13236119 C124.492714,2.2592458 126.965496,1.21597657 129.601285,1.19272657 C132.23527,1.16888042 134.720684,2.16386119 136.603992,4.00120734 C138.485496,5.83318811 139.53512,8.28159196 139.560383,10.8879766 C139.584443,13.4878035 138.582939,15.9445535 136.740533,17.8087266" id="Fill-289" fill="#EEF1F6"></path>
                    <path d="M136.740533,17.8087266 C134.884894,19.686015 132.413315,20.7292843 129.773917,20.7519381 C124.330909,20.802015 119.865345,16.4530727 119.820834,11.0590727 C119.797977,8.45626504 120.799481,5.99832273 122.642488,4.13236119 C124.492714,2.2592458 126.965496,1.21597657 129.601285,1.19272657 C132.23527,1.16888042 134.720684,2.16386119 136.603992,4.00120734 C138.485496,5.83318811 139.53512,8.28159196 139.560383,10.8879766 C139.584443,13.4878035 138.582939,15.9445535 136.740533,17.8087266 L136.740533,17.8087266 Z" id="Stroke-290" stroke="#4D6892" stroke-width="1.79999989"></path>
                    <path d="M134.802776,12.6225522 C131.448792,11.6615522 127.880671,11.6913599 124.542325,12.7083984 C123.575107,13.0112445 122.819619,14.1379753 122.82804,15.1007637 C122.837062,16.3276484 122.845483,17.1795522 122.851498,17.9175907 C123.754355,18.8165907 124.828641,19.5444945 126.025032,20.0434753 L125.98834,15.6623407 L126.025032,20.0434753 C127.225634,20.5454368 128.546536,20.8196676 129.931198,20.8065522 C131.155859,20.7964176 132.341423,20.5567637 133.448792,20.1257445 L133.410295,15.5997445 L133.448792,20.1257445 C134.600671,19.6768407 135.661122,19.0109368 136.586837,18.1494945 C136.58022,17.3285907 136.571799,16.4069368 136.559769,14.9839176 C136.550145,14.0193407 135.777814,12.9081099 134.802776,12.6225522" id="Fill-291" fill="#FFFFFF"></path>
                    <path d="M134.802776,12.6225522 C131.448792,11.6615522 127.880671,11.6913599 124.542325,12.7083984 C123.575107,13.0112445 122.819619,14.1379753 122.82804,15.1007637 C122.837062,16.3276484 122.845483,17.1795522 122.851498,17.9175907 C123.754355,18.8165907 124.828641,19.5444945 126.025032,20.0434753 L125.98834,15.6623407 L126.025032,20.0434753 C127.225634,20.5454368 128.546536,20.8196676 129.931198,20.8065522 C131.155859,20.7964176 132.341423,20.5567637 133.448792,20.1257445 L133.410295,15.5997445 L133.448792,20.1257445 C134.600671,19.6768407 135.661122,19.0109368 136.586837,18.1494945 C136.58022,17.3285907 136.571799,16.4069368 136.559769,14.9839176 C136.550145,14.0193407 135.777814,12.9081099 134.802776,12.6225522 L134.802776,12.6225522 Z" id="Stroke-292" stroke="#4D6892" stroke-width="1.79999989"></path>
                    <path d="M129.896358,4.7693562 C127.969742,4.78604851 126.421471,6.34677928 126.43711,8.25626005 C126.453952,10.1657408 128.02929,11.7014331 129.955305,11.6841447 C131.882523,11.6680485 133.431396,10.1067216 133.415155,8.19783697 C133.398313,6.2883562 131.822975,4.75326005 129.896358,4.7693562" id="Fill-293" fill="#FFFFFF"></path>
                    <path d="M129.896358,4.7693562 C127.969742,4.78604851 126.421471,6.34677928 126.43711,8.25626005 C126.453952,10.1657408 128.02929,11.7014331 129.955305,11.6841447 C131.882523,11.6680485 133.431396,10.1067216 133.415155,8.19783697 C133.398313,6.2883562 131.822975,4.75326005 129.896358,4.7693562 L129.896358,4.7693562 Z" id="Stroke-294" stroke="#4D6892" stroke-width="1.79999989"></path>
                    <path d="M85.597696,35.000015 C83.6716809,35.0167073 82.0969441,33.4816112 82.0795005,31.5721304 C82.0638614,29.6620535 83.612132,28.1019189 85.5387486,28.0852266 C87.4653651,28.0691304 89.041305,29.6042266 89.0575456,31.5137073 C89.0737862,33.422592 87.524914,34.9839189 85.597696,35.000015 M92.6942373,27.2512073 C90.8103275,25.4138612 88.324914,24.4188804 85.690929,24.4427266 C83.0551396,24.4653804 80.5823576,25.5092458 78.732132,27.3823612 C76.889726,29.2477266 75.8876208,31.706265 75.9110794,34.3090727 C75.9327335,36.964342 77.0298764,39.363265 78.7838614,41.1129766 C78.7778463,40.374342 78.7694253,39.5230343 78.7604027,38.2955535 C78.7519817,37.332765 79.5074704,36.2066304 80.4746884,35.9037843 C83.8130343,34.8867458 87.3811546,34.856342 90.7351396,35.8179381 C91.7101772,36.1034958 92.482508,37.2147266 92.492132,38.1793035 C92.5041621,39.6023227 92.5125832,40.5233804 92.5191997,41.3448804 C92.6226584,41.2477073 92.730929,41.1594766 92.8301772,41.0587266 C94.6731847,39.1945535 95.6740869,36.7372073 95.6506283,34.1379766 C95.6247636,31.531592 94.5757411,29.0831881 92.6942373,27.2512073" id="Fill-302" fill="#47B8EC"></path>
                    <path d="M92.8307587,41.0587266 C90.9751196,42.936015 88.5035407,43.9792843 85.8641422,44.0019381 C80.4211347,44.052015 75.9555707,39.7030727 75.9110595,34.3090727 C75.8882023,31.706265 76.8897061,29.2483227 78.7327136,27.3823612 C80.5829392,25.5092458 83.0557211,24.4659766 85.6915106,24.4427266 C88.3254956,24.4188804 90.8109091,25.4138612 92.6942174,27.2512073 C94.5757211,29.0831881 95.6253452,31.531592 95.6512098,34.1379766 C95.6746685,36.7378035 94.6737662,39.1945535 92.8307587,41.0587266" id="Fill-303" fill="#4BA2F2"></path>
                    <path d="M92.8307587,41.0587266 C90.9751196,42.936015 88.5035407,43.9792843 85.8641422,44.0019381 C80.4211347,44.052015 75.9555707,39.7030727 75.9110595,34.3090727 C75.8882023,31.706265 76.8897061,29.2483227 78.7327136,27.3823612 C80.5829392,25.5092458 83.0557211,24.4659766 85.6915106,24.4427266 C88.3254956,24.4188804 90.8109091,25.4138612 92.6942174,27.2512073 C94.5757211,29.0831881 95.6253452,31.531592 95.6512098,34.1379766 C95.6746685,36.7378035 94.6737662,39.1945535 92.8307587,41.0587266 L92.8307587,41.0587266 Z" id="Stroke-304" stroke="#4D6892" stroke-width="1.79999989"></path>
                    <path d="M90.893002,35.8725522 C87.5390171,34.9115522 83.9708968,34.9413599 80.6325509,35.9583984 C79.6653329,36.2612445 78.9098442,37.3879753 78.9182652,38.3507637 C78.9272878,39.5776484 78.9357088,40.4295522 78.9417239,41.1675907 C79.844581,42.0665907 80.9188667,42.7944945 82.1152577,43.2934753 L82.078566,38.9123407 L82.1152577,43.2934753 C83.3158592,43.7954368 84.6367614,44.0696676 86.0214231,44.0565522 C87.2460848,44.0464176 88.4316487,43.8067637 89.5390171,43.3757445 L89.5005208,38.8497445 L89.5390171,43.3757445 C90.6908968,42.9268407 91.7513479,42.2609368 92.6770622,41.3994945 C92.6704457,40.5785907 92.6620246,39.6569368 92.6499945,38.2339176 C92.6403705,37.2693407 91.8680396,36.1581099 90.893002,35.8725522" id="Fill-305" fill="#FFFFFF"></path>
                    <path d="M90.893002,35.8725522 C87.5390171,34.9115522 83.9708968,34.9413599 80.6325509,35.9583984 C79.6653329,36.2612445 78.9098442,37.3879753 78.9182652,38.3507637 C78.9272878,39.5776484 78.9357088,40.4295522 78.9417239,41.1675907 C79.844581,42.0665907 80.9188667,42.7944945 82.1152577,43.2934753 L82.078566,38.9123407 L82.1152577,43.2934753 C83.3158592,43.7954368 84.6367614,44.0696676 86.0214231,44.0565522 C87.2460848,44.0464176 88.4316487,43.8067637 89.5390171,43.3757445 L89.5005208,38.8497445 L89.5390171,43.3757445 C90.6908968,42.9268407 91.7513479,42.2609368 92.6770622,41.3994945 C92.6704457,40.5785907 92.6620246,39.6569368 92.6499945,38.2339176 C92.6403705,37.2693407 91.8680396,36.1581099 90.893002,35.8725522 L90.893002,35.8725522 Z" id="Stroke-306" stroke="#4D6892" stroke-width="1.79999989"></path>
                    <path d="M85.3850798,28.0193562 C83.4584633,28.0360485 81.9101926,29.5967793 81.9258317,31.50626 C81.9426738,33.4157408 83.5174107,34.9514331 85.4440272,34.9341447 C87.3712453,34.9180485 88.9201174,33.3567216 88.9038768,31.447837 C88.8870347,29.5383562 87.3116964,28.00326 85.3850798,28.0193562" id="Fill-307" fill="#FFFFFF"></path>
                    <path d="M85.3850798,28.0193562 C83.4584633,28.0360485 81.9101926,29.5967793 81.9258317,31.50626 C81.9426738,33.4157408 83.5174107,34.9514331 85.4440272,34.9341447 C87.3712453,34.9180485 88.9201174,33.3567216 88.9038768,31.447837 C88.8870347,29.5383562 87.3116964,28.00326 85.3850798,28.0193562 L85.3850798,28.0193562 Z" id="Stroke-308" stroke="#4D6892" stroke-width="1.79999989"></path>
                    <path d="M29.0563428,10.5577073 C27.1303278,10.5743997 25.5555909,9.0393035 25.5381473,7.12982273 C25.5225082,5.2197458 27.0707789,3.65961119 28.9973954,3.64291888 C30.924012,3.62682273 32.4999518,5.16191888 32.5161924,7.07139965 C32.532433,8.98028427 30.9835608,10.5416112 29.0563428,10.5577073 M36.1528842,2.80889965 C34.2689744,0.971553497 31.7835608,-0.0234272722 29.1495759,0.000418881624 C26.5137864,0.0230727278 24.0410045,1.06693811 22.1907789,2.9400535 C20.3477714,4.80541888 19.3462676,7.26395734 19.3697263,9.86676504 C19.3913804,12.5220343 20.4885233,14.9209573 22.2425082,16.6706689 C22.2364932,15.9320343 22.2280721,15.0807266 22.2190496,13.8532458 C22.2106285,12.8904573 22.9661172,11.7643227 23.9333353,11.4614766 C27.2716812,10.4444381 30.8398015,10.4140343 34.1937864,11.3756304 C35.168824,11.6611881 35.9411548,12.7724189 35.9507789,13.7369958 C35.962809,15.160015 35.97123,16.0810727 35.9778466,16.9025727 C36.0813052,16.8053997 36.1895759,16.7171689 36.288824,16.6164189 C38.1318315,14.7522458 39.1327338,12.2948997 39.1092751,9.69566888 C39.0834105,7.08928427 38.0343879,4.64088042 36.1528842,2.80889965" id="Fill-309" fill="#47B8EC"></path>
                    <path d="M36.2894053,16.6164189 C34.4337662,18.4937073 31.9621873,19.5369766 29.3227888,19.5596304 C23.8797813,19.6097073 19.4142174,15.260765 19.3697061,9.86676504 C19.3468489,7.26395734 20.3483527,4.80601504 22.1913602,2.9400535 C24.0415858,1.06693811 26.5143677,0.0236688816 29.1501572,0.000418881624 C31.7841422,-0.0234272722 34.2695557,0.971553497 36.152864,2.80889965 C38.0343677,4.64088042 39.0839918,7.08928427 39.1098565,9.69566888 C39.1333151,12.2954958 38.1324128,14.7522458 36.2894053,16.6164189" id="Fill-310" fill="#FBB326"></path>
                    <path d="M36.2894053,16.6164189 C34.4337662,18.4937073 31.9621873,19.5369766 29.3227888,19.5596304 C23.8797813,19.6097073 19.4142174,15.260765 19.3697061,9.86676504 C19.3468489,7.26395734 20.3483527,4.80601504 22.1913602,2.9400535 C24.0415858,1.06693811 26.5143677,0.0236688816 29.1501572,0.000418881624 C31.7841422,-0.0234272722 34.2695557,0.971553497 36.152864,2.80889965 C38.0343677,4.64088042 39.0839918,7.08928427 39.1098565,9.69566888 C39.1333151,12.2954958 38.1324128,14.7522458 36.2894053,16.6164189 L36.2894053,16.6164189 Z" id="Stroke-311" stroke="#4D6892" stroke-width="1.79999989"></path>
                    <path d="M34.3516487,11.4302445 C30.9976637,10.4692445 27.4295434,10.4990522 24.0911975,11.5160907 C23.1239795,11.8189368 22.3684908,12.9456676 22.3769118,13.9084561 C22.3859344,15.1353407 22.3943554,15.9872445 22.4003705,16.725283 C23.3032276,17.624283 24.3775133,18.3521868 25.5739043,18.8511676 L25.5372126,14.470033 L25.5739043,18.8511676 C26.7745058,19.3531291 28.0954081,19.6273599 29.4800697,19.6142445 C30.7047314,19.6041099 31.8902953,19.3644561 32.9976637,18.9334368 L32.9591675,14.4074368 L32.9976637,18.9334368 C34.1495434,18.484533 35.2099945,17.8186291 36.1357088,16.9571868 C36.1290923,16.136283 36.1206712,15.2146291 36.1086411,13.7916099 C36.0990171,12.827033 35.3266863,11.7158022 34.3516487,11.4302445" id="Fill-312" fill="#FFFFFF"></path>
                    <path d="M34.3516487,11.4302445 C30.9976637,10.4692445 27.4295434,10.4990522 24.0911975,11.5160907 C23.1239795,11.8189368 22.3684908,12.9456676 22.3769118,13.9084561 C22.3859344,15.1353407 22.3943554,15.9872445 22.4003705,16.725283 C23.3032276,17.624283 24.3775133,18.3521868 25.5739043,18.8511676 L25.5372126,14.470033 L25.5739043,18.8511676 C26.7745058,19.3531291 28.0954081,19.6273599 29.4800697,19.6142445 C30.7047314,19.6041099 31.8902953,19.3644561 32.9976637,18.9334368 L32.9591675,14.4074368 L32.9976637,18.9334368 C34.1495434,18.484533 35.2099945,17.8186291 36.1357088,16.9571868 C36.1290923,16.136283 36.1206712,15.2146291 36.1086411,13.7916099 C36.0990171,12.827033 35.3266863,11.7158022 34.3516487,11.4302445 L34.3516487,11.4302445 Z" id="Stroke-313" stroke="#4D6892" stroke-width="1.79999989"></path>
                    <path d="M28.8437265,3.57704851 C26.9171099,3.59374082 25.3688392,5.15447159 25.3844783,7.06395236 C25.4013204,8.97343313 26.9766588,10.5091254 28.9026738,10.491837 C30.8298919,10.4757408 32.3787641,8.91441389 32.3625235,7.00552928 C32.3456814,5.09604851 30.770343,3.56095236 28.8437265,3.57704851" id="Fill-314" fill="#FFFFFF"></path>
                    <path d="M28.8437265,3.57704851 C26.9171099,3.59374082 25.3688392,5.15447159 25.3844783,7.06395236 C25.4013204,8.97343313 26.9766588,10.5091254 28.9026738,10.491837 C30.8298919,10.4757408 32.3787641,8.91441389 32.3625235,7.00552928 C32.3456814,5.09604851 30.770343,3.56095236 28.8437265,3.57704851 L28.8437265,3.57704851 Z" id="Stroke-315" stroke="#4D6892" stroke-width="1.79999989"></path>
                    <path d="M66.6427068,36.9615385 C64.684812,36.9615385 64.684812,33.3846154 62.7269173,33.3846154 C60.7684211,33.3846154 60.7684211,36.9615385 58.8111278,36.9615385 C56.8532331,36.9615385 56.8532331,33.3846154 54.8947368,33.3846154 C52.9368421,33.3846154 52.9368421,36.9615385 50.9789474,36.9615385 C49.0198496,36.9615385 49.0198496,33.3846154 47.0607519,33.3846154 C45.1004511,33.3846154 45.1004511,36.9615385 43.1401504,36.9615385 C41.1798496,36.9615385 41.1798496,33.3846154 39.2189474,33.3846154" id="Stroke-338" stroke="#4D6892" stroke-width="1.79999989"></path>
                    <path d="M62.677594,2.98076923 L62.677594,4.85030769" id="Stroke-339" stroke="#4D6892" stroke-width="1.79999989"></path>
                    <path d="M62.677594,2.98076923 L62.677594,4.85030769" id="Stroke-340" stroke="#4D6892" stroke-width="1.79999989"></path>
                    <path d="M56.6625564,6.55769231 L58.2968421,7.49186538" id="Stroke-341" stroke="#4D6892" stroke-width="1.79999989"></path>
                    <path d="M56.6625564,13.454 L58.2968421,12.5192308" id="Stroke-342" stroke="#4D6892" stroke-width="1.79999989"></path>
                    <path d="M62.677594,16.7739808 L62.677594,14.9038462" id="Stroke-343" stroke="#4D6892" stroke-width="1.79999989"></path>
                    <path d="M68.522406,13.4534038 L66.8881203,12.5192308" id="Stroke-344" stroke="#4D6892" stroke-width="1.79999989"></path>
                    <path d="M68.522406,6.55769231 L66.8881203,7.49425" id="Stroke-345" stroke="#4D6892" stroke-width="1.79999989"></path>
                    <path d="M143.880602,25.7723269 C143.880602,26.1520769 144.190977,26.4602885 144.574135,26.4602885 L145.917895,26.4602885 L145.917895,29.0380577 L149.209323,26.4602885 L153.593083,26.4602885 C153.976241,26.4602885 154.286617,26.1520769 154.286617,25.7723269 L154.286617,19.7642885 C154.286617,19.3851346 153.976241,19.0769231 153.593083,19.0769231 L144.574135,19.0769231 C144.190977,19.0769231 143.880602,19.3851346 143.880602,19.7642885 L143.880602,25.7723269 L143.880602,25.7723269 Z" id="Stroke-346" stroke="#4D6892" stroke-width="1.79999989"></path>
                    <path d="M149.294135,19.1204423 L149.294135,14.9950577 C149.294135,14.6147115 149.604511,14.3076923 149.987669,14.3076923 L159.006617,14.3076923 C159.389774,14.3076923 159.70015,14.6147115 159.70015,14.9950577 L159.70015,21.0030962 C159.70015,21.3834423 159.389774,21.6910577 159.006617,21.6910577 L157.662857,21.6910577 L157.662857,24.2694231 L154.370827,21.6910577" id="Stroke-347" stroke="#4D6892" stroke-width="1.79999989"></path>
                    <path d="M12.7425564,40.0412692 C12.7425564,40.4555962 12.4021053,40.7918269 11.9840602,40.7918269 L0.879097744,40.7918269 C0.460451128,40.7918269 0.121203008,40.4555962 0.121203008,40.0412692 L0.121203008,28.7709808 C0.121203008,28.3554615 0.460451128,28.0192308 0.879097744,28.0192308 L11.9840602,28.0192308 C12.4021053,28.0192308 12.7425564,28.3554615 12.7425564,28.7709808 L12.7425564,40.0412692 L12.7425564,40.0412692 Z" id="Stroke-364" stroke="#4D6892" stroke-width="1.79999989"></path>
                    <path d="M3.73022556,29.8899615 L3.73022556,25.1934615 C3.73022556,24.7785385 4.06887218,24.4423077 4.4881203,24.4423077 L8.46827068,24.4423077 C8.8875188,24.4423077 9.22676692,24.7785385 9.22676692,25.1934615 L9.22676692,29.8899615" id="Stroke-365" stroke="#4D6892" stroke-width="1.79999989"></path>
                    <path d="M34.4069173,59.6153846 L37.8757895,59.6153846" id="Stroke-373" stroke="#4D6892" stroke-width="1.79999989"></path>
                    <path d="M32.602406,56.6310385 L34.3365414,53.6538462" id="Stroke-374" stroke="#4D6892" stroke-width="1.79999989"></path>
                    <path d="M28.3209023,56.6316346 L26.5873684,53.6538462" id="Stroke-375" stroke="#4D6892" stroke-width="1.79999989"></path>
                    <path d="M27.0499248,60.2115385 L23.5798496,60.2115385" id="Stroke-376" stroke="#4D6892" stroke-width="1.79999989"></path>
                    <path d="M99.6700752,54.8461538 L98.7678195,54.8461538" id="Stroke-382" stroke="#4D6892" stroke-width="1.79999989"></path>
                    <path d="M96.6818045,54.8461538 L60.2715789,54.8461538" id="Stroke-383" stroke="#4D6892" stroke-width="1.79999989" stroke-dasharray="1.862399943923947,1.862399943923947"></path>
                    <path d="M59.3693233,54.8461538 L58.4670677,54.8461538" id="Stroke-384" stroke="#4D6892" stroke-width="1.79999989"></path>
                    <path d="M142.677594,48.2884615 L142.677594,50.0977885" id="Stroke-385" stroke="#4D6892" stroke-width="1.79999989"></path>
                    <path d="M142.677594,48.2884615 L142.677594,50.0977885" id="Stroke-386" stroke="#4D6892" stroke-width="1.79999989"></path>
                    <path d="M136.662556,51.2692308 L138.244511,52.1735962" id="Stroke-387" stroke="#4D6892" stroke-width="1.79999989"></path>
                    <path d="M136.662556,58.1357308 L138.244511,57.2307692" id="Stroke-388" stroke="#4D6892" stroke-width="1.79999989"></path>
                    <path d="M142.678195,61.4253077 L142.677594,59.6153846" id="Stroke-389" stroke="#4D6892" stroke-width="1.79999989"></path>
                    <path d="M148.470075,58.1345385 L146.88812,57.2307692" id="Stroke-390" stroke="#4D6892" stroke-width="1.79999989"></path>
                    <path d="M148.470075,51.2692308 L146.88812,52.1753846" id="Stroke-391" stroke="#4D6892" stroke-width="1.79999989"></path>
                </g>
            </g>
        </g>
    </g>
</svg>