<?xml version="1.0" encoding="UTF-8" standalone="no"?>
<svg width="290px" height="87px" viewBox="0 0 290 87" version="1.1" xmlns="http://www.w3.org/2000/svg" xmlns:xlink="http://www.w3.org/1999/xlink">
    <!-- Generator: Sketch 3.7.2 (28276) - http://www.bohemiancoding.com/sketch -->
    <title>Group 4</title>
    <desc>Created with Sketch.</desc>
    <defs>
        <rect id="path-1" x="0" y="0" width="29.9928826" height="30.0740741" rx="2.99249996"></rect>
        <filter x="-50%" y="-50%" width="200%" height="200%" filterUnits="objectBoundingBox" id="filter-2">
            <feOffset dx="0" dy="1" in="SourceAlpha" result="shadowOffsetOuter1"></feOffset>
            <feGaussianBlur stdDeviation="0.5" in="shadowOffsetOuter1" result="shadowBlurOuter1"></feGaussianBlur>
            <feComposite in="shadowBlurOuter1" in2="SourceAlpha" operator="out" result="shadowBlurOuter1"></feComposite>
            <feColorMatrix values="0 0 0 0 0.301960784   0 0 0 0 0.407843137   0 0 0 0 0.57254902  0 0 0 0.204766757 0" type="matrix" in="shadowBlurOuter1"></feColorMatrix>
        </filter>
        <mask id="mask-3" maskContentUnits="userSpaceOnUse" maskUnits="objectBoundingBox" x="0" y="0" width="29.9928826" height="30.0740741" fill="white">
            <use xlink:href="#path-1"></use>
        </mask>
    </defs>
    <g id="adverts" stroke="none" stroke-width="1" fill="none" fill-rule="evenodd">
        <g id="Group-4">
            <g id="Page-1" style="mix-blend-mode: multiply;" transform="translate(0.000000, 5.370370)">
                <path id="Stroke-16" stroke="#484F59" stroke-width="1.20000002"></path>
                <path id="Stroke-17" stroke="#484F59" stroke-width="1.20000002" stroke-dasharray="1.258000011116266,1.258000011116266"></path>
                <path id="Stroke-18" stroke="#484F59" stroke-width="1.20000002"></path>
                <path id="Stroke-19" stroke="#484F59" stroke-width="1.20000002"></path>
                <path id="Stroke-20" stroke="#484F59" stroke-width="1.20000002"></path>
                <path id="Stroke-21" stroke="#484F59" stroke-width="1.20000002"></path>
                <path id="Stroke-22" stroke="#484F59" stroke-width="1.20000002"></path>
                <path d="M79.3585214,7.15977778 L80.5200726,7.83085926" id="Stroke-23" stroke="#484F59" stroke-width="1.20000002"></path>
                <path d="M79.3585214,12.0564385 L80.5200726,11.3840681" id="Stroke-24" stroke="#484F59" stroke-width="1.20000002"></path>
                <path id="Stroke-25" stroke="#484F59" stroke-width="1.20000002"></path>
                <path d="M87.8234818,12.0564385 L86.6615017,11.3840681" id="Stroke-26" stroke="#484F59" stroke-width="1.20000002"></path>
                <path d="M87.8234818,7.15977778 L86.6623593,7.83128889" id="Stroke-27" stroke="#484F59" stroke-width="1.20000002"></path>
                <polygon id="Fill-28" fill="#4BA2F2" points="78.974339 48.5571704 120.779895 48.5571704 120.779895 27.7880148 78.974339 27.7880148"></polygon>
                <polygon id="Stroke-29" stroke="#484F59" stroke-width="1.20000002" points="78.974339 48.5571704 120.779895 48.5571704 120.779895 27.7880148 78.974339 27.7880148"></polygon>
                <polygon id="Fill-30" fill="#F7FAFB" points="78.974339 52.8710815 120.765745 52.8710815 120.765745 48.2869333 78.974339 48.2869333"></polygon>
                <polygon id="Stroke-31" stroke="#484F59" stroke-width="1.20000002" points="78.974339 52.8710815 120.765745 52.8710815 120.765745 48.2869333 78.974339 48.2869333"></polygon>
                <polygon id="Fill-32" fill="#FFFFFF" points="102.100786 38.376323 99.9058876 39.6450193 97.7118463 40.9145748 97.7118463 38.376323 97.7118463 35.8367822 99.9058876 37.1059081"></polygon>
                <polygon id="Stroke-33" stroke="#484F59" stroke-width="1.20000002" points="102.100786 38.376323 99.9058876 39.6450193 97.7118463 40.9145748 97.7118463 38.376323 97.7118463 35.8367822 99.9058876 37.1059081"></polygon>
                <path id="Stroke-34" stroke="#484F59" stroke-width="1.20000002"></path>
                <path id="Stroke-35" stroke="#484F59" stroke-width="1.20000002"></path>
                <path id="Stroke-36" stroke="#484F59" stroke-width="1.20000002"></path>
                <path id="Stroke-37" stroke="#484F59" stroke-width="1.20000002"></path>
                <polygon id="Fill-38" fill="#F8F9FC" points="72.6493085 28.3196385 72.6493085 16.3621867 72.6493085 10.3675644 68.361988 6.07083852 56.4021689 6.07083852 56.4021689 10.5093422 56.4021689 16.3621867 56.4021689 28.3196385"></polygon>
                <polygon id="Stroke-39" stroke="#484F59" stroke-width="1.20000002" points="72.6493085 28.3196385 72.6493085 16.3621867 72.6493085 10.3675644 68.361988 6.07083852 56.4021689 6.07083852 56.4021689 10.5093422 56.4021689 16.3621867 56.4021689 28.3196385"></polygon>
                <polygon id="Fill-40" fill="#88D8FB" points="68.3619452 10.3675215 72.6492657 10.3675215 68.3619452 6.07079556"></polygon>
                <polygon id="Stroke-41" stroke="#484F59" stroke-width="1.20000002" stroke-linejoin="bevel" points="68.3619452 10.3675215 72.6492657 10.3675215 68.3619452 6.07079556"></polygon>
                <polygon id="Fill-42" fill="#FFC857" points="77.8268087 24.6377985 75.0320537 24.6377985 75.0320537 15.4935615 71.9200053 15.4935615 68.5283956 15.4935615 68.5283956 24.6377985 65.7306392 24.6377985 71.777652 32.6503911"></polygon>
                <polygon id="Stroke-43" stroke="#484F59" stroke-width="1.20000002" points="77.8268087 24.6377985 75.0320537 24.6377985 75.0320537 15.4935615 71.9200053 15.4935615 68.5283956 15.4935615 68.5283956 24.6377985 65.7306392 24.6377985 71.777652 32.6503911"></polygon>
                <polygon id="Fill-44" fill="#FFFFFF" points="56.1613689 52.8710815 75.6303234 52.8710815 75.6303234 36.4712593 56.1613689 36.4712593"></polygon>
                <polygon id="Stroke-45" stroke="#424953" stroke-width="1.20000002" points="56.1613689 52.8710815 75.6303234 52.8710815 75.6303234 36.4712593 56.1613689 36.4712593"></polygon>
                <polygon id="Fill-46" fill="#FFC857" points="56.1613689 40.7340444 75.6303234 40.7340444 75.6303234 36.4716889 56.1613689 36.4716889"></polygon>
                <polygon id="Stroke-47" stroke="#424953" stroke-width="1.20000002" points="56.1613689 40.7340444 75.6303234 40.7340444 75.6303234 36.4716889 56.1613689 36.4716889"></polygon>
                <polygon id="Fill-48" fill="#424953" points="58.7794687 44.3150074 60.2025726 44.3150074 60.2025726 42.888637 58.7794687 42.888637"></polygon>
                <polygon id="Fill-49" fill="#424953" points="60.9147678 44.3150074 62.3378718 44.3150074 62.3378718 42.888637 60.9147678 42.888637"></polygon>
                <polygon id="Fill-50" fill="#424953" points="63.0492094 44.3150074 64.4723134 44.3150074 64.4723134 42.888637 63.0492094 42.888637"></polygon>
                <polygon id="Fill-51" fill="#424953" points="65.1849373 44.3150074 66.6080413 44.3150074 66.6080413 42.888637 65.1849373 42.888637"></polygon>
                <polygon id="Fill-52" fill="#424953" points="67.3193789 44.3150074 68.7429117 44.3150074 68.7429117 42.888637 67.3193789 42.888637"></polygon>
                <polygon id="Fill-53" fill="#424953" points="69.4546781 44.3150074 70.8777821 44.3150074 70.8777821 42.888637 69.4546781 42.888637"></polygon>
                <polygon id="Fill-54" fill="#424953" points="71.5895484 44.3150074 73.0126524 44.3150074 73.0126524 42.888637 71.5895484 42.888637"></polygon>
                <polygon id="Fill-55" fill="#424953" points="58.7794687 46.4541333 60.2025726 46.4541333 60.2025726 45.0281926 58.7794687 45.0281926"></polygon>
                <polygon id="Fill-56" fill="#424953" points="60.9147678 46.4541333 62.3378718 46.4541333 62.3378718 45.0281926 60.9147678 45.0281926"></polygon>
                <polygon id="Fill-57" fill="#424953" points="63.0492094 46.4541333 64.4723134 46.4541333 64.4723134 45.0281926 63.0492094 45.0281926"></polygon>
                <polygon id="Fill-58" fill="#424953" points="65.1849373 46.4541333 66.6080413 46.4541333 66.6080413 45.0281926 65.1849373 45.0281926"></polygon>
                <polygon id="Fill-59" fill="#424953" points="67.3193789 46.4541333 68.7429117 46.4541333 68.7429117 45.0281926 67.3193789 45.0281926"></polygon>
                <polygon id="Fill-60" fill="#424953" points="69.4546781 46.4541333 70.8777821 46.4541333 70.8777821 45.0281926 69.4546781 45.0281926"></polygon>
                <polygon id="Fill-61" fill="#424953" points="71.5895484 46.4541333 73.0126524 46.4541333 73.0126524 45.0281926 71.5895484 45.0281926"></polygon>
                <polygon id="Fill-62" fill="#424953" points="58.7794687 48.5936889 60.2025726 48.5936889 60.2025726 47.1677481 58.7794687 47.1677481"></polygon>
                <polygon id="Fill-63" fill="#424953" points="60.9147678 48.5936889 62.3378718 48.5936889 62.3378718 47.1677481 60.9147678 47.1677481"></polygon>
                <polygon id="Fill-64" fill="#424953" points="63.0492094 48.5936889 64.4723134 48.5936889 64.4723134 47.1677481 63.0492094 47.1677481"></polygon>
                <polygon id="Fill-65" fill="#424953" points="65.1849373 48.5936889 66.6080413 48.5936889 66.6080413 47.1677481 65.1849373 47.1677481"></polygon>
                <polygon id="Fill-66" fill="#424953" points="67.3193789 48.5936889 68.7429117 48.5936889 68.7429117 47.1677481 67.3193789 47.1677481"></polygon>
                <polygon id="Fill-67" fill="#424953" points="69.4546781 48.5936889 70.8777821 48.5936889 70.8777821 47.1677481 69.4546781 47.1677481"></polygon>
                <polygon id="Fill-68" fill="#424953" points="71.5895484 48.5936889 73.0126524 48.5936889 73.0126524 47.1677481 71.5895484 47.1677481"></polygon>
                <polygon id="Fill-69" fill="#424953" points="58.7794687 50.7323852 60.2025726 50.7323852 60.2025726 49.3064444 58.7794687 49.3064444"></polygon>
                <polygon id="Fill-70" fill="#424953" points="60.9147678 50.7323852 62.3378718 50.7323852 62.3378718 49.3064444 60.9147678 49.3064444"></polygon>
                <polygon id="Fill-71" fill="#424953" points="63.0492094 50.7323852 64.4723134 50.7323852 64.4723134 49.3064444 63.0492094 49.3064444"></polygon>
                <polygon id="Fill-72" fill="#424953" points="65.1849373 50.7323852 66.6080413 50.7323852 66.6080413 49.3064444 65.1849373 49.3064444"></polygon>
                <polygon id="Fill-73" fill="#424953" points="67.3193789 50.7323852 68.7429117 50.7323852 68.7429117 49.3064444 67.3193789 49.3064444"></polygon>
                <polygon id="Fill-74" fill="#424953" points="69.4546781 50.7323852 70.8777821 50.7323852 70.8777821 49.3064444 69.4546781 49.3064444"></polygon>
                <polygon id="Fill-75" fill="#424953" points="71.5895484 50.7323852 73.0126524 50.7323852 73.0126524 49.3064444 71.5895484 49.3064444"></polygon>
                <polygon id="Stroke-76" stroke="#424953" stroke-width="1.20000002" points="59.4014272 34.3311022 59.4014272 38.6097837 59.4014272 37.1842726 59.4014272 35.7579022"></polygon>
                <polygon id="Stroke-77" stroke="#424953" stroke-width="1.20000002" points="72.2118928 34.3311022 72.2118928 38.6097837 72.2118928 37.1842726 72.2118928 35.7579022"></polygon>
                <path d="M230.811559,23.481923 C228.496604,23.481923 226.612567,21.59456 226.612567,19.2749896 C226.612567,17.3244711 227.941769,15.6592267 229.783357,15.1960859 C230.055629,11.8381007 232.843095,9.21693037 236.230846,9.21693037 C239.217263,9.21693037 241.805777,11.2898933 242.509826,14.1387674 C242.698487,14.1151378 242.887148,14.1026785 243.074951,14.1026785 C245.596576,14.1026785 247.652124,16.1417007 247.687712,18.6606193 C248.698334,18.9686637 249.420391,19.9026785 249.420391,21.0154193 C249.420391,22.2918489 248.448359,23.3453007 247.207055,23.4698933 L247.201052,23.481923 L230.811559,23.481923 Z" id="Fill-78" fill="#E5E8EC"></path>
                <path d="M236.230674,8.57244296 C232.645258,8.57244296 229.670847,11.2434504 229.18676,14.704117 C227.294147,15.3764874 225.969233,17.1839393 225.969233,19.2749467 C225.969233,21.9498207 228.141835,24.1263244 230.811388,24.1263244 L238.546059,24.1263244 L243.5996,24.1263244 L246.803406,24.1263244 L247.597926,24.1263244 L247.634801,24.0524281 C249.022745,23.7426652 250.063811,22.4984578 250.063811,21.0153763 C250.063811,19.7750356 249.352045,18.7104133 248.306263,18.2107541 C248.047282,15.5466207 245.799644,13.4581911 243.07478,13.4581911 C243.044337,13.4581911 243.013036,13.4586207 242.982593,13.4599096 C242.035429,10.6007244 239.328144,8.57244296 236.230674,8.57244296 M236.230674,9.86133185 C239.178502,9.86133185 241.612228,12.0537319 242.001127,14.8987393 C242.342861,14.8020726 242.703032,14.74708 243.07478,14.74708 C245.268392,14.74708 247.045235,16.5296133 247.045235,18.7263096 C247.045235,18.8861319 247.03323,19.0429467 247.015221,19.1976133 C247.993686,19.2276874 248.777486,20.0289467 248.777486,21.0153763 C248.777486,22.0219985 247.963671,22.8374356 246.959909,22.8374356 C246.908027,22.8374356 246.857003,22.8339985 246.806408,22.8301319 C246.80555,22.8327096 246.804693,22.8348578 246.803406,22.8374356 L243.5996,22.8374356 L238.546059,22.8374356 L230.811388,22.8374356 C228.847599,22.8374356 227.255557,21.2417911 227.255557,19.2749467 C227.255557,17.4447244 228.632782,15.9397319 230.40448,15.7373763 L230.40448,15.6974207 C230.40448,12.4751985 233.01229,9.86133185 236.230674,9.86133185" id="Fill-79" fill="#484F59"></path>
                <path d="M245.704371,15.7506948 C245.003324,15.1290207 244.084888,14.7475096 243.074694,14.7475096 C242.702946,14.7475096 242.342775,14.8020726 242.001041,14.8991689 C242.037059,15.1603837 242.057211,15.4263244 242.057211,15.6974207 C242.057211,16.130917 242.008759,16.5519541 241.919145,16.9583837 C243.182745,17.7600726 244.027432,19.1593763 244.055731,20.7601763 C245.233576,20.0701911 246.028524,18.7907541 246.028524,17.3244281 C246.028524,16.76548 245.911898,16.2335985 245.704371,15.7506948" id="Fill-80" fill="#FFFFFF"></path>
                <path d="M234.577961,19.4973659 C237.795488,19.4973659 240.402869,16.8834993 240.402869,13.6586993 C240.402869,12.7384326 240.190625,11.8692919 239.812017,11.0950993 C238.824548,10.3221956 237.581958,9.86120296 236.23046,9.86120296 C233.012504,9.86120296 230.404695,12.4750696 230.404695,15.6972919 L230.404695,15.7372474 C228.632997,15.939603 227.255772,17.4450252 227.255772,19.2748178 C227.255772,19.8286104 227.386548,20.3514696 227.611655,20.8197659 C227.948243,20.9688474 228.321277,21.0534844 228.714035,21.0534844 C230.137139,21.0534844 231.303407,19.9617956 231.430753,18.5706548 C232.33847,19.1558104 233.418125,19.4973659 234.577961,19.4973659" id="Fill-81" fill="#FFFFFF"></path>
                <path d="M96.5249973,17.7114815 C96.6883605,18.5771852 95.685456,19.8132296 94.2859346,20.4731407 C92.8881283,21.1334815 91.6236711,20.9672148 91.4624517,20.1019407 C91.3012323,19.236237 92.3032793,17.9993333 93.7023719,17.3394222 C95.1010358,16.6795111 96.3650642,16.846637 96.5249973,17.7114815" id="Fill-82" fill="#FFFFFF"></path>
                <path d="M96.5249973,17.7114815 C96.6883605,18.5771852 95.685456,19.8132296 94.2859346,20.4731407 C92.8881283,21.1334815 91.6236711,20.9672148 91.4624517,20.1019407 C91.3012323,19.236237 92.3032793,17.9993333 93.7023719,17.3394222 C95.1010358,16.6795111 96.3650642,16.846637 96.5249973,17.7114815 L96.5249973,17.7114815 Z" id="Stroke-83" stroke="#484F59" stroke-width="1.20000002"></path>
                <g id="Group-86" transform="translate(96.474359, 7.901319)">
                    <path id="Fill-84" fill="#FFFFFF"></path>
                    <path id="Stroke-85" stroke="#484F59" stroke-width="1.20000002"></path>
                </g>
                <path d="M107.388868,15.0682711 C107.549658,15.9331156 106.545896,17.1704489 105.148519,17.8299304 C103.749855,18.4907007 102.485826,18.3235748 102.325036,17.4578711 C102.163816,16.592597 103.165863,15.3552637 104.564527,14.6962119 C105.962333,14.03716 107.226791,14.2025674 107.388868,15.0682711" id="Fill-87" fill="#FFFFFF"></path>
                <path d="M107.388868,15.0682711 C107.549658,15.9331156 106.545896,17.1704489 105.148519,17.8299304 C103.749855,18.4907007 102.485826,18.3235748 102.325036,17.4578711 C102.163816,16.592597 103.165863,15.3552637 104.564527,14.6962119 C105.962333,14.03716 107.226791,14.2025674 107.388868,15.0682711 L107.388868,15.0682711 Z" id="Stroke-88" stroke="#484F59" stroke-width="1.20000002"></path>
                <g id="Group-91" transform="translate(107.193732, 5.323541)">
                    <path id="Fill-89" fill="#FFFFFF"></path>
                    <path id="Stroke-90" stroke="#484F59" stroke-width="1.20000002"></path>
                </g>
                <polygon id="Fill-92" fill="#FFFFFF" points="107.404775 9.00602519 96.5417624 11.6499659 96.544335 8.23312148 107.404775 5.58918074"></polygon>
                <polygon id="Stroke-93" stroke="#484F59" stroke-width="1.20000002" points="107.404775 9.00602519 96.5417624 11.6499659 96.544335 8.23312148 107.404775 5.58918074"></polygon>
                <path d="M96.5249973,17.7114815 C96.6883605,18.5771852 95.685456,19.8132296 94.2859346,20.4731407 C92.8881283,21.1334815 91.6236711,20.9672148 91.4624517,20.1019407 C91.3012323,19.236237 92.3032793,17.9993333 93.7023719,17.3394222 C95.1010358,16.6795111 96.3650642,16.846637 96.5249973,17.7114815" id="Fill-94" fill="#FFFFFF"></path>
                <path d="M96.5249973,17.7114815 C96.6883605,18.5771852 95.685456,19.8132296 94.2859346,20.4731407 C92.8881283,21.1334815 91.6236711,20.9672148 91.4624517,20.1019407 C91.3012323,19.236237 92.3032793,17.9993333 93.7023719,17.3394222 C95.1010358,16.6795111 96.3650642,16.846637 96.5249973,17.7114815 L96.5249973,17.7114815 Z" id="Stroke-95" stroke="#484F59" stroke-width="1.20000002"></path>
                <g id="Group-98" transform="translate(96.474359, 7.901319)">
                    <path id="Fill-96" fill="#FFFFFF"></path>
                    <path id="Stroke-97" stroke="#484F59" stroke-width="1.20000002"></path>
                </g>
                <path d="M107.388868,15.0682711 C107.549658,15.9331156 106.545896,17.1704489 105.148519,17.8299304 C103.749855,18.4907007 102.485826,18.3235748 102.325036,17.4578711 C102.163816,16.592597 103.165863,15.3552637 104.564527,14.6962119 C105.962333,14.03716 107.226791,14.2025674 107.388868,15.0682711" id="Fill-99" fill="#FFFFFF"></path>
                <path d="M107.388868,15.0682711 C107.549658,15.9331156 106.545896,17.1704489 105.148519,17.8299304 C103.749855,18.4907007 102.485826,18.3235748 102.325036,17.4578711 C102.163816,16.592597 103.165863,15.3552637 104.564527,14.6962119 C105.962333,14.03716 107.226791,14.2025674 107.388868,15.0682711 L107.388868,15.0682711 Z" id="Stroke-100" stroke="#484F59" stroke-width="1.20000002"></path>
                <g id="Group-103" transform="translate(107.193732, 5.323541)">
                    <path id="Fill-101" fill="#FFFFFF"></path>
                    <path id="Stroke-102" stroke="#484F59" stroke-width="1.20000002"></path>
                </g>
                <polygon id="Fill-104" fill="#FFFFFF" points="107.404775 9.00602519 96.5417624 11.6499659 96.544335 8.23312148 107.404775 5.58918074"></polygon>
                <polygon id="Stroke-105" stroke="#484F59" stroke-width="1.20000002" points="107.404775 9.00602519 96.5417624 11.6499659 96.544335 8.23312148 107.404775 5.58918074"></polygon>
                <path d="M52.1819946,51.4497807 C52.1819946,52.1891733 51.579137,52.7919437 50.8425017,52.7919437 L27.4489704,52.7919437 C26.7127638,52.7919437 26.1099063,52.1891733 26.1099063,51.4497807 L26.1099063,37.8064622 C26.1099063,37.0679289 26.7127638,36.4642993 27.4489704,36.4642993 L50.8425017,36.4642993 C51.579137,36.4642993 52.1819946,37.0679289 52.1819946,37.8064622 L52.1819946,51.4497807 Z" id="Fill-106" fill="#A7B8D1"></path>
                <path d="M52.1819946,51.4497807 C52.1819946,52.1891733 51.579137,52.7919437 50.8425017,52.7919437 L27.4489704,52.7919437 C26.7127638,52.7919437 26.1099063,52.1891733 26.1099063,51.4497807 L26.1099063,37.8064622 C26.1099063,37.0679289 26.7127638,36.4642993 27.4489704,36.4642993 L50.8425017,36.4642993 C51.579137,36.4642993 52.1819946,37.0679289 52.1819946,37.8064622 L52.1819946,51.4497807 L52.1819946,51.4497807 Z" id="Stroke-107" stroke="#484F59" stroke-width="1.20000002"></path>
                <path id="Stroke-108" stroke="#484F59" stroke-width="1.20000002"></path>
                <path id="Stroke-109" stroke="#484F59" stroke-width="1.20000002"></path>
                <path id="Stroke-110" stroke="#484F59" stroke-width="1.20000002"></path>
                <path id="Stroke-111" stroke="#484F59" stroke-width="1.20000002"></path>
                <path id="Stroke-112" stroke="#484F59" stroke-width="1.20000002"></path>
                <path id="Stroke-113" stroke="#484F59" stroke-width="1.20000002"></path>
                <polygon id="Fill-114" fill="#EBB400" points="28.3214416 42.8873481 32.6524972 42.8873481 32.6524972 39.8692 28.3214416 39.8692"></polygon>
                <polygon id="Stroke-115" stroke="#484F59" stroke-width="1.20000002" points="28.3214416 42.8873481 32.6524972 42.8873481 32.6524972 39.8692 28.3214416 39.8692"></polygon>
                <path id="Stroke-116" stroke="#484F59" stroke-width="1.20000002"></path>
                <path id="Stroke-117" stroke="#484F59" stroke-width="1.20000002"></path>
                <path id="Stroke-118" stroke="#484F59" stroke-width="1.20000002"></path>
                <path id="Stroke-119" stroke="#484F59" stroke-width="1.20000002" stroke-dasharray="1.094800011736154,1.094800011736154"></path>
                <path id="Stroke-120" stroke="#484F59" stroke-width="1.20000002"></path>
                <path id="Stroke-122" stroke="#484F59" stroke-width="1.20000002"></path>
                <path id="Stroke-124" stroke="#484F59" stroke-width="1.20000002" stroke-dasharray="1.094800011736154,1.094800011736154"></path>
                <path id="Stroke-125" stroke="#484F59" stroke-width="1.20000002"></path>
                <path d="M233.307973,51.0644459 C233.307973,51.9666681 232.578627,52.6974681 231.678199,52.6974681 C230.778629,52.6974681 230.048855,51.9666681 230.048855,51.0644459 C230.048855,50.1626533 230.778629,49.4318533 231.678199,49.4318533 C232.578627,49.4318533 233.307973,50.1626533 233.307973,51.0644459 L233.307973,51.0644459 Z" id="Stroke-126" stroke="#484F59" stroke-width="1.20000002" stroke-linecap="round" stroke-linejoin="round"></path>
                <path d="M241.390209,51.0644459 C241.390209,51.9666681 240.660863,52.6974681 239.760006,52.6974681 C238.860008,52.6974681 238.130662,51.9666681 238.130662,51.0644459 C238.130662,50.1626533 238.860008,49.4318533 239.760006,49.4318533 C240.660863,49.4318533 241.390209,50.1626533 241.390209,51.0644459 L241.390209,51.0644459 Z" id="Stroke-127" stroke="#484F59" stroke-width="1.20000002" stroke-linecap="round" stroke-linejoin="round"></path>
                <path id="Stroke-128" stroke="#484F59" stroke-width="1.20000002" stroke-linecap="round" stroke-linejoin="round"></path>
                <polyline id="Stroke-129" stroke="#484F59" stroke-width="1.20000002" stroke-linecap="round" stroke-linejoin="round" points="227.66358 39.5527348 229.853333 40.1791348 232.408832 47.8591941 231.937179 49.38352"></polyline>
                <path d="M242.107077,47.3630578 C242.107077,47.6526281 241.873395,47.85928 241.585687,47.85928 L232.409046,47.85928 L230.635633,42.1821541 L243.584636,42.1821541 L242.107077,47.3630578 L242.107077,47.3630578 Z" id="Stroke-130" stroke="#484F59" stroke-width="1.20000002" stroke-linecap="round" stroke-linejoin="round"></path>
                <polygon id="Fill-131" fill="#FBB326" points="45.5054115 6.07079556 46.9225127 8.9467363 50.0894443 9.40815852 47.7976423 11.6469585 48.3383275 14.8081733 45.5054115 13.31564 42.6724956 14.8081733 43.2131808 11.6469585 40.9205212 9.40815852 44.0883104 8.9467363"></polygon>
                <polygon id="Stroke-132" stroke="#484F59" stroke-width="1.20000002" points="45.5054115 6.07079556 46.9225127 8.9467363 50.0894443 9.40815852 47.7976423 11.6469585 48.3383275 14.8081733 45.5054115 13.31564 42.6724956 14.8081733 43.2131808 11.6469585 40.9205212 9.40815852 44.0883104 8.9467363"></polygon>
                <path d="M264.687266,8.81514074 C264.681263,7.8996 263.954918,7.32561481 263.064781,7.53527407 C262.190509,7.74063704 261.484746,8.62524444 261.466308,9.52488889 L261.463736,9.52531852 L261.47617,11.2313778 L263.133385,10.8417037 L263.133385,10.8386963 C264.001655,10.6101333 264.694126,9.71521481 264.687266,8.81514074 L264.687266,8.81514074 Z" id="Stroke-133" stroke="#484F59" stroke-width="1.20000002"></path>
                <path d="M258.275751,8.81514074 C258.282183,7.8996 259.008956,7.32561481 259.899093,7.53527407 C260.772936,7.74063704 261.4787,8.62524444 261.497137,9.52488889 L261.49971,9.52531852 L261.487704,11.2313778 L259.829632,10.8417037 L259.829632,10.8386963 C258.961791,10.6101333 258.269748,9.71521481 258.275751,8.81514074 L258.275751,8.81514074 Z" id="Stroke-134" stroke="#484F59" stroke-width="1.20000002"></path>
                <polygon id="Fill-135" fill="#FFC857" points="253.204887 14.2847556 269.750454 14.2847556 269.750454 11.2988296 253.204887 11.2988296"></polygon>
                <polygon id="Stroke-136" stroke="#484F59" stroke-width="1.20000002" points="253.204887 14.2847556 269.750454 14.2847556 269.750454 11.2988296 253.204887 11.2988296"></polygon>
                <polygon id="Fill-137" fill="#FFC857" points="253.662819 23.6966519 269.292523 23.6966519 269.292523 14.2847556 253.662819 14.2847556"></polygon>
                <polygon id="Stroke-138" stroke="#484F59" stroke-width="1.20000002" points="253.662819 23.6966519 269.292523 23.6966519 269.292523 14.2847556 253.662819 14.2847556"></polygon>
                <polygon id="Fill-139" fill="#FFFFFF" points="260.066573 14.2847556 262.888769 14.2847556 262.888769 11.2988296 260.066573 11.2988296"></polygon>
                <polygon id="Stroke-140" stroke="#484F59" stroke-width="1.20000002" points="260.066573 14.2847556 262.888769 14.2847556 262.888769 11.2988296 260.066573 11.2988296"></polygon>
                <polygon id="Fill-141" fill="#FFFFFF" points="260.144181 23.6966519 262.810732 23.6966519 262.810732 14.2847556 260.144181 14.2847556"></polygon>
                <polygon id="Stroke-142" stroke="#484F59" stroke-width="1.20000002" points="260.144181 23.6966519 262.810732 23.6966519 262.810732 14.2847556 260.144181 14.2847556"></polygon>
                <path d="M139.218674,31.7078267 L131.907633,39.0338711 C129.421167,41.5240044 129.421167,45.5620933 131.907633,48.0509378 L132.095008,48.2399748 L132.097152,61.9112193 L149.198411,61.9112193 L149.197553,54.3952785 L155.529273,48.0509378 C158.015738,45.5620933 158.015738,41.5240044 155.529273,39.0338711 L148.21866,31.7078267 C145.733052,29.2185526 141.703854,29.2185526 139.218674,31.7078267" id="Fill-143" fill="#FFC400"></path>
                <path d="M139.218674,31.7078267 L131.907633,39.0338711 C129.421167,41.5240044 129.421167,45.5620933 131.907633,48.0509378 L132.095008,48.2399748 L132.097152,61.9112193 L149.198411,61.9112193 L149.197553,54.3952785 L155.529273,48.0509378 C158.015738,45.5620933 158.015738,41.5240044 155.529273,39.0338711 L148.21866,31.7078267 C145.733052,29.2185526 141.703854,29.2185526 139.218674,31.7078267 L139.218674,31.7078267 Z" id="Stroke-144" stroke="#484F59" stroke-width="1.20000002" stroke-linecap="round" stroke-linejoin="round"></path>
                <path d="M162.397647,35.8981763 C162.862439,37.0830948 162.281449,38.4235393 161.100603,38.8905467 L145.328546,45.1236133 C144.145984,45.5910504 142.807778,45.0089022 142.341699,43.824843 C141.87605,42.6386356 142.456182,41.2977615 143.638315,40.8307541 L159.410372,34.5972578 C160.592933,34.1315393 161.930711,34.7132578 162.397647,35.8981763" id="Fill-145" fill="#FFC400"></path>
                <path d="M162.397647,35.8981763 C162.862439,37.0830948 162.281449,38.4235393 161.100603,38.8905467 L145.328546,45.1236133 C144.145984,45.5910504 142.807778,45.0089022 142.341699,43.824843 C141.87605,42.6386356 142.456182,41.2977615 143.638315,40.8307541 L159.410372,34.5972578 C160.592933,34.1315393 161.930711,34.7132578 162.397647,35.8981763 L162.397647,35.8981763 Z" id="Stroke-146" stroke="#484F59" stroke-width="1.20000002" stroke-linecap="round" stroke-linejoin="round"></path>
                <path d="M162.579404,28.5088904 C163.045054,29.6942385 162.463635,31.034683 161.280645,31.5025496 L145.508159,37.734757 C144.326456,38.2017644 142.987392,37.6183274 142.521313,36.435557 C142.055664,35.2493496 142.636654,33.9084756 143.817929,33.4414681 L159.589986,27.2096904 C160.772976,26.7422533 162.110325,27.3239719 162.579404,28.5088904" id="Fill-147" fill="#FFC400"></path>
                <path d="M162.579404,28.5088904 C163.045054,29.6942385 162.463635,31.034683 161.280645,31.5025496 L145.508159,37.734757 C144.326456,38.2017644 142.987392,37.6183274 142.521313,36.435557 C142.055664,35.2493496 142.636654,33.9084756 143.817929,33.4414681 L159.589986,27.2096904 C160.772976,26.7422533 162.110325,27.3239719 162.579404,28.5088904 L162.579404,28.5088904 Z" id="Stroke-148" stroke="#484F59" stroke-width="1.20000002" stroke-linecap="round" stroke-linejoin="round"></path>
                <path d="M164.236705,15.6283793 C164.704499,16.8124385 164.12308,18.1541719 162.939232,18.6211793 L147.16889,24.8538163 C145.9859,25.3208237 144.646408,24.7386756 144.180758,23.5528978 C143.715108,22.3688385 144.293955,21.0279644 145.479088,20.560957 L161.250288,14.3278904 C162.432849,13.860883 163.771056,14.4430311 164.236705,15.6283793" id="Fill-149" fill="#FFC400"></path>
                <path d="M164.236705,15.6283793 C164.704499,16.8124385 164.12308,18.1541719 162.939232,18.6211793 L147.16889,24.8538163 C145.9859,25.3208237 144.646408,24.7386756 144.180758,23.5528978 C143.715108,22.3688385 144.293955,21.0279644 145.479088,20.560957 L161.250288,14.3278904 C162.432849,13.860883 163.771056,14.4430311 164.236705,15.6283793 L164.236705,15.6283793 Z" id="Stroke-150" stroke="#484F59" stroke-width="1.20000002" stroke-linecap="round" stroke-linejoin="round"></path>
                <path d="M159.597661,44.8337422 C159.597661,46.4461422 158.282608,47.7655348 156.672987,47.7655348 L139.199551,47.7655348 C137.590359,47.7655348 136.273591,46.4461422 136.273591,44.8337422 L136.273591,3.35472 C136.273591,1.74189037 137.590359,0.423786667 139.199551,0.423786667 L156.672987,0.423786667 C158.282608,0.423786667 159.597661,1.74189037 159.597661,3.35472 L159.597661,44.8337422 Z" id="Fill-151" fill="#FFFFFF"></path>
                <path d="M159.597661,44.8337422 C159.597661,46.4461422 158.282608,47.7655348 156.672987,47.7655348 L139.199551,47.7655348 C137.590359,47.7655348 136.273591,46.4461422 136.273591,44.8337422 L136.273591,3.35472 C136.273591,1.74189037 137.590359,0.423786667 139.199551,0.423786667 L156.672987,0.423786667 C158.282608,0.423786667 159.597661,1.74189037 159.597661,3.35472 L159.597661,44.8337422 L159.597661,44.8337422 Z" id="Stroke-152" stroke="#484F59" stroke-width="1.20000002"></path>
                <polygon id="Fill-153" fill="#CFD7E6" points="138.647803 42.2050963 157.18503 42.2050963 157.18503 5.7957037 138.647803 5.7957037"></polygon>
                <polygon id="Stroke-154" stroke="#484F59" stroke-width="1.20000002" points="138.647803 42.2050963 157.18503 42.2050963 157.18503 5.7957037 138.647803 5.7957037"></polygon>
                <path d="M162.875002,22.2104341 C163.342795,23.394923 162.761376,24.7366563 161.577529,25.2032341 L159.936178,25.7291007 C158.754904,26.1965378 157.415839,25.6126711 156.949761,24.4281822 C156.482825,23.2436933 157.062958,21.9028193 158.247234,21.4366711 L159.887727,20.9108044 C161.069859,20.443797 162.408066,21.0255156 162.875002,22.2104341" id="Fill-155" fill="#FFC400"></path>
                <path d="M162.875002,22.2104341 C163.342795,23.394923 162.761376,24.7366563 161.577529,25.2032341 L159.936178,25.7291007 C158.754904,26.1965378 157.415839,25.6126711 156.949761,24.4281822 C156.482825,23.2436933 157.062958,21.9028193 158.247234,21.4366711 L159.887727,20.9108044 C161.069859,20.443797 162.408066,21.0255156 162.875002,22.2104341 L162.875002,22.2104341 Z" id="Stroke-156" stroke="#484F59" stroke-width="1.20000002" stroke-linecap="round" stroke-linejoin="round"></path>
                <path d="M161.945847,35.4660119 C162.412782,36.6522193 161.831364,37.9922341 160.64966,38.4596711 L159.007881,38.9851081 C157.826177,39.4525452 156.487971,38.8695378 156.021892,37.6846193 C155.554099,36.5001304 156.135946,35.1592563 157.319365,34.6922489 L158.959858,34.1672415 C160.14199,33.6989452 161.480197,34.281523 161.945847,35.4660119" id="Fill-157" fill="#FFC400"></path>
                <path d="M161.945847,35.4660119 C162.412782,36.6522193 161.831364,37.9922341 160.64966,38.4596711 L159.007881,38.9851081 C157.826177,39.4525452 156.487971,38.8695378 156.021892,37.6846193 C155.554099,36.5001304 156.135946,35.1592563 157.319365,34.6922489 L158.959858,34.1672415 C160.14199,33.6989452 161.480197,34.281523 161.945847,35.4660119 L161.945847,35.4660119 Z" id="Stroke-158" stroke="#484F59" stroke-width="1.20000002" stroke-linecap="round" stroke-linejoin="round"></path>
                <path d="M162.444983,28.3695615 C162.911919,29.5549096 162.331358,30.8957837 161.148368,31.3627911 L159.50616,31.8882281 C158.324885,32.3548059 156.986679,31.7730874 156.519743,30.5881689 C156.053236,29.4023911 156.632939,28.0619467 157.817216,27.5953689 L159.458566,27.0707911 C160.639841,26.6033541 161.978905,27.1842133 162.444983,28.3695615" id="Fill-159" fill="#FFC400"></path>
                <path d="M162.444983,28.3695615 C162.911919,29.5549096 162.331358,30.8957837 161.148368,31.3627911 L159.50616,31.8882281 C158.324885,32.3548059 156.986679,31.7730874 156.519743,30.5881689 C156.053236,29.4023911 156.632939,28.0619467 157.817216,27.5953689 L159.458566,27.0707911 C160.639841,26.6033541 161.978905,27.1842133 162.444983,28.3695615 L162.444983,28.3695615 Z" id="Stroke-160" stroke="#484F59" stroke-width="1.20000002" stroke-linecap="round" stroke-linejoin="round"></path>
                <path d="M134.122813,27.0368504 L134.094943,27.0188059 L132.8009,29.9540356 L131.332346,33.1947319 L131.370935,33.1955911 L129.973129,36.3645393 L130.004859,36.3744207 L130.004859,57.9482726 L138.131859,57.9482726 C139.995314,55.6454578 141.161582,52.3721096 141.160725,48.7378726 C141.161582,44.0072207 139.185359,39.886643 136.265401,37.7268948 L137.703084,33.4013837 L138.720567,33.4340356 C141.284212,33.4748504 143.399359,31.4246578 143.440521,28.8533244 L143.46539,27.3027911 C143.467105,27.2366281 143.459387,27.1734726 143.458101,27.1073096 L134.154114,26.9651022 L134.122813,27.0368504 Z" id="Fill-161" fill="#FBB326"></path>
                <path d="M134.122813,27.0368504 L134.094943,27.0188059 L132.8009,29.9540356 L131.332346,33.1947319 L131.370935,33.1955911 L129.973129,36.3645393 L130.004859,36.3744207 L130.004859,57.9482726 L138.131859,57.9482726 C139.995314,55.6454578 141.161582,52.3721096 141.160725,48.7378726 C141.161582,44.0072207 139.185359,39.886643 136.265401,37.7268948 L137.703084,33.4013837 L138.720567,33.4340356 C141.284212,33.4748504 143.399359,31.4246578 143.440521,28.8533244 L143.46539,27.3027911 C143.467105,27.2366281 143.459387,27.1734726 143.458101,27.1073096 L134.154114,26.9651022 L134.122813,27.0368504 L134.122813,27.0368504 Z" id="Stroke-162" stroke="#484F59" stroke-width="1.20000002" stroke-linecap="round" stroke-linejoin="round"></path>
                <path id="Stroke-163" stroke="#484F59" stroke-width="1.20000002"></path>
                <path id="Stroke-164" stroke="#484F59" stroke-width="1.20000002"></path>
                <polygon id="Fill-165" fill="#F1FAFC" points="128.808276 70.1310222 152.504523 70.1310222 152.504523 58.031363 128.808276 58.031363"></polygon>
                <polygon id="Stroke-166" stroke="#484F59" stroke-width="1.20000002" stroke-linecap="round" stroke-linejoin="round" points="128.808276 70.1310222 152.504523 70.1310222 152.504523 58.031363 128.808276 58.031363"></polygon>
                <g id="Group-169" transform="translate(127.774929, 59.886504)">
                    <polyline id="Fill-167" fill="#E5E8EC" points="0.140252279 21.4814815 0.140252279 0.403422222 25.6236326 0.403422222 25.6236326 21.4814815"></polyline>
                    <polyline id="Stroke-168" stroke="#484F59" stroke-width="1.20000002" points="0.140252279 21.4814815 0.140252279 0.403422222 25.6236326 0.403422222 25.6236326 21.4814815"></polyline>
                </g>
                <polygon id="Fill-170" fill="#CDD5D7" points="140.210688 81.3679852 152.939729 81.3679852 152.939729 61.0447852 140.210688 61.0447852"></polygon>
                <path d="M150.665378,65.9208667 C150.665378,66.5936667 150.120834,67.1371481 149.45023,67.1371481 C148.78177,67.1371481 148.238941,66.5936667 148.238941,65.9208667 C148.238941,65.2506444 148.78177,64.7054444 149.45023,64.7054444 C150.120834,64.7054444 150.665378,65.2506444 150.665378,65.9208667" id="Fill-171" fill="#F1FAFC"></path>
                <path d="M150.665378,65.9208667 C150.665378,66.5936667 150.120834,67.1371481 149.45023,67.1371481 C148.78177,67.1371481 148.238941,66.5936667 148.238941,65.9208667 C148.238941,65.2506444 148.78177,64.7054444 149.45023,64.7054444 C150.120834,64.7054444 150.665378,65.2506444 150.665378,65.9208667 L150.665378,65.9208667 Z" id="Stroke-172" stroke="#484F59" stroke-width="1.20000002" stroke-linecap="round" stroke-linejoin="round"></path>
                <path id="Stroke-173" stroke="#484F59" stroke-width="1.20000002"></path>
                <path id="Stroke-174" stroke="#484F59" stroke-width="1.20000002"></path>
                <path id="Stroke-175" stroke="#484F59" stroke-width="1.20000002"></path>
                <path id="Stroke-176" stroke="#484F59" stroke-width="1.20000002"></path>
                <polygon id="Fill-177" fill="#E5E8EC" points="128.464828 23.5518667 153.449543 23.5518667 153.449543 9.13306667 128.464828 9.13306667"></polygon>
                <polygon id="Stroke-178" stroke="#484F59" stroke-width="1.20000002" points="128.464828 23.5518667 153.449543 23.5518667 153.449543 9.13306667 128.464828 9.13306667"></polygon>
                <path d="M153.432306,9.11850222 L152.206867,9.11850222 L142.172248,9.11850222 L140.947238,9.11850222 L139.722656,9.11850222 L129.687179,9.11850222 L128.462598,9.11850222 L131.583222,11.9145319 L133.772118,13.8762207 C134.028954,14.1052133 134.367258,14.4068133 134.703846,14.7105615 L137.619087,17.3209911 L140.01551,19.4665615 C140.527467,19.9258356 141.365722,19.9258356 141.879394,19.4665615 L144.275389,17.3209911 L147.188914,14.7105615 C147.527646,14.4068133 147.865521,14.1052133 148.121928,13.8762207 L150.310825,11.9145319 L153.432306,9.11850222 Z" id="Fill-179" fill="#CDD5D7"></path>
                <path d="M153.432306,9.11850222 L152.206867,9.11850222 L142.172248,9.11850222 L140.947238,9.11850222 L139.722656,9.11850222 L129.687179,9.11850222 L128.462598,9.11850222 L131.583222,11.7865022 L133.772118,13.6575393 C134.028954,13.8762207 134.367258,14.1653615 134.703846,14.453643 L137.619087,16.9446356 L140.01551,18.9922504 C140.527467,19.430043 141.365722,19.430043 141.879394,18.9922504 L144.275389,16.9446356 L147.188914,14.453643 C147.527646,14.1653615 147.865521,13.8762207 148.121928,13.6575393 L150.310825,11.7865022 L153.432306,9.11850222 Z" id="Fill-180" fill="#F8F9FC"></path>
                <path d="M153.432306,9.11850222 L152.206867,9.11850222 L142.172248,9.11850222 L140.947238,9.11850222 L139.722656,9.11850222 L129.687179,9.11850222 L128.462598,9.11850222 L131.583222,11.7865022 L133.772118,13.6575393 C134.028954,13.8762207 134.367258,14.1653615 134.703846,14.453643 L137.619087,16.9446356 L140.01551,18.9922504 C140.527467,19.430043 141.365722,19.430043 141.879394,18.9922504 L144.275389,16.9446356 L147.188914,14.453643 C147.527646,14.1653615 147.865521,13.8762207 148.121928,13.6575393 L150.310825,11.7865022 L153.432306,9.11850222 L153.432306,9.11850222 Z" id="Stroke-181" stroke="#484F59" stroke-width="1.20000002" stroke-linejoin="round"></path>
                <path d="M128.559201,23.4510756 L136.87572,16.2556385" id="Stroke-182" stroke="#484F59" stroke-width="1.20000002"></path>
                <path d="M153.42939,23.4510756 L145.112443,16.2556385" id="Stroke-183" stroke="#484F59" stroke-width="1.20000002"></path>
                <path d="M174.66211,11.9486444 C173.289173,11.9606741 172.16664,10.8543778 172.154206,9.47827407 C172.143058,8.10174074 173.246724,6.9774 174.62009,6.9658 C175.993457,6.95377037 177.116847,8.05963704 177.128424,9.43617037 C177.140001,10.8118444 176.035905,11.9370444 174.66211,11.9486444 M179.720797,6.36388889 C178.377874,5.03977037 176.606176,4.32271852 174.728571,4.34076296 C172.849679,4.35665926 171.086985,5.10851111 169.768073,6.45883704 C168.454307,7.80314815 167.740825,9.57494074 167.757119,11.4507037 C167.772555,13.3642741 168.55464,15.0931037 169.804948,16.353637 C169.80066,15.8213259 169.794657,15.2078148 169.788226,14.323637 C169.782223,13.6297852 170.320764,12.8182148 171.010234,12.6008222 C173.389935,11.8670148 175.933428,11.845963 178.324277,12.5380963 C179.019321,12.7438889 179.569868,13.5447185 179.576729,14.2402889 C179.585733,15.2658148 179.591307,15.929163 179.596024,16.520763 C179.669773,16.451163 179.746952,16.3871481 179.818129,16.3149704 C181.131467,14.9715185 181.844948,13.2010148 181.828226,11.3274 C181.809788,9.44905926 181.062005,7.68457037 179.720797,6.36388889" id="Fill-184" fill="#47B8EC"></path>
                <path d="M179.817915,16.3149704 C178.495144,17.6678741 176.733308,18.4197259 174.851843,18.4369111 C170.971859,18.4721407 167.788634,15.3379926 167.756905,11.4507037 C167.740611,9.57494074 168.454521,7.80314815 169.767859,6.45883704 C171.087199,5.10894074 172.849893,4.35665926 174.728785,4.34076296 C176.60639,4.32271852 178.378088,5.03977037 179.720583,6.36388889 C181.061791,7.68457037 181.810003,9.44905926 181.828011,11.3274 C181.844734,13.2010148 181.131252,14.9715185 179.817915,16.3149704" id="Fill-185" fill="#4BA2F2"></path>
                <path d="M179.817915,16.3149704 C178.495144,17.6678741 176.733308,18.4197259 174.851843,18.4369111 C170.971859,18.4721407 167.788634,15.3379926 167.756905,11.4507037 C167.740611,9.57494074 168.454521,7.80314815 169.767859,6.45883704 C171.087199,5.10894074 172.849893,4.35665926 174.728785,4.34076296 C176.60639,4.32271852 178.378088,5.03977037 179.720583,6.36388889 C181.061791,7.68457037 181.810003,9.44905926 181.828011,11.3274 C181.844734,13.2010148 181.131252,14.9715185 179.817915,16.3149704 L179.817915,16.3149704 Z" id="Stroke-186" stroke="#484F59" stroke-width="1.20000002"></path>
                <path d="M178.32432,12.5378815 C175.933471,11.8457481 173.389978,11.8668 171.010277,12.6006074 C170.320807,12.8184296 169.782266,13.63 169.788269,14.3234222 C169.7947,15.2080296 169.800703,15.8215407 169.804991,16.3538519 C170.448582,17.0017333 171.214374,17.5263111 172.067207,17.8859111 L172.041052,14.7289926 L172.067207,17.8859111 C172.923042,18.2480889 173.864632,18.4452889 174.851672,18.4366963 C175.724229,18.428963 176.569773,18.2562519 177.359148,17.9452 L177.331277,14.6843111 L177.359148,17.9452 C178.180252,17.6221185 178.936182,17.1417926 179.596066,16.5205481 C179.59135,15.9293778 179.585347,15.2656 179.576772,14.2400741 C179.569911,13.5449333 179.019364,12.7436741 178.32432,12.5378815" id="Fill-187" fill="#FFFFFF"></path>
                <path d="M178.32432,12.5378815 C175.933471,11.8457481 173.389978,11.8668 171.010277,12.6006074 C170.320807,12.8184296 169.782266,13.63 169.788269,14.3234222 C169.7947,15.2080296 169.800703,15.8215407 169.804991,16.3538519 C170.448582,17.0017333 171.214374,17.5263111 172.067207,17.8859111 L172.041052,14.7289926 L172.067207,17.8859111 C172.923042,18.2480889 173.864632,18.4452889 174.851672,18.4366963 C175.724229,18.428963 176.569773,18.2562519 177.359148,17.9452 L177.331277,14.6843111 L177.359148,17.9452 C178.180252,17.6221185 178.936182,17.1417926 179.596066,16.5205481 C179.59135,15.9293778 179.585347,15.2656 179.576772,14.2400741 C179.569911,13.5449333 179.019364,12.7436741 178.32432,12.5378815 L178.32432,12.5378815 Z" id="Stroke-188" stroke="#484F59" stroke-width="1.20000002"></path>
                <path d="M174.620262,6.96592889 C173.246896,6.97709926 172.143229,8.10186963 172.154377,9.47840296 C172.166383,10.854077 173.289345,11.960803 174.662282,11.9487733 C176.036077,11.9371733 177.140172,10.8115437 177.128595,9.43586963 C177.11659,8.0593363 175.993628,6.95346963 174.620262,6.96592889" id="Fill-189" fill="#FFFFFF"></path>
                <path d="M174.620262,6.96592889 C173.246896,6.97709926 172.143229,8.10186963 172.154377,9.47840296 C172.166383,10.854077 173.289345,11.960803 174.662282,11.9487733 C176.036077,11.9371733 177.140172,10.8115437 177.128595,9.43586963 C177.11659,8.0593363 175.993628,6.95346963 174.620262,6.96592889 L174.620262,6.96592889 Z" id="Stroke-190" stroke="#484F59" stroke-width="1.20000002"></path>
                <path d="M281.636867,32.1787867 C280.26393,32.1908163 279.141397,31.08452 279.128963,29.7084163 C279.117815,28.3323126 280.221481,27.2075422 281.594847,27.1955126 C282.968213,27.1839126 284.091604,28.2897793 284.103181,29.6663126 C284.114758,31.0419867 283.010662,32.1676163 281.636867,32.1787867 M286.695554,26.5944607 C285.352631,25.2703422 283.580933,24.5532904 281.703327,24.5704756 C279.824436,24.5868015 278.061742,25.339083 276.74283,26.6889793 C275.429064,28.03372 274.715154,29.8055126 274.731876,31.6808459 C274.747312,33.5948459 275.529397,35.3232459 276.779705,36.5842089 C276.775417,36.0518978 276.769414,35.4383867 276.762983,34.5537793 C276.75698,33.8599274 277.295521,33.048357 277.984991,32.8305348 C280.364692,32.0975867 282.908185,32.0756756 285.299034,32.7682385 C285.994078,32.9744607 286.544625,33.7748607 286.551485,34.4700015 C286.560061,35.4955274 286.566064,36.1597348 286.57078,36.7513348 C286.64453,36.6813052 286.721709,36.61772 286.792457,36.5451126 C288.106223,35.2016607 288.819705,33.431157 288.802983,31.5575422 C288.784545,29.6792015 288.036762,27.9151422 286.695554,26.5944607" id="Fill-191" fill="#47B8EC"></path>
                <path d="M286.792628,36.5449407 C285.469858,37.8982741 283.708022,38.6501259 281.826557,38.6664519 C277.946573,38.7016815 274.763348,35.5683926 274.731619,31.6811037 C274.715325,29.8053407 275.429235,28.0335481 276.743002,26.6888074 C278.061913,25.3389111 279.824607,24.5870593 281.703499,24.5703037 C283.581104,24.5531185 285.352802,25.2701704 286.695297,26.5942889 C288.036505,27.9149704 288.784717,29.6794593 288.803154,31.5578 C288.819876,33.4309852 288.106395,35.2014889 286.792628,36.5449407" id="Fill-192" fill="#FFC857"></path>
                <path d="M286.792628,36.5449407 C285.469858,37.8982741 283.708022,38.6501259 281.826557,38.6664519 C277.946573,38.7016815 274.763348,35.5683926 274.731619,31.6811037 C274.715325,29.8053407 275.429235,28.0335481 276.743002,26.6888074 C278.061913,25.3389111 279.824607,24.5870593 281.703499,24.5703037 C283.581104,24.5531185 285.352802,25.2701704 286.695297,26.5942889 C288.036505,27.9149704 288.784717,29.6794593 288.803154,31.5578 C288.819876,33.4309852 288.106395,35.2014889 286.792628,36.5449407 L286.792628,36.5449407 Z" id="Stroke-193" stroke="#484F59" stroke-width="1.20000002"></path>
                <path d="M285.299034,32.7680237 C282.908185,32.0754607 280.364692,32.0973719 277.984991,32.83032 C277.295521,33.0485719 276.75698,33.8597126 276.762983,34.5539941 C276.769414,35.4386015 276.775417,36.051683 276.779705,36.5839941 C277.423296,37.2323052 278.189088,37.7564533 279.041921,38.1160533 L279.015766,34.9591348 L279.041921,38.1160533 C279.897756,38.4782311 280.839346,38.6754311 281.826386,38.6664089 C282.699372,38.6591052 283.544487,38.4868237 284.333862,38.1749126 L284.30642,34.9140237 L284.333862,38.1749126 C285.154966,37.8518311 285.910896,37.3719348 286.57078,36.75112 C286.566064,36.1599496 286.560061,35.4957422 286.551485,34.4702163 C286.544625,33.7746459 285.994078,32.9742459 285.299034,32.7680237" id="Fill-194" fill="#FFFFFF"></path>
                <path d="M285.299034,32.7680237 C282.908185,32.0754607 280.364692,32.0973719 277.984991,32.83032 C277.295521,33.0485719 276.75698,33.8597126 276.762983,34.5539941 C276.769414,35.4386015 276.775417,36.051683 276.779705,36.5839941 C277.423296,37.2323052 278.189088,37.7564533 279.041921,38.1160533 L279.015766,34.9591348 L279.041921,38.1160533 C279.897756,38.4782311 280.839346,38.6754311 281.826386,38.6664089 C282.699372,38.6591052 283.544487,38.4868237 284.333862,38.1749126 L284.30642,34.9140237 L284.333862,38.1749126 C285.154966,37.8518311 285.910896,37.3719348 286.57078,36.75112 C286.566064,36.1599496 286.560061,35.4957422 286.551485,34.4702163 C286.544625,33.7746459 285.994078,32.9742459 285.299034,32.7680237 L285.299034,32.7680237 Z" id="Stroke-195" stroke="#484F59" stroke-width="1.20000002"></path>
                <path d="M281.594976,27.1956415 C280.22161,27.2072415 279.117943,28.3324415 279.129091,29.7085452 C279.141097,31.0846489 280.264059,32.1909452 281.636996,32.1789156 C283.010791,32.1677452 284.114886,31.0416859 284.103309,29.6664415 C284.091304,28.2899081 282.968342,27.1840415 281.594976,27.1956415" id="Fill-196" fill="#FFFFFF"></path>
                <path d="M281.594976,27.1956415 C280.22161,27.2072415 279.117943,28.3324415 279.129091,29.7085452 C279.141097,31.0846489 280.264059,32.1909452 281.636996,32.1789156 C283.010791,32.1677452 284.114886,31.0416859 284.103309,29.6664415 C284.091304,28.2899081 282.968342,27.1840415 281.594976,27.1956415 L281.594976,27.1956415 Z" id="Stroke-197" stroke="#484F59" stroke-width="1.20000002"></path>
                <path d="M222.907265,22.657077 C222.907265,23.2284844 222.439472,23.6967807 221.868343,23.6967807 L187.437717,23.6967807 C186.868304,23.6967807 186.400081,23.2284844 186.400081,22.657077 L186.400081,14.1564252 L184.972261,12.530277 L186.400081,10.6454919 L186.400081,9.28055852 C186.400081,8.70829185 186.868304,8.23956593 187.437717,8.23956593 L221.868343,8.23956593 C222.439472,8.23956593 222.907265,8.70829185 222.907265,9.28055852 L222.907265,22.657077 Z" id="Fill-198" fill="#A7B8D1"></path>
                <path d="M222.907265,22.657077 C222.907265,23.2284844 222.439472,23.6967807 221.868343,23.6967807 L187.437717,23.6967807 C186.868304,23.6967807 186.400081,23.2284844 186.400081,22.657077 L186.400081,14.1564252 L184.972261,12.530277 L186.400081,10.6454919 L186.400081,9.28055852 C186.400081,8.70829185 186.868304,8.23956593 187.437717,8.23956593 L221.868343,8.23956593 C222.439472,8.23956593 222.907265,8.70829185 222.907265,9.28055852 L222.907265,22.657077 L222.907265,22.657077 Z" id="Stroke-199" stroke="#484F59" stroke-width="1.20000002"></path>
                <path id="Stroke-200" stroke="#484F59" stroke-width="1.20000002"></path>
                <path id="Stroke-201" stroke="#484F59" stroke-width="1.20000002"></path>
                <path id="Stroke-202" stroke="#484F59" stroke-width="1.20000002"></path>
                <path id="Stroke-203" stroke="#484F59" stroke-width="1.20000002"></path>
                <path id="Stroke-204" stroke="#484F59" stroke-width="1.20000002"></path>
                <path id="Stroke-205" stroke="#484F59" stroke-width="1.20000002"></path>
                <path id="Stroke-206" stroke="#484F59" stroke-width="1.20000002"></path>
                <path id="Stroke-207" stroke="#484F59" stroke-width="1.20000002"></path>
                <path d="M226.903147,34.8692133 C226.903147,35.4410504 227.369654,35.908917 227.94164,35.908917 L269.088169,35.908917 C269.658439,35.908917 270.126662,35.4410504 270.126662,34.8692133 L270.126662,33.2439244 L271.553625,31.6186356 L270.126662,29.7334207 L270.126662,28.3684874 C270.126662,27.7962207 269.658439,27.3279244 269.088169,27.3279244 L227.94164,27.3279244 C227.369654,27.3279244 226.903147,27.7962207 226.903147,28.3684874 L226.903147,34.8692133 Z" id="Fill-208" fill="#FFFFFF"></path>
                <path d="M226.903147,34.8692133 C226.903147,35.4410504 227.369654,35.908917 227.94164,35.908917 L269.088169,35.908917 C269.658439,35.908917 270.126662,35.4410504 270.126662,34.8692133 L270.126662,33.2439244 L271.553625,31.6186356 L270.126662,29.7334207 L270.126662,28.3684874 C270.126662,27.7962207 269.658439,27.3279244 269.088169,27.3279244 L227.94164,27.3279244 C227.369654,27.3279244 226.903147,27.7962207 226.903147,28.3684874 L226.903147,34.8692133 L226.903147,34.8692133 Z" id="Stroke-209" stroke="#484F59" stroke-width="1.20000002"></path>
                <path id="Stroke-210" stroke="#484F59" stroke-width="1.20000002"></path>
                <path id="Stroke-211" stroke="#484F59" stroke-width="1.20000002"></path>
                <path id="Stroke-212" stroke="#484F59" stroke-width="1.20000002"></path>
                <polygon id="Fill-213" fill="#F7FAFB" points="186.558256 52.8710815 222.643097 52.8710815 222.643097 27.5770667 186.558256 27.5770667"></polygon>
                <polygon id="Stroke-214" stroke="#484F59" stroke-width="1.20000002" points="186.558256 52.8710815 222.643097 52.8710815 222.643097 27.5770667 186.558256 27.5770667"></polygon>
                <polygon id="Fill-215" fill="#4BA2F2" points="189.470067 49.953037 219.73 49.953037 219.73 30.4955407 189.470067 30.4955407"></polygon>
                <path d="M220.37312,29.8510533 L219.086795,29.8510533 L190.113186,29.8510533 L188.826862,29.8510533 L188.826862,31.1399422 L188.826862,49.3085496 L188.826862,50.5974385 L190.113186,50.5974385 L219.086795,50.5974385 L220.37312,50.5974385 L220.37312,49.3085496 L220.37312,31.1399422 L220.37312,29.8510533 Z M190.113186,49.3085496 L219.086795,49.3085496 L219.086795,31.1399422 L190.113186,31.1399422 L190.113186,49.3085496 Z" id="Fill-216" fill="#484F59"></path>
                <path d="M215.162089,36.0101807 C215.162089,37.2518104 214.157898,38.2584326 212.918739,38.2584326 C211.680866,38.2584326 210.675817,37.2518104 210.675817,36.0101807 C210.675817,34.7694104 211.680866,33.7619289 212.918739,33.7619289 C214.157898,33.7619289 215.162089,34.7694104 215.162089,36.0101807" id="Fill-217" fill="#FFC857"></path>
                <path d="M215.162089,36.0101807 C215.162089,37.2518104 214.157898,38.2584326 212.918739,38.2584326 C211.680866,38.2584326 210.675817,37.2518104 210.675817,36.0101807 C210.675817,34.7694104 211.680866,33.7619289 212.918739,33.7619289 C214.157898,33.7619289 215.162089,34.7694104 215.162089,36.0101807 L215.162089,36.0101807 Z" id="Stroke-218" stroke="#484F59" stroke-width="1.20000002" stroke-linecap="round"></path>
                <polygon id="Fill-219" fill="#CFD7E6" points="189.469938 49.953037 189.469938 41.5576444 194.964689 34.2294519 199.728807 40.5853926 202.810413 36.4734074 207.916265 43.2851852 219.729871 43.2851852 219.729871 49.953037"></polygon>
                <path d="M194.964475,33.1563659 L193.936272,34.5281733 L189.084684,40.9988252 L188.826562,41.3425289 L188.826562,41.7725881 L188.826562,43.9297585 L188.826562,48.24324 L188.826562,49.3087215 L188.826562,50.5976104 L190.112886,50.5976104 L219.086923,50.5976104 L220.373248,50.5976104 L220.373248,49.3087215 L220.373248,43.9297585 L220.373248,42.6408696 L219.086923,42.6408696 L208.237203,42.6408696 L207.761691,42.0067363 L203.838829,36.7725585 L202.810627,35.3994622 L201.781996,36.7725585 L199.728593,39.5123067 L195.992677,34.5281733 L194.964475,33.1563659 Z M194.964475,35.3027956 L199.728593,41.6583067 L202.810627,37.5463215 L206.73306,42.7804993 L207.594898,43.9297585 L219.086923,43.9297585 L219.086923,49.3087215 L190.112886,49.3087215 L190.112886,48.24324 L190.112886,43.9297585 L190.112886,41.7725881 L194.964475,35.3027956 Z" id="Fill-220" fill="#484F59"></path>
                <path d="M6.50490157,30.9509481 L5.60233034,30.9509481 C4.00299986,30.9509481 2.70209672,29.6470222 2.70209672,28.0440741 L2.70209672,21.2000741 C2.70209672,19.5975556 4.00299986,18.2932 5.60233034,18.2932 L6.50490157,18.2932 C8.10380328,18.2932 9.40513519,19.5975556 9.40513519,21.2000741 L9.40513519,28.0440741 C9.40513519,29.6470222 8.10380328,30.9509481 6.50490157,30.9509481 L6.50490157,30.9509481 Z" id="Stroke-221" stroke="#484F59" stroke-width="1.20000002"></path>
                <polygon id="Fill-222" fill="#FFC400" points="0.963457265 32.0465037 11.1438604 32.0465037 11.1438604 22.4915407 0.963457265 22.4915407"></polygon>
                <path d="M11.7871085,21.8470963 L10.5007838,21.8470963 L1.60670541,21.8470963 L0.320380627,21.8470963 L0.320380627,23.1359852 L0.320380627,31.4020593 L0.320380627,32.6909481 L1.60670541,32.6909481 L10.5007838,32.6909481 L11.7871085,32.6909481 L11.7871085,31.4020593 L11.7871085,23.1359852 L11.7871085,21.8470963 Z M1.60670541,31.4020593 L10.5007838,31.4020593 L10.5007838,23.1359852 L1.60670541,23.1359852 L1.60670541,31.4020593 Z" id="Fill-223" fill="#484F59"></path>
                <path d="M5.85839473,26.2004474 C5.74133917,26.1304178 5.67102009,26.008403 5.67102009,25.8734993 C5.67102009,25.6616919 5.84295883,25.48984 6.0539161,25.48984 C6.26444459,25.48984 6.43638333,25.6616919 6.43638333,25.8734993 C6.43638333,26.008403 6.36606425,26.1304178 6.24900869,26.2004474 L6.0539161,26.3181659 L5.85839473,26.2004474 Z M6.00074801,28.6403141 L6.0539161,28.0624622 L6.10665541,28.6403141 L6.00074801,28.6403141 Z" id="Fill-224" fill="#CDD5D7"></path>
                <path d="M6.0539161,24.8452667 C5.48836197,24.8452667 5.02785769,25.3049704 5.02785769,25.8738 C5.02785769,26.2475778 5.22895313,26.5740963 5.52823803,26.7532519 L5.29584202,29.2846296 L6.0539161,29.2846296 L6.81199017,29.2846296 L6.57959416,26.7532519 C6.87845028,26.5740963 7.07954573,26.2475778 7.07954573,25.8738 C7.07954573,25.3049704 6.62032778,24.8452667 6.0539161,24.8452667" id="Fill-225" fill="#484F59"></path>
                <polygon id="Fill-226" fill="#FFFFFF" points="13.9591966 32.0465037 52.8255 32.0465037 52.8255 22.4915407 13.9591966 22.4915407"></polygon>
                <path d="M53.4683194,21.8470963 L52.1819946,21.8470963 L14.602016,21.8470963 L13.3156912,21.8470963 L13.3156912,23.1359852 L13.3156912,31.4020593 L13.3156912,32.6909481 L14.602016,32.6909481 L52.1819946,32.6909481 L53.4683194,32.6909481 L53.4683194,31.4020593 L53.4683194,23.1359852 L53.4683194,21.8470963 Z M14.602016,31.4020593 L52.1819946,31.4020593 L52.1819946,23.1359852 L14.602016,23.1359852 L14.602016,31.4020593 Z" id="Fill-227" fill="#484F59"></path>
                <path id="Stroke-228" stroke="#484F59" stroke-width="1.20000002"></path>
                <path id="Stroke-229" stroke="#484F59" stroke-width="1.20000002"></path>
                <path id="Stroke-230" stroke="#484F59" stroke-width="1.20000002"></path>
                <path id="Stroke-231" stroke="#484F59" stroke-width="1.20000002"></path>
                <path id="Stroke-232" stroke="#484F59" stroke-width="1.20000002"></path>
                <path id="Stroke-233" stroke="#484F59" stroke-width="1.20000002"></path>
                <path id="Stroke-234" stroke="#484F59" stroke-width="1.20000002"></path>
                <path id="Stroke-235" stroke="#484F59" stroke-width="1.20000002"></path>
                <path id="Stroke-236" stroke="#484F59" stroke-width="1.20000002" stroke-dasharray="1.164799993705749,1.164799993705749"></path>
                <path id="Stroke-237" stroke="#484F59" stroke-width="1.20000002"></path>
                <path id="Stroke-238" stroke="#2B232E" stroke-width="1.20000002"></path>
                <path id="Stroke-239" stroke="#2B232E" stroke-width="1.20000002"></path>
                <path d="M174.122411,47.4314548 C174.122411,48.8298993 171.549762,48.8298993 171.549762,50.2283437 C171.549762,51.6267881 174.122411,51.6267881 174.122411,53.0256622 C174.122411,54.4249659 171.549762,54.4249659 171.549762,55.8229807 C171.549762,57.2214252 174.122411,57.2214252 174.122411,58.61944 C174.122411,60.0187437 171.549762,60.0187437 171.549762,61.418477 C171.549762,62.8182104 174.122411,62.8182104 174.122411,64.218803 C174.122411,65.6185363 171.549762,65.6185363 171.549762,67.0191289" id="Stroke-240" stroke="#484F59" stroke-width="1.20000002"></path>
                <path d="M181.411156,23.8018252 C181.411156,25.330877 178.838507,25.330877 178.838507,26.8590696 C178.838507,28.3872622 181.411156,28.3872622 181.411156,29.9150252 C181.411156,31.4436474 178.838507,31.4436474 178.838507,32.9726993 C178.838507,34.5026104 181.411156,34.5026104 181.411156,36.0329511 C181.411156,37.5628622 178.838507,37.5628622 178.838507,39.093203" id="Stroke-241" stroke="#484F59" stroke-width="1.20000002"></path>
                <path id="Stroke-242" stroke="#484F59" stroke-width="1.20000002"></path>
                <path id="Stroke-243" stroke="#484F59" stroke-width="1.20000002"></path>
                <path d="M167.366248,35.9346519 L168.531229,36.6078815" id="Stroke-244" stroke="#484F59" stroke-width="1.20000002"></path>
                <path d="M167.366248,40.8443733 L168.531229,40.1707141" id="Stroke-245" stroke="#484F59" stroke-width="1.20000002"></path>
                <path id="Stroke-246" stroke="#484F59" stroke-width="1.20000002"></path>
                <path d="M175.853805,40.8443733 L174.688823,40.1711437" id="Stroke-247" stroke="#484F59" stroke-width="1.20000002"></path>
                <path d="M175.853805,35.9346519 L174.688823,36.6096" id="Stroke-248" stroke="#484F59" stroke-width="1.20000002"></path>
                <path id="Stroke-249" stroke="#484F59" stroke-width="1.20000002"></path>
                <path id="Stroke-250" stroke="#484F59" stroke-width="1.20000002"></path>
                <polyline id="Stroke-251" stroke="#424953" stroke-width="1.20000002" points="251.087082 41.8689111 248.931631 44.5760074 247.942447 43.6596074"></polyline>
                <path id="Stroke-252" stroke="#484F59" stroke-width="1.20000002"></path>
                <path id="Stroke-253" stroke="#484F59" stroke-width="1.20000002"></path>
                <polyline id="Stroke-254" stroke="#424953" stroke-width="1.20000002" points="251.087082 50.8911333 248.931631 53.5982296 247.942447 52.6818296"></polyline>
            </g>
            <g id="Group-2-Copy-2" transform="translate(124.256228, 0.000000)">
                <g id="Group-4-Copy-5">
                    <g id="Rectangle-36">
                        <use fill="black" fill-opacity="1" filter="url(#filter-2)" xlink:href="#path-1"></use>
                        <use stroke="#CFD7E6" mask="url(#mask-3)" stroke-width="1" fill="#FFFFFF" fill-rule="evenodd" xlink:href="#path-1"></use>
                    </g>
                    <g id="Page-1-Copy-5" transform="translate(6.248517, 6.265432)">
                        <path d="M2.64265067,2.02496099 C2.46497061,1.93604518 0.211116568,3.80405043 0.211116568,5.17837963 C0.208006195,7.05682283 2.84015935,11.312411 3.2833875,12.9585133 C3.66479699,14.3703417 2.63642992,16.0647679 2.91908507,16.1416994 C3.17724603,16.3079333 5.63288551,13.8144246 5.72852948,12.7513008 C5.85177802,11.058421 2.86115437,6.12204702 2.62282204,4.84745817 C2.34638764,3.35985796 2.84171454,2.05820778 2.64265067,2.02496099 L2.64265067,2.02496099 Z" id="Fill-1" fill="#1A5099"></path>
                        <path d="M8.26814904,0.0815705936 C8.04186941,-0.0317004203 5.16671836,2.34815064 5.16671836,4.10288488 C5.16360799,6.49819957 8.52008926,11.9255435 9.08501076,14.0227969 C9.57100654,15.8231488 8.26037311,17.9841897 8.6188436,18.0808373 C8.95009833,18.2919157 12.0799112,15.114915 12.2031597,13.7572092 C12.3610111,11.5992611 8.54574984,5.30518131 8.24209967,3.67724875 C7.88984993,1.7848883 8.52008926,0.123708957 8.26814904,0.0815705936 L8.26814904,0.0815705936 Z" id="Fill-2" fill="#4BA2F2"></path>
                        <path d="M14.0740491,2.02496099 C13.8979242,1.93604518 11.642515,3.80405043 11.642515,5.17837963 C11.6397934,7.05682283 14.2715577,11.312411 14.7151747,12.9585133 C15.0961954,14.3703417 14.0682171,16.0647679 14.3504835,16.1416994 C14.6101996,16.3079333 17.0662279,13.8144246 17.1603167,12.7513008 C17.2831764,11.058421 14.2929416,6.12204702 14.0542204,4.84745817 C13.7781748,3.35985796 14.2731129,2.05820778 14.0740491,2.02496099 L14.0740491,2.02496099 Z" id="Fill-3" fill="#1A5099"></path>
                    </g>
                </g>
            </g>
        </g>
    </g>
</svg>