<?xml version="1.0" encoding="UTF-8" standalone="no"?>
<svg width="130px" height="130px" viewBox="0 0 130 130" version="1.1" xmlns="http://www.w3.org/2000/svg" xmlns:xlink="http://www.w3.org/1999/xlink">
    <!-- Generator: Sketch 3.6.1 (26313) - http://www.bohemiancoding.com/sketch -->
    <title>ico-paid-post</title>
    <desc>Created with Sketch.</desc>
    <defs></defs>
    <g id="Page-1" stroke="none" stroke-width="1" fill="none" fill-rule="evenodd">
        <g id="icons" transform="translate(-530.000000, -689.000000)">
            <g id="ico-paid-post" transform="translate(531.000000, 690.000000)">
                <path d="M0,64 C0,99.346224 28.6460043,128 64,128 L64,128 C99.346224,128 128,99.3539957 128,64 L128,64 C128,28.653776 99.3539957,0 64,0 L64,0 C28.653776,0 0,28.6460043 0,64 L0,64 Z" id="Fill-1" stroke="#CFD7E6" stroke-width="2" fill="#EEF1F6"></path>
                <path d="M67,93 L35,93 L35,39 L39,35 L43,39 L47,35 L51,39 L55,35 L59,39 L63,35 L67,39 L71,35 L75,39 L75,85" id="Fill-2" fill="#FFFFFF"></path>
                <path d="M67,93 L67,85 L75,85 L67,93 Z" id="Fill-3" fill="#CFD7E6"></path>
                <path d="M75,85 L67,93 L35,93 L35,39 L39,35 L43,39 L47,35 L51,39 L55,35 L59,39 L63,35 L67,39 L71,35 L75,39 L75,85 L75,85 Z" id="Stroke-4" stroke="#4D6892" stroke-width="2"></path>
                <path d="M67,93 L67,85 L75,85" id="Stroke-5" stroke="#4D6892" stroke-width="2"></path>
                <g id="Group-42" transform="translate(39.000000, 35.000000)">
                    <path d="M8,16 C8,18.209 6.209,20 4,20 C1.791,20 0,18.209 0,16 C0,13.791 1.791,12 4,12 C6.209,12 8,13.791 8,16 L8,16 Z" id="Fill-6" fill="#FFC857"></path>
                    <path d="M8,13 L4,17 L2,15" id="Stroke-8" stroke="#4D6892" stroke-width="2"></path>
                    <path d="M8,28 C8,30.209 6.209,32 4,32 C1.791,32 0,30.209 0,28 C0,25.791 1.791,24 4,24 C6.209,24 8,25.791 8,28" id="Fill-10" fill="#FFC857"></path>
                    <path d="M8,25 L4,29 L2,27" id="Stroke-12" stroke="#4D6892" stroke-width="2"></path>
                    <path d="M8,40 C8,42.209 6.209,44 4,44 C1.791,44 0,42.209 0,40 C0,37.791 1.791,36 4,36 C6.209,36 8,37.791 8,40" id="Fill-14" fill="#FFC857"></path>
                    <path d="M8,37 L4,41 L2,39" id="Stroke-16" stroke="#4D6892" stroke-width="2"></path>
                    <path d="M13,14 L31,14" id="Stroke-18" stroke="#4D6892" stroke-width="2"></path>
                    <path d="M13,18 L25,18" id="Stroke-20" stroke="#4D6892" stroke-width="2"></path>
                    <path d="M13,26 L31,26" id="Stroke-22" stroke="#4D6892" stroke-width="2"></path>
                    <path d="M13,30 L21,30" id="Stroke-24" stroke="#4D6892" stroke-width="2"></path>
                    <path d="M13,38 L31,38" id="Stroke-26" stroke="#4D6892" stroke-width="2"></path>
                    <path d="M13,42 L19,42" id="Stroke-28" stroke="#4D6892" stroke-width="2"></path>
                    <path d="M21,42 L27,42" id="Stroke-30" stroke="#4D6892" stroke-width="2"></path>
                    <path d="M42,48 L50,48 L50,8 L42,8 L42,48 Z" id="Fill-32" fill="#FFC857"></path>
                    <path d="M50,48 L50,53 L46,57 L42,53 L42,48" id="Fill-34" fill="#FFFFFF"></path>
                    <path d="M42,48 L42,8" id="Stroke-35" stroke="#4D6892" stroke-width="2"></path>
                    <path d="M50,8 L50,48" id="Stroke-36" stroke="#4D6892" stroke-width="2"></path>
                    <path d="M46,57 L46,59" id="Stroke-37" stroke="#4D6892" stroke-width="2"></path>
                    <path d="M46,8 L46,48" id="Stroke-38" stroke="#4D6892" stroke-width="2"></path>
                    <path d="M42,48 L50,48 L50,53 L46,57 L42,53 L42,48 L42,48 Z" id="Stroke-39" stroke="#4D6892" stroke-width="2"></path>
                    <path d="M42,3 C42,1.344 43.344,0 45,0 L47,0 C48.656,0 50,1.344 50,3 L50,8 L42,8 L42,3 Z" id="Fill-40" fill="#FFFFFF"></path>
                    <path d="M42,3 C42,1.344 43.344,0 45,0 L47,0 C48.656,0 50,1.344 50,3 L50,8 L42,8 L42,3 L42,3 Z" id="Stroke-41" stroke="#4D6892" stroke-width="2" fill="#4BA2F2"></path>
                </g>
            </g>
        </g>
    </g>
</svg>