<?xml version="1.0" encoding="UTF-8" standalone="no"?>
<svg width="156px" height="124px" viewBox="0 0 156 124" version="1.1" xmlns="http://www.w3.org/2000/svg" xmlns:xlink="http://www.w3.org/1999/xlink">
    <!-- Generator: Sketch 3.6.1 (26313) - http://www.bohemiancoding.com/sketch -->
    <title>ico-paid-curate-4</title>
    <desc>Created with Sketch.</desc>
    <defs></defs>
    <g id="Icons" stroke="none" stroke-width="1" fill="none" fill-rule="evenodd">
        <g id="ico-paid-curate-4">
            <g id="Group-9" transform="translate(12.000000, 25.000000)">
                <g id="ico-ipfs-copy" transform="translate(0.000000, 15.000000)">
                    <g id="ico-ipfs">
                        <g id="Group-4">
                            <path d="M67.305603,65.9829588 C102.651827,60.1853871 132.751418,45.7032684 134.535798,33.6303135 C136.319785,21.5600126 106.228358,7.07651465 67.305603,1.27766829 C28.3914044,-4.51990336 -1.7089713,9.95966592 0.0754082664,33.6303135 C1.85939558,57.2957577 31.9516074,71.7818051 67.305603,65.9829588 Z" id="Fill-1-Copy-6" fill="#EEF1F6"></path>
                            <path d="M63.5000022,45.9942285 C76.8915884,43.7977087 88.2953885,38.3108838 88.9714345,33.7368163 C89.6473319,29.1637542 78.2466248,23.6764068 63.5000022,21.479404 C48.7566212,19.2828842 37.3525239,24.7687432 38.0285698,33.7368163 C38.7044672,42.7029179 50.1054715,48.1912313 63.5000022,45.9942285 Z" id="Fill-1-Copy-8" fill="#CFD7E6"></path>
                        </g>
                    </g>
                </g>
                <g id="Group-37" transform="translate(19.000000, 0.000000)">
                    <path d="M50,3 C50,1.343 48.656,0 47,0 L3,0 C1.344,0 0,1.343 0,3 L0,35 C0,36.657 1.344,38 3,38 L47,38 C48.656,38 50,36.657 50,35 L50,3 L50,3 Z" id="Fill-3" fill="#FFFFFF"></path>
                    <path d="M50,3 C50,1.343 48.656,0 47,0 L3,0 C1.344,0 0,1.343 0,3 L0,35 C0,36.657 1.344,38 3,38 L47,38 C48.656,38 50,36.657 50,35 L50,3 L50,3 Z" id="Stroke-5" stroke="#4D5152" stroke-width="2"></path>
                    <path d="M30,38 L30,48" id="Stroke-7" stroke="#4D5152" stroke-width="2"></path>
                    <path d="M20,48 L20,38" id="Stroke-9" stroke="#4D5152" stroke-width="2"></path>
                    <path d="M17,48 L33,48" id="Stroke-11" stroke="#4D5152" stroke-width="2"></path>
                    <path d="M1,30 L49,30" id="Stroke-13" stroke="#4D5152" stroke-width="2"></path>
                    <path d="M24,34 L26,34" id="Stroke-15" stroke="#4D5152" stroke-width="2"></path>
                    <path d="M3,27 L47,27 L47,3 L3,3 L3,27 Z" id="Fill-17" fill="#4BA2F2"></path>
                    <path d="M6,12 L44,12 L44,6 L6,6 L6,12 Z" id="Fill-19" fill="#FFFFFF"></path>
                    <path d="M5,16 L18,16" id="Stroke-20" stroke="#4D5152" stroke-width="2"></path>
                    <path d="M20,16 L33,16" id="Stroke-21" stroke="#4D5152" stroke-width="2"></path>
                    <path d="M5,20 L18,20" id="Stroke-22" stroke="#4D5152" stroke-width="2"></path>
                    <path d="M20,20 L33,20" id="Stroke-23" stroke="#4D5152" stroke-width="2"></path>
                    <path d="M5,24 L18,24" id="Stroke-24" stroke="#4D5152" stroke-width="2"></path>
                    <path d="M20,24 L33,24" id="Stroke-25" stroke="#4D5152" stroke-width="2"></path>
                    <path d="M62,46 C62,47.104 61.105,48 60,48 L38,48 C36.896,48 36,47.104 36,46 L36,14 C36,12.895 36.896,12 38,12 L60,12 C61.105,12 62,12.895 62,14 L62,46 Z" id="Fill-26" fill="#FFFFFF"></path>
                    <g id="Group-17" transform="translate(62.000000, 9.000000)">
                        <path d="M10.5517241,14.1538462 L13.6551724,12.3076923 L19.2413793,6.76923077 L21.7241379,1.84615385 C21.7241379,0.827076923 22.5577241,0 23.5862069,0 C24.6146897,0 25.4482759,0.827076923 25.4482759,1.84615385 L25.4482759,4.92307692 L22.9655172,12.3076923 L33.5172414,12.3076923 C34.8883448,12.3076923 36,13.4098462 36,14.7692308 C36,16.1286154 34.8883448,17.2307692 33.5172414,17.2307692 L32.2758621,17.2307692 C33.6469655,17.2307692 34.7586207,18.3329231 34.7586207,19.6923077 C34.7586207,21.0516923 33.6469655,22.1538462 32.2758621,22.1538462 L31.0344828,22.1538462 C32.4055862,22.1538462 33.5172414,23.256 33.5172414,24.6153846 C33.5172414,25.9747692 32.4055862,27.0769231 31.0344828,27.0769231 L29.7931034,27.0769231 C31.1642069,27.0769231 32.2758621,28.1790769 32.2758621,29.5384615 C32.2758621,30.8978462 31.1642069,32 29.7931034,32 L16.137931,32 L13.6551724,30.7692308 L10.5517241,30.7692308 L10.5517241,14.1538462 L10.5517241,14.1538462 Z" id="Fill-2" fill="#FFFFFF"></path>
                        <path d="M0,32 L10.5517241,32 L10.5517241,12.3076923 L0,12.3076923 L0,32 Z" id="Fill-4" fill="#4D6892"></path>
                        <path d="M0,32 L3.10344828,32 L3.10344828,12.3076923 L0,12.3076923 L0,32 Z" id="Fill-6" fill="#FFC857"></path>
                        <path d="M0,12.3076923 L10.5517241,12.3076923 L10.5517241,32 L0,32" id="Stroke-7" stroke="#4D5152" stroke-width="2"></path>
                        <path d="M6.82758621,30.1538462 L6.82758621,28.9230769" id="Stroke-8" stroke="#4D5152" stroke-width="2"></path>
                        <path d="M6.82758621,27.6923077 L6.82758621,26.4615385" id="Stroke-9" stroke="#4D5152" stroke-width="2"></path>
                        <path d="M32.2758621,17.2307692 L28.5517241,17.2307692" id="Stroke-10" stroke="#4D5152" stroke-width="2"></path>
                        <path d="M31.0344828,22.1538462 L27.3103448,22.1538462" id="Stroke-11" stroke="#4D5152" stroke-width="2"></path>
                        <path d="M29.7931034,27.0769231 L26.0689655,27.0769231" id="Stroke-12" stroke="#4D5152" stroke-width="2"></path>
                        <path d="M32.2758621,17.2307692 L28.5517241,17.2307692" id="Stroke-13" stroke="#4D5152" stroke-width="2"></path>
                        <path d="M31.0344828,22.1538462 L27.3103448,22.1538462" id="Stroke-14" stroke="#4D5152" stroke-width="2"></path>
                        <path d="M29.7931034,27.0769231 L26.0689655,27.0769231" id="Stroke-15" stroke="#4D5152" stroke-width="2"></path>
                        <path d="M10.5517241,14.1538462 L13.6551724,12.3076923 L19.2413793,6.76923077 L21.7241379,1.84615385 C21.7241379,0.827076923 22.5577241,0 23.5862069,0 C24.6146897,0 25.4482759,0.827076923 25.4482759,1.84615385 L25.4482759,4.92307692 L22.9655172,12.3076923 L33.5172414,12.3076923 C34.8883448,12.3076923 36,13.4098462 36,14.7692308 C36,16.1286154 34.8883448,17.2307692 33.5172414,17.2307692 L32.2758621,17.2307692 C33.6469655,17.2307692 34.7586207,18.3329231 34.7586207,19.6923077 C34.7586207,21.0516923 33.6469655,22.1538462 32.2758621,22.1538462 L31.0344828,22.1538462 C32.4055862,22.1538462 33.5172414,23.256 33.5172414,24.6153846 C33.5172414,25.9747692 32.4055862,27.0769231 31.0344828,27.0769231 L29.7931034,27.0769231 C31.1642069,27.0769231 32.2758621,28.1790769 32.2758621,29.5384615 C32.2758621,30.8978462 31.1642069,32 29.7931034,32 L16.137931,32 L13.6551724,30.7692308 L10.5517241,30.7692308" id="Stroke-16" stroke="#4D5152" stroke-width="2" fill="#FFC857"></path>
                    </g>
                    <path d="M38,12 L60,12 C61.105,12 62,12.895 62,14 L62,46 C62,47.104 61.105,48 60,48 L38,48 C36.896,48 36,47.104 36,46 L36,14 C36,12.895 36.896,12 38,12 Z" id="Stroke-27" stroke="#4D5152" stroke-width="2" fill="#EEF1F6"></path>
                    <path d="M39,41 L59,41 L59,15 L39,15 L39,41 Z" id="Fill-29" fill="#FFC857"></path>
                    <path d="M51,44 L47,44" id="Stroke-28" stroke="#4D5152" stroke-width="2"></path>
                    <path d="M42,22 L56,22 L56,18 L42,18 L42,22 Z" id="Fill-30" fill="#FFFFFF"></path>
                    <path d="M42,22 L56,22 L56,18 L42,18 L42,22 Z" id="Stroke-31" stroke="#4D5152" stroke-width="2"></path>
                    <path d="M41,26 L57,26" id="Stroke-32" stroke="#4D5152" stroke-width="2"></path>
                    <path d="M41,30 L57,30" id="Stroke-33" stroke="#4D5152" stroke-width="2"></path>
                    <path d="M41,34 L57,34" id="Stroke-34" stroke="#4D5152" stroke-width="2"></path>
                    <path d="M41,38 L57,38" id="Stroke-35" stroke="#4D5152" stroke-width="2"></path>
                    <path d="M33,12 L6,12 L6,6 L44,6 L44,9" id="Stroke-36" stroke="#4D5152" stroke-width="2"></path>
                </g>
            </g>
            <g id="Group-17" transform="translate(93.000000, 34.000000)">
                <path d="M10.5517241,14.1538462 L13.6551724,12.3076923 L19.2413793,6.76923077 L21.7241379,1.84615385 C21.7241379,0.827076923 22.5577241,0 23.5862069,0 C24.6146897,0 25.4482759,0.827076923 25.4482759,1.84615385 L25.4482759,4.92307692 L22.9655172,12.3076923 L33.5172414,12.3076923 C34.8883448,12.3076923 36,13.4098462 36,14.7692308 C36,16.1286154 34.8883448,17.2307692 33.5172414,17.2307692 L32.2758621,17.2307692 C33.6469655,17.2307692 34.7586207,18.3329231 34.7586207,19.6923077 C34.7586207,21.0516923 33.6469655,22.1538462 32.2758621,22.1538462 L31.0344828,22.1538462 C32.4055862,22.1538462 33.5172414,23.256 33.5172414,24.6153846 C33.5172414,25.9747692 32.4055862,27.0769231 31.0344828,27.0769231 L29.7931034,27.0769231 C31.1642069,27.0769231 32.2758621,28.1790769 32.2758621,29.5384615 C32.2758621,30.8978462 31.1642069,32 29.7931034,32 L16.137931,32 L13.6551724,30.7692308 L10.5517241,30.7692308 L10.5517241,14.1538462 L10.5517241,14.1538462 Z" id="Fill-2" fill="#FFFFFF"></path>
                <path d="M0,32 L10.5517241,32 L10.5517241,12.3076923 L0,12.3076923 L0,32 Z" id="Fill-4" fill="#4D6892"></path>
                <path d="M0,32 L3.10344828,32 L3.10344828,12.3076923 L0,12.3076923 L0,32 Z" id="Fill-6" fill="#FFC857"></path>
                <path d="M0,12.3076923 L10.5517241,12.3076923 L10.5517241,32 L0,32" id="Stroke-7" stroke="#4D5152" stroke-width="2"></path>
                <path d="M6.82758621,30.1538462 L6.82758621,28.9230769" id="Stroke-8" stroke="#4D5152" stroke-width="2"></path>
                <path d="M6.82758621,27.6923077 L6.82758621,26.4615385" id="Stroke-9" stroke="#4D5152" stroke-width="2"></path>
                <path d="M32.2758621,17.2307692 L28.5517241,17.2307692" id="Stroke-10" stroke="#4D5152" stroke-width="2"></path>
                <path d="M31.0344828,22.1538462 L27.3103448,22.1538462" id="Stroke-11" stroke="#4D5152" stroke-width="2"></path>
                <path d="M29.7931034,27.0769231 L26.0689655,27.0769231" id="Stroke-12" stroke="#4D5152" stroke-width="2"></path>
                <path d="M32.2758621,17.2307692 L28.5517241,17.2307692" id="Stroke-13" stroke="#4D5152" stroke-width="2"></path>
                <path d="M31.0344828,22.1538462 L27.3103448,22.1538462" id="Stroke-14" stroke="#4D5152" stroke-width="2"></path>
                <path d="M29.7931034,27.0769231 L26.0689655,27.0769231" id="Stroke-15" stroke="#4D5152" stroke-width="2"></path>
                <path d="M10.5517241,14.1538462 L13.6551724,12.3076923 L19.2413793,6.76923077 L21.7241379,1.84615385 C21.7241379,0.827076923 22.5577241,0 23.5862069,0 C24.6146897,0 25.4482759,0.827076923 25.4482759,1.84615385 L25.4482759,4.92307692 L22.9655172,12.3076923 L33.5172414,12.3076923 C34.8883448,12.3076923 36,13.4098462 36,14.7692308 C36,16.1286154 34.8883448,17.2307692 33.5172414,17.2307692 L32.2758621,17.2307692 C33.6469655,17.2307692 34.7586207,18.3329231 34.7586207,19.6923077 C34.7586207,21.0516923 33.6469655,22.1538462 32.2758621,22.1538462 L31.0344828,22.1538462 C32.4055862,22.1538462 33.5172414,23.256 33.5172414,24.6153846 C33.5172414,25.9747692 32.4055862,27.0769231 31.0344828,27.0769231 L29.7931034,27.0769231 C31.1642069,27.0769231 32.2758621,28.1790769 32.2758621,29.5384615 C32.2758621,30.8978462 31.1642069,32 29.7931034,32 L16.137931,32 L13.6551724,30.7692308 L10.5517241,30.7692308" id="Stroke-16" stroke="#4D5152" stroke-width="2" fill="#EEF1F6"></path>
            </g>
        </g>
    </g>
</svg>