<?xml version="1.0" encoding="UTF-8" standalone="no"?>
<svg width="130px" height="130px" viewBox="0 0 130 130" version="1.1" xmlns="http://www.w3.org/2000/svg" xmlns:xlink="http://www.w3.org/1999/xlink">
    <!-- Generator: Sketch 3.6.1 (26313) - http://www.bohemiancoding.com/sketch -->
    <title>ico-paid-curate</title>
    <desc>Created with Sketch.</desc>
    <defs></defs>
    <g id="Page-1" stroke="none" stroke-width="1" fill="none" fill-rule="evenodd">
        <g id="icons" transform="translate(-1195.000000, -215.000000)">
            <g id="ico-paid-curate" transform="translate(1196.000000, 216.000000)">
                <path d="M0,64 C0,99.346224 28.6460043,128 64,128 L64,128 C99.346224,128 128,99.3539957 128,64 L128,64 C128,28.653776 99.3539957,0 64,0 L64,0 C28.653776,0 0,28.6460043 0,64 L0,64 Z" id="Fill-1" stroke="#CFD7E6" stroke-width="2" stroke-linecap="round" stroke-linejoin="round" fill="#EEF1F6"></path>
                <g id="Group" transform="translate(36.000000, 34.000000)">
                    <g id="Page-1">
                        <g id="Group-4">
                            <path d="M32,58 L0,58 L0,4 L4,0 L8,4 L12,0 L16,4 L20,0 L24,4 L28,0 L32,4 L36,0 L40,4 L40,50" id="Fill-2" fill="#FFFFFF"></path>
                            <path d="M32,58 L0,58 L0,4 L4,0 L8,4 L12,0 L16,4 L20,0 L24,4 L28,0 L32,4 L36,0 L40,4 L40,50" id="Stroke-3" stroke="#4D6892" stroke-width="2"></path>
                        </g>
                        <path d="M32,58 L32,50 L40,50 L32,58 Z" id="Fill-5" fill="#FFC857"></path>
                        <path d="M32,58 L32,50 L40,50 L32,58 L32,58 Z" id="Stroke-6" stroke="#4D6892" stroke-width="2" stroke-linejoin="round"></path>
                        <path d="M10,26 L18,26" id="Stroke-7" stroke="#4D6892" stroke-width="2"></path>
                        <path d="M6,27 L8,27 L8,25 L6,25 L6,27 Z" id="Fill-8" fill="#FFC857"></path>
                        <path d="M10,30 L18,30" id="Stroke-9" stroke="#4D6892" stroke-width="2"></path>
                        <path d="M6,31 L8,31 L8,29 L6,29 L6,31 Z" id="Fill-10" fill="#FFC857"></path>
                        <path d="M10,34 L18,34" id="Stroke-11" stroke="#4D6892" stroke-width="2"></path>
                        <path d="M6,35 L8,35 L8,33 L6,33 L6,35 Z" id="Fill-12" fill="#FFC857"></path>
                        <path d="M10,38 L18,38" id="Stroke-13" stroke="#4D6892" stroke-width="2"></path>
                        <path d="M6,39 L8,39 L8,37 L6,37 L6,39 Z" id="Fill-14" fill="#FFC857"></path>
                        <path d="M26,26 L34,26" id="Stroke-15" stroke="#4D6892" stroke-width="2"></path>
                        <path d="M22,27 L24,27 L24,25 L22,25 L22,27 Z" id="Fill-16" fill="#4BA2F2"></path>
                        <path d="M26,30 L34,30" id="Stroke-17" stroke="#4D6892" stroke-width="2"></path>
                        <path d="M22,31 L24,31 L24,29 L22,29 L22,31 Z" id="Fill-18" fill="#4BA2F2"></path>
                        <path d="M26,34 L34,34" id="Stroke-19" stroke="#4D6892" stroke-width="2"></path>
                        <path d="M22,35 L24,35 L24,33 L22,33 L22,35 Z" id="Fill-20" fill="#4BA2F2"></path>
                        <path d="M26,38 L34,38" id="Stroke-21" stroke="#4D6892" stroke-width="2"></path>
                        <path d="M22,39 L24,39 L24,37 L22,37 L22,39 Z" id="Fill-22" fill="#4BA2F2"></path>
                        <path d="M10,42 L18,42" id="Stroke-23" stroke="#4D6892" stroke-width="2"></path>
                        <path d="M6,43 L8,43 L8,41 L6,41 L6,43 Z" id="Fill-24" fill="#FFC857"></path>
                        <path d="M10,46 L18,46" id="Stroke-25" stroke="#4D6892" stroke-width="2"></path>
                        <path d="M6,47 L8,47 L8,45 L6,45 L6,47 Z" id="Fill-26" fill="#FFC857"></path>
                        <path d="M54,49 L54,53 L50,57 L46,53 L46,49" id="Fill-27" fill="#FFFFFF"></path>
                        <path d="M46,48 L46,8" id="Stroke-28" stroke="#4D6892" stroke-width="2"></path>
                        <path d="M54,8 L54,48" id="Stroke-29" stroke="#4D6892" stroke-width="2"></path>
                        <path d="M54,48 L54,53 L50,57 L46,53 L46,48" id="Stroke-30" stroke="#4D6892" stroke-width="2"></path>
                        <path d="M50,57 L50,59" id="Stroke-31" stroke="#4D6892" stroke-width="2"></path>
                        <path d="M47,47 L53,47 L53,9 L47,9 L47,47 Z" id="Fill-32" fill="#FFC857"></path>
                        <path d="M50,8 L50,47" id="Stroke-33" stroke="#4D6892" stroke-width="2"></path>
                        <path d="M47,48 L53,48" id="Stroke-34" stroke="#4D6892" stroke-width="2"></path>
                        <g id="Group-49" transform="translate(6.000000, 0.000000)">
                            <path d="M40,3 C40,1.344 41.344,0 43,0 L45,0 C46.656,0 48,1.344 48,3 L48,8 L40,8 L40,3 Z" id="Fill-35" fill="#4BA2F2"></path>
                            <path d="M40,3 C40,1.344 41.344,0 43,0 L45,0 C46.656,0 48,1.344 48,3 L48,8 L40,8 L40,3 L40,3 Z" id="Stroke-37" stroke="#4D6892" stroke-width="2"></path>
                            <path d="M12,15 C12,18.313 9.314,21 6,21 C2.687,21 0,18.313 0,15 C0,11.686 2.687,9 6,9 C9.314,9 12,11.686 12,15" id="Fill-39" fill="#FFC857"></path>
                            <path d="M28,15 C28,18.313 25.314,21 22,21 C18.687,21 16,18.313 16,15 C16,11.686 18.687,9 22,9 C25.314,9 28,11.686 28,15" id="Fill-41" fill="#4BA2F2"></path>
                            <path d="M6,12 L6,18" id="Stroke-43" stroke="#4D6892" stroke-width="2"></path>
                            <path d="M3,15 L9,15" id="Stroke-45" stroke="#4D6892" stroke-width="2"></path>
                            <path d="M19,15 L25,15" id="Stroke-47" stroke="#4D6892" stroke-width="2"></path>
                        </g>
                    </g>
                </g>
            </g>
        </g>
    </g>
</svg>