<?xml version="1.0" encoding="UTF-8" standalone="no"?>
<svg width="156px" height="124px" viewBox="0 0 156 124" version="1.1" xmlns="http://www.w3.org/2000/svg" xmlns:xlink="http://www.w3.org/1999/xlink">
    <!-- Generator: Sketch 3.6.1 (26313) - http://www.bohemiancoding.com/sketch -->
    <title>ico-wp-2</title>
    <desc>Created with Sketch.</desc>
    <defs></defs>
    <g id="Icons" stroke="none" stroke-width="1" fill="none" fill-rule="evenodd">
        <g id="ico-wp-2">
            <g id="ico-ipfs-copy-2" transform="translate(11.000000, 37.000000)">
                <g id="ico-ipfs">
                    <g id="Group-4">
                        <path d="M67.305603,65.9829588 C102.651827,60.1853871 132.751418,45.7032684 134.535798,33.6303135 C136.319785,21.5600126 106.228358,7.07651465 67.305603,1.27766829 C28.3914044,-4.51990336 -1.7089713,9.95966592 0.0754082664,33.6303135 C1.85939558,57.2957577 31.9516074,71.7818051 67.305603,65.9829588 Z" id="Fill-1-Copy-6" fill="#FFFFFF"></path>
                        <path d="M63.5000022,45.9942285 C76.8915884,43.7977087 88.2953885,38.3108838 88.9714345,33.7368163 C89.6473319,29.1637542 78.2466248,23.6764068 63.5000022,21.479404 C48.7566212,19.2828842 37.3525239,24.7687432 38.0285698,33.7368163 C38.7044672,42.7029179 50.1054715,48.1912313 63.5000022,45.9942285 Z" id="Fill-1-Copy-8" fill="#4D6892"></path>
                    </g>
                </g>
            </g>
            <g id="Group-9" transform="translate(62.000000, 19.000000)">
                <path d="M2,51 L2,55 L60,55 L60,51" id="Fill-2" fill="#4BA2F2"></path>
                <path d="M34,55 L60,55 L60,51" id="Stroke-3" stroke="#4D6892" stroke-width="2" stroke-linejoin="round"></path>
                <path d="M2,51 L2,55 L26,55" id="Stroke-4" stroke="#4D6892" stroke-width="2" stroke-linejoin="round"></path>
                <path d="M0,51 L62,51 L62,8 L0,8 L0,51 Z" id="Fill-5" fill="#FFFFFF"></path>
                <path d="M21,51 L0,51 L0,8 L21,8" id="Stroke-6" stroke="#4D6892" stroke-width="2" stroke-linejoin="round"></path>
                <path d="M39,8 L62,8 L62,51 L39,51" id="Stroke-7" stroke="#4D6892" stroke-width="2" stroke-linejoin="round"></path>
                <path d="M7,12 L21,12" id="Stroke-8" stroke="#4D6892" stroke-width="2" stroke-linejoin="round"></path>
                <path d="M3,16 L21,16" id="Stroke-9" stroke="#4D6892" stroke-width="2" stroke-linejoin="round"></path>
                <path d="M3,43 L17,43" id="Stroke-10" stroke="#4D6892" stroke-width="2" stroke-linejoin="round"></path>
                <path d="M3,39 L21,39" id="Stroke-11" stroke="#4D6892" stroke-width="2" stroke-linejoin="round"></path>
                <path d="M3,36 L21,36 L21,23 L3,23 L3,36 Z" id="Fill-12" fill="#4BA2F2"></path>
                <path d="M39,31 L59,31" id="Stroke-13" stroke="#4D6892" stroke-width="2" stroke-linejoin="round"></path>
                <path d="M43,39 L59,39" id="Stroke-14" stroke="#4D6892" stroke-width="2" stroke-linejoin="round"></path>
                <path d="M39,43 L59,43" id="Stroke-15" stroke="#4D6892" stroke-width="2" stroke-linejoin="round"></path>
                <g id="Group-30" transform="translate(24.000000, 0.000000)">
                    <path d="M0,3 L0,8 L12,8 L12,3 C12,1.344 10.656,0 9,0 L3,0 C1.344,0 0,1.344 0,3 L0,3 Z" id="Fill-16" fill="#4BA2F2"></path>
                    <path d="M6,62 L0,51 L12,51 L6,62 Z" id="Fill-18" fill="#FFFFFF"></path>
                    <path d="M0,51 L12,51 L12,8 L0,8 L0,51 Z" id="Fill-20" fill="#FFB957"></path>
                    <path d="M0,51 L0,8 L12,8 L12,51" id="Stroke-22" stroke="#4D6892" stroke-width="2" stroke-linejoin="round"></path>
                    <path d="M4,8 L4,51" id="Stroke-23" stroke="#4D6892" stroke-width="2" stroke-linejoin="round"></path>
                    <path d="M8,8 L8,51" id="Stroke-24" stroke="#4D6892" stroke-width="2" stroke-linejoin="round"></path>
                    <path d="M6,62 L0,51 L12,51 L6,62 L6,62 Z" id="Stroke-25" stroke="#4D6892" stroke-width="2" stroke-linejoin="round"></path>
                    <path d="M0,3 L0,8 L12,8 L12,3 C12,1.344 10.656,0 9,0 L3,0 C1.344,0 0,1.344 0,3 L0,3 Z" id="Stroke-26" stroke="#4D6892" stroke-width="2" stroke-linejoin="round"></path>
                    <path d="M5,59 L7,59" id="Stroke-27" stroke="#4D6892" stroke-width="2" stroke-linejoin="round"></path>
                    <path d="M16,27 L34,27 L34,12 L16,12 L16,27 Z" id="Stroke-28" stroke="#4D6892" stroke-width="2"></path>
                    <path d="M31,36 L28,34 L25,36 L25,7 L31,7 L31,36 Z" id="Fill-29" fill="#FBB326"></path>
                </g>
            </g>
        </g>
    </g>
</svg>