<?xml version="1.0" encoding="UTF-8" standalone="no"?>
<svg width="126px" height="126px" viewBox="0 0 126 126" version="1.1" xmlns="http://www.w3.org/2000/svg" xmlns:xlink="http://www.w3.org/1999/xlink">
    <!-- Generator: Sketch 3.6.1 (26313) - http://www.bohemiancoding.com/sketch -->
    <title>ico-paid-mine</title>
    <desc>Created with Sketch.</desc>
    <defs></defs>
    <g id="Page-1" stroke="none" stroke-width="1" fill="none" fill-rule="evenodd">
        <g id="icons" transform="translate(-818.000000, -344.000000)">
            <g id="ico-paid-mine" transform="translate(819.000000, 345.000000)">
                <path d="M0,124 L124,124 L124,0 L0,0 L0,124 Z" id="Fill-1" stroke="#EEF1F6" stroke-width="2" stroke-linecap="round" stroke-linejoin="round"></path>
                <path d="M89,93 L35,93 L31,89 L31,87 L55,87 L57,89 L67,89 L69,87 L93,87 L93,89 L89,93 Z" id="Fill-2" fill="#FFFFFF"></path>
                <g id="Group-28" transform="translate(31.000000, 32.000000)">
                    <path d="M56,55 L56,23 C56,21.343 54.656,20 53,20 L9,20 C7.344,20 6,21.343 6,23 L6,55 L56,55 L56,55 Z" id="Fill-3" fill="#FFFFFF"></path>
                    <path d="M58,60 L4,60 L0,56 L0,54 L24,54 L26,56 L36,56 L38,54 L62,54 L62,56 L58,60 L58,60 Z" id="Stroke-5" stroke="#4D6892" stroke-width="2"></path>
                    <path d="M56,53 L56,23 C56,21.343 54.656,20 53,20 L9,20 C7.344,20 6,21.343 6,23 L6,53" id="Stroke-7" stroke="#4D6892" stroke-width="2"></path>
                    <path d="M9,51 L53,51 L53,23 L9,23 L9,51 Z" id="Fill-9" fill="#4BA2F2"></path>
                    <path d="M26,48 L28,48" id="Stroke-11" stroke="#4D6892" stroke-width="2"></path>
                    <path d="M22,48 L24,48" id="Stroke-12" stroke="#4D6892" stroke-width="2"></path>
                    <path d="M30,48 L32,48" id="Stroke-13" stroke="#4D6892" stroke-width="2"></path>
                    <path d="M34,48 L36,48" id="Stroke-14" stroke="#4D6892" stroke-width="2"></path>
                    <path d="M38,48 L40,48" id="Stroke-15" stroke="#4D6892" stroke-width="2"></path>
                    <path d="M31,45 L31,12 L50,12" id="Stroke-16" stroke="#4D6892" stroke-width="2"></path>
                    <path d="M27,3 L27,0 L49,0" id="Stroke-17" stroke="#4D6892" stroke-width="2"></path>
                    <path d="M27,45 L27,9" id="Stroke-18" stroke="#4D6892" stroke-width="2"></path>
                    <path d="M39,45 L39,32 L44,32" id="Stroke-19" stroke="#4D6892" stroke-width="2"></path>
                    <path d="M35,9 L35,6 L13,6" id="Stroke-20" stroke="#4D6892" stroke-width="2"></path>
                    <path d="M35,45 L35,15" id="Stroke-21" stroke="#4D6892" stroke-width="2"></path>
                    <path d="M23,45 L23,28 L11,28" id="Stroke-22" stroke="#4D6892" stroke-width="2"></path>
                    <path d="M57,12 C57,14.209 55.209,16 53,16 C50.791,16 49,14.209 49,12 C49,9.791 50.791,8 53,8 C55.209,8 57,9.791 57,12" id="Fill-23" fill="#FFC857"></path>
                    <path d="M5,6 L7,6" id="Stroke-24" stroke="#4D6892" stroke-width="2"></path>
                    <path d="M9,6 L11,6" id="Stroke-25" stroke="#4D6892" stroke-width="2"></path>
                    <path d="M51,0 L53,0" id="Stroke-26" stroke="#4D6892" stroke-width="2"></path>
                    <path d="M55,0 L57,0" id="Stroke-27" stroke="#4D6892" stroke-width="2"></path>
                </g>
            </g>
        </g>
    </g>
</svg>