<?xml version="1.0" encoding="UTF-8" standalone="no"?>
<svg width="130px" height="130px" viewBox="0 0 130 130" version="1.1" xmlns="http://www.w3.org/2000/svg" xmlns:xlink="http://www.w3.org/1999/xlink">
    <!-- Generator: Sketch 3.6.1 (26313) - http://www.bohemiancoding.com/sketch -->
    <title>Page 1</title>
    <desc>Created with Sketch.</desc>
    <defs></defs>
    <g id="Page-1" stroke="none" stroke-width="1" fill="none" fill-rule="evenodd">
        <g id="icons" transform="translate(-1195.000000, -467.000000)">
            <g id="Page-1" transform="translate(1196.000000, 468.000000)">
                <path d="M0,64 C0,99.346224 28.6460043,128 64,128 L64,128 C99.346224,128 128,99.3539957 128,64 L128,64 C128,28.653776 99.3539957,0 64,0 L64,0 C28.653776,0 0,28.6460043 0,64 L0,64 Z" id="Fill-1" stroke="#CFD7E6" stroke-width="2" fill="#EEF1F6"></path>
                <g id="Group-29" transform="translate(36.000000, 37.000000)">
                    <path d="M0,46 L0,27 C0,24.791 1.791,23 4,23 L14,23 C16.209,23 18,24.791 18,27 L18,46 C18,50.971 13.971,55 9,55 C4.029,55 0,50.971 0,46 L0,46 Z" id="Fill-2" fill="#4BA2F2"></path>
                    <path d="M0,46 L0,33 L18,33 L18,46 C18,50.971 13.971,55 9,55 C4.029,55 0,50.971 0,46" id="Fill-4" fill="#FFFFFF"></path>
                    <path d="M57,12 C57,18.627 51.627,24 45,24 C38.373,24 33,18.627 33,12 C33,5.373 38.373,0 45,0 C51.627,0 57,5.373 57,12" id="Fill-6" fill="#FFC857"></path>
                    <path d="M53,12 C53,16.419 49.419,20 45,20 C40.581,20 37,16.419 37,12 C37,7.581 40.581,4 45,4 C49.419,4 53,7.581 53,12" id="Fill-8" fill="#F1AA4A"></path>
                    <path d="M9,26 L9,30" id="Stroke-10" stroke="#4D6892" stroke-width="2"></path>
                    <path d="M0,33 L18,33" id="Stroke-12" stroke="#4D6892" stroke-width="2"></path>
                    <path d="M9,20 L9,10" id="Stroke-14" stroke="#4D6892" stroke-width="2"></path>
                    <path d="M27,10 L27,46" id="Stroke-16" stroke="#4D6892" stroke-width="2"></path>
                    <path d="M45,26 L45,46" id="Stroke-18" stroke="#4D6892" stroke-width="2"></path>
                    <path d="M9,10 C9,5.029 13.029,1 18,1 C22.971,1 27,5.029 27,10" id="Stroke-20" stroke="#4D6892" stroke-width="2"></path>
                    <path d="M45,46 C45,50.971 40.971,55 36,55 C31.029,55 27,50.971 27,46" id="Stroke-22" stroke="#4D6892" stroke-width="2"></path>
                    <path d="M0,46 L0,27 C0,24.791 1.791,23 4,23 L14,23 C16.209,23 18,24.791 18,27 L18,46 C18,50.971 13.971,55 9,55 C4.029,55 0,50.971 0,46 L0,46 Z" id="Stroke-24" stroke="#4D6892" stroke-width="2"></path>
                    <path d="M44,16 L46,16 L46,8 L44,8 L44,16 Z" id="Fill-26" fill="#FFC857"></path>
                    <path d="M43,10 L44,10 L44,8 L43,8 L43,10 Z" id="Fill-28" fill="#FFC857"></path>
                </g>
            </g>
        </g>
    </g>
</svg>