<?xml version="1.0" encoding="UTF-8" standalone="no"?>
<svg width="128px" height="128px" viewBox="0 0 128 128" version="1.1" xmlns="http://www.w3.org/2000/svg" xmlns:xlink="http://www.w3.org/1999/xlink">
    <!-- Generator: Sketch 3.6.1 (26313) - http://www.bohemiancoding.com/sketch -->
    <title>ico-wp</title>
    <desc>Created with Sketch.</desc>
    <defs></defs>
    <g id="Icons" stroke="none" stroke-width="1" fill="none" fill-rule="evenodd">
        <g id="ico-wp">
            <path d="M0,128 L128,128 L128,0 L0,0 L0,128 Z" id="Fill-1" fill="#CFD7E6"></path>
            <g id="Group-9" transform="translate(33.000000, 34.000000)">
                <path d="M2,51 L2,55 L60,55 L60,51" id="Fill-2" fill="#4BA2F2"></path>
                <path d="M34,55 L60,55 L60,51" id="Stroke-3" stroke="#4D6892" stroke-width="2" stroke-linejoin="round"></path>
                <path d="M2,51 L2,55 L26,55" id="Stroke-4" stroke="#4D6892" stroke-width="2" stroke-linejoin="round"></path>
                <path d="M0,51 L62,51 L62,8 L0,8 L0,51 Z" id="Fill-5" fill="#FFFFFF"></path>
                <path d="M21,51 L0,51 L0,8 L21,8" id="Stroke-6" stroke="#4D6892" stroke-width="2" stroke-linejoin="round"></path>
                <path d="M39,8 L62,8 L62,51 L39,51" id="Stroke-7" stroke="#4D6892" stroke-width="2" stroke-linejoin="round"></path>
                <path d="M7,12 L21,12" id="Stroke-8" stroke="#4D6892" stroke-width="2" stroke-linejoin="round"></path>
                <path d="M3,16 L21,16" id="Stroke-9" stroke="#4D6892" stroke-width="2" stroke-linejoin="round"></path>
                <path d="M3,43 L17,43" id="Stroke-10" stroke="#4D6892" stroke-width="2" stroke-linejoin="round"></path>
                <path d="M3,39 L21,39" id="Stroke-11" stroke="#4D6892" stroke-width="2" stroke-linejoin="round"></path>
                <path d="M3,36 L21,36 L21,23 L3,23 L3,36 Z" id="Fill-12" fill="#4BA2F2"></path>
                <path d="M39,31 L59,31" id="Stroke-13" stroke="#4D6892" stroke-width="2" stroke-linejoin="round"></path>
                <path d="M43,39 L59,39" id="Stroke-14" stroke="#4D6892" stroke-width="2" stroke-linejoin="round"></path>
                <path d="M39,43 L59,43" id="Stroke-15" stroke="#4D6892" stroke-width="2" stroke-linejoin="round"></path>
                <g id="Group-30" transform="translate(24.000000, 0.000000)">
                    <path d="M0,3 L0,8 L12,8 L12,3 C12,1.344 10.656,0 9,0 L3,0 C1.344,0 0,1.344 0,3 L0,3 Z" id="Fill-16" fill="#4BA2F2"></path>
                    <path d="M6,62 L0,51 L12,51 L6,62 Z" id="Fill-18" fill="#FFFFFF"></path>
                    <path d="M0,51 L12,51 L12,8 L0,8 L0,51 Z" id="Fill-20" fill="#FFB957"></path>
                    <path d="M0,51 L0,8 L12,8 L12,51" id="Stroke-22" stroke="#4D6892" stroke-width="2" stroke-linejoin="round"></path>
                    <path d="M4,8 L4,51" id="Stroke-23" stroke="#4D6892" stroke-width="2" stroke-linejoin="round"></path>
                    <path d="M8,8 L8,51" id="Stroke-24" stroke="#4D6892" stroke-width="2" stroke-linejoin="round"></path>
                    <path d="M6,62 L0,51 L12,51 L6,62 L6,62 Z" id="Stroke-25" stroke="#4D6892" stroke-width="2" stroke-linejoin="round"></path>
                    <path d="M0,3 L0,8 L12,8 L12,3 C12,1.344 10.656,0 9,0 L3,0 C1.344,0 0,1.344 0,3 L0,3 Z" id="Stroke-26" stroke="#4D6892" stroke-width="2" stroke-linejoin="round"></path>
                    <path d="M5,59 L7,59" id="Stroke-27" stroke="#4D6892" stroke-width="2" stroke-linejoin="round"></path>
                    <path d="M16,27 L34,27 L34,12 L16,12 L16,27 Z" id="Stroke-28" stroke="#4D6892" stroke-width="2"></path>
                    <path d="M31,36 L28,34 L25,36 L25,7 L31,7 L31,36 Z" id="Fill-29" fill="#FBB326"></path>
                </g>
            </g>
        </g>
    </g>
</svg>