<?xml version="1.0" encoding="UTF-8" standalone="no"?>
<svg width="148px" height="124px" viewBox="0 0 148 124" version="1.1" xmlns="http://www.w3.org/2000/svg" xmlns:xlink="http://www.w3.org/1999/xlink">
    <!-- Generator: Sketch 3.6.1 (26313) - http://www.bohemiancoding.com/sketch -->
    <title>ico-paid-trade</title>
    <desc>Created with Sketch.</desc>
    <defs></defs>
    <g id="ico-frontpage" stroke="none" stroke-width="1" fill="none" fill-rule="evenodd">
        <g id="ico-paid-trade">
            <g id="Group-9" transform="translate(7.000000, 46.000000)">
                <g id="ico-ipfs-copy">
                    <g id="ico-ipfs">
                        <g id="Group-4">
                            <path d="M67.305603,65.9829588 C102.651827,60.1853871 132.751418,45.7032684 134.535798,33.6303135 C136.319785,21.5600126 106.228358,7.07651465 67.305603,1.27766829 C28.3914044,-4.51990336 -1.7089713,9.95966592 0.0754082664,33.6303135 C1.85939558,57.2957577 31.9516074,71.7818051 67.305603,65.9829588 Z" id="Fill-1-Copy-6" fill="#EEF1F6"></path>
                            <path d="M63.5000022,45.9942285 C76.8915884,43.7977087 88.2953885,38.3108838 88.9714345,33.7368163 C89.6473319,29.1637542 78.2466248,23.6764068 63.5000022,21.479404 C48.7566212,19.2828842 37.3525239,24.7687432 38.0285698,33.7368163 C38.7044672,42.7029179 50.1054715,48.1912313 63.5000022,45.9942285 Z" id="Fill-1-Copy-8" fill="#CFD7E6"></path>
                        </g>
                    </g>
                </g>
            </g>
            <g id="Group-24" transform="translate(52.000000, 28.000000)">
                <path d="M64,32 C64,49.673 49.673,64 32,64 C14.327,64 0,49.673 0,32 C0,14.327 14.327,0 32,0 C49.673,0 64,14.327 64,32 L64,32 Z" id="Fill-2" fill="#FFC857"></path>
                <path d="M9,58 L63,58 L63,32 L9,32 L9,58 Z" id="Fill-4" fill="#FFFFFF"></path>
                <path d="M9,58 L63,58 L63,32 L9,32 L9,58 Z" id="Stroke-6" stroke="#4D6892" stroke-width="2" stroke-linejoin="round"></path>
                <path d="M5,54 L59,54 L59,28 L5,28 L5,54 Z" id="Fill-7" fill="#FFFFFF"></path>
                <path d="M5,54 L59,54 L59,28 L5,28 L5,54 Z" id="Stroke-8" stroke="#4D6892" stroke-width="2" stroke-linejoin="round"></path>
                <path d="M1,50 L55,50 L55,24 L1,24 L1,50 Z" id="Fill-9" fill="#CFD7E6"></path>
                <path d="M1,50 L55,50 L55,24 L1,24 L1,50 Z" id="Stroke-10" stroke="#4D6892" stroke-width="2" stroke-linejoin="round"></path>
                <path d="M48,47 L8,47 L4,42.999 L4,31 L8,27 L48,27 L52,30.999 L52,43 L48,47 Z" id="Fill-11" fill="#4BA2F2"></path>
                <path d="M35,37 C35,40.866 31.866,44 28,44 C24.134,44 21,40.866 21,37 C21,33.134 24.134,30 28,30 C31.866,30 35,33.134 35,37" id="Fill-12" fill="#FFFFFF"></path>
                <path d="M35,37 C35,40.866 31.866,44 28,44 C24.134,44 21,40.866 21,37 C21,33.134 24.134,30 28,30 C31.866,30 35,33.134 35,37 L35,37 Z" id="Stroke-13" stroke="#4D6892" stroke-width="2" stroke-linejoin="round"></path>
                <path d="M15,37 L13,37" id="Stroke-14" stroke="#4D6892" stroke-width="2" stroke-linejoin="round"></path>
                <path d="M11,37 L9,37" id="Stroke-15" stroke="#4D6892" stroke-width="2" stroke-linejoin="round"></path>
                <path d="M47,37 L45,37" id="Stroke-16" stroke="#4D6892" stroke-width="2" stroke-linejoin="round"></path>
                <path d="M43,37 L41,37" id="Stroke-17" stroke="#4D6892" stroke-width="2" stroke-linejoin="round"></path>
                <path d="M27,16 L23,20 L19,16" id="Stroke-18" stroke="#4D6892" stroke-width="2" stroke-linejoin="round"></path>
                <path d="M45,16 L41,20 L37,16" id="Stroke-19" stroke="#4D6892" stroke-width="2" stroke-linejoin="round"></path>
                <path d="M23,20 L23,9 L0,9" id="Stroke-21" stroke="#4D6892" stroke-width="2" stroke-linejoin="round"></path>
                <path d="M41,20 L41,9 L64,9" id="Stroke-22" stroke="#4D6892" stroke-width="2" stroke-linejoin="round"></path>
            </g>
        </g>
    </g>
</svg>