<?xml version="1.0" encoding="UTF-8" standalone="no"?>
<svg width="135px" height="94px" viewBox="0 0 135 94" version="1.1" xmlns="http://www.w3.org/2000/svg" xmlns:xlink="http://www.w3.org/1999/xlink">
    <!-- Generator: Sketch 3.6.1 (26313) - http://www.bohemiancoding.com/sketch -->
    <title>Group 3</title>
    <desc>Created with Sketch.</desc>
    <defs></defs>
    <g id="Icons" stroke="none" stroke-width="1" fill="none" fill-rule="evenodd">
        <g id="icons" transform="translate(-800.000000, -743.000000)">
            <g id="Group-3" transform="translate(800.000000, 744.000000)">
                <path d="M67.305603,90.9829588 C102.651827,85.1853871 132.751418,70.7032684 134.535798,58.6303135 C136.319785,46.5600126 106.228358,32.0765147 67.305603,26.2776683 C28.3914044,20.4800966 -1.7089713,34.9596659 0.0754082664,58.6303135 C1.85939558,82.2957577 31.9516074,96.7818051 67.305603,90.9829588 Z" id="Fill-1" fill="#EEF1F6"></path>
                <g id="Group-5" transform="translate(0.000000, 25.000000)">
                    <path d="M67.305603,65.9829588 C102.651827,60.1853871 132.751418,45.7032684 134.535798,33.6303135 C136.319785,21.5600126 106.228358,7.07651465 67.305603,1.27766829 C28.3914044,-4.51990336 -1.7089713,9.95966592 0.0754082664,33.6303135 C1.85939558,57.2957577 31.9516074,71.7818051 67.305603,65.9829588 Z" id="Fill-1-Copy-6" fill="#EEF1F6"></path>
                    <path d="M63.5000022,45.9942285 C76.8915884,43.7977087 88.2953885,38.3108838 88.9714345,33.7368163 C89.6473319,29.1637542 78.2466248,23.6764068 63.5000022,21.479404 C48.7566212,19.2828842 37.3525239,24.7687432 38.0285698,33.7368163 C38.7044672,42.7029179 50.1054715,48.1912313 63.5000022,45.9942285 Z" id="Fill-1-Copy-8" fill="#CFD7E6"></path>
                </g>
                <g id="Group-2-Copy" transform="translate(31.000000, 0.000000)">
                    <g id="Page-1">
                        <path d="M16,14 L16,0 L52,0 L62,10 L62,60 L16,60 L16,44" id="Fill-2" fill="#FFFFFF"></path>
                        <path d="M27,45 L57,45 L57,15 L27,15 L27,45 Z" id="Fill-3" fill="#FFC857"></path>
                        <path d="M16,13 L16,0 L52,0 L52,10 L62,10 L62,60 L16,60 L16,47" id="Stroke-4" stroke="#4D6892" stroke-width="2" stroke-linejoin="round"></path>
                        <path d="M52,0 L62,10" id="Stroke-5" stroke="#4D6892" stroke-width="2" stroke-linejoin="round"></path>
                        <path d="M21,6 L47,6" id="Stroke-6" stroke="#4D6892" stroke-width="2" stroke-linejoin="round"></path>
                        <path d="M21,10 L47,10" id="Stroke-7" stroke="#4D6892" stroke-width="2" stroke-linejoin="round"></path>
                        <path d="M21,50 L57,50" id="Stroke-8" stroke="#4D6892" stroke-width="2" stroke-linejoin="round"></path>
                        <path d="M21,54 L47,54" id="Stroke-9" stroke="#4D6892" stroke-width="2" stroke-linejoin="round"></path>
                        <g id="Group-20" transform="translate(0.000000, 16.000000)">
                            <path d="M54,14 C54,14 41.912,28 27,28 C12.088,28 0,14 0,14 C0,14 12.088,0 27,0 C41.912,0 54,14 54,14" id="Fill-10" fill="#FFFFFF"></path>
                            <path d="M41,14 C41,21.732 34.732,28 27,28 C19.268,28 13,21.732 13,14 C13,6.268 19.268,0 27,0 C34.732,0 41,6.268 41,14" id="Fill-12" fill="#FFFFFF"></path>
                            <path d="M19,14 C19,18.418 22.582,22 27,22 C31.418,22 35,18.418 35,14 C35,9.582 31.418,6 27,6 C25,6 24,7 24,7 C26.209,7 28,8.791 28,11 C28,13.209 26.209,15 24,15 C21.791,15 20,13.209 20,11 C20,11 19,12 19,14" id="Fill-14" fill="#4BA2F2"></path>
                            <path d="M54,14 C54,14 41.912,28 27,28 C12.088,28 0,14 0,14 C0,14 12.088,0 27,0 C41.912,0 54,14 54,14 L54,14 Z" id="Stroke-16" stroke="#4D6892" stroke-width="2" stroke-linejoin="round"></path>
                            <path d="M41,14 C41,21.732 34.732,28 27,28 C19.268,28 13,21.732 13,14 C13,6.268 19.268,0 27,0 C34.732,0 41,6.268 41,14 L41,14 Z" id="Stroke-18" stroke="#4D6892" stroke-width="2" stroke-linejoin="round"></path>
                        </g>
                    </g>
                </g>
            </g>
        </g>
    </g>
</svg>