<?xml version="1.0" encoding="UTF-8" standalone="no"?>
<svg width="130px" height="130px" viewBox="0 0 130 130" version="1.1" xmlns="http://www.w3.org/2000/svg" xmlns:xlink="http://www.w3.org/1999/xlink">
    <!-- Generator: Sketch 3.6.1 (26313) - http://www.bohemiancoding.com/sketch -->
    <title>ico-paid-curate</title>
    <desc>Created with Sketch.</desc>
    <defs></defs>
    <g id="Page-1" stroke="none" stroke-width="1" fill="none" fill-rule="evenodd">
        <g id="icons" transform="translate(-1011.000000, -157.000000)">
            <g id="ico-paid-curate" transform="translate(1012.000000, 158.000000)">
                <path d="M0,64 C0,99.346224 28.6460043,128 64,128 L64,128 C99.346224,128 128,99.3539957 128,64 L128,64 C128,28.653776 99.3539957,0 64,0 L64,0 C28.653776,0 0,28.6460043 0,64 L0,64 Z" id="Fill-1" stroke="#CFD7E6" stroke-width="2" fill="#EEF1F6"></path>
                <path d="M37,90 L93,90 L93,36 L37,36 L37,90 Z" id="Fill-2" fill="#FFFFFF"></path>
                <path d="M37,90 L93,90 L93,36 L37,36 L37,90 Z" id="Stroke-3" stroke="#4D6892" stroke-width="2"></path>
                <path d="M38,44 L92,44" id="Stroke-4" stroke="#4D6892" stroke-width="2"></path>
                <path d="M40,40 L42,40" id="Stroke-5" stroke="#4D6892" stroke-width="2"></path>
                <path d="M44,40 L46,40" id="Stroke-6" stroke="#4D6892" stroke-width="2"></path>
                <path d="M48,40 L50,40" id="Stroke-7" stroke="#4D6892" stroke-width="2"></path>
                <path d="M53,37 L53,43" id="Stroke-8" stroke="#4D6892" stroke-width="2"></path>
                <path d="M56,40 L90,40" id="Stroke-9" stroke="#4D6892" stroke-width="2"></path>
                <path d="M42,59 L88,59 L88,49 L42,49 L42,59 Z" id="Fill-10" fill="#4BA2F2"></path>
                <path d="M88,84 L72,84" id="Stroke-11" stroke="#4D6892" stroke-width="2"></path>
                <path d="M88,80 L72,80" id="Stroke-12" stroke="#4D6892" stroke-width="2"></path>
                <path d="M58,84 L42,84" id="Stroke-13" stroke="#4D6892" stroke-width="2"></path>
                <path d="M58,80 L42,80" id="Stroke-14" stroke="#4D6892" stroke-width="2"></path>
                <path d="M42,77 L88,77 L88,61 L42,61 L42,77 Z" id="Fill-15" fill="#FFC857"></path>
                <g id="Group-28" transform="translate(52.000000, 50.000000)">
                    <path d="M17,26 L17,44 C17,46.209 15.209,48 13,48 C10.791,48 9,46.209 9,44 L9,26" id="Fill-16" fill="#4BA2F2"></path>
                    <path d="M26,13 C26,20.178 20.181,26 13,26 C5.819,26 0,20.178 0,13 C0,5.82 5.819,0 13,0 C20.181,0 26,5.82 26,13" id="Fill-18" fill="#FFFFFF"></path>
                    <path d="M26,13 C26,20.178 20.181,26 13,26 C5.819,26 0,20.178 0,13 C0,5.82 5.819,0 13,0 C20.181,0 26,5.82 26,13 L26,13 Z" id="Stroke-20" stroke="#4D6892" stroke-width="2"></path>
                    <path d="M17,25 L17,44 C17,46.209 15.209,48 13,48 C10.791,48 9,46.209 9,44 L9,25" id="Stroke-22" stroke="#4D6892" stroke-width="2"></path>
                    <path d="M13,41 L13,43" id="Stroke-24" stroke="#FFC857" stroke-width="2"></path>
                    <path d="M19,9 L11,17 L7,13" id="Stroke-26" stroke="#4D6892" stroke-width="2" stroke-linejoin="round"></path>
                </g>
            </g>
        </g>
    </g>
</svg>