<?xml version="1.0" encoding="UTF-8" standalone="no"?>
<svg width="148px" height="124px" viewBox="0 0 148 124" version="1.1" xmlns="http://www.w3.org/2000/svg" xmlns:xlink="http://www.w3.org/1999/xlink">
    <!-- Generator: Sketch 3.6.1 (26313) - http://www.bohemiancoding.com/sketch -->
    <title>ico-paid-signup-2</title>
    <desc>Created with Sketch.</desc>
    <defs></defs>
    <g id="ico-frontpage" stroke="none" stroke-width="1" fill="none" fill-rule="evenodd">
        <g id="ico-paid-signup-2">
            <g id="Group" transform="translate(7.000000, 27.000000)">
                <g id="Group-9">
                    <path d="M67.305603,84.9829588 C102.651827,79.1853871 132.751418,64.7032684 134.535798,52.6303135 C136.319785,40.5600126 106.228358,26.0765147 67.305603,20.2776683 C28.3914044,14.4800966 -1.7089713,28.9596659 0.0754082664,52.6303135 C1.85939558,76.2957577 31.9516074,90.7818051 67.305603,84.9829588 Z" id="Fill-1" fill="#EEF1F6"></path>
                    <g id="Group-5" transform="translate(0.000000, 19.000000)">
                        <path d="M67.305603,65.9829588 C102.651827,60.1853871 132.751418,45.7032684 134.535798,33.6303135 C136.319785,21.5600126 106.228358,7.07651465 67.305603,1.27766829 C28.3914044,-4.51990336 -1.7089713,9.95966592 0.0754082664,33.6303135 C1.85939558,57.2957577 31.9516074,71.7818051 67.305603,65.9829588 Z" id="Fill-1-Copy-6" fill="#EEF1F6"></path>
                        <path d="M63.5000022,45.9942285 C76.8915884,43.7977087 88.2953885,38.3108838 88.9714345,33.7368163 C89.6473319,29.1637542 78.2466248,23.6764068 63.5000022,21.479404 C48.7566212,19.2828842 37.3525239,24.7687432 38.0285698,33.7368163 C38.7044672,42.7029179 50.1054715,48.1912313 63.5000022,45.9942285 Z" id="Fill-1-Copy-8" fill="#CFD7E6"></path>
                    </g>
                    <g id="Page-1" transform="translate(59.000000, 0.000000)">
                        <g id="Group-29">
                            <path d="M0,46 L0,27 C0,24.791 1.791,23 4,23 L14,23 C16.209,23 18,24.791 18,27 L18,46 C18,50.971 13.971,55 9,55 C4.029,55 0,50.971 0,46 L0,46 Z" id="Fill-2" fill="#4BA2F2"></path>
                            <path d="M0,46 L0,33 L18,33 L18,46 C18,50.971 13.971,55 9,55 C4.029,55 0,50.971 0,46" id="Fill-4" fill="#FFFFFF"></path>
                            <path d="M57,12 C57,18.627 51.627,24 45,24 C38.373,24 33,18.627 33,12 C33,5.373 38.373,0 45,0 C51.627,0 57,5.373 57,12" id="Fill-6" fill="#FFC857"></path>
                            <path d="M53,12 C53,16.419 49.419,20 45,20 C40.581,20 37,16.419 37,12 C37,7.581 40.581,4 45,4 C49.419,4 53,7.581 53,12" id="Fill-8" fill="#F1AA4A"></path>
                            <path d="M9,26 L9,30" id="Stroke-10" stroke="#4D6892" stroke-width="2"></path>
                            <path d="M0,33 L18,33" id="Stroke-12" stroke="#4D6892" stroke-width="2"></path>
                            <path d="M9,20 L9,10" id="Stroke-14" stroke="#4D6892" stroke-width="2"></path>
                            <path d="M27,10 L27,46" id="Stroke-16" stroke="#4D6892" stroke-width="2"></path>
                            <path d="M45,26 L45,46" id="Stroke-18" stroke="#4D6892" stroke-width="2"></path>
                            <path d="M9,10 C9,5.029 13.029,1 18,1 C22.971,1 27,5.029 27,10" id="Stroke-20" stroke="#4D6892" stroke-width="2"></path>
                            <path d="M45,46 C45,50.971 40.971,55 36,55 C31.029,55 27,50.971 27,46" id="Stroke-22" stroke="#4D6892" stroke-width="2"></path>
                            <path d="M0,46 L0,27 C0,24.791 1.791,23 4,23 L14,23 C16.209,23 18,24.791 18,27 L18,46 C18,50.971 13.971,55 9,55 C4.029,55 0,50.971 0,46 L0,46 Z" id="Stroke-24" stroke="#4D6892" stroke-width="2"></path>
                            <path d="M44,16 L46,16 L46,8 L44,8 L44,16 Z" id="Fill-26" fill="#FFC857"></path>
                            <path d="M43,10 L44,10 L44,8 L43,8 L43,10 Z" id="Fill-28" fill="#FFC857"></path>
                        </g>
                    </g>
                </g>
            </g>
        </g>
    </g>
</svg>