<?xml version="1.0" encoding="UTF-8" standalone="no"?>
<svg width="429px" height="119px" viewBox="0 0 429 119" version="1.1" xmlns="http://www.w3.org/2000/svg" xmlns:xlink="http://www.w3.org/1999/xlink">
    <!-- Generator: Sketch 3.6.1 (26313) - http://www.bohemiancoding.com/sketch -->
    <title>Group 9</title>
    <desc>Created with Sketch.</desc>
    <defs>
        <path id="path-1" d="M0,121 L436,121 L436,0 L0,0 L0,121 Z"></path>
        <filter x="-50%" y="-50%" width="200%" height="200%" filterUnits="objectBoundingBox" id="filter-3">
            <feOffset dx="0" dy="1" in="SourceAlpha" result="shadowOffsetOuter1"></feOffset>
            <feGaussianBlur stdDeviation="0.5" in="shadowOffsetOuter1" result="shadowBlurOuter1"></feGaussianBlur>
            <feColorMatrix values="0 0 0 0 0.301960784   0 0 0 0 0.407843137   0 0 0 0 0.57254902  0 0 0 0.14333673 0" in="shadowBlurOuter1" type="matrix" result="shadowMatrixOuter1"></feColorMatrix>
            <feMerge>
                <feMergeNode in="shadowMatrixOuter1"></feMergeNode>
                <feMergeNode in="SourceGraphic"></feMergeNode>
            </feMerge>
        </filter>
    </defs>
    <g id="Icons" stroke="none" stroke-width="1" fill="none" fill-rule="evenodd">
        <g id="icons-copy" transform="translate(-447.000000, -847.000000)">
            <g id="Group-9" transform="translate(443.000000, 847.000000)">
                <g id="img-wp" opacity="0.701259328">
                    <path d="M250.84083,56.7557003 L209.373702,56.7557003 L209.373702,116.664495 L250.84083,116.664495 C252.478042,116.664495 253.802768,115.254274 253.802768,113.511401 L253.802768,59.9087948 C253.802768,58.1659218 252.478042,56.7557003 250.84083,56.7557003 L250.84083,56.7557003 Z" id="Fill-1" fill="#CFD7E6"></path>
                    <mask id="mask-2" fill="white">
                        <use xlink:href="#path-1"></use>
                    </mask>
                    <g id="Clip-4"></g>
                    <path d="M209.373702,100.899023 L253.802768,100.899023 L253.802768,72.5211726 L209.373702,72.5211726 L209.373702,100.899023 Z" id="Fill-3" fill="#FFFFFF" mask="url(#mask-2)"></path>
                    <path d="M250.84083,56.7557003 L209.373702,56.7557003 L209.373702,116.664495 L250.84083,116.664495 C252.478042,116.664495 253.802768,115.254274 253.802768,113.511401 L253.802768,59.9087948 C253.802768,58.1659218 252.478042,56.7557003 250.84083,56.7557003 L250.84083,56.7557003 Z" id="Stroke-5" stroke="#4D6892" stroke-width="1.11000001" stroke-linecap="round" stroke-linejoin="round" mask="url(#mask-2)"></path>
                    <path d="M209.373702,72.5211726 L253.802768,72.5211726" id="Stroke-6" stroke="#4D6892" stroke-width="1.11000001" stroke-linecap="round" stroke-linejoin="round" mask="url(#mask-2)"></path>
                    <path d="M209.373702,100.899023 L253.802768,100.899023" id="Stroke-7" stroke="#4D6892" stroke-width="1.11000001" stroke-linecap="round" stroke-linejoin="round" mask="url(#mask-2)"></path>
                    <path d="M241.955017,118.241042 L244.916955,118.241042 L244.916955,55.1791531 L241.955017,55.1791531 L241.955017,118.241042 Z" id="Fill-8" fill="#4BA2F2" mask="url(#mask-2)"></path>
                    <path d="M241.955017,118.241042 L244.916955,118.241042 L244.916955,55.1791531 L241.955017,55.1791531 L241.955017,118.241042 Z" id="Stroke-9" stroke="#4D6892" stroke-width="1.11000001" stroke-linecap="round" stroke-linejoin="round" mask="url(#mask-2)"></path>
                    <path d="M212.33564,56.7557003 L212.33564,116.664495" id="Stroke-10" stroke="#4D6892" stroke-width="1.11000001" stroke-linecap="round" stroke-linejoin="round" mask="url(#mask-2)"></path>
                    <path d="M190.121107,101.559517 L190.121107,71.8605205 C192.735388,70.6442143 194.564014,67.8698853 194.564014,64.6383577 C194.564014,61.40683 192.735388,58.6328951 190.121107,57.4161948 L190.121107,64.6383577 L184.197232,64.6383577 L184.197232,57.4161948 C181.582952,58.6328951 179.754325,61.40683 179.754325,64.6383577 C179.754325,67.8698853 181.582952,70.6442143 184.197232,71.8605205 L184.197232,101.559517 C181.582952,102.776612 179.754325,105.550152 179.754325,108.78168 C179.754325,112.013208 181.582952,114.787537 184.197232,116.003843 L184.197232,108.78168 L190.121107,108.78168 L190.121107,116.003843 C192.735388,114.787537 194.564014,112.013208 194.564014,108.78168 C194.564014,105.550152 192.735388,102.776612 190.121107,101.559517" id="Fill-11" fill="#4BA2F2" mask="url(#mask-2)"></path>
                    <path d="M190.121107,101.559517 L190.121107,71.8605205 C192.735388,70.6442143 194.564014,67.8698853 194.564014,64.6383577 C194.564014,61.40683 192.735388,58.6328951 190.121107,57.4161948 L190.121107,64.6383577 L184.197232,64.6383577 L184.197232,57.4161948 C181.582952,58.6328951 179.754325,61.40683 179.754325,64.6383577 C179.754325,67.8698853 181.582952,70.6442143 184.197232,71.8605205 L184.197232,101.559517 C181.582952,102.776612 179.754325,105.550152 179.754325,108.78168 C179.754325,112.013208 181.582952,114.787537 184.197232,116.003843 L184.197232,108.78168 L190.121107,108.78168 L190.121107,116.003843 C192.735388,114.787537 194.564014,112.013208 194.564014,108.78168 C194.564014,105.550152 192.735388,102.776612 190.121107,101.559517 L190.121107,101.559517 Z" id="Stroke-12" stroke="#4D6892" stroke-width="1.11000001" stroke-linecap="round" stroke-linejoin="round" mask="url(#mask-2)"></path>
                    <path d="M187.15917,100.899023 L187.15917,72.5211726" id="Stroke-13" stroke="#4D6892" stroke-width="1.11000001" stroke-linecap="round" stroke-linejoin="round" mask="url(#mask-2)"></path>
                    <path d="M342.6609,116.664495 L387.089965,116.664495 L387.089965,47.2964169 L342.6609,47.2964169 L342.6609,116.664495 Z" id="Fill-14" fill="#EEF1F6" mask="url(#mask-2)"></path>
                    <path d="M342.6609,47.2964169 L387.089965,47.2964169 L387.089965,44.1433225 L342.6609,44.1433225 L342.6609,47.2964169 Z" id="Fill-15" fill="#CFD7E6" mask="url(#mask-2)"></path>
                    <path d="M348.584775,78.8273616 L354.508651,78.8273616" id="Stroke-16" stroke="#4D6892" stroke-width="1.11000001" stroke-linecap="round" stroke-linejoin="round" mask="url(#mask-2)"></path>
                    <path d="M357.470588,78.8273616 L360.432526,78.8273616" id="Stroke-17" stroke="#4D6892" stroke-width="1.11000001" stroke-linecap="round" stroke-linejoin="round" mask="url(#mask-2)"></path>
                    <path d="M363.394464,78.8273616 L369.318339,78.8273616" id="Stroke-18" stroke="#4D6892" stroke-width="1.11000001" stroke-linecap="round" stroke-linejoin="round" mask="url(#mask-2)"></path>
                    <path d="M372.280277,78.8273616 L375.242215,78.8273616" id="Stroke-19" stroke="#4D6892" stroke-width="1.11000001" stroke-linecap="round" stroke-linejoin="round" mask="url(#mask-2)"></path>
                    <path d="M351.445489,81.980456 L378.204004,81.980456" id="Stroke-20" stroke="#FFC857" stroke-width="1.11000001" stroke-linecap="round" stroke-linejoin="round" mask="url(#mask-2)"></path>
                    <path d="M354.508651,85.1335505 L360.432526,85.1335505" id="Stroke-21" stroke="#4D6892" stroke-width="1.11000001" stroke-linecap="round" mask="url(#mask-2)"></path>
                    <path d="M363.394464,85.1335505 L366.356401,85.1335505" id="Stroke-22" stroke="#4D6892" stroke-width="1.11000001" stroke-linecap="round" stroke-linejoin="round" mask="url(#mask-2)"></path>
                    <path d="M369.318339,85.1335505 L375.242215,85.1335505" id="Stroke-23" stroke="#4D6892" stroke-width="1.11000001" stroke-linecap="round" stroke-linejoin="round" mask="url(#mask-2)"></path>
                    <path d="M378.204152,85.1335505 L381.16609,85.1335505" id="Stroke-24" stroke="#4D6892" stroke-width="1.11000001" stroke-linecap="round" stroke-linejoin="round" mask="url(#mask-2)"></path>
                    <path d="M348.584775,66.2149837 L354.508651,66.2149837" id="Stroke-25" stroke="#4D6892" stroke-width="1.11000001" stroke-linecap="round" stroke-linejoin="round" mask="url(#mask-2)"></path>
                    <path d="M357.470588,66.2149837 L360.432526,66.2149837" id="Stroke-26" stroke="#4D6892" stroke-width="1.11000001" stroke-linecap="round" stroke-linejoin="round" mask="url(#mask-2)"></path>
                    <path d="M363.394464,66.2149837 L369.318339,66.2149837" id="Stroke-27" stroke="#4D6892" stroke-width="1.11000001" stroke-linecap="round" mask="url(#mask-2)"></path>
                    <path d="M372.280277,66.2149837 L375.242215,66.2149837" id="Stroke-28" stroke="#4D6892" stroke-width="1.11000001" stroke-linecap="round" stroke-linejoin="round" mask="url(#mask-2)"></path>
                    <path d="M351.445489,69.3680782 L378.204004,69.3680782" id="Stroke-29" stroke="#4D6892" stroke-width="1.11000001" stroke-linecap="round" stroke-linejoin="round" mask="url(#mask-2)"></path>
                    <path d="M354.508651,72.5211726 L360.432526,72.5211726" id="Stroke-30" stroke="#4D6892" stroke-width="1.11000001" stroke-linecap="round" stroke-linejoin="round" mask="url(#mask-2)"></path>
                    <path d="M363.394464,72.5211726 L366.356401,72.5211726" id="Stroke-31" stroke="#4D6892" stroke-width="1.11000001" stroke-linecap="round" stroke-linejoin="round" mask="url(#mask-2)"></path>
                    <path d="M369.318339,72.5211726 L375.242215,72.5211726" id="Stroke-32" stroke="#4D6892" stroke-width="1.11000001" stroke-linecap="round" stroke-linejoin="round" mask="url(#mask-2)"></path>
                    <path d="M378.204152,72.5211726 L381.16609,72.5211726" id="Stroke-33" stroke="#4D6892" stroke-width="1.11000001" stroke-linecap="round" stroke-linejoin="round" mask="url(#mask-2)"></path>
                    <path d="M348.584775,53.6026059 L354.508651,53.6026059" id="Stroke-34" stroke="#4D6892" stroke-width="1.11000001" stroke-linecap="round" stroke-linejoin="round" mask="url(#mask-2)"></path>
                    <path d="M357.470588,53.6026059 L360.432526,53.6026059" id="Stroke-35" stroke="#4D6892" stroke-width="1.11000001" stroke-linecap="round" stroke-linejoin="round" mask="url(#mask-2)"></path>
                    <path d="M363.394464,53.6026059 L369.318339,53.6026059" id="Stroke-36" stroke="#4D6892" stroke-width="1.11000001" stroke-linecap="round" stroke-linejoin="round" mask="url(#mask-2)"></path>
                    <path d="M372.280277,53.6026059 L375.242215,53.6026059" id="Stroke-37" stroke="#4D6892" stroke-width="1.11000001" stroke-linecap="round" mask="url(#mask-2)"></path>
                    <path d="M351.445489,56.7557003 L378.204004,56.7557003" id="Stroke-38" stroke="#4BA2F2" stroke-width="1.11000001" stroke-linecap="round" stroke-linejoin="round" mask="url(#mask-2)"></path>
                    <path d="M354.508651,59.9087948 L360.432526,59.9087948" id="Stroke-39" stroke="#4D6892" stroke-width="1.11000001" stroke-linecap="round" stroke-linejoin="round" mask="url(#mask-2)"></path>
                    <path d="M363.394464,59.9087948 L366.356401,59.9087948" id="Stroke-40" stroke="#4D6892" stroke-width="1.11000001" stroke-linecap="round" stroke-linejoin="round" mask="url(#mask-2)"></path>
                    <path d="M369.318339,59.9087948 L375.242215,59.9087948" id="Stroke-41" stroke="#4D6892" stroke-width="1.11000001" stroke-linecap="round" stroke-linejoin="round" mask="url(#mask-2)"></path>
                    <path d="M378.204152,59.9087948 L381.16609,59.9087948" id="Stroke-42" stroke="#4D6892" stroke-width="1.11000001" stroke-linecap="round" stroke-linejoin="round" mask="url(#mask-2)"></path>
                    <path d="M348.584775,104.052117 L354.508651,104.052117" id="Stroke-43" stroke="#4D6892" stroke-width="1.11000001" stroke-linecap="round" stroke-linejoin="round" mask="url(#mask-2)"></path>
                    <path d="M357.470588,104.052117 L360.432526,104.052117" id="Stroke-44" stroke="#4D6892" stroke-width="1.11000001" stroke-linecap="round" stroke-linejoin="round" mask="url(#mask-2)"></path>
                    <path d="M363.394464,104.052117 L369.318339,104.052117" id="Stroke-45" stroke="#4D6892" stroke-width="1.11000001" stroke-linecap="round" mask="url(#mask-2)"></path>
                    <path d="M372.280277,104.052117 L375.242215,104.052117" id="Stroke-46" stroke="#4D6892" stroke-width="1.11000001" stroke-linecap="round" stroke-linejoin="round" mask="url(#mask-2)"></path>
                    <path d="M351.445489,107.205212 L378.204004,107.205212" id="Stroke-47" stroke="#4D6892" stroke-width="1.11000001" stroke-linecap="round" stroke-linejoin="round" mask="url(#mask-2)"></path>
                    <path d="M354.508651,110.358306 L360.432526,110.358306" id="Stroke-48" stroke="#4D6892" stroke-width="1.11000001" stroke-linecap="round" stroke-linejoin="round" mask="url(#mask-2)"></path>
                    <path d="M363.394464,110.358306 L366.356401,110.358306" id="Stroke-49" stroke="#4D6892" stroke-width="1.11000001" stroke-linecap="round" stroke-linejoin="round" mask="url(#mask-2)"></path>
                    <path d="M369.318339,110.358306 L375.242215,110.358306" id="Stroke-50" stroke="#4D6892" stroke-width="1.11000001" stroke-linecap="round" stroke-linejoin="round" mask="url(#mask-2)"></path>
                    <path d="M378.204152,110.358306 L381.16609,110.358306" id="Stroke-51" stroke="#4D6892" stroke-width="1.11000001" stroke-linecap="round" stroke-linejoin="round" mask="url(#mask-2)"></path>
                    <path d="M348.584775,91.4397394 L354.508651,91.4397394" id="Stroke-52" stroke="#4D6892" stroke-width="1.11000001" stroke-linecap="round" stroke-linejoin="round" mask="url(#mask-2)"></path>
                    <path d="M357.470588,91.4397394 L360.432526,91.4397394" id="Stroke-53" stroke="#4D6892" stroke-width="1.11000001" stroke-linecap="round" stroke-linejoin="round" mask="url(#mask-2)"></path>
                    <path d="M363.394464,91.4397394 L369.318339,91.4397394" id="Stroke-54" stroke="#4D6892" stroke-width="1.11000001" stroke-linecap="round" stroke-linejoin="round" mask="url(#mask-2)"></path>
                    <path d="M372.280277,91.4397394 L375.242215,91.4397394" id="Stroke-55" stroke="#4D6892" stroke-width="1.11000001" stroke-linecap="round" mask="url(#mask-2)"></path>
                    <path d="M351.445489,94.5928339 L378.204004,94.5928339" id="Stroke-56" stroke="#4D6892" stroke-width="1.11000001" stroke-linecap="round" stroke-linejoin="round" mask="url(#mask-2)"></path>
                    <path d="M354.508651,97.7459283 L360.432526,97.7459283" id="Stroke-57" stroke="#4D6892" stroke-width="1.11000001" stroke-linecap="round" stroke-linejoin="round" mask="url(#mask-2)"></path>
                    <path d="M363.394464,97.7459283 L366.356401,97.7459283" id="Stroke-58" stroke="#4D6892" stroke-width="1.11000001" stroke-linecap="round" stroke-linejoin="round" mask="url(#mask-2)"></path>
                    <path d="M369.318339,97.7459283 L375.242215,97.7459283" id="Stroke-59" stroke="#4D6892" stroke-width="1.11000001" stroke-linecap="round" stroke-linejoin="round" mask="url(#mask-2)"></path>
                    <path d="M378.204152,97.7459283 L381.16609,97.7459283" id="Stroke-60" stroke="#4D6892" stroke-width="1.11000001" stroke-linecap="round" stroke-linejoin="round" mask="url(#mask-2)"></path>
                    <path d="M342.6609,116.664495 L387.089965,116.664495 L387.089965,44.1433225 L342.6609,44.1433225 L342.6609,116.664495 Z" id="Stroke-61" stroke="#4D6892" stroke-width="1.11000001" stroke-linecap="round" stroke-linejoin="round" mask="url(#mask-2)"></path>
                    <path d="M387.089965,47.2964169 L342.6609,47.2964169" id="Stroke-62" stroke="#4D6892" stroke-width="1.11000001" stroke-linecap="round" stroke-linejoin="round" mask="url(#mask-2)"></path>
                    <path d="M336.737024,56.7557003 L259.726644,56.7557003 C258.089433,56.7557003 256.764706,58.1659218 256.764706,59.9087948 L256.764706,110.358306 L259.726644,110.358306 L259.726644,59.9087948 L336.737024,59.9087948 L336.737024,110.358306 L339.698962,110.358306 L339.698962,59.9087948 C339.698962,58.1659218 338.374235,56.7557003 336.737024,56.7557003" id="Fill-63" fill="#CFD7E6" mask="url(#mask-2)"></path>
                    <path d="M339.698962,110.358306 L339.698962,59.9087948 C339.698962,58.1659218 338.374235,56.7557003 336.737024,56.7557003 L259.726644,56.7557003 C258.089433,56.7557003 256.764706,58.1659218 256.764706,59.9087948 L256.764706,110.358306" id="Stroke-64" stroke="#4D6892" stroke-width="1.11000001" stroke-linecap="round" stroke-linejoin="round" mask="url(#mask-2)"></path>
                    <path d="M259.726644,110.358306 L336.737024,110.358306 L336.737024,59.9087948 L259.726644,59.9087948 L259.726644,110.358306 Z" id="Fill-65" fill="#FFC857" mask="url(#mask-2)"></path>
                    <g id="Group-68" mask="url(#mask-2)">
                        <g transform="translate(247.878893, 110.358306)">
                            <path d="M5.92387543,6.30618893 C2.64945329,6.30618893 0,3.48574593 0,0 L100.705882,0 C100.705882,3.48574593 98.0564291,6.30618893 94.7820069,6.30618893" id="Fill-66" stroke="none" fill="#A7B8D1" fill-rule="evenodd"></path>
                            <path d="M5.92387543,6.30618893 C2.64945329,6.30618893 0,3.48574593 0,0 L100.705882,0 C100.705882,3.48574593 98.0564291,6.30618893 94.7820069,6.30618893" id="Stroke-67" stroke="#4D6892" stroke-width="1.11000001" stroke-linecap="round" stroke-linejoin="round" fill="none"></path>
                        </g>
                    </g>
                    <path d="M259.726644,59.9087948 L336.737024,59.9087948" id="Stroke-69" stroke="#4D6892" stroke-width="1.11000001" stroke-linecap="round" stroke-linejoin="round" mask="url(#mask-2)"></path>
                    <path d="M336.737024,59.9087948 L336.737024,110.358306" id="Stroke-70" stroke="#4D6892" stroke-width="1.11000001" stroke-linecap="round" stroke-linejoin="round" mask="url(#mask-2)"></path>
                    <path d="M342.6609,116.664495 L253.802768,116.664495" id="Stroke-71" stroke="#4D6892" stroke-width="1.11000001" stroke-linecap="round" stroke-linejoin="round" mask="url(#mask-2)"></path>
                    <path d="M289.346021,113.511401 L307.117647,113.511401 L307.117647,110.358306 L289.346021,110.358306 L289.346021,113.511401 Z" id="Stroke-72" stroke="#4D6892" stroke-width="1.11000001" stroke-linecap="round" stroke-linejoin="round" mask="url(#mask-2)"></path>
                    <path d="M259.726644,59.9087948 L259.726644,110.358306" id="Stroke-73" stroke="#4D6892" stroke-width="1.11000001" stroke-linecap="round" stroke-linejoin="round" mask="url(#mask-2)"></path>
                    <path d="M295.269896,69.3680782 L290.82699,69.3680782 L290.086505,72.5211726 L296.010381,72.5211726 L295.269896,69.3680782 Z" id="Fill-74" fill="#CFD7E6" mask="url(#mask-2)"></path>
                    <path d="M305.636678,69.3680782 L301.193772,69.3680782 L300.453287,72.5211726 L306.377163,72.5211726 L305.636678,69.3680782 Z" id="Fill-75" fill="#CFD7E6" mask="url(#mask-2)"></path>
                    <path d="M289.346021,69.3680782 L289.346021,22.0716612 C289.346021,47.2964169 271.574394,47.2964169 271.574394,69.3680782 L289.346021,69.3680782 Z" id="Fill-76" fill="#FFFFFF" mask="url(#mask-2)"></path>
                    <path d="M307.117647,22.0716612 L307.117647,69.3680782 L324.889273,69.3680782 C324.889273,47.2964169 307.117647,47.2964169 307.117647,22.0716612" id="Fill-77" fill="#FFFFFF" mask="url(#mask-2)"></path>
                    <path d="M277.49827,69.3680782 L283.422145,69.3680782 L283.422145,66.2149837 L277.49827,66.2149837 L277.49827,69.3680782 Z" id="Fill-78" fill="#FBB326" mask="url(#mask-2)"></path>
                    <path d="M313.041522,69.3680782 L318.965398,69.3680782 L318.965398,66.2149837 L313.041522,66.2149837 L313.041522,69.3680782 Z" id="Fill-79" fill="#FBB326" mask="url(#mask-2)"></path>
                    <path d="M289.346021,69.3680782 L271.574394,69.3680782 C271.574394,47.2964169 289.346021,47.2964169 289.346021,22.0716612" id="Stroke-80" stroke="#4D6892" stroke-width="1.11000001" stroke-linecap="round" stroke-linejoin="round" mask="url(#mask-2)"></path>
                    <path d="M277.49827,69.3680782 L283.422145,69.3680782 L283.422145,66.2149837 L277.49827,66.2149837 L277.49827,69.3680782 Z" id="Stroke-81" stroke="#4D6892" stroke-width="1.11000001" stroke-linecap="round" stroke-linejoin="round" mask="url(#mask-2)"></path>
                    <path d="M307.117647,69.3680782 L324.889273,69.3680782 C324.889273,47.2964169 307.117647,47.2964169 307.117647,22.0716612" id="Stroke-82" stroke="#4D6892" stroke-width="1.11000001" stroke-linecap="round" stroke-linejoin="round" mask="url(#mask-2)"></path>
                    <path d="M313.041522,69.3680782 L318.965398,69.3680782 L318.965398,66.2149837 L313.041522,66.2149837 L313.041522,69.3680782 Z" id="Stroke-83" stroke="#4D6892" stroke-width="1.11000001" stroke-linecap="round" stroke-linejoin="round" mask="url(#mask-2)"></path>
                    <path d="M293.160552,6.30618893 C290.773601,10.6436645 289.345947,16.1166482 289.345947,22.0716612 L289.345947,69.3680782 L307.117573,69.3680782 L307.117573,22.0716612 C307.117573,16.1166482 305.690289,10.6436645 303.302967,6.30618893 L293.160552,6.30618893 Z" id="Fill-84" fill="#FFFFFF" mask="url(#mask-2)"></path>
                    <path d="M298.231834,0 C296.273623,1.62502606 294.553848,3.77307166 293.160626,6.30618893 L303.303042,6.30618893 C301.90982,3.77307166 300.190045,1.62502606 298.231834,0" id="Fill-85" fill="#CFD7E6" mask="url(#mask-2)"></path>
                    <path d="M298.231834,0 C292.92108,4.40802606 289.346021,12.6383909 289.346021,22.0716612 L289.346021,69.3680782 L307.117647,69.3680782 L307.117647,22.0716612 C307.117647,12.6383909 303.542588,4.40802606 298.231834,0 L298.231834,0 Z" id="Stroke-86" stroke="#4D6892" stroke-width="1.11000001" stroke-linecap="round" stroke-linejoin="round" mask="url(#mask-2)"></path>
                    <path d="M293.159071,6.30618893 L303.304448,6.30618893" id="Stroke-87" stroke="#4D6892" stroke-width="1.11000001" stroke-linecap="round" stroke-linejoin="round" mask="url(#mask-2)"></path>
                    <path d="M293.788927,17.3420195 C295.172893,16.3393355 296.665709,15.7654723 298.231834,15.7654723 C299.797958,15.7654723 301.290775,16.3393355 302.67474,17.3420195" id="Stroke-88" stroke="#4D6892" stroke-width="1.11000001" stroke-linecap="round" stroke-linejoin="round" mask="url(#mask-2)"></path>
                    <path d="M289.346021,66.2149837 L307.117647,66.2149837" id="Stroke-89" stroke="#4D6892" stroke-width="1.11000001" stroke-linecap="round" stroke-linejoin="round" mask="url(#mask-2)"></path>
                    <path d="M298.231834,72.5211726 L298.231834,59.9087948" id="Stroke-90" stroke="#4D6892" stroke-width="1.11000001" stroke-linecap="round" stroke-linejoin="round" mask="url(#mask-2)"></path>
                    <path d="M295.269896,69.3680782 L290.82699,69.3680782 L290.086505,72.5211726 L296.010381,72.5211726 L295.269896,69.3680782 L295.269896,69.3680782 Z" id="Stroke-91" stroke="#4D6892" stroke-width="1.11000001" stroke-linecap="round" stroke-linejoin="round" mask="url(#mask-2)"></path>
                    <path d="M305.636678,69.3680782 L301.193772,69.3680782 L300.453287,72.5211726 L306.377163,72.5211726 L305.636678,69.3680782 L305.636678,69.3680782 Z" id="Stroke-92" stroke="#4D6892" stroke-width="1.11000001" stroke-linecap="round" stroke-linejoin="round" mask="url(#mask-2)"></path>
                    <path d="M298.231834,91.4397394 L298.231834,97.7459283" id="Stroke-93" stroke="#4D6892" stroke-width="1.11000001" stroke-linecap="round" stroke-linejoin="round" mask="url(#mask-2)"></path>
                    <path d="M283.422145,97.7459283 C283.422145,101.231674 286.071599,104.052117 289.346021,104.052117" id="Stroke-94" stroke="#4D6892" stroke-width="1.11000001" stroke-linecap="round" stroke-linejoin="round" mask="url(#mask-2)"></path>
                    <path d="M283.422145,97.7459283 C283.422145,94.2601824 286.071599,91.4397394 289.346021,91.4397394" id="Stroke-95" stroke="#4D6892" stroke-width="1.11000001" stroke-linecap="round" stroke-linejoin="round" mask="url(#mask-2)"></path>
                    <path d="M295.269896,97.7459283 C295.269896,101.231674 292.620443,104.052117 289.346021,104.052117" id="Stroke-96" stroke="#4D6892" stroke-width="1.11000001" stroke-linecap="round" stroke-linejoin="round" mask="url(#mask-2)"></path>
                    <path d="M295.269896,94.5928339 L295.269896,85.1335505" id="Stroke-97" stroke="#4D6892" stroke-width="1.11000001" stroke-linecap="round" stroke-linejoin="round" mask="url(#mask-2)"></path>
                    <path d="M295.269896,81.980456 L295.269896,78.8273616" id="Stroke-98" stroke="#4D6892" stroke-width="1.11000001" stroke-linecap="round" stroke-linejoin="round" mask="url(#mask-2)"></path>
                    <path d="M298.231834,88.286645 L298.231834,81.980456" id="Stroke-99" stroke="#4D6892" stroke-width="1.11000001" stroke-linecap="round" stroke-linejoin="round" mask="url(#mask-2)"></path>
                    <path d="M292.307958,81.980456 C292.307958,83.7217524 290.981751,85.1335505 289.346021,85.1335505 C287.710291,85.1335505 286.384083,83.7217524 286.384083,81.980456 C286.384083,80.2391596 287.710291,78.8273616 289.346021,78.8273616" id="Stroke-100" stroke="#4D6892" stroke-width="1.11000001" stroke-linecap="round" stroke-linejoin="round" mask="url(#mask-2)"></path>
                    <path d="M292.307958,81.3230358 L292.307958,75.6742671" id="Stroke-101" stroke="#4D6892" stroke-width="1.11000001" stroke-linecap="round" stroke-linejoin="round" mask="url(#mask-2)"></path>
                    <path d="M304.155709,85.1335505 C304.155709,86.8748469 305.481917,88.286645 307.117647,88.286645 C308.753377,88.286645 310.079585,86.8748469 310.079585,85.1335505 C310.079585,83.3922541 308.753377,81.980456 307.117647,81.980456" id="Stroke-102" stroke="#4D6892" stroke-width="1.11000001" stroke-linecap="round" stroke-linejoin="round" mask="url(#mask-2)"></path>
                    <path d="M304.155709,81.980456 L304.155709,75.6742671" id="Stroke-103" stroke="#4D6892" stroke-width="1.11000001" stroke-linecap="round" stroke-linejoin="round" mask="url(#mask-2)"></path>
                    <path d="M283.422145,88.286645 C283.422145,89.1572932 282.759042,89.8631922 281.941176,89.8631922 C281.123311,89.8631922 280.460208,89.1572932 280.460208,88.286645 C280.460208,87.4159967 281.123311,86.7100977 281.941176,86.7100977 C282.759042,86.7100977 283.422145,87.4159967 283.422145,88.286645 L283.422145,88.286645 Z" id="Stroke-104" stroke="#4D6892" stroke-width="1.11000001" stroke-linecap="round" stroke-linejoin="round" mask="url(#mask-2)"></path>
                    <path d="M301.193772,78.8273616 L301.193772,85.1335505" id="Stroke-105" stroke="#4D6892" stroke-width="1.11000001" stroke-linecap="round" stroke-linejoin="round" mask="url(#mask-2)"></path>
                    <path d="M307.117647,91.4397394 C310.389107,91.4397394 313.041522,94.2629414 313.041522,97.7459283 C313.041522,101.228915 310.389107,104.052117 307.117647,104.052117 C303.846187,104.052117 301.193772,101.228915 301.193772,97.7459283" id="Stroke-106" stroke="#4D6892" stroke-width="1.11000001" stroke-linecap="round" stroke-linejoin="round" mask="url(#mask-2)"></path>
                    <path d="M301.193772,97.7459283 L301.193772,88.286645" id="Stroke-107" stroke="#4D6892" stroke-width="1.11000001" stroke-linecap="round" stroke-linejoin="round" mask="url(#mask-2)"></path>
                    <path d="M304.155709,97.7459283 C304.155709,99.4888013 305.480436,100.899023 307.117647,100.899023" id="Stroke-108" stroke="#4D6892" stroke-width="1.11000001" stroke-linecap="round" stroke-linejoin="round" mask="url(#mask-2)"></path>
                    <path d="M310.079585,97.7459283 C310.079585,99.4888013 308.754858,100.899023 307.117647,100.899023" id="Stroke-109" stroke="#4D6892" stroke-width="1.11000001" stroke-linecap="round" stroke-linejoin="round" mask="url(#mask-2)"></path>
                    <path d="M310.079585,97.2201498 C310.079585,95.7677557 308.975522,94.5928339 307.61155,94.5928339" id="Stroke-110" stroke="#4D6892" stroke-width="1.11000001" stroke-linecap="round" stroke-linejoin="round" mask="url(#mask-2)"></path>
                    <path d="M304.155709,94.5928339 L304.155709,91.4397394" id="Stroke-111" stroke="#4D6892" stroke-width="1.11000001" stroke-linecap="round" stroke-linejoin="round" mask="url(#mask-2)"></path>
                    <path d="M304.155709,81.980456 L304.155709,85.1335505" id="Stroke-112" stroke="#4D6892" stroke-width="1.11000001" stroke-linecap="round" stroke-linejoin="round" mask="url(#mask-2)"></path>
                    <path d="M316.743945,89.8631922 C316.743945,90.7338404 316.080841,91.4397394 315.262976,91.4397394 C314.445111,91.4397394 313.782007,90.7338404 313.782007,89.8631922 C313.782007,88.992544 314.445111,88.286645 315.262976,88.286645 C316.080841,88.286645 316.743945,88.992544 316.743945,89.8631922 L316.743945,89.8631922 Z" id="Stroke-113" stroke="#4D6892" stroke-width="1.11000001" stroke-linecap="round" stroke-linejoin="round" mask="url(#mask-2)"></path>
                    <path d="M301.934256,105.628664 C301.934256,106.499313 301.271152,107.205212 300.453287,107.205212 C299.635422,107.205212 298.972318,106.499313 298.972318,105.628664 C298.972318,104.758016 299.635422,104.052117 300.453287,104.052117 C301.271152,104.052117 301.934256,104.758016 301.934256,105.628664 L301.934256,105.628664 Z" id="Stroke-114" stroke="#4D6892" stroke-width="1.11000001" stroke-linecap="round" stroke-linejoin="round" mask="url(#mask-2)"></path>
                    <path d="M298.231834,78.8273616 L298.231834,75.6742671" id="Stroke-115" stroke="#4D6892" stroke-width="1.11000001" stroke-linecap="round" stroke-linejoin="round" mask="url(#mask-2)"></path>
                    <path id="Stroke-116" stroke="#4D6892" stroke-width="1.11000001" stroke-linecap="round" stroke-linejoin="round" mask="url(#mask-2)"></path>
                    <path id="Stroke-117" stroke="#4D6892" stroke-width="1.11000001" stroke-linecap="round" stroke-linejoin="round" mask="url(#mask-2)"></path>
                    <path id="Stroke-118" stroke="#4D6892" stroke-width="1.11000001" stroke-linecap="round" stroke-linejoin="round" mask="url(#mask-2)"></path>
                    <path id="Stroke-119" stroke="#4D6892" stroke-width="1.11000001" stroke-linecap="round" stroke-linejoin="round" mask="url(#mask-2)"></path>
                    <path id="Stroke-120" stroke="#4D6892" stroke-width="1.11000001" stroke-linecap="round" stroke-linejoin="round" mask="url(#mask-2)"></path>
                    <path d="M298.231834,97.7459283 C298.231834,102.974547 294.257654,107.205212 289.346021,107.205212" id="Stroke-121" stroke="#4D6892" stroke-width="1.11000001" stroke-linecap="round" stroke-linejoin="round" mask="url(#mask-2)"></path>
                    <path d="M286.384083,97.7459283 C286.384083,96.0046319 287.710291,94.5928339 289.346021,94.5928339 C290.981751,94.5928339 292.307958,96.0046319 292.307958,97.7459283 C292.307958,99.4872248 290.981751,100.899023 289.346021,100.899023" id="Stroke-122" stroke="#4D6892" stroke-width="1.11000001" stroke-linecap="round" stroke-linejoin="round" mask="url(#mask-2)"></path>
                    <path d="M292.307958,88.286645 L292.307958,91.4397394" id="Stroke-123" stroke="#4D6892" stroke-width="1.11000001" stroke-linecap="round" stroke-linejoin="round" mask="url(#mask-2)"></path>
                    <path d="M321.927336,107.205212 C321.927336,103.719466 319.277882,100.899023 316.00346,100.899023" id="Stroke-124" stroke="#4D6892" stroke-width="1.11000001" stroke-linecap="round" stroke-linejoin="round" mask="url(#mask-2)"></path>
                    <path d="M327.851211,107.205212 C327.851211,105.462339 326.526484,104.052117 324.889273,104.052117" id="Stroke-125" stroke="#4D6892" stroke-width="1.11000001" stroke-linecap="round" stroke-linejoin="round" mask="url(#mask-2)"></path>
                    <path d="M274.536332,107.205212 C274.536332,103.719466 277.185785,100.899023 280.460208,100.899023" id="Stroke-126" stroke="#4D6892" stroke-width="1.11000001" stroke-linecap="round" stroke-linejoin="round" mask="url(#mask-2)"></path>
                    <path d="M268.612457,107.205212 C268.612457,105.462339 269.937183,104.052117 271.574394,104.052117" id="Stroke-127" stroke="#4D6892" stroke-width="1.11000001" stroke-linecap="round" stroke-linejoin="round" mask="url(#mask-2)"></path>
                    <path id="Stroke-128" stroke="#4D6892" stroke-width="1.11000001" stroke-linecap="round" stroke-linejoin="round" mask="url(#mask-2)"></path>
                    <path id="Stroke-129" stroke="#4D6892" stroke-width="1.11000001" stroke-linecap="round" stroke-linejoin="round" mask="url(#mask-2)"></path>
                    <path d="M277.49827,107.205212 C277.49827,105.462339 278.822997,104.052117 280.460208,104.052117" id="Stroke-130" stroke="#4D6892" stroke-width="1.11000001" stroke-linecap="round" stroke-linejoin="round" mask="url(#mask-2)"></path>
                    <path d="M390.051903,116.664495 L398.937716,116.664495 L398.937716,53.6026059 L390.051903,53.6026059 L390.051903,116.664495 Z" id="Fill-131" fill="#FFC857" mask="url(#mask-2)"></path>
                    <path d="M390.051903,116.664495 L398.937716,116.664495 L398.937716,53.6026059 L390.051903,53.6026059 L390.051903,116.664495 Z" id="Stroke-132" stroke="#4D6892" stroke-width="1.11000001" stroke-linecap="round" stroke-linejoin="round" mask="url(#mask-2)"></path>
                    <path d="M395.975779,53.6026059 L395.975779,116.664495" id="Stroke-133" stroke="#4D6892" stroke-width="1.11000001" stroke-linecap="round" stroke-linejoin="round" mask="url(#mask-2)"></path>
                    <path d="M390.051903,113.511401 L391.532872,113.511401" id="Stroke-134" stroke="#4D6892" stroke-width="1.11000001" stroke-linecap="round" stroke-linejoin="round" mask="url(#mask-2)"></path>
                    <path d="M390.051903,110.358306 L391.532872,110.358306" id="Stroke-135" stroke="#4D6892" stroke-width="1.11000001" stroke-linecap="round" stroke-linejoin="round" mask="url(#mask-2)"></path>
                    <path d="M390.051903,107.205212 L391.532872,107.205212" id="Stroke-136" stroke="#4D6892" stroke-width="1.11000001" stroke-linecap="round" stroke-linejoin="round" mask="url(#mask-2)"></path>
                    <path d="M390.051903,104.052117 L391.532872,104.052117" id="Stroke-137" stroke="#4D6892" stroke-width="1.11000001" stroke-linecap="round" stroke-linejoin="round" mask="url(#mask-2)"></path>
                    <path d="M390.051903,100.899023 L391.532872,100.899023" id="Stroke-138" stroke="#4D6892" stroke-width="1.11000001" stroke-linecap="round" stroke-linejoin="round" mask="url(#mask-2)"></path>
                    <path d="M390.051903,97.7459283 L391.532872,97.7459283" id="Stroke-139" stroke="#4D6892" stroke-width="1.11000001" stroke-linecap="round" stroke-linejoin="round" mask="url(#mask-2)"></path>
                    <path d="M390.051903,94.5928339 L391.532872,94.5928339" id="Stroke-140" stroke="#4D6892" stroke-width="1.11000001" stroke-linecap="round" stroke-linejoin="round" mask="url(#mask-2)"></path>
                    <path d="M390.051903,91.4397394 L391.532872,91.4397394" id="Stroke-141" stroke="#4D6892" stroke-width="1.11000001" stroke-linecap="round" stroke-linejoin="round" mask="url(#mask-2)"></path>
                    <path d="M390.051903,88.286645 L391.532872,88.286645" id="Stroke-142" stroke="#4D6892" stroke-width="1.11000001" stroke-linecap="round" stroke-linejoin="round" mask="url(#mask-2)"></path>
                    <path d="M390.051903,85.1335505 L391.532872,85.1335505" id="Stroke-143" stroke="#4D6892" stroke-width="1.11000001" stroke-linecap="round" stroke-linejoin="round" mask="url(#mask-2)"></path>
                    <path d="M390.051903,81.980456 L391.532872,81.980456" id="Stroke-144" stroke="#4D6892" stroke-width="1.11000001" stroke-linecap="round" stroke-linejoin="round" mask="url(#mask-2)"></path>
                    <path d="M390.051903,78.8273616 L391.532872,78.8273616" id="Stroke-145" stroke="#4D6892" stroke-width="1.11000001" stroke-linecap="round" stroke-linejoin="round" mask="url(#mask-2)"></path>
                    <path d="M390.051903,75.6742671 L391.532872,75.6742671" id="Stroke-146" stroke="#4D6892" stroke-width="1.11000001" stroke-linecap="round" stroke-linejoin="round" mask="url(#mask-2)"></path>
                    <path d="M390.051903,72.5211726 L391.532872,72.5211726" id="Stroke-147" stroke="#4D6892" stroke-width="1.11000001" stroke-linecap="round" stroke-linejoin="round" mask="url(#mask-2)"></path>
                    <path d="M390.051903,69.3680782 L391.532872,69.3680782" id="Stroke-148" stroke="#4D6892" stroke-width="1.11000001" stroke-linecap="round" stroke-linejoin="round" mask="url(#mask-2)"></path>
                    <path d="M390.051903,66.2149837 L391.532872,66.2149837" id="Stroke-149" stroke="#4D6892" stroke-width="1.11000001" stroke-linecap="round" stroke-linejoin="round" mask="url(#mask-2)"></path>
                    <path d="M390.051903,63.0618893 L391.532872,63.0618893" id="Stroke-150" stroke="#4D6892" stroke-width="1.11000001" stroke-linecap="round" stroke-linejoin="round" mask="url(#mask-2)"></path>
                    <path d="M390.051903,59.9087948 L391.532872,59.9087948" id="Stroke-151" stroke="#4D6892" stroke-width="1.11000001" stroke-linecap="round" stroke-linejoin="round" mask="url(#mask-2)"></path>
                    <path d="M390.051903,56.7557003 L391.532872,56.7557003" id="Stroke-152" stroke="#4D6892" stroke-width="1.11000001" stroke-linecap="round" stroke-linejoin="round" mask="url(#mask-2)"></path>
                    <path d="M401.899654,113.511401 L407.823529,113.511401 L407.823529,66.2149837 L401.899654,66.2149837 L401.899654,113.511401 Z" id="Fill-153" fill="#FFC857" mask="url(#mask-2)"></path>
                    <path d="M401.899654,116.664495 L407.823529,116.664495 L407.823529,66.2149837 L401.899654,66.2149837 L401.899654,116.664495 Z" id="Stroke-154" stroke="#4D6892" stroke-width="1.11000001" stroke-linecap="round" stroke-linejoin="round" mask="url(#mask-2)"></path>
                    <path d="M404.861592,59.9087948 L401.899654,66.2149837 L407.823529,66.2149837 L404.861592,59.9087948 L404.861592,59.9087948 Z" id="Stroke-155" stroke="#4D6892" stroke-width="1.11000001" stroke-linecap="round" stroke-linejoin="round" mask="url(#mask-2)"></path>
                    <path d="M404.861592,66.2149837 L404.861592,113.511401" id="Stroke-156" stroke="#4D6892" stroke-width="1.11000001" stroke-linecap="round" stroke-linejoin="round" mask="url(#mask-2)"></path>
                    <path d="M401.899654,113.511401 L407.823529,113.511401" id="Stroke-157" stroke="#4D6892" stroke-width="1.11000001" stroke-linecap="round" stroke-linejoin="round" mask="url(#mask-2)"></path>
                    <path d="M403.380623,63.0618893 L406.342561,63.0618893" id="Stroke-158" stroke="#4D6892" stroke-width="1.11000001" stroke-linecap="round" stroke-linejoin="round" mask="url(#mask-2)"></path>
                    <path d="M96.8200692,113.511401 L102.743945,113.511401 L102.743945,69.3680782 L96.8200692,69.3680782 L96.8200692,113.511401 Z" id="Fill-159" fill="#FFC857" mask="url(#mask-2)"></path>
                    <path d="M96.8200692,116.664495 L102.743945,116.664495 L102.743945,69.3680782 L96.8200692,69.3680782 L96.8200692,116.664495 Z" id="Stroke-160" stroke="#4D6892" stroke-width="1.11000001" stroke-linecap="round" stroke-linejoin="round" mask="url(#mask-2)"></path>
                    <path d="M99.7820069,63.0618893 L96.8200692,69.3680782 L102.743945,69.3680782 L99.7820069,63.0618893 L99.7820069,63.0618893 Z" id="Stroke-161" stroke="#4D6892" stroke-width="1.11000001" stroke-linecap="round" stroke-linejoin="round" mask="url(#mask-2)"></path>
                    <path d="M99.7820069,69.3680782 L99.7820069,113.511401" id="Stroke-162" stroke="#4D6892" stroke-width="1.11000001" stroke-linecap="round" stroke-linejoin="round" mask="url(#mask-2)"></path>
                    <path d="M96.8200692,113.511401 L102.743945,113.511401" id="Stroke-163" stroke="#4D6892" stroke-width="1.11000001" stroke-linecap="round" stroke-linejoin="round" mask="url(#mask-2)"></path>
                    <path d="M98.3010381,66.2149837 L101.262976,66.2149837" id="Stroke-164" stroke="#4D6892" stroke-width="1.11000001" stroke-linecap="round" stroke-linejoin="round" mask="url(#mask-2)"></path>
                    <path d="M233.069204,40.9898339 C233.069204,46.2145114 229.091322,50.4491173 224.183391,50.4491173 C219.27546,50.4491173 215.297578,46.2145114 215.297578,40.9898339 C215.297578,35.7651564 219.27546,31.5305505 224.183391,31.5305505 C229.091322,31.5305505 233.069204,35.7651564 233.069204,40.9898339" id="Fill-165" fill="#FBB326" mask="url(#mask-2)"></path>
                    <path d="M224.183391,53.6022117 C217.63973,53.6022117 212.33564,47.9550195 212.33564,40.9898339 C212.33564,34.0246482 217.63973,28.3782443 224.183391,28.3782443 C230.727052,28.3782443 236.031142,34.0246482 236.031142,40.9898339" id="Stroke-166" stroke="#4D6892" stroke-width="1.11000001" stroke-linecap="round" stroke-linejoin="round" mask="url(#mask-2)"></path>
                    <path d="M221.961938,37.8367394 L221.961938,44.1429283 L227.885813,40.9898339 L221.961938,37.8367394 Z" id="Fill-167" fill="#FFFFFF" mask="url(#mask-2)"></path>
                    <path d="M221.961938,37.8367394 L221.961938,44.1429283 L227.885813,40.9898339 L221.961938,37.8367394 L221.961938,37.8367394 Z" id="Stroke-168" stroke="#4D6892" stroke-width="1.11000001" stroke-linecap="round" stroke-linejoin="round" mask="url(#mask-2)"></path>
                    <path d="M233.069204,40.9898339 C233.069204,46.2145114 229.091322,50.4491173 224.183391,50.4491173 C219.27546,50.4491173 215.297578,46.2145114 215.297578,40.9898339 C215.297578,35.7651564 219.27546,31.5305505 224.183391,31.5305505 C229.091322,31.5305505 233.069204,35.7651564 233.069204,40.9898339 L233.069204,40.9898339 Z" id="Stroke-169" stroke="#4D6892" stroke-width="1.11000001" stroke-linecap="round" stroke-linejoin="round" mask="url(#mask-2)"></path>
                    <path d="M30.916955,116.664495 L93.8581315,116.664495 L93.8581315,104.052117 L30.916955,104.052117 L30.916955,116.664495 Z" id="Fill-170" fill="#FFFFFF" mask="url(#mask-2)"></path>
                    <path d="M82.0103806,116.664495 L93.8581315,116.664495 L93.8581315,104.052117 L82.0103806,104.052117 L82.0103806,116.664495 Z" id="Fill-171" fill="#FBB326" mask="url(#mask-2)"></path>
                    <path d="M30.916955,116.664495 L93.8581315,116.664495 L93.8581315,104.052117 L30.916955,104.052117 L30.916955,116.664495 Z" id="Stroke-172" stroke="#4D6892" stroke-width="1.11000001" stroke-linecap="round" stroke-linejoin="round" mask="url(#mask-2)"></path>
                    <path d="M38.3217993,110.358306 C38.3217993,111.229743 37.659436,111.934853 36.8408304,111.934853 C36.0222249,111.934853 35.3598616,111.229743 35.3598616,110.358306 C35.3598616,109.48687 36.0222249,108.781759 36.8408304,108.781759 C37.659436,108.781759 38.3217993,109.48687 38.3217993,110.358306 L38.3217993,110.358306 Z" id="Stroke-173" stroke="#4D6892" stroke-width="1.11000001" stroke-linecap="round" stroke-linejoin="round" mask="url(#mask-2)"></path>
                    <path d="M44.2456747,110.358306 C44.2456747,111.229743 43.5833114,111.934853 42.7647059,111.934853 C41.9461003,111.934853 41.283737,111.229743 41.283737,110.358306 C41.283737,109.48687 41.9461003,108.781759 42.7647059,108.781759 C43.5833114,108.781759 44.2456747,109.48687 44.2456747,110.358306 L44.2456747,110.358306 Z" id="Stroke-174" stroke="#4D6892" stroke-width="1.11000001" stroke-linecap="round" stroke-linejoin="round" mask="url(#mask-2)"></path>
                    <path d="M50.1695502,110.358306 C50.1695502,111.229743 49.5071869,111.934853 48.6885813,111.934853 C47.8699758,111.934853 47.2076125,111.229743 47.2076125,110.358306 C47.2076125,109.48687 47.8699758,108.781759 48.6885813,108.781759 C49.5071869,108.781759 50.1695502,109.48687 50.1695502,110.358306 L50.1695502,110.358306 Z" id="Stroke-175" stroke="#4D6892" stroke-width="1.11000001" stroke-linecap="round" stroke-linejoin="round" mask="url(#mask-2)"></path>
                    <path d="M56.0934256,110.358306 C56.0934256,111.229743 55.4310623,111.934853 54.6124567,111.934853 C53.7938512,111.934853 53.1314879,111.229743 53.1314879,110.358306 C53.1314879,109.48687 53.7938512,108.781759 54.6124567,108.781759 C55.4310623,108.781759 56.0934256,109.48687 56.0934256,110.358306 L56.0934256,110.358306 Z" id="Stroke-176" stroke="#4D6892" stroke-width="1.11000001" stroke-linecap="round" stroke-linejoin="round" mask="url(#mask-2)"></path>
                    <path d="M62.017301,110.358306 C62.017301,111.229743 61.3549377,111.934853 60.5363322,111.934853 C59.7177266,111.934853 59.0553633,111.229743 59.0553633,110.358306 C59.0553633,109.48687 59.7177266,108.781759 60.5363322,108.781759 C61.3549377,108.781759 62.017301,109.48687 62.017301,110.358306 L62.017301,110.358306 Z" id="Stroke-177" stroke="#4D6892" stroke-width="1.11000001" stroke-linecap="round" stroke-linejoin="round" mask="url(#mask-2)"></path>
                    <path d="M82.0103806,116.664495 L82.0103806,104.052117" id="Stroke-178" stroke="#4D6892" stroke-width="1.11000001" stroke-linecap="round" stroke-linejoin="round" mask="url(#mask-2)"></path>
                    <path d="M170.868512,28.3778502 L170.868512,53.6026059 L196.044983,53.6026059 L201.968858,59.9087948 L201.968858,53.6026059 L209.373702,53.6026059 L209.373702,28.3778502 L170.868512,28.3778502 Z" id="Fill-179" fill="#FFFFFF" mask="url(#mask-2)"></path>
                    <path d="M170.868512,28.3778502 L170.868512,53.6026059 L196.044983,53.6026059 L201.968858,59.9087948 L201.968858,53.6026059 L209.373702,53.6026059 L209.373702,28.3778502 L170.868512,28.3778502 L170.868512,28.3778502 Z" id="Stroke-180" stroke="#4D6892" stroke-width="1.11000001" stroke-linecap="round" stroke-linejoin="round" mask="url(#mask-2)"></path>
                    <g id="Group-183" mask="url(#mask-2)">
                        <g transform="translate(179.754325, 37.837134)">
                            <path id="Fill-181" stroke="none" fill="#FFFFFF" fill-rule="evenodd" d="M0,0 L20.733564,0"></path>
                            <path d="M0,0 L20.733564,0" id="Stroke-182" stroke="#4D6892" stroke-width="1.11000001" stroke-linecap="round" stroke-linejoin="round" fill="none"></path>
                        </g>
                    </g>
                    <g id="Group-186" mask="url(#mask-2)">
                        <g transform="translate(179.754325, 40.990228)">
                            <path id="Fill-184" stroke="none" fill="#FFFFFF" fill-rule="evenodd" d="M0,0 L20.733564,0"></path>
                            <path d="M0,0 L20.733564,0" id="Stroke-185" stroke="#4D6892" stroke-width="1.11000001" stroke-linecap="round" stroke-linejoin="round" fill="none"></path>
                        </g>
                    </g>
                    <g id="Group-189" mask="url(#mask-2)">
                        <g transform="translate(179.754325, 44.143322)">
                            <path id="Fill-187" stroke="none" fill="#FFFFFF" fill-rule="evenodd" d="M0,0 L20.733564,0"></path>
                            <path d="M0,0 L20.733564,0" id="Stroke-188" stroke="#4D6892" stroke-width="1.11000001" stroke-linecap="round" stroke-linejoin="round" fill="none"></path>
                        </g>
                    </g>
                    <path d="M105.705882,59.9087948 L167.906574,59.9087948 L167.906574,44.1433225 L105.705882,44.1433225 L105.705882,59.9087948 Z" id="Fill-196" fill="#FBB326" mask="url(#mask-2)"></path>
                    <path d="M161.982699,50.4495114 C161.982699,52.1908078 160.656491,53.6026059 159.020761,53.6026059 C157.385031,53.6026059 156.058824,52.1908078 156.058824,50.4495114 C156.058824,48.708215 157.385031,47.2964169 159.020761,47.2964169 C160.656491,47.2964169 161.982699,48.708215 161.982699,50.4495114" id="Fill-197" fill="#FFFFFF" mask="url(#mask-2)"></path>
                    <path d="M108.66782,56.7557003 L153.096886,56.7557003 L153.096886,47.2964169 L108.66782,47.2964169 L108.66782,56.7557003 Z" id="Fill-198" fill="#FFFFFF" mask="url(#mask-2)"></path>
                    <path d="M105.705882,59.9087948 L167.906574,59.9087948 L167.906574,44.1433225 L105.705882,44.1433225 L105.705882,59.9087948 Z" id="Stroke-199" stroke="#4D6892" stroke-width="1.11000001" stroke-linecap="round" stroke-linejoin="round" mask="url(#mask-2)"></path>
                    <path d="M108.66782,56.7557003 L153.096886,56.7557003 L153.096886,47.2964169 L108.66782,47.2964169 L108.66782,56.7557003 Z" id="Stroke-200" stroke="#4D6892" stroke-width="1.11000001" stroke-linecap="round" stroke-linejoin="round" mask="url(#mask-2)"></path>
                    <path d="M161.982699,50.4495114 C161.982699,52.1908078 160.656491,53.6026059 159.020761,53.6026059 C157.385031,53.6026059 156.058824,52.1908078 156.058824,50.4495114 C156.058824,48.708215 157.385031,47.2964169 159.020761,47.2964169 C160.656491,47.2964169 161.982699,48.708215 161.982699,50.4495114 L161.982699,50.4495114 Z" id="Stroke-201" stroke="#4D6892" stroke-width="1.11000001" stroke-linecap="round" stroke-linejoin="round" mask="url(#mask-2)"></path>
                    <path d="M164.944637,56.7557003 L161.108557,52.6720489" id="Stroke-202" stroke="#4D6892" stroke-width="1.11000001" stroke-linecap="round" stroke-linejoin="round" mask="url(#mask-2)"></path>
                    <path d="M55.3529412,59.9087948 L70.1626298,59.9087948 L70.1626298,53.6026059 L55.3529412,53.6026059 L55.3529412,59.9087948 Z" id="Fill-203" fill="#CFD7E6" mask="url(#mask-2)"></path>
                    <path d="M31.6574394,100.899023 L93.8581315,100.899023 L93.8581315,59.9087948 L31.6574394,59.9087948 L31.6574394,100.899023 Z" id="Fill-204" fill="#CFD7E6" mask="url(#mask-2)"></path>
                    <path d="M37.5813149,100.899023 L43.5051903,100.899023 L43.5051903,59.9087948 L37.5813149,59.9087948 L37.5813149,100.899023 Z" id="Fill-205" fill="#4BA2F2" mask="url(#mask-2)"></path>
                    <path d="M82.0103806,100.899023 L87.9342561,100.899023 L87.9342561,59.9087948 L82.0103806,59.9087948 L82.0103806,100.899023 Z" id="Fill-206" fill="#4BA2F2" mask="url(#mask-2)"></path>
                    <path d="M31.6574394,100.899023 L93.8581315,100.899023 L93.8581315,59.9087948 L31.6574394,59.9087948 L31.6574394,100.899023 Z" id="Stroke-207" stroke="#4D6892" stroke-width="1.11000001" stroke-linecap="round" stroke-linejoin="round" mask="url(#mask-2)"></path>
                    <path d="M55.3529412,59.9087948 L70.1626298,59.9087948 L70.1626298,53.6026059 L55.3529412,53.6026059 L55.3529412,59.9087948 Z" id="Stroke-208" stroke="#4D6892" stroke-width="1.11000001" stroke-linecap="round" stroke-linejoin="round" mask="url(#mask-2)"></path>
                    <path d="M58.3148789,59.9087948 L67.200692,59.9087948 L67.200692,56.7557003 L58.3148789,56.7557003 L58.3148789,59.9087948 Z" id="Fill-209" fill="#FFFFFF" mask="url(#mask-2)"></path>
                    <path d="M58.3148789,59.9087948 L67.200692,59.9087948 L67.200692,56.7557003 L58.3148789,56.7557003 L58.3148789,59.9087948 Z" id="Stroke-210" stroke="#4D6892" stroke-width="1.11000001" stroke-linecap="round" stroke-linejoin="round" mask="url(#mask-2)"></path>
                    <path d="M82.0103806,59.9087948 L87.9342561,59.9087948 L87.9342561,56.7557003 L82.0103806,56.7557003 L82.0103806,59.9087948 Z" id="Stroke-211" stroke="#4D6892" stroke-width="1.11000001" stroke-linecap="round" stroke-linejoin="round" mask="url(#mask-2)"></path>
                    <path d="M37.5813149,59.9087948 L43.5051903,59.9087948 L43.5051903,56.7557003 L37.5813149,56.7557003 L37.5813149,59.9087948 Z" id="Stroke-212" stroke="#4D6892" stroke-width="1.11000001" stroke-linecap="round" stroke-linejoin="round" mask="url(#mask-2)"></path>
                    <path d="M37.5813149,59.9087948 L37.5813149,100.899023" id="Stroke-213" stroke="#4D6892" stroke-width="1.11000001" stroke-linecap="round" stroke-linejoin="round" mask="url(#mask-2)"></path>
                    <path d="M43.5051903,59.9087948 L43.5051903,100.899023" id="Stroke-214" stroke="#4D6892" stroke-width="1.11000001" stroke-linecap="round" stroke-linejoin="round" mask="url(#mask-2)"></path>
                    <path d="M82.0103806,59.9087948 L82.0103806,100.899023" id="Stroke-215" stroke="#4D6892" stroke-width="1.11000001" stroke-linecap="round" stroke-linejoin="round" mask="url(#mask-2)"></path>
                    <path d="M87.9342561,59.9087948 L87.9342561,100.899023" id="Stroke-216" stroke="#4D6892" stroke-width="1.11000001" stroke-linecap="round" stroke-linejoin="round" mask="url(#mask-2)"></path>
                    <path d="M415.228374,100.899023 L410.785467,110.358306 L410.785467,113.511401 C410.785467,115.254274 412.110194,116.664495 413.747405,116.664495 L428.557093,116.664495 C430.194304,116.664495 431.519031,115.254274 431.519031,113.511401 L431.519031,110.358306 L427.076125,100.899023 L415.228374,100.899023 Z" id="Fill-217" fill="#4BA2F2" mask="url(#mask-2)"></path>
                    <path d="M418.190311,94.5928339 L419.67128,94.5928339" id="Stroke-218" stroke="#4D6892" stroke-width="1.11000001" stroke-linecap="round" stroke-linejoin="round" mask="url(#mask-2)"></path>
                    <path d="M418.190311,91.4397394 L419.67128,91.4397394" id="Stroke-219" stroke="#4D6892" stroke-width="1.11000001" stroke-linecap="round" stroke-linejoin="round" mask="url(#mask-2)"></path>
                    <path d="M418.190311,88.286645 L419.67128,88.286645" id="Stroke-220" stroke="#4D6892" stroke-width="1.11000001" stroke-linecap="round" stroke-linejoin="round" mask="url(#mask-2)"></path>
                    <path d="M418.190311,85.1335505 L419.67128,85.1335505" id="Stroke-221" stroke="#4D6892" stroke-width="1.11000001" stroke-linecap="round" stroke-linejoin="round" mask="url(#mask-2)"></path>
                    <path d="M418.190311,81.980456 L419.67128,81.980456" id="Stroke-222" stroke="#4D6892" stroke-width="1.11000001" stroke-linecap="round" stroke-linejoin="round" mask="url(#mask-2)"></path>
                    <path d="M418.190311,78.8273616 L419.67128,78.8273616" id="Stroke-223" stroke="#4D6892" stroke-width="1.11000001" stroke-linecap="round" stroke-linejoin="round" mask="url(#mask-2)"></path>
                    <path d="M418.190311,75.6742671 L419.67128,75.6742671" id="Stroke-224" stroke="#4D6892" stroke-width="1.11000001" stroke-linecap="round" stroke-linejoin="round" mask="url(#mask-2)"></path>
                    <path d="M422.633218,106.743362 C422.633218,107.61401 421.970114,108.319909 421.152249,108.319909 C420.334384,108.319909 419.67128,107.61401 419.67128,106.743362 C419.67128,105.872714 420.334384,105.166815 421.152249,105.166815 C421.970114,105.166815 422.633218,105.872714 422.633218,106.743362 L422.633218,106.743362 Z" id="Stroke-225" stroke="#4D6892" stroke-width="1.11000001" stroke-linecap="round" stroke-linejoin="round" mask="url(#mask-2)"></path>
                    <path d="M417.449827,109.307537 C417.449827,110.178186 416.786723,110.884085 415.968858,110.884085 C415.150993,110.884085 414.487889,110.178186 414.487889,109.307537 C414.487889,108.436889 415.150993,107.73099 415.968858,107.73099 C416.786723,107.73099 417.449827,108.436889 417.449827,109.307537 L417.449827,109.307537 Z" id="Stroke-226" stroke="#4D6892" stroke-width="1.11000001" stroke-linecap="round" stroke-linejoin="round" mask="url(#mask-2)"></path>
                    <path d="M427.473061,110.358306 C427.473061,111.228954 426.809957,111.934853 425.992092,111.934853 C425.174227,111.934853 424.511124,111.228954 424.511124,110.358306 C424.511124,109.487658 425.174227,108.781759 425.992092,108.781759 C426.809957,108.781759 427.473061,109.487658 427.473061,110.358306 L427.473061,110.358306 Z" id="Stroke-227" stroke="#4D6892" stroke-width="1.11000001" stroke-linecap="round" stroke-linejoin="round" mask="url(#mask-2)"></path>
                    <path id="Stroke-228" stroke="#4D6892" stroke-width="1.11000001" stroke-linecap="round" stroke-linejoin="round" mask="url(#mask-2)"></path>
                    <path id="Stroke-229" stroke="#4D6892" stroke-width="1.11000001" stroke-linecap="round" stroke-linejoin="round" mask="url(#mask-2)"></path>
                    <path id="Stroke-230" stroke="#4D6892" stroke-width="1.11000001" stroke-linecap="round" stroke-linejoin="round" mask="url(#mask-2)"></path>
                    <path id="Stroke-231" stroke="#4D6892" stroke-width="1.11000001" stroke-linecap="round" stroke-linejoin="round" mask="url(#mask-2)"></path>
                    <path id="Stroke-232" stroke="#4D6892" stroke-width="1.11000001" stroke-linecap="round" stroke-linejoin="round" mask="url(#mask-2)"></path>
                    <path d="M416.709343,72.5211726 L425.595156,72.5211726" id="Stroke-233" stroke="#4D6892" stroke-width="1.11000001" stroke-linecap="round" stroke-linejoin="round" mask="url(#mask-2)"></path>
                    <path d="M418.190311,94.5928339 L418.190311,72.5211726 L424.114187,72.5211726 L424.114187,94.5928339 L431.519031,110.358306 L431.519031,113.511401 C431.519031,115.254274 430.194304,116.664495 428.557093,116.664495 L413.747405,116.664495 C412.110194,116.664495 410.785467,115.254274 410.785467,113.511401 L410.785467,110.358306 L418.190311,94.5928339 L418.190311,94.5928339 Z" id="Stroke-234" stroke="#4D6892" stroke-width="1.11000001" stroke-linecap="round" stroke-linejoin="round" mask="url(#mask-2)"></path>
                    <path d="M415.228374,100.899023 L427.076125,100.899023" id="Stroke-235" stroke="#4D6892" stroke-width="1.11000001" stroke-linecap="round" stroke-linejoin="round" mask="url(#mask-2)"></path>
                    <path d="M6.59811349,97.7459283 C5.58661176,99.600342 5.0001481,101.750752 5.0001481,104.052117 C5.0001481,111.017697 10.3042381,116.664495 16.847899,116.664495 C23.3911896,116.664495 28.6956498,111.017697 28.6956498,104.052117 C28.6956498,101.750752 28.1091862,99.600342 27.0973142,97.7459283 L6.59811349,97.7459283 Z" id="Fill-236" fill="#4BA2F2" mask="url(#mask-2)"></path>
                    <path d="M19.8096886,91.8531101 L19.8096886,69.3679993 L13.8858131,69.3679993 L13.8858131,91.8531101 C8.7783218,93.2554489 5,98.1774293 5,104.052038 C5,111.017618 10.30409,116.664416 16.8477509,116.664416 C23.3914118,116.664416 28.6955017,111.017618 28.6955017,104.052038 C28.6955017,98.1774293 24.9171799,93.2554489 19.8096886,91.8531101 L19.8096886,91.8531101 Z" id="Stroke-237" stroke="#4D6892" stroke-width="1.11000001" stroke-linecap="round" stroke-linejoin="round" mask="url(#mask-2)"></path>
                    <path d="M12.4048443,69.3680782 L21.2906574,69.3680782" id="Stroke-238" stroke="#4D6892" stroke-width="1.11000001" stroke-linecap="round" stroke-linejoin="round" mask="url(#mask-2)"></path>
                    <path d="M13.8858131,88.286645 L15.366782,88.286645" id="Stroke-239" stroke="#4D6892" stroke-width="1.11000001" stroke-linecap="round" stroke-linejoin="round" mask="url(#mask-2)"></path>
                    <path d="M13.8858131,85.1335505 L15.366782,85.1335505" id="Stroke-240" stroke="#4D6892" stroke-width="1.11000001" stroke-linecap="round" stroke-linejoin="round" mask="url(#mask-2)"></path>
                    <path d="M13.8858131,81.980456 L15.366782,81.980456" id="Stroke-241" stroke="#4D6892" stroke-width="1.11000001" stroke-linecap="round" stroke-linejoin="round" mask="url(#mask-2)"></path>
                    <path d="M13.8858131,78.8273616 L15.366782,78.8273616" id="Stroke-242" stroke="#4D6892" stroke-width="1.11000001" stroke-linecap="round" stroke-linejoin="round" mask="url(#mask-2)"></path>
                    <path d="M13.8858131,75.6742671 L15.366782,75.6742671" id="Stroke-243" stroke="#4D6892" stroke-width="1.11000001" stroke-linecap="round" stroke-linejoin="round" mask="url(#mask-2)"></path>
                    <path d="M13.8858131,72.5211726 L15.366782,72.5211726" id="Stroke-244" stroke="#4D6892" stroke-width="1.11000001" stroke-linecap="round" stroke-linejoin="round" mask="url(#mask-2)"></path>
                    <path d="M6.59811349,97.7459283 L27.0973142,97.7459283" id="Stroke-245" stroke="#4D6892" stroke-width="1.11000001" stroke-linecap="round" stroke-linejoin="round" mask="url(#mask-2)"></path>
                    <path d="M13.8858131,105.628664 C13.8858131,106.499313 13.2227093,107.205212 12.4048443,107.205212 C11.5869792,107.205212 10.9238754,106.499313 10.9238754,105.628664 C10.9238754,104.758016 11.5869792,104.052117 12.4048443,104.052117 C13.2227093,104.052117 13.8858131,104.758016 13.8858131,105.628664 L13.8858131,105.628664 Z" id="Stroke-246" stroke="#4D6892" stroke-width="1.11000001" stroke-linecap="round" stroke-linejoin="round" mask="url(#mask-2)"></path>
                    <path d="M19.8096886,108.781759 C19.8096886,109.652407 19.1465848,110.358306 18.3287197,110.358306 C17.5108547,110.358306 16.8477509,109.652407 16.8477509,108.781759 C16.8477509,107.911111 17.5108547,107.205212 18.3287197,107.205212 C19.1465848,107.205212 19.8096886,107.911111 19.8096886,108.781759 L19.8096886,108.781759 Z" id="Stroke-247" stroke="#4D6892" stroke-width="1.11000001" stroke-linecap="round" stroke-linejoin="round" mask="url(#mask-2)"></path>
                    <path d="M22.7716263,102.47557 C22.7716263,103.346218 22.1085225,104.052117 21.2906574,104.052117 C20.4727924,104.052117 19.8096886,103.346218 19.8096886,102.47557 C19.8096886,101.604922 20.4727924,100.899023 21.2906574,100.899023 C22.1085225,100.899023 22.7716263,101.604922 22.7716263,102.47557 L22.7716263,102.47557 Z" id="Stroke-248" stroke="#4D6892" stroke-width="1.11000001" stroke-linecap="round" stroke-linejoin="round" mask="url(#mask-2)"></path>
                    <path id="Stroke-249" stroke="#4D6892" stroke-width="1.11000001" stroke-linecap="round" stroke-linejoin="round" mask="url(#mask-2)"></path>
                    <path id="Stroke-250" stroke="#4D6892" stroke-width="1.11000001" stroke-linecap="round" stroke-linejoin="round" mask="url(#mask-2)"></path>
                    <path id="Stroke-251" stroke="#4D6892" stroke-width="1.11000001" stroke-linecap="round" stroke-linejoin="round" mask="url(#mask-2)"></path>
                    <path id="Stroke-252" stroke="#4D6892" stroke-width="1.11000001" stroke-linecap="round" stroke-linejoin="round" mask="url(#mask-2)"></path>
                    <path id="Stroke-253" stroke="#4D6892" stroke-width="1.11000001" stroke-linecap="round" stroke-linejoin="round" mask="url(#mask-2)"></path>
                    <path d="M94.6514125,33.8391674 L98.8403329,29.3799036 C96.4282048,26.8124964 93.0960249,25.2245192 89.4150768,25.2245192 L89.4150768,31.5307081 C91.4602948,31.5307081 93.3115059,32.4127863 94.6514125,33.8391674" id="Fill-254" fill="#CFD7E6" mask="url(#mask-2)"></path>
                    <path d="M98.840481,29.3797459 L94.6515606,33.8390098 C95.9914671,35.265785 96.8200692,37.2364691 96.8200692,39.4132866 C96.8200692,41.5901042 95.9914671,43.5607883 94.6515606,44.9875635 L98.840481,49.4468274 C101.252239,46.8786319 102.743945,43.3314007 102.743945,39.4132866 C102.743945,35.4951726 101.252239,31.9479414 98.840481,29.3797459" id="Fill-255" fill="#FBB326" mask="url(#mask-2)"></path>
                    <path d="M89.4152249,47.2960228 C85.3251592,47.2960228 82.0103806,43.767316 82.0103806,39.4132866 C82.0103806,35.0592573 85.3251592,31.5305505 89.4152249,31.5305505 L89.4152249,25.2243616 C82.053699,25.2243616 76.0865052,31.5766645 76.0865052,39.4132866 C76.0865052,47.2499088 82.053699,53.6022117 89.4152249,53.6022117 C93.0958028,53.6022117 96.4279827,52.0142345 98.840481,49.4468274 L94.6515606,44.9875635 C93.3112837,46.4139446 91.4600727,47.2960228 89.4152249,47.2960228" id="Fill-256" fill="#FFC857" mask="url(#mask-2)"></path>
                    <path d="M76.0865052,39.4132866 C76.0865052,47.2499088 82.053699,53.6022117 89.4152249,53.6022117 C96.7767509,53.6022117 102.743945,47.2499088 102.743945,39.4132866 C102.743945,31.5766645 96.7767509,25.2243616 89.4152249,25.2243616 C82.053699,25.2243616 76.0865052,31.5766645 76.0865052,39.4132866 L76.0865052,39.4132866 Z" id="Stroke-257" stroke="#4D6892" stroke-width="1.11000001" stroke-linecap="round" stroke-linejoin="round" mask="url(#mask-2)"></path>
                    <path d="M96.8200692,39.4132866 C96.8200692,43.767316 93.5052907,47.2960228 89.4152249,47.2960228 C85.3251592,47.2960228 82.0103806,43.767316 82.0103806,39.4132866 C82.0103806,35.0592573 85.3251592,31.5305505 89.4152249,31.5305505 C93.5052907,31.5305505 96.8200692,35.0592573 96.8200692,39.4132866 L96.8200692,39.4132866 Z" id="Stroke-258" stroke="#4D6892" stroke-width="1.11000001" stroke-linecap="round" stroke-linejoin="round" mask="url(#mask-2)"></path>
                    <path d="M89.4152249,31.5305505 L89.4152249,25.2243616" id="Stroke-259" stroke="#4D6892" stroke-width="1.11000001" stroke-linecap="round" stroke-linejoin="round" mask="url(#mask-2)"></path>
                    <path d="M95.133764,33.3257648 L98.8247087,29.396615" id="Stroke-260" stroke="#4D6892" stroke-width="1.11000001" stroke-linecap="round" stroke-linejoin="round" mask="url(#mask-2)"></path>
                    <path d="M94.6514125,44.9874059 L98.8395924,49.4462756" id="Stroke-261" stroke="#4D6892" stroke-width="1.11000001" stroke-linecap="round" stroke-linejoin="round" mask="url(#mask-2)"></path>
                    <path d="M144.211073,22.0716612 L144.211073,34.6840391 C144.211073,36.4253355 145.53728,37.8371336 147.17301,37.8371336 C148.80874,37.8371336 150.134948,36.4253355 150.134948,34.6840391 L150.134948,22.0716612" id="Fill-262" fill="#4BA2F2" mask="url(#mask-2)"></path>
                    <path d="M144.211073,22.0716612 L150.134948,22.0716612" id="Stroke-263" stroke="#4D6892" stroke-width="1.11000001" stroke-linecap="round" stroke-linejoin="round" mask="url(#mask-2)"></path>
                    <path d="M144.211073,22.0716612 L144.211073,15.7654723 L150.134948,15.7654723 L150.134948,22.0716612" id="Stroke-264" stroke="#4D6892" stroke-width="1.11000001" stroke-linecap="round" stroke-linejoin="round" mask="url(#mask-2)"></path>
                    <path d="M144.211073,22.0716612 L144.211073,34.6840391 C144.211073,36.4253355 145.53728,37.8371336 147.17301,37.8371336 C148.80874,37.8371336 150.134948,36.4253355 150.134948,34.6840391 L150.134948,22.0716612" id="Stroke-265" stroke="#4D6892" stroke-width="1.11000001" stroke-linecap="round" stroke-linejoin="round" mask="url(#mask-2)"></path>
                    <path d="M142.730104,15.7654723 L151.615917,15.7654723" id="Stroke-266" stroke="#4D6892" stroke-width="1.11000001" stroke-linecap="round" stroke-linejoin="round" mask="url(#mask-2)"></path>
                    <path d="M144.211073,18.9185668 L145.692042,18.9185668" id="Stroke-267" stroke="#4D6892" stroke-width="1.11000001" stroke-linecap="round" stroke-linejoin="round" mask="url(#mask-2)"></path>
                    <path d="M144.211073,25.2247557 L145.692042,25.2247557" id="Stroke-268" stroke="#4D6892" stroke-width="1.11000001" stroke-linecap="round" stroke-linejoin="round" mask="url(#mask-2)"></path>
                    <path d="M144.211073,28.3778502 L145.692042,28.3778502" id="Stroke-269" stroke="#4D6892" stroke-width="1.11000001" stroke-linecap="round" stroke-linejoin="round" mask="url(#mask-2)"></path>
                    <path d="M144.211073,31.5309446 L145.692042,31.5309446" id="Stroke-270" stroke="#4D6892" stroke-width="1.11000001" stroke-linecap="round" stroke-linejoin="round" mask="url(#mask-2)"></path>
                    <path d="M156.058824,22.0716612 L156.058824,34.6840391 C156.058824,36.4253355 157.385031,37.8371336 159.020761,37.8371336 C160.656491,37.8371336 161.982699,36.4253355 161.982699,34.6840391 L161.982699,22.0716612" id="Fill-271" fill="#4BA2F2" mask="url(#mask-2)"></path>
                    <path d="M156.058824,22.0716612 L161.982699,22.0716612" id="Stroke-272" stroke="#4D6892" stroke-width="1.11000001" stroke-linecap="round" stroke-linejoin="round" mask="url(#mask-2)"></path>
                    <path d="M156.058824,22.0716612 L156.058824,34.6840391 C156.058824,36.4253355 157.385031,37.8371336 159.020761,37.8371336 C160.656491,37.8371336 161.982699,36.4253355 161.982699,34.6840391 L161.982699,22.0716612" id="Stroke-273" stroke="#4D6892" stroke-width="1.11000001" stroke-linecap="round" stroke-linejoin="round" mask="url(#mask-2)"></path>
                    <path d="M156.058824,22.0716612 L156.058824,15.7654723 L161.982699,15.7654723 L161.982699,22.0716612" id="Stroke-274" stroke="#4D6892" stroke-width="1.11000001" stroke-linecap="round" stroke-linejoin="round" mask="url(#mask-2)"></path>
                    <path d="M154.577855,15.7654723 L163.463668,15.7654723" id="Stroke-275" stroke="#4D6892" stroke-width="1.11000001" stroke-linecap="round" stroke-linejoin="round" mask="url(#mask-2)"></path>
                    <path d="M156.058824,18.9185668 L157.539792,18.9185668" id="Stroke-276" stroke="#4D6892" stroke-width="1.11000001" stroke-linecap="round" stroke-linejoin="round" mask="url(#mask-2)"></path>
                    <path d="M156.058824,25.2247557 L157.539792,25.2247557" id="Stroke-277" stroke="#4D6892" stroke-width="1.11000001" stroke-linecap="round" stroke-linejoin="round" mask="url(#mask-2)"></path>
                    <path d="M156.058824,28.3778502 L157.539792,28.3778502" id="Stroke-278" stroke="#4D6892" stroke-width="1.11000001" stroke-linecap="round" stroke-linejoin="round" mask="url(#mask-2)"></path>
                    <path d="M156.058824,31.5309446 L157.539792,31.5309446" id="Stroke-279" stroke="#4D6892" stroke-width="1.11000001" stroke-linecap="round" stroke-linejoin="round" mask="url(#mask-2)"></path>
                    <path d="M167.906574,40.990228 L167.906574,22.0716612 L138.287197,22.0716612 L138.287197,40.990228" id="Stroke-280" stroke="#4D6892" stroke-width="1.11000001" stroke-linecap="round" stroke-linejoin="round" mask="url(#mask-2)"></path>
                    <path d="M197.525952,116.664495 L206.411765,116.664495 L206.411765,91.8338762 L197.525952,91.8338762 L197.525952,116.664495 Z" id="Fill-281" fill="#FBB326" mask="url(#mask-2)"></path>
                    <path d="M200.487889,91.4397394 L203.449827,91.4397394 L203.449827,69.3680782 L200.487889,69.3680782 L200.487889,91.4397394 Z" id="Fill-282" fill="#B5B5B5" mask="url(#mask-2)"></path>
                    <path d="M203.449827,63.0614951 L200.487889,63.0614951 L199.747405,69.3680782 L204.190311,69.3680782 L203.449827,63.0614951 Z" id="Fill-283" fill="#B5B5B5" mask="url(#mask-2)"></path>
                    <path d="M197.525952,116.664495 L206.411765,116.664495 L206.411765,91.8338762 L197.525952,91.8338762 L197.525952,116.664495 Z" id="Stroke-284" stroke="#4D6892" stroke-width="1.11000001" stroke-linecap="round" stroke-linejoin="round" mask="url(#mask-2)"></path>
                    <path d="M200.487889,91.4397394 L203.449827,91.4397394 L203.449827,69.3680782 L200.487889,69.3680782 L200.487889,91.4397394 Z" id="Stroke-285" stroke="#4D6892" stroke-width="1.11000001" stroke-linecap="round" stroke-linejoin="round" mask="url(#mask-2)"></path>
                    <path d="M203.449827,63.0614951 L200.487889,63.0614951 L199.747405,69.3680782 L204.190311,69.3680782 L203.449827,63.0614951 L203.449827,63.0614951 Z" id="Stroke-286" stroke="#4D6892" stroke-width="1.11000001" stroke-linecap="round" stroke-linejoin="round" mask="url(#mask-2)"></path>
                    <path d="M197.525952,97.7459283 L206.411765,97.7459283" id="Stroke-287" stroke="#4D6892" stroke-width="1.11000001" stroke-linecap="round" stroke-linejoin="round" mask="url(#mask-2)"></path>
                    <path d="M200.487889,97.7459283 L200.487889,116.003922" id="Stroke-288" stroke="#4D6892" stroke-width="1.11000001" stroke-linecap="round" stroke-linejoin="round" mask="url(#mask-2)"></path>
                    <path d="M203.449827,97.7459283 L203.449827,116.664495" id="Stroke-289" stroke="#4D6892" stroke-width="1.11000001" stroke-linecap="round" stroke-linejoin="round" mask="url(#mask-2)"></path>
                    <path d="M105.705882,116.664495 L173.83045,116.664495 L173.83045,63.0618893 L105.705882,63.0618893 L105.705882,116.664495 Z" id="Fill-290" fill="#EEF1F6" mask="url(#mask-2)"></path>
                    <path d="M176.792388,113.511401 C176.792388,115.245603 175.459516,116.664495 173.83045,116.664495 C172.201384,116.664495 170.868512,115.245603 170.868512,113.511401 L170.868512,59.9087948 C170.868512,58.1745928 172.201384,56.7557003 173.83045,56.7557003 C175.459516,56.7557003 176.792388,58.1745928 176.792388,59.9087948 L176.792388,113.511401 Z" id="Fill-291" fill="#EEF1F6" mask="url(#mask-2)"></path>
                    <path d="M170.868512,110.358306 L173.83045,110.358306 L173.83045,56.7557003 L170.868512,56.7557003 L170.868512,110.358306 Z" id="Fill-292" fill="#CFD7E6" mask="url(#mask-2)"></path>
                    <path d="M173.83045,113.511401 L108.66782,113.511401" id="Stroke-293" stroke="#4D6892" stroke-width="1.11000001" stroke-linecap="round" stroke-linejoin="round" mask="url(#mask-2)"></path>
                    <path d="M176.792388,110.358306 C176.792388,112.101179 175.467661,113.511401 173.83045,113.511401" id="Stroke-294" stroke="#4D6892" stroke-width="1.11000001" stroke-linecap="round" stroke-linejoin="round" mask="url(#mask-2)"></path>
                    <path d="M108.66782,66.2149837 L170.868512,66.2149837" id="Stroke-295" stroke="#4D6892" stroke-width="1.11000001" stroke-linecap="round" stroke-linejoin="round" mask="url(#mask-2)"></path>
                    <path d="M108.66782,66.2149837 L108.66782,113.511401" id="Stroke-296" stroke="#4D6892" stroke-width="1.11000001" stroke-linecap="round" stroke-linejoin="round" mask="url(#mask-2)"></path>
                    <path d="M111.629758,72.5211726 L114.591696,72.5211726 L114.591696,69.3680782 L111.629758,69.3680782 L111.629758,72.5211726 Z" id="Stroke-297" stroke="#4D6892" stroke-width="1.11000001" stroke-linecap="round" stroke-linejoin="round" mask="url(#mask-2)"></path>
                    <path d="M117.553633,69.3680782 L123.477509,69.3680782" id="Stroke-298" stroke="#4D6892" stroke-width="1.11000001" stroke-linecap="round" stroke-linejoin="round" mask="url(#mask-2)"></path>
                    <path d="M117.553633,72.5211726 L120.515571,72.5211726" id="Stroke-299" stroke="#4D6892" stroke-width="1.11000001" stroke-linecap="round" stroke-linejoin="round" mask="url(#mask-2)"></path>
                    <path d="M156.058824,90.9890046 L156.058824,88.737301 L151.631467,87.7271283 C151.535945,87.1997733 151.401917,86.6893661 151.239381,86.1896007 L154.603401,82.9561023 L153.545619,81.0047309 L149.230817,82.4890502 C148.903893,82.0886072 148.551422,81.7145713 148.175256,81.3665485 L149.570699,76.7732782 L147.73726,75.6468352 L144.699792,79.2267798 C144.230325,79.0553303 143.751232,78.9122586 143.255478,78.8109655 L142.306547,74.0978775 L140.191723,74.0978775 L139.242792,78.8109655 C138.747038,78.9122586 138.267945,79.0553303 137.798478,79.2267798 L134.76101,75.6468352 L132.927571,76.772884 L134.323014,81.3665485 C133.946848,81.7145713 133.594377,82.0886072 133.267453,82.4890502 L128.952651,81.0047309 L127.894498,82.9561023 L131.257408,86.1907831 C131.096353,86.6893661 130.962325,87.1997733 130.866803,87.7271283 L126.439446,88.7369068 L126.439446,90.9890046 L130.866803,91.9991772 C130.962325,92.5265322 131.096353,93.0365453 131.257408,93.5351283 L127.894498,96.7702033 L128.952651,98.7215746 L133.267453,97.2364671 C133.594377,97.636516 133.945367,98.0117342 134.321533,98.359757 L132.927201,102.953816 L134.76101,104.07947 L137.798478,100.498343 C138.266464,100.670975 138.747038,100.814047 139.242792,100.915734 L140.191723,105.628822 L142.306547,105.628822 L143.255478,100.915734 C143.751232,100.814047 144.231806,100.670975 144.699792,100.498343 L147.73726,104.07947 L149.570699,102.953421 L148.175256,98.359757 C148.552903,98.0117342 148.905374,97.636516 149.231187,97.2364671 L153.545619,98.719998 L154.603401,96.7702033 L151.239381,93.5367049 C151.401917,93.0381218 151.535945,92.5265322 151.631467,91.9991772 L156.058824,90.9890046 L156.058824,90.9890046 Z" id="Stroke-300" stroke="#4D6892" stroke-width="1.11000001" stroke-linecap="round" stroke-linejoin="round" fill="#4BA2F2" mask="url(#mask-2)"></path>
                    <path d="M145.480855,89.8631922 C145.480855,92.3513779 143.586696,94.3681759 141.248987,94.3681759 C138.911648,94.3681759 137.017489,92.3513779 137.017489,89.8631922 C137.017489,87.3746124 138.911648,85.3578143 141.248987,85.3578143 C143.586696,85.3578143 145.480855,87.3746124 145.480855,89.8631922 L145.480855,89.8631922 Z" id="Stroke-301" stroke="#4D6892" stroke-width="1.11000001" stroke-linecap="round" stroke-linejoin="round" fill="#FFC857" mask="url(#mask-2)"></path>
                    <path d="M123.477509,89.8631922 L111.629758,89.8631922" id="Stroke-302" stroke="#4D6892" stroke-width="1.11000001" stroke-linecap="round" stroke-linejoin="round" mask="url(#mask-2)"></path>
                    <path d="M111.629758,93.0162866 L117.553633,93.0162866" id="Stroke-303" stroke="#4D6892" stroke-width="1.11000001" stroke-linecap="round" stroke-linejoin="round" mask="url(#mask-2)"></path>
                    <path d="M111.629758,100.899023 L120.515571,100.899023" id="Stroke-304" stroke="#4D6892" stroke-width="1.11000001" stroke-linecap="round" stroke-linejoin="round" mask="url(#mask-2)"></path>
                    <path d="M120.515571,100.899023 L123.477509,97.7459283" id="Stroke-305" stroke="#4D6892" stroke-width="1.11000001" stroke-linecap="round" stroke-linejoin="round" mask="url(#mask-2)"></path>
                    <path d="M123.477509,81.980456 L120.515571,78.8273616" id="Stroke-306" stroke="#4D6892" stroke-width="1.11000001" stroke-linecap="round" stroke-linejoin="round" mask="url(#mask-2)"></path>
                    <path d="M120.515571,78.8273616 L111.629758,78.8273616" id="Stroke-307" stroke="#4D6892" stroke-width="1.11000001" stroke-linecap="round" stroke-linejoin="round" mask="url(#mask-2)"></path>
                    <path d="M111.629758,81.980456 L114.591696,81.980456" id="Stroke-308" stroke="#4D6892" stroke-width="1.11000001" stroke-linecap="round" stroke-linejoin="round" mask="url(#mask-2)"></path>
                    <path d="M159.020761,89.8631922 L170.868512,89.8631922" id="Stroke-309" stroke="#4D6892" stroke-width="1.11000001" stroke-linecap="round" stroke-linejoin="round" mask="url(#mask-2)"></path>
                    <path d="M170.868512,93.0162866 L167.906574,93.0162866" id="Stroke-310" stroke="#4D6892" stroke-width="1.11000001" stroke-linecap="round" stroke-linejoin="round" mask="url(#mask-2)"></path>
                    <path d="M170.868512,100.899023 L161.982699,100.899023" id="Stroke-311" stroke="#4D6892" stroke-width="1.11000001" stroke-linecap="round" stroke-linejoin="round" mask="url(#mask-2)"></path>
                    <path d="M161.982699,100.899023 L159.020761,97.7459283" id="Stroke-312" stroke="#4D6892" stroke-width="1.11000001" stroke-linecap="round" stroke-linejoin="round" mask="url(#mask-2)"></path>
                    <path d="M159.020761,81.980456 L161.982699,78.8273616" id="Stroke-313" stroke="#4D6892" stroke-width="1.11000001" stroke-linecap="round" stroke-linejoin="round" mask="url(#mask-2)"></path>
                    <path d="M161.982699,78.8273616 L170.868512,78.8273616" id="Stroke-314" stroke="#4D6892" stroke-width="1.11000001" stroke-linecap="round" stroke-linejoin="round" mask="url(#mask-2)"></path>
                    <path d="M167.906574,104.052117 L170.868512,104.052117" id="Stroke-315" stroke="#4D6892" stroke-width="1.11000001" stroke-linecap="round" stroke-linejoin="round" mask="url(#mask-2)"></path>
                    <path d="M164.944637,81.980456 L170.868512,81.980456" id="Stroke-316" stroke="#4D6892" stroke-width="1.11000001" stroke-linecap="round" stroke-linejoin="round" mask="url(#mask-2)"></path>
                    <path d="M111.629758,104.052117 L114.591696,104.052117" id="Stroke-317" stroke="#4D6892" stroke-width="1.11000001" stroke-linecap="round" stroke-linejoin="round" mask="url(#mask-2)"></path>
                    <path d="M176.792388,113.511401 C176.792388,115.254274 175.467661,116.664495 173.83045,116.664495" id="Stroke-318" stroke="#4D6892" stroke-width="1.11000001" stroke-linecap="round" stroke-linejoin="round" mask="url(#mask-2)"></path>
                    <path d="M176.792388,113.511401 C176.792388,111.768528 175.467661,110.358306 173.83045,110.358306" id="Stroke-319" stroke="#4D6892" stroke-width="1.11000001" stroke-linecap="round" stroke-linejoin="round" mask="url(#mask-2)"></path>
                    <path d="M176.792388,113.511401 L176.792388,59.9087948" id="Stroke-320" stroke="#4D6892" stroke-width="1.11000001" stroke-linecap="round" stroke-linejoin="round" mask="url(#mask-2)"></path>
                    <path d="M176.792388,59.9087948 C176.792388,58.1659218 175.467661,56.7557003 173.83045,56.7557003" id="Stroke-321" stroke="#4D6892" stroke-width="1.11000001" stroke-linecap="round" stroke-linejoin="round" mask="url(#mask-2)"></path>
                    <path d="M105.705882,116.664495 L173.83045,116.664495" id="Stroke-322" stroke="#4D6892" stroke-width="1.11000001" stroke-linecap="round" stroke-linejoin="round" mask="url(#mask-2)"></path>
                    <path d="M105.705882,63.0618893 L170.868512,63.0618893" id="Stroke-323" stroke="#4D6892" stroke-width="1.11000001" stroke-linecap="round" stroke-linejoin="round" mask="url(#mask-2)"></path>
                    <path d="M105.705882,63.0618893 L105.705882,116.664495" id="Stroke-324" stroke="#4D6892" stroke-width="1.11000001" stroke-linecap="round" stroke-linejoin="round" mask="url(#mask-2)"></path>
                    <path d="M170.868512,110.358306 L173.83045,110.358306" id="Stroke-325" stroke="#4D6892" stroke-width="1.11000001" stroke-linecap="round" stroke-linejoin="round" mask="url(#mask-2)"></path>
                    <path d="M170.868512,56.7557003 L173.83045,56.7557003" id="Stroke-326" stroke="#4D6892" stroke-width="1.11000001" stroke-linecap="round" stroke-linejoin="round" mask="url(#mask-2)"></path>
                    <path d="M170.868512,56.7557003 L170.868512,110.358306" id="Stroke-327" stroke="#4D6892" stroke-width="1.11000001" stroke-linecap="round" stroke-linejoin="round" mask="url(#mask-2)"></path>
                </g>
                <g id="Group-2" transform="translate(189.000000, 15.000000)">
                    <g id="Group-4">
                        <rect id="Rectangle-36" stroke="#CFD7E6" stroke-width="0.683999991" fill="#FFFFFF" filter="url(#filter-3)" x="0" y="0" width="58" height="58" rx="6.15599992"></rect>
                        <g id="Page-1-Copy" transform="translate(12.083333, 12.083333)">
                            <path d="M5.11033704,3.90528191 C4.76674074,3.73380142 0.408255556,7.33638298 0.408255556,9.986875 C0.402240741,13.6095869 5.49227778,21.8167926 6.34938889,24.9914184 C7.08695556,27.7142305 5.09830741,30.9820523 5.6449037,31.1304202 C6.14413333,31.4510142 10.8928296,26.6421046 11.0777852,24.5917943 C11.3161222,21.3269548 5.53287778,11.806805 5.07199259,9.34866933 C4.53742593,6.47972606 5.49528519,3.96940071 5.11033704,3.90528191 L5.11033704,3.90528191 Z" id="Fill-1" fill="#1A5099"></path>
                            <path d="M15.9888815,0.157314716 C15.5513037,-0.0611365248 9.99135926,4.52857624 9.99135926,7.91270656 C9.98534444,12.532242 16.4760815,22.9992624 17.5685222,27.0439654 C18.508337,30.5160727 15.9738444,34.6837943 16.6670519,34.8701862 C17.3076296,35.277266 23.360037,29.1501933 23.5983741,26.5317606 C23.9036259,22.3700035 16.5257037,10.2314211 15.9385074,7.09183688 C15.2573296,3.44228457 16.4760815,0.23858156 15.9888815,0.157314716 L15.9888815,0.157314716 Z" id="Fill-2" fill="#4BA2F2"></path>
                            <path d="M27.2162852,3.90528191 C26.8756963,3.73380142 22.5142037,7.33638298 22.5142037,9.986875 C22.5089407,13.6095869 27.5982259,21.8167926 28.4560889,24.9914184 C29.1929037,27.7142305 27.2050074,30.9820523 27.7508519,31.1304202 C28.2530889,31.4510142 33.002537,26.6421046 33.1844852,24.5917943 C33.4220704,21.3269548 27.6395778,11.806805 27.1779407,9.34866933 C26.6441259,6.47972606 27.6012333,3.96940071 27.2162852,3.90528191 L27.2162852,3.90528191 Z" id="Fill-3" fill="#1A5099"></path>
                        </g>
                    </g>
                </g>
            </g>
        </g>
    </g>
</svg>