<?xml version="1.0" encoding="UTF-8" standalone="no"?>
<svg width="525px" height="180px" viewBox="0 0 525 180" version="1.1" xmlns="http://www.w3.org/2000/svg" xmlns:xlink="http://www.w3.org/1999/xlink">
    <!-- Generator: Sketch 3.6.1 (26313) - http://www.bohemiancoding.com/sketch -->
    <title>img-wp-3</title>
    <desc>Created with Sketch.</desc>
    <defs>
        <path id="path-1" d="M0,179 L524.715078,179 L524.715078,0 L0,0 L0,179 Z"></path>
        <path id="path-3" d="M3.51108696,3.51496474 L3.51108696,0.149580128 L0.14158913,0.149580128 L0.14158913,3.51496474 L3.51108696,3.51496474 L3.51108696,3.51496474 Z"></path>
        <path id="path-5" d="M3.51108696,3.40745192 L3.51108696,0.0420673077 L0.14158913,0.0420673077 L0.14158913,3.40745192 L3.51108696,3.40745192 L3.51108696,3.40745192 Z"></path>
        <filter x="-50%" y="-50%" width="200%" height="200%" filterUnits="objectBoundingBox" id="filter-7">
            <feOffset dx="0" dy="1" in="SourceAlpha" result="shadowOffsetOuter1"></feOffset>
            <feGaussianBlur stdDeviation="0.5" in="shadowOffsetOuter1" result="shadowBlurOuter1"></feGaussianBlur>
            <feColorMatrix values="0 0 0 0 0.301960784   0 0 0 0 0.407843137   0 0 0 0 0.57254902  0 0 0 0.14333673 0" in="shadowBlurOuter1" type="matrix" result="shadowMatrixOuter1"></feColorMatrix>
            <feMerge>
                <feMergeNode in="shadowMatrixOuter1"></feMergeNode>
                <feMergeNode in="SourceGraphic"></feMergeNode>
            </feMerge>
        </filter>
    </defs>
    <g id="Icons" stroke="none" stroke-width="1" fill="none" fill-rule="evenodd">
        <g id="Artboard-9" transform="translate(-238.000000, -171.000000)">
            <g id="img-wp-3" transform="translate(238.000000, 171.000000)">
                <g id="Group">
                    <g id="Page-1">
                        <path d="M495.165414,106.501565 L506.027343,110.146656 L494.455147,101.437582 L495.165414,106.501565 Z" id="Fill-1" fill="#CFD7E6"></path>
                        <path d="M486.587666,99.1358955 L477.993339,106.700906 L491.338486,101.055173 L486.587666,99.1358955 Z" id="Fill-2" fill="#CFD7E6"></path>
                        <path d="M497.268404,95.4058247 L495.001708,84.1979838 L493.228758,98.5532414 L497.268404,95.4058247 Z" id="Fill-3" fill="#CFD7E6"></path>
                        <path d="M493.006708,178.09596 L493.006708,102.156114" id="Stroke-4" stroke="#4D6892" stroke-width="2" stroke-linecap="round" stroke-linejoin="round"></path>
                        <path d="M495.165414,106.501565 L506.027343,110.146656 L494.455147,101.437582 L495.165414,106.501565 L495.165414,106.501565 Z" id="Stroke-6" stroke="#4D6892" stroke-width="2" stroke-linecap="round" stroke-linejoin="round"></path>
                        <path d="M486.587666,99.1358955 L477.993339,106.700906 L491.338486,101.055173 L486.587666,99.1358955 L486.587666,99.1358955 Z" id="Stroke-7" stroke="#4D6892" stroke-width="2" stroke-linecap="round" stroke-linejoin="round"></path>
                        <path d="M497.268404,95.4058247 L495.001708,84.1979838 L493.228758,98.5532414 L497.268404,95.4058247 L497.268404,95.4058247 Z" id="Stroke-8" stroke="#4D6892" stroke-width="2" stroke-linecap="round" stroke-linejoin="round"></path>
                        <g id="Group-302">
                            <path d="M493.714077,102.01219 C494.634525,101.622097 495.065759,100.561658 494.67484,99.6436045 C494.284374,98.7228394 493.220785,98.2943242 492.300336,98.6848697 C491.378529,99.0731551 490.948201,100.134498 491.338667,101.055264 C491.729586,101.973317 492.793175,102.402284 493.714077,102.01219 L493.714077,102.01219 Z" id="Stroke-9" stroke="#4D6892" stroke-width="2" stroke-linecap="round" stroke-linejoin="round"></path>
                            <mask id="mask-2" fill="white">
                                <use xlink:href="#path-1"></use>
                            </mask>
                            <g id="Clip-12"></g>
                            <path d="M317.251747,160.015152 L346.242256,160.015152 L346.242256,152.782828 L317.251747,152.782828 L317.251747,160.015152 Z" id="Fill-11" fill="#FFFFFF" mask="url(#mask-2)"></path>
                            <path d="M99.8229292,58.7626263 L99.8229292,15.3686869 L121.565811,37.0656566 L121.565811,69.6111111 L121.565811,178.09596 L88.9514884,178.09596 L88.9514884,69.6111111 L99.8229292,58.7626263 Z" id="Fill-13" fill="#FFC857" mask="url(#mask-2)"></path>
                            <path d="M85.3276747,58.7626263 L85.3276747,15.3686869 L99.8229292,15.3686869 L99.8229292,58.7626263 L88.9514884,69.6111111 L88.9514884,178.09596 L74.4562338,178.09596 L74.4562338,69.6111111 L85.3276747,58.7626263 Z" id="Fill-14" fill="#D1D1D1" mask="url(#mask-2)"></path>
                            <path d="M85.3276747,58.7626263 L85.3276747,15.3686869 L99.8229292,15.3686869 L121.565811,37.0656566 L121.565811,69.6111111 L121.565811,178.09596 L74.4562338,178.09596 L74.4562338,69.6111111 L85.3276747,58.7626263 L85.3276747,58.7626263 Z" id="Stroke-15" stroke="#4D6892" stroke-width="2" stroke-linecap="round" stroke-linejoin="round" mask="url(#mask-2)"></path>
                            <path d="M88.9514884,167.247475 L121.565811,167.247475" id="Stroke-16" stroke="#4D6892" stroke-width="2" stroke-linecap="round" stroke-linejoin="round" mask="url(#mask-2)"></path>
                            <path d="M88.9514884,163.631313 L121.565811,163.631313" id="Stroke-17" stroke="#4D6892" stroke-width="2" stroke-linecap="round" stroke-linejoin="round" mask="url(#mask-2)"></path>
                            <path d="M88.9514884,160.015152 L121.565811,160.015152" id="Stroke-18" stroke="#4D6892" stroke-width="2" stroke-linecap="round" stroke-linejoin="round" mask="url(#mask-2)"></path>
                            <path d="M88.9514884,156.39899 L121.565811,156.39899" id="Stroke-19" stroke="#4D6892" stroke-width="2" stroke-linecap="round" stroke-linejoin="round" mask="url(#mask-2)"></path>
                            <path d="M88.9514884,152.782828 L121.565811,152.782828" id="Stroke-20" stroke="#4D6892" stroke-width="2" stroke-linecap="round" stroke-linejoin="round" mask="url(#mask-2)"></path>
                            <path d="M88.9514884,149.166667 L121.565811,149.166667" id="Stroke-21" stroke="#4D6892" stroke-width="2" stroke-linecap="round" stroke-linejoin="round" mask="url(#mask-2)"></path>
                            <path d="M88.9514884,145.550505 L121.565811,145.550505" id="Stroke-22" stroke="#4D6892" stroke-width="2" stroke-linecap="round" stroke-linejoin="round" mask="url(#mask-2)"></path>
                            <path d="M88.9514884,141.934343 L121.565811,141.934343" id="Stroke-23" stroke="#4D6892" stroke-width="2" stroke-linecap="round" stroke-linejoin="round" mask="url(#mask-2)"></path>
                            <path d="M88.9514884,138.318182 L121.565811,138.318182" id="Stroke-24" stroke="#4D6892" stroke-width="2" stroke-linecap="round" stroke-linejoin="round" mask="url(#mask-2)"></path>
                            <path d="M88.9514884,134.70202 L121.565811,134.70202" id="Stroke-25" stroke="#4D6892" stroke-width="2" stroke-linecap="round" stroke-linejoin="round" mask="url(#mask-2)"></path>
                            <path d="M88.9514884,131.085859 L121.565811,131.085859" id="Stroke-26" stroke="#4D6892" stroke-width="2" stroke-linecap="round" stroke-linejoin="round" mask="url(#mask-2)"></path>
                            <path d="M88.9514884,127.469697 L121.565811,127.469697" id="Stroke-27" stroke="#4D6892" stroke-width="2" stroke-linecap="round" stroke-linejoin="round" mask="url(#mask-2)"></path>
                            <path d="M88.9514884,123.853535 L121.565811,123.853535" id="Stroke-28" stroke="#4D6892" stroke-width="2" stroke-linecap="round" stroke-linejoin="round" mask="url(#mask-2)"></path>
                            <path d="M88.9514884,120.237374 L121.565811,120.237374" id="Stroke-29" stroke="#4D6892" stroke-width="2" stroke-linecap="round" stroke-linejoin="round" mask="url(#mask-2)"></path>
                            <path d="M88.9514884,116.621212 L121.565811,116.621212" id="Stroke-30" stroke="#4D6892" stroke-width="2" stroke-linecap="round" stroke-linejoin="round" mask="url(#mask-2)"></path>
                            <path d="M88.9514884,113.005051 L121.565811,113.005051" id="Stroke-31" stroke="#4D6892" stroke-width="2" stroke-linecap="round" stroke-linejoin="round" mask="url(#mask-2)"></path>
                            <path d="M88.9514884,109.388889 L121.565811,109.388889" id="Stroke-32" stroke="#4D6892" stroke-width="2" stroke-linecap="round" stroke-linejoin="round" mask="url(#mask-2)"></path>
                            <path d="M88.9514884,105.772727 L121.565811,105.772727" id="Stroke-33" stroke="#4D6892" stroke-width="2" stroke-linecap="round" stroke-linejoin="round" mask="url(#mask-2)"></path>
                            <path d="M88.9514884,102.156566 L121.565811,102.156566" id="Stroke-34" stroke="#4D6892" stroke-width="2" stroke-linecap="round" stroke-linejoin="round" mask="url(#mask-2)"></path>
                            <path d="M88.9514884,98.540404 L121.565811,98.540404" id="Stroke-35" stroke="#4D6892" stroke-width="2" stroke-linecap="round" stroke-linejoin="round" mask="url(#mask-2)"></path>
                            <path d="M88.9514884,94.9242424 L121.565811,94.9242424" id="Stroke-36" stroke="#4D6892" stroke-width="2" stroke-linecap="round" stroke-linejoin="round" mask="url(#mask-2)"></path>
                            <path d="M88.9514884,91.3080808 L121.565811,91.3080808" id="Stroke-37" stroke="#4D6892" stroke-width="2" stroke-linecap="round" stroke-linejoin="round" mask="url(#mask-2)"></path>
                            <path d="M88.9514884,87.6919192 L121.565811,87.6919192" id="Stroke-38" stroke="#4D6892" stroke-width="2" stroke-linecap="round" stroke-linejoin="round" mask="url(#mask-2)"></path>
                            <path d="M88.9514884,84.0757576 L121.565811,84.0757576" id="Stroke-39" stroke="#4D6892" stroke-width="2" stroke-linecap="round" stroke-linejoin="round" mask="url(#mask-2)"></path>
                            <path d="M88.9514884,80.459596 L121.565811,80.459596" id="Stroke-40" stroke="#4D6892" stroke-width="2" stroke-linecap="round" stroke-linejoin="round" mask="url(#mask-2)"></path>
                            <path d="M88.9514884,76.8434343 L121.565811,76.8434343" id="Stroke-41" stroke="#4D6892" stroke-width="2" stroke-linecap="round" stroke-linejoin="round" mask="url(#mask-2)"></path>
                            <path d="M88.9514884,73.2272727 L121.565811,73.2272727" id="Stroke-42" stroke="#4D6892" stroke-width="2" stroke-linecap="round" stroke-linejoin="round" mask="url(#mask-2)"></path>
                            <path d="M88.9514884,69.6111111 L121.565811,69.6111111" id="Stroke-43" stroke="#4D6892" stroke-width="2" stroke-linecap="round" stroke-linejoin="round" mask="url(#mask-2)"></path>
                            <path d="M121.565811,37.0656566 L99.8229292,37.0656566" id="Stroke-44" stroke="#4D6892" stroke-width="2" stroke-linecap="round" stroke-linejoin="round" mask="url(#mask-2)"></path>
                            <path d="M121.565811,40.6818182 L99.8229292,40.6818182" id="Stroke-45" stroke="#4D6892" stroke-width="2" stroke-linecap="round" stroke-linejoin="round" mask="url(#mask-2)"></path>
                            <path d="M121.565811,44.2979798 L99.8229292,44.2979798" id="Stroke-46" stroke="#4D6892" stroke-width="2" stroke-linecap="round" stroke-linejoin="round" mask="url(#mask-2)"></path>
                            <path d="M121.565811,47.9141414 L99.8229292,47.9141414" id="Stroke-47" stroke="#4D6892" stroke-width="2" stroke-linecap="round" stroke-linejoin="round" mask="url(#mask-2)"></path>
                            <path d="M121.565811,51.530303 L99.8229292,51.530303" id="Stroke-48" stroke="#4D6892" stroke-width="2" stroke-linecap="round" stroke-linejoin="round" mask="url(#mask-2)"></path>
                            <path d="M121.565811,55.1464646 L99.8229292,55.1464646" id="Stroke-49" stroke="#4D6892" stroke-width="2" stroke-linecap="round" stroke-linejoin="round" mask="url(#mask-2)"></path>
                            <path d="M121.565811,58.7626263 L99.8229292,58.7626263" id="Stroke-50" stroke="#4D6892" stroke-width="2" stroke-linecap="round" stroke-linejoin="round" mask="url(#mask-2)"></path>
                            <path d="M88.9514884,178.09596 L88.9514884,69.6111111 L99.8229292,58.7626263 L99.8229292,15.3686869" id="Stroke-51" stroke="#4D6892" stroke-width="2" stroke-linecap="round" stroke-linejoin="round" mask="url(#mask-2)"></path>
                            <path d="M121.565811,65.9949495 L92.575302,65.9949495" id="Stroke-52" stroke="#4D6892" stroke-width="2" stroke-linecap="round" stroke-linejoin="round" mask="url(#mask-2)"></path>
                            <path d="M121.565811,62.3787879 L96.4555004,62.3787879" id="Stroke-53" stroke="#4D6892" stroke-width="2" stroke-linecap="round" stroke-linejoin="round" mask="url(#mask-2)"></path>
                            <path d="M99.8229292,58.7626263 L85.3276747,58.7626263" id="Stroke-54" stroke="#4D6892" stroke-width="2" stroke-linecap="round" stroke-linejoin="round" mask="url(#mask-2)"></path>
                            <path d="M88.9514884,69.6111111 L74.4562338,69.6111111" id="Stroke-55" stroke="#4D6892" stroke-width="2" stroke-linecap="round" stroke-linejoin="round" mask="url(#mask-2)"></path>
                            <path d="M121.565811,37.0656566 L99.8229292,15.3686869" id="Stroke-56" stroke="#4D6892" stroke-width="2" stroke-linecap="round" stroke-linejoin="round" mask="url(#mask-2)"></path>
                            <path d="M85.3276747,15.3686869 L99.8229292,15.3686869" id="Stroke-57" stroke="#4D6892" stroke-width="2" stroke-linecap="round" stroke-linejoin="round" mask="url(#mask-2)"></path>
                            <path d="M34.5942839,178.09596 L78.0800475,178.09596 L78.0800475,80.459596 L34.5942839,80.459596 L34.5942839,178.09596 Z" id="Fill-58" fill="#D1D1D1" mask="url(#mask-2)"></path>
                            <path d="M38.2180975,178.09596 L59.9609793,178.09596 L59.9609793,84.0757576 L38.2180975,84.0757576 L38.2180975,178.09596 Z" id="Fill-59" fill="#4BA2F2" mask="url(#mask-2)"></path>
                            <path d="M34.5942839,178.09596 L63.5847929,178.09596 L63.5847929,80.459596 L34.5942839,80.459596 L34.5942839,178.09596 Z" id="Stroke-60" stroke="#4D6892" stroke-width="2" stroke-linecap="round" stroke-linejoin="round" mask="url(#mask-2)"></path>
                            <path d="M38.2180975,178.09596 L59.9609793,178.09596 L59.9609793,84.0757576 L38.2180975,84.0757576 L38.2180975,178.09596 Z" id="Stroke-61" stroke="#4D6892" stroke-width="2" stroke-linecap="round" stroke-linejoin="round" mask="url(#mask-2)"></path>
                            <path d="M45.4657248,84.0757576 L45.4657248,178.09596" id="Stroke-62" stroke="#4D6892" stroke-width="2" stroke-linecap="round" stroke-linejoin="round" mask="url(#mask-2)"></path>
                            <path d="M52.713352,84.0757576 L52.713352,178.09596" id="Stroke-63" stroke="#4D6892" stroke-width="2" stroke-linecap="round" stroke-linejoin="round" mask="url(#mask-2)"></path>
                            <path d="M63.5847929,80.459596 L78.0800475,80.459596" id="Stroke-64" stroke="#4D6892" stroke-width="2" stroke-linecap="round" stroke-linejoin="round" mask="url(#mask-2)"></path>
                            <path d="M38.2180975,98.540404 L45.4657248,98.540404" id="Stroke-65" stroke="#4D6892" stroke-width="2" stroke-linecap="round" stroke-linejoin="round" mask="url(#mask-2)"></path>
                            <path d="M45.4657248,91.3080808 L52.713352,91.3080808" id="Stroke-66" stroke="#4D6892" stroke-width="2" stroke-linecap="round" stroke-linejoin="round" mask="url(#mask-2)"></path>
                            <path d="M59.9609793,98.540404 L52.713352,98.540404" id="Stroke-67" stroke="#4D6892" stroke-width="2" stroke-linecap="round" stroke-linejoin="round" mask="url(#mask-2)"></path>
                            <path d="M38.2180975,113.005051 L45.4657248,113.005051" id="Stroke-68" stroke="#4D6892" stroke-width="2" stroke-linecap="round" stroke-linejoin="round" mask="url(#mask-2)"></path>
                            <path d="M45.4657248,105.772727 L52.713352,105.772727" id="Stroke-69" stroke="#4D6892" stroke-width="2" stroke-linecap="round" stroke-linejoin="round" mask="url(#mask-2)"></path>
                            <path d="M59.9609793,113.005051 L52.713352,113.005051" id="Stroke-70" stroke="#4D6892" stroke-width="2" stroke-linecap="round" stroke-linejoin="round" mask="url(#mask-2)"></path>
                            <path d="M38.2180975,127.469697 L45.4657248,127.469697" id="Stroke-71" stroke="#4D6892" stroke-width="2" stroke-linecap="round" stroke-linejoin="round" mask="url(#mask-2)"></path>
                            <path d="M45.4657248,120.237374 L52.713352,120.237374" id="Stroke-72" stroke="#4D6892" stroke-width="2" stroke-linecap="round" stroke-linejoin="round" mask="url(#mask-2)"></path>
                            <path d="M59.9609793,127.469697 L52.713352,127.469697" id="Stroke-73" stroke="#4D6892" stroke-width="2" stroke-linecap="round" stroke-linejoin="round" mask="url(#mask-2)"></path>
                            <path d="M38.2180975,141.934343 L45.4657248,141.934343" id="Stroke-74" stroke="#4D6892" stroke-width="2" stroke-linecap="round" stroke-linejoin="round" mask="url(#mask-2)"></path>
                            <path d="M45.4657248,134.70202 L52.713352,134.70202" id="Stroke-75" stroke="#4D6892" stroke-width="2" stroke-linecap="round" stroke-linejoin="round" mask="url(#mask-2)"></path>
                            <path d="M59.9609793,141.934343 L52.713352,141.934343" id="Stroke-76" stroke="#4D6892" stroke-width="2" stroke-linecap="round" stroke-linejoin="round" mask="url(#mask-2)"></path>
                            <path d="M38.2180975,156.39899 L45.4657248,156.39899" id="Stroke-77" stroke="#4D6892" stroke-width="2" stroke-linecap="round" stroke-linejoin="round" mask="url(#mask-2)"></path>
                            <path d="M45.4657248,149.166667 L52.713352,149.166667" id="Stroke-78" stroke="#4D6892" stroke-width="2" stroke-linecap="round" stroke-linejoin="round" mask="url(#mask-2)"></path>
                            <path d="M59.9609793,156.39899 L52.713352,156.39899" id="Stroke-79" stroke="#4D6892" stroke-width="2" stroke-linecap="round" stroke-linejoin="round" mask="url(#mask-2)"></path>
                            <path d="M38.2180975,170.863636 L45.4657248,170.863636" id="Stroke-80" stroke="#4D6892" stroke-width="2" stroke-linecap="round" stroke-linejoin="round" mask="url(#mask-2)"></path>
                            <path d="M45.4657248,163.631313 L52.713352,163.631313" id="Stroke-81" stroke="#4D6892" stroke-width="2" stroke-linecap="round" stroke-linejoin="round" mask="url(#mask-2)"></path>
                            <path d="M59.9609793,170.863636 L52.713352,170.863636" id="Stroke-82" stroke="#4D6892" stroke-width="2" stroke-linecap="round" stroke-linejoin="round" mask="url(#mask-2)"></path>
                            <path d="M78.0800475,80.459596 L78.0800475,178.09596" id="Stroke-83" stroke="#4D6892" stroke-width="2" stroke-linecap="round" stroke-linejoin="round" mask="url(#mask-2)"></path>
                            <path d="M70.8324202,160.015152 C70.8324202,166.006679 75.7001079,170.863636 81.7038611,170.863636 C87.7076143,170.863636 92.575302,166.006679 92.575302,160.015152 C92.575302,154.023624 87.7076143,149.166667 81.7038611,149.166667 C75.7001079,149.166667 70.8324202,154.023624 70.8324202,160.015152" id="Fill-84" fill="#FBB326" mask="url(#mask-2)"></path>
                            <path d="M81.7038611,178.09596 L81.7038611,163.631313" id="Stroke-85" stroke="#4D6892" stroke-width="2" stroke-linecap="round" stroke-linejoin="round" mask="url(#mask-2)"></path>
                            <path d="M70.8324202,160.015152 C70.8324202,166.006679 75.7001079,170.863636 81.7038611,170.863636 C87.7076143,170.863636 92.575302,166.006679 92.575302,160.015152 C92.575302,154.023624 87.7076143,149.166667 81.7038611,149.166667 C75.7001079,149.166667 70.8324202,154.023624 70.8324202,160.015152 L70.8324202,160.015152 Z" id="Stroke-86" stroke="#4D6892" stroke-width="2" stroke-linecap="round" stroke-linejoin="round" mask="url(#mask-2)"></path>
                            <path d="M16.4752157,178.09596 L16.4752157,113.004598" id="Stroke-87" stroke="#4D6892" stroke-width="2" stroke-linecap="round" stroke-linejoin="round" mask="url(#mask-2)"></path>
                            <path d="M12.3630026,106.130727 L0.905862813,106.354477 L14.7447541,110.65771 L12.3630026,106.130727 Z" id="Fill-88" fill="#CFD7E6" mask="url(#mask-2)"></path>
                            <path d="M22.9275065,110.177303 L28.4624288,100.163247 L17.8075108,109.970729 L22.9275065,110.177303 Z" id="Fill-89" fill="#CFD7E6" mask="url(#mask-2)"></path>
                            <path d="M14.1333261,117.281614 L20.0573555,127.070563 L16.8733822,112.960753 L14.1333261,117.281614 Z" id="Fill-90" fill="#CFD7E6" mask="url(#mask-2)"></path>
                            <path d="M12.3630026,106.130727 L0.905862813,106.354477 L14.7447541,110.65771 L12.3630026,106.130727 L12.3630026,106.130727 Z" id="Stroke-91" stroke="#4D6892" stroke-width="2" stroke-linecap="round" stroke-linejoin="round" mask="url(#mask-2)"></path>
                            <path d="M22.9275065,110.177303 L28.4624288,100.163247 L17.8075108,109.970729 L22.9275065,110.177303 L22.9275065,110.177303 Z" id="Stroke-92" stroke="#4D6892" stroke-width="2" stroke-linecap="round" stroke-linejoin="round" mask="url(#mask-2)"></path>
                            <path d="M14.1333261,117.281614 L20.0573555,127.070563 L16.8733822,112.960753 L14.1333261,117.281614 L14.1333261,117.281614 Z" id="Stroke-93" stroke="#4D6892" stroke-width="2" stroke-linecap="round" stroke-linejoin="round" mask="url(#mask-2)"></path>
                            <path d="M15.2481018,109.866493 C14.5111087,110.544976 14.4644521,111.687683 15.1439172,112.422216 C15.8215703,113.156296 16.9689603,113.201951 17.7041415,112.524824 C18.4393227,111.848602 18.4859793,110.704087 17.8074202,109.97091 C17.1288611,109.235473 15.982377,109.188915 15.2481018,109.866493 L15.2481018,109.866493 Z" id="Stroke-94" stroke="#4D6892" stroke-width="2" stroke-linecap="round" stroke-linejoin="round" mask="url(#mask-2)"></path>
                            <path d="M220.367821,102.100063 L216.043253,112.689992 L225.476946,101.707258 L220.367821,102.100063 Z" id="Fill-95" fill="#CFD7E6" mask="url(#mask-2)"></path>
                            <path d="M228.268369,94.0175803 L221.239983,84.9853126 L226.054672,98.6286384 L228.268369,94.0175803 Z" id="Fill-96" fill="#CFD7E6" mask="url(#mask-2)"></path>
                            <path d="M231.333028,104.886316 L242.685984,103.328202 L228.437148,100.667159 L231.333028,104.886316 Z" id="Fill-97" fill="#CFD7E6" mask="url(#mask-2)"></path>
                            <path d="M226.656406,178.09596 L226.656406,102.142553" id="Stroke-98" stroke="#4D6892" stroke-width="2" stroke-linecap="round" stroke-linejoin="round" mask="url(#mask-2)"></path>
                            <path d="M220.367821,102.100063 L216.043253,112.689992 L225.476946,101.707258 L220.367821,102.100063 L220.367821,102.100063 Z" id="Stroke-99" stroke="#4D6892" stroke-width="2" stroke-linecap="round" stroke-linejoin="round" mask="url(#mask-2)"></path>
                            <path d="M228.268369,94.0175803 L221.239983,84.9853126 L226.054672,98.6286384 L228.268369,94.0175803 L228.268369,94.0175803 Z" id="Stroke-100" stroke="#4D6892" stroke-width="2" stroke-linecap="round" stroke-linejoin="round" mask="url(#mask-2)"></path>
                            <path d="M231.333028,104.886316 L242.685984,103.328202 L228.437148,100.667159 L231.333028,104.886316 L231.333028,104.886316 Z" id="Stroke-101" stroke="#4D6892" stroke-width="2" stroke-linecap="round" stroke-linejoin="round" mask="url(#mask-2)"></path>
                            <path d="M224.8445,100.334382 C224.8445,101.332894 225.655781,102.142463 226.656406,102.142463 C227.657032,102.142463 228.468313,101.332894 228.468313,100.334382 C228.468313,99.3358692 227.657032,98.526301 226.656406,98.526301 C225.655781,98.526301 224.8445,99.3358692 224.8445,100.334382 L224.8445,100.334382 Z" id="Stroke-102" stroke="#4D6892" stroke-width="2" stroke-linecap="round" stroke-linejoin="round" mask="url(#mask-2)"></path>
                            <path d="M241.879776,87.2725348 L234.276562,95.8283732 L246.829905,88.59605 L241.879776,87.2725348 Z" id="Fill-103" fill="#CFD7E6" mask="url(#mask-2)"></path>
                            <path d="M252.023102,82.2676768 L248.399288,71.4187399 L248.399288,85.8833864 L252.023102,82.2676768 Z" id="Fill-104" fill="#CFD7E6" mask="url(#mask-2)"></path>
                            <path d="M251.294987,93.535546 L262.521109,95.8281924 L249.968671,88.5958692 L251.294987,93.535546 Z" id="Fill-105" fill="#CFD7E6" mask="url(#mask-2)"></path>
                            <path d="M248.399288,178.09596 L248.399288,89.499548" id="Stroke-106" stroke="#4D6892" stroke-width="2" stroke-linecap="round" stroke-linejoin="round" mask="url(#mask-2)"></path>
                            <path d="M241.879776,87.2725348 L234.276562,95.8283732 L246.829905,88.59605 L241.879776,87.2725348 L241.879776,87.2725348 Z" id="Stroke-107" stroke="#4D6892" stroke-width="2" stroke-linecap="round" stroke-linejoin="round" mask="url(#mask-2)"></path>
                            <path d="M252.023102,82.2676768 L248.399288,71.4187399 L248.399288,85.8833864 L252.023102,82.2676768 L252.023102,82.2676768 Z" id="Stroke-108" stroke="#4D6892" stroke-width="2" stroke-linecap="round" stroke-linejoin="round" mask="url(#mask-2)"></path>
                            <path d="M251.294987,93.535546 L262.521109,95.8281924 L249.968671,88.5958692 L251.294987,93.535546 L251.294987,93.535546 Z" id="Stroke-109" stroke="#4D6892" stroke-width="2" stroke-linecap="round" stroke-linejoin="round" mask="url(#mask-2)"></path>
                            <path d="M246.587381,87.6914672 C246.587381,88.6899798 247.398663,89.499548 248.399288,89.499548 C249.399914,89.499548 250.211195,88.6899798 250.211195,87.6914672 C250.211195,86.6929545 249.399914,85.8833864 248.399288,85.8833864 C247.398663,85.8833864 246.587381,86.6929545 246.587381,87.6914672 L246.587381,87.6914672 Z" id="Stroke-110" stroke="#4D6892" stroke-width="2" stroke-linecap="round" stroke-linejoin="round" mask="url(#mask-2)"></path>
                            <path d="M237.527847,163.631313 C237.527847,167.625364 240.772972,170.863636 244.775475,170.863636 C248.777977,170.863636 252.023102,167.625364 252.023102,163.631313 C252.023102,159.637263 248.777977,156.39899 244.775475,156.39899 C240.772972,156.39899 237.527847,159.637263 237.527847,163.631313" id="Fill-111" fill="#FFC857" mask="url(#mask-2)"></path>
                            <path d="M244.775475,178.09596 L244.775475,167.247475" id="Stroke-112" stroke="#4D6892" stroke-width="2" stroke-linecap="round" stroke-linejoin="round" mask="url(#mask-2)"></path>
                            <path d="M237.527847,163.631313 C237.527847,167.625364 240.772972,170.863636 244.775475,170.863636 C248.777977,170.863636 252.023102,167.625364 252.023102,163.631313 C252.023102,159.637263 248.777977,156.39899 244.775475,156.39899 C240.772972,156.39899 237.527847,159.637263 237.527847,163.631313 L237.527847,163.631313 Z" id="Stroke-113" stroke="#4D6892" stroke-width="2" stroke-linecap="round" stroke-linejoin="round" mask="url(#mask-2)"></path>
                            <path d="M150.55632,178.09596 L168.675388,178.09596 L168.675388,91.3080808 L150.55632,91.3080808 L150.55632,178.09596 Z" id="Fill-114" fill="#D1D1D1" mask="url(#mask-2)"></path>
                            <path d="M168.675388,178.09596 L197.665897,178.09596 L197.665897,91.3080808 L168.675388,91.3080808 L168.675388,178.09596 Z" id="Fill-115" fill="#4BA2F2" mask="url(#mask-2)"></path>
                            <path d="M150.55632,178.09596 L197.665897,178.09596 L197.665897,91.3080808 L150.55632,91.3080808 L150.55632,178.09596 Z" id="Stroke-116" stroke="#4D6892" stroke-width="2" stroke-linecap="round" stroke-linejoin="round" mask="url(#mask-2)"></path>
                            <path d="M168.675388,91.3080808 L168.675388,178.09596" id="Stroke-117" stroke="#4D6892" stroke-width="2" stroke-linecap="round" stroke-linejoin="round" mask="url(#mask-2)"></path>
                            <path d="M175.923016,91.3080808 L175.923016,178.09596" id="Stroke-118" stroke="#4D6892" stroke-width="2" stroke-linecap="round" stroke-linejoin="round" mask="url(#mask-2)"></path>
                            <path d="M190.41827,91.3080808 L190.41827,178.09596" id="Stroke-119" stroke="#4D6892" stroke-width="2" stroke-linecap="round" stroke-linejoin="round" mask="url(#mask-2)"></path>
                            <path d="M183.170643,91.3080808 L183.170643,178.09596" id="Stroke-120" stroke="#4D6892" stroke-width="2" stroke-linecap="round" stroke-linejoin="round" mask="url(#mask-2)"></path>
                            <path d="M197.665897,167.247475 L168.675388,167.247475" id="Stroke-121" stroke="#4D6892" stroke-width="2" stroke-linecap="round" stroke-linejoin="round" mask="url(#mask-2)"></path>
                            <path d="M197.665897,156.39899 L168.675388,156.39899" id="Stroke-122" stroke="#4D6892" stroke-width="2" stroke-linecap="round" stroke-linejoin="round" mask="url(#mask-2)"></path>
                            <path d="M197.665897,145.550505 L168.675388,145.550505" id="Stroke-123" stroke="#4D6892" stroke-width="2" stroke-linecap="round" stroke-linejoin="round" mask="url(#mask-2)"></path>
                            <path d="M197.665897,134.70202 L168.675388,134.70202" id="Stroke-124" stroke="#4D6892" stroke-width="2" stroke-linecap="round" stroke-linejoin="round" mask="url(#mask-2)"></path>
                            <path d="M197.665897,123.853535 L168.675388,123.853535" id="Stroke-125" stroke="#4D6892" stroke-width="2" stroke-linecap="round" stroke-linejoin="round" mask="url(#mask-2)"></path>
                            <path d="M197.665897,113.005051 L168.675388,113.005051" id="Stroke-126" stroke="#4D6892" stroke-width="2" stroke-linecap="round" stroke-linejoin="round" mask="url(#mask-2)"></path>
                            <path d="M197.665897,102.156566 L168.675388,102.156566" id="Stroke-127" stroke="#4D6892" stroke-width="2" stroke-linecap="round" stroke-linejoin="round" mask="url(#mask-2)"></path>
                            <path d="M440.461411,141.934343 L444.085224,123.853535 L440.461411,105.772727 L444.085224,87.6919192 L440.461411,69.6111111 L469.45192,69.6111111 L473.075733,87.6919192 L469.45192,105.772727 L473.075733,123.853535 L469.45192,141.934343 L473.075733,160.015152 L469.45192,178.09596 L440.461411,178.09596 L444.085224,160.015152 L440.461411,141.934343 Z" id="Fill-128" fill="#EEF1F6" mask="url(#mask-2)"></path>
                            <path d="M440.461411,69.6111111 L444.085224,87.6919192 L440.461411,105.772727 L444.085224,123.853535 L440.461411,141.934343 L444.085224,160.015152 L440.461411,178.09596 L422.342343,178.09596 L422.342343,69.6111111 L440.461411,69.6111111 Z" id="Fill-129" fill="#D1D1D1" mask="url(#mask-2)"></path>
                            <path d="M422.342343,178.09596 L422.342343,69.6111111 L469.45192,69.6111111 L473.075733,87.6919192 L469.45192,105.772727 L473.075733,123.853535 L469.45192,141.934343 L473.075733,160.015152 L469.45192,178.09596" id="Stroke-130" stroke="#4D6892" stroke-width="2" stroke-linecap="round" stroke-linejoin="round" mask="url(#mask-2)"></path>
                            <path d="M462.204292,178.09596 L465.828106,160.015152 L462.204292,141.934343" id="Stroke-131" stroke="#4D6892" stroke-width="2" stroke-linecap="round" stroke-linejoin="round" mask="url(#mask-2)"></path>
                            <path d="M462.204292,141.934343 L465.828106,123.853535 L462.204292,105.772727" id="Stroke-132" stroke="#4D6892" stroke-width="2" stroke-linecap="round" stroke-linejoin="round" mask="url(#mask-2)"></path>
                            <path d="M462.204292,105.772727 L465.828106,87.6919192 L462.204292,69.6111111" id="Stroke-133" stroke="#4D6892" stroke-width="2" stroke-linecap="round" stroke-linejoin="round" mask="url(#mask-2)"></path>
                            <path d="M454.956665,178.09596 L458.580479,160.015152 L454.956665,141.934343" id="Stroke-134" stroke="#4D6892" stroke-width="2" stroke-linecap="round" stroke-linejoin="round" mask="url(#mask-2)"></path>
                            <path d="M454.956665,141.934343 L458.580479,123.853535 L454.956665,105.772727" id="Stroke-135" stroke="#4D6892" stroke-width="2" stroke-linecap="round" stroke-linejoin="round" mask="url(#mask-2)"></path>
                            <path d="M454.956665,105.772727 L458.580479,87.6919192 L454.956665,69.6111111" id="Stroke-136" stroke="#4D6892" stroke-width="2" stroke-linecap="round" stroke-linejoin="round" mask="url(#mask-2)"></path>
                            <path d="M447.709038,178.09596 L451.332852,160.015152 L447.709038,141.934343" id="Stroke-137" stroke="#4D6892" stroke-width="2" stroke-linecap="round" stroke-linejoin="round" mask="url(#mask-2)"></path>
                            <path d="M447.709038,141.934343 L451.332852,123.853535 L447.709038,105.772727" id="Stroke-138" stroke="#4D6892" stroke-width="2" stroke-linecap="round" stroke-linejoin="round" mask="url(#mask-2)"></path>
                            <path d="M447.709038,105.772727 L451.332852,87.6919192 L447.709038,69.6111111" id="Stroke-139" stroke="#4D6892" stroke-width="2" stroke-linecap="round" stroke-linejoin="round" mask="url(#mask-2)"></path>
                            <path d="M440.461411,178.09596 L444.085224,160.015152 L440.461411,141.934343" id="Stroke-140" stroke="#4D6892" stroke-width="2" stroke-linecap="round" stroke-linejoin="round" mask="url(#mask-2)"></path>
                            <path d="M440.461411,141.934343 L444.085224,123.853535 L440.461411,105.772727" id="Stroke-141" stroke="#4D6892" stroke-width="2" stroke-linecap="round" stroke-linejoin="round" mask="url(#mask-2)"></path>
                            <path d="M440.461411,105.772727 L444.085224,87.6919192 L440.461411,69.6111111" id="Stroke-142" stroke="#4D6892" stroke-width="2" stroke-linecap="round" stroke-linejoin="round" mask="url(#mask-2)"></path>
                            <path d="M422.342343,178.09596 L469.45192,178.09596" id="Stroke-143" stroke="#4D6892" stroke-width="2" stroke-linecap="round" stroke-linejoin="round" mask="url(#mask-2)"></path>
                            <path d="M473.075733,87.6919192 L444.085224,87.6919192" id="Stroke-144" stroke="#4D6892" stroke-width="2" stroke-linecap="round" stroke-linejoin="round" mask="url(#mask-2)"></path>
                            <path d="M469.45192,105.772727 L440.461411,105.772727" id="Stroke-145" stroke="#4D6892" stroke-width="2" stroke-linecap="round" stroke-linejoin="round" mask="url(#mask-2)"></path>
                            <path d="M473.075733,123.853535 L444.085224,123.853535" id="Stroke-146" stroke="#4D6892" stroke-width="2" stroke-linecap="round" stroke-linejoin="round" mask="url(#mask-2)"></path>
                            <path d="M440.461411,141.934343 L469.45192,141.934343" id="Stroke-147" stroke="#4D6892" stroke-width="2" stroke-linecap="round" stroke-linejoin="round" mask="url(#mask-2)"></path>
                            <path d="M473.075733,160.015152 L444.085224,160.015152" id="Stroke-148" stroke="#4D6892" stroke-width="2" stroke-linecap="round" stroke-linejoin="round" mask="url(#mask-2)"></path>
                            <path d="M440.461411,178.09596 L469.45192,178.09596" id="Stroke-149" stroke="#4D6892" stroke-width="2" stroke-linecap="round" stroke-linejoin="round" mask="url(#mask-2)"></path>
                            <path d="M467.640013,169.055556 C467.640013,172.051093 470.073857,174.479798 473.075733,174.479798 C476.07761,174.479798 478.511454,172.051093 478.511454,169.055556 C478.511454,166.060018 476.07761,163.631313 473.075733,163.631313 C470.073857,163.631313 467.640013,166.060018 467.640013,169.055556" id="Fill-150" fill="#FBB326" mask="url(#mask-2)"></path>
                            <path d="M473.075733,178.09596 L473.075733,170.863636" id="Stroke-151" stroke="#4D6892" stroke-width="2" stroke-linecap="round" stroke-linejoin="round" mask="url(#mask-2)"></path>
                            <path d="M467.640013,169.055556 C467.640013,172.051093 470.073857,174.479798 473.075733,174.479798 C476.07761,174.479798 478.511454,172.051093 478.511454,169.055556 C478.511454,166.060018 476.07761,163.631313 473.075733,163.631313 C470.073857,163.631313 467.640013,166.060018 467.640013,169.055556 L467.640013,169.055556 Z" id="Stroke-152" stroke="#4D6892" stroke-width="2" stroke-linecap="round" stroke-linejoin="round" mask="url(#mask-2)"></path>
                            <path d="M367.985138,178.09596 L411.470902,178.09596 L411.470902,87.6919192 L367.985138,87.6919192 L367.985138,178.09596 Z" id="Fill-153" fill="#D1D1D1" mask="url(#mask-2)"></path>
                            <path d="M371.608952,178.09596 L393.351833,178.09596 L393.351833,87.6919192 L371.608952,87.6919192 L371.608952,178.09596 Z" id="Fill-154" fill="#CFD7E6" mask="url(#mask-2)"></path>
                            <path d="M367.985138,178.09596 L411.470902,178.09596 L411.470902,87.6919192 L367.985138,87.6919192 L367.985138,178.09596 Z" id="Stroke-155" stroke="#4D6892" stroke-width="2" stroke-linecap="round" stroke-linejoin="round" mask="url(#mask-2)"></path>
                            <path d="M396.975647,87.6919192 L396.975647,178.09596" id="Stroke-156" stroke="#4D6892" stroke-width="2" stroke-linecap="round" stroke-linejoin="round" mask="url(#mask-2)"></path>
                            <path d="M393.351833,87.6919192 L393.351833,178.09596" id="Stroke-157" stroke="#4D6892" stroke-width="2" stroke-linecap="round" stroke-linejoin="round" mask="url(#mask-2)"></path>
                            <path d="M386.104206,87.6919192 L386.104206,178.09596" id="Stroke-158" stroke="#4D6892" stroke-width="2" stroke-linecap="round" stroke-linejoin="round" mask="url(#mask-2)"></path>
                            <path d="M378.856579,87.6919192 L378.856579,178.09596" id="Stroke-159" stroke="#4D6892" stroke-width="2" stroke-linecap="round" stroke-linejoin="round" mask="url(#mask-2)"></path>
                            <path d="M371.608952,87.6919192 L371.608952,178.09596" id="Stroke-160" stroke="#4D6892" stroke-width="2" stroke-linecap="round" stroke-linejoin="round" mask="url(#mask-2)"></path>
                            <path d="M237.527847,134.70202 L255.646915,134.70202 C257.649978,134.70202 259.270729,133.084692 259.270729,131.085859 C259.270729,127.088192 249.545772,120.237374 237.527847,120.237374" id="Fill-161" fill="#FFFFFF" mask="url(#mask-2)"></path>
                            <path d="M252.335384,123.853535 L241.151842,123.853535 L244.775656,127.469697 L257.337606,127.469697 C256.140388,126.226641 254.432213,124.966861 252.335384,123.853535" id="Fill-162" fill="#51B8BA" mask="url(#mask-2)"></path>
                            <path d="M139.684879,134.70202 L172.299202,134.70202 L172.299202,120.237374 L139.684879,120.237374 L139.684879,134.70202 Z" id="Fill-163" fill="#FFFFFF" mask="url(#mask-2)"></path>
                            <path d="M139.684879,134.70202 L172.299202,134.70202 L172.299202,120.237374 L139.684879,120.237374 L139.684879,134.70202 Z" id="Stroke-164" stroke="#4D6892" stroke-width="2" stroke-linecap="round" stroke-linejoin="round" mask="url(#mask-2)"></path>
                            <path d="M165.051575,123.853535 L143.308693,123.853535 L146.932506,127.469697 L168.675388,127.469697 L165.051575,123.853535 Z" id="Fill-165" fill="#51B8BA" mask="url(#mask-2)"></path>
                            <path d="M204.913525,134.70202 L237.527847,134.70202 L237.527847,120.237374 L204.913525,120.237374 L204.913525,134.70202 Z" id="Fill-166" fill="#FFFFFF" mask="url(#mask-2)"></path>
                            <path d="M204.913525,134.70202 L237.527847,134.70202 L237.527847,120.237374 L204.913525,120.237374 L204.913525,134.70202 Z" id="Stroke-167" stroke="#4D6892" stroke-width="2" stroke-linecap="round" stroke-linejoin="round" mask="url(#mask-2)"></path>
                            <path d="M230.28022,123.853535 L208.537338,123.853535 L212.161152,127.469697 L233.904034,127.469697 L230.28022,123.853535 Z" id="Fill-168" fill="#51B8BA" mask="url(#mask-2)"></path>
                            <path d="M172.299202,134.70202 L204.913525,134.70202 L204.913525,120.237374 L172.299202,120.237374 L172.299202,134.70202 Z" id="Fill-169" fill="#FFFFFF" mask="url(#mask-2)"></path>
                            <path d="M172.299202,134.70202 L204.913525,134.70202 L204.913525,120.237374 L172.299202,120.237374 L172.299202,134.70202 Z" id="Stroke-170" stroke="#4D6892" stroke-width="2" stroke-linecap="round" stroke-linejoin="round" mask="url(#mask-2)"></path>
                            <g id="Group-173" mask="url(#mask-2)">
                                <g transform="translate(172.131148, 123.853535)">
                                    <path d="M0.168054357,0 L32.782377,0" id="Fill-171" stroke="none" fill="#FFFFFF" fill-rule="evenodd"></path>
                                    <path d="M0.168054357,0 L32.782377,0" id="Stroke-172" stroke="#4D6892" stroke-width="2" stroke-linecap="round" stroke-linejoin="round" fill="none"></path>
                                </g>
                            </g>
                            <path d="M237.527847,134.70202 L255.646915,134.70202 C257.649978,134.70202 259.270729,133.084692 259.270729,131.085859 C259.270729,127.088192 249.545772,120.237374 237.527847,120.237374" id="Stroke-174" stroke="#4D6892" stroke-width="2" stroke-linecap="round" stroke-linejoin="round" mask="url(#mask-2)"></path>
                            <path d="M204.913525,123.853535 L252.023102,123.853535" id="Stroke-175" stroke="#4D6892" stroke-width="2" stroke-linecap="round" stroke-linejoin="round" mask="url(#mask-2)"></path>
                            <path d="M244.775475,127.469697 L257.337425,127.469697" id="Stroke-176" stroke="#4D6892" stroke-width="2" stroke-linecap="round" stroke-linejoin="round" mask="url(#mask-2)"></path>
                            <path d="M244.775475,127.469697 L241.151661,123.853535" id="Stroke-177" stroke="#4D6892" stroke-width="2" stroke-linecap="round" stroke-linejoin="round" mask="url(#mask-2)"></path>
                            <path d="M233.904034,127.469697 L212.161152,127.469697" id="Stroke-178" stroke="#4D6892" stroke-width="2" stroke-linecap="round" stroke-linejoin="round" mask="url(#mask-2)"></path>
                            <path d="M212.161152,127.469697 L208.537338,123.853535" id="Stroke-179" stroke="#4D6892" stroke-width="2" stroke-linecap="round" stroke-linejoin="round" mask="url(#mask-2)"></path>
                            <path d="M233.904034,127.469697 L230.28022,123.853535" id="Stroke-180" stroke="#4D6892" stroke-width="2" stroke-linecap="round" stroke-linejoin="round" mask="url(#mask-2)"></path>
                            <path d="M197.922463,123.853535 L176.179582,123.853535 L179.803395,127.469697 L201.546277,127.469697 L197.922463,123.853535 Z" id="Fill-181" fill="#51B8BA" mask="url(#mask-2)"></path>
                            <path d="M197.922463,123.853535 L176.179582,123.853535 L179.803395,127.469697 L201.546277,127.469697 L197.922463,123.853535 L197.922463,123.853535 Z" id="Stroke-182" stroke="#4D6892" stroke-width="2" stroke-linecap="round" stroke-linejoin="round" mask="url(#mask-2)"></path>
                            <path d="M168.931954,127.469697 L147.189072,127.469697" id="Stroke-183" stroke="#4D6892" stroke-width="2" stroke-linecap="round" stroke-linejoin="round" mask="url(#mask-2)"></path>
                            <path d="M147.189072,127.469697 L143.565259,123.853535" id="Stroke-184" stroke="#4D6892" stroke-width="2" stroke-linecap="round" stroke-linejoin="round" mask="url(#mask-2)"></path>
                            <path d="M168.931954,127.469697 L165.308141,123.853535" id="Stroke-185" stroke="#4D6892" stroke-width="2" stroke-linecap="round" stroke-linejoin="round" mask="url(#mask-2)"></path>
                            <path d="M107.070557,134.70202 L139.684879,134.70202 L139.684879,120.237374 L107.070557,120.237374 L107.070557,134.70202 Z" id="Fill-186" fill="#FFFFFF" mask="url(#mask-2)"></path>
                            <path d="M107.070557,134.70202 L139.684879,134.70202 L139.684879,120.237374 L107.070557,120.237374 L107.070557,134.70202 Z" id="Stroke-187" stroke="#4D6892" stroke-width="2" stroke-linecap="round" stroke-linejoin="round" mask="url(#mask-2)"></path>
                            <path d="M132.437252,123.853535 L110.69437,123.853535 L114.318184,127.469697 L136.061066,127.469697 L132.437252,123.853535 Z" id="Fill-188" fill="#51B8BA" mask="url(#mask-2)"></path>
                            <g id="Group-191" mask="url(#mask-2)">
                                <g transform="translate(106.902502, 123.853535)">
                                    <path d="M0.168054357,0 L32.782377,0" id="Fill-189" stroke="none" fill="#FFFFFF" fill-rule="evenodd"></path>
                                    <path d="M0.168054357,0 L32.782377,0" id="Stroke-190" stroke="#4D6892" stroke-width="2" stroke-linecap="round" stroke-linejoin="round" fill="none"></path>
                                </g>
                            </g>
                            <path d="M136.317632,127.469697 L114.57475,127.469697" id="Stroke-192" stroke="#4D6892" stroke-width="2" stroke-linecap="round" stroke-linejoin="round" mask="url(#mask-2)"></path>
                            <path d="M114.57475,127.469697 L110.950936,123.853535" id="Stroke-193" stroke="#4D6892" stroke-width="2" stroke-linecap="round" stroke-linejoin="round" mask="url(#mask-2)"></path>
                            <path d="M136.317632,127.469697 L132.693818,123.853535" id="Stroke-194" stroke="#4D6892" stroke-width="2" stroke-linecap="round" stroke-linejoin="round" mask="url(#mask-2)"></path>
                            <path d="M74.4562338,134.70202 L107.070557,134.70202 L107.070557,120.237374 L74.4562338,120.237374 L74.4562338,134.70202 Z" id="Fill-195" fill="#FFFFFF" mask="url(#mask-2)"></path>
                            <path d="M74.4562338,134.70202 L107.070557,134.70202 L107.070557,120.237374 L74.4562338,120.237374 L74.4562338,134.70202 Z" id="Stroke-196" stroke="#4D6892" stroke-width="2" stroke-linecap="round" stroke-linejoin="round" mask="url(#mask-2)"></path>
                            <path d="M99.8229292,123.853535 L78.0800475,123.853535 L81.7038611,127.469697 L103.446743,127.469697 L99.8229292,123.853535 Z" id="Fill-197" fill="#51B8BA" mask="url(#mask-2)"></path>
                            <g id="Group-200" mask="url(#mask-2)">
                                <g transform="translate(74.288179, 123.853535)">
                                    <path d="M0.168054357,0 L32.782377,0" id="Fill-198" stroke="none" fill="#FFFFFF" fill-rule="evenodd"></path>
                                    <path d="M0.168054357,0 L32.782377,0" id="Stroke-199" stroke="#4D6892" stroke-width="2" stroke-linecap="round" stroke-linejoin="round" fill="none"></path>
                                </g>
                            </g>
                            <path d="M103.703309,127.469697 L81.9604271,127.469697" id="Stroke-201" stroke="#4D6892" stroke-width="2" stroke-linecap="round" stroke-linejoin="round" mask="url(#mask-2)"></path>
                            <path d="M81.9604271,127.469697 L78.3366135,123.853535" id="Stroke-202" stroke="#4D6892" stroke-width="2" stroke-linecap="round" stroke-linejoin="round" mask="url(#mask-2)"></path>
                            <path d="M103.703309,127.469697 L100.079495,123.853535" id="Stroke-203" stroke="#4D6892" stroke-width="2" stroke-linecap="round" stroke-linejoin="round" mask="url(#mask-2)"></path>
                            <g id="Group-206" mask="url(#mask-2)">
                                <g transform="translate(139.516825, 123.853535)">
                                    <path d="M0.168054357,0 L32.782377,0" id="Fill-204" stroke="none" fill="#FFFFFF" fill-rule="evenodd"></path>
                                    <path d="M0.168054357,0 L32.782377,0" id="Stroke-205" stroke="#4D6892" stroke-width="2" stroke-linecap="round" stroke-linejoin="round" fill="none"></path>
                                </g>
                            </g>
                            <path d="M1.97996117,138.318182 L523.809124,138.318182 L523.809124,116.621212 L1.97996117,116.621212 L1.97996117,138.318182 Z" id="Fill-207" fill="#4BA2F2" opacity="0.648029384" mask="url(#mask-2)"></path>
                            <path d="M27.3466566,178.09596 L30.9704702,178.09596 L30.9704702,145.550505 L27.3466566,145.550505 L27.3466566,178.09596 Z" id="Fill-208" fill="#CFD7E6" mask="url(#mask-2)"></path>
                            <path d="M121.565811,178.09596 L125.189625,178.09596 L125.189625,145.550505 L121.565811,145.550505 L121.565811,178.09596 Z" id="Fill-209" fill="#CFD7E6" mask="url(#mask-2)"></path>
                            <path d="M215.784965,178.09596 L219.408779,178.09596 L219.408779,145.550505 L215.784965,145.550505 L215.784965,178.09596 Z" id="Fill-210" fill="#CFD7E6" mask="url(#mask-2)"></path>
                            <path d="M310.00412,178.09596 L313.627934,178.09596 L313.627934,145.550505 L310.00412,145.550505 L310.00412,178.09596 Z" id="Fill-211" fill="#CFD7E6" mask="url(#mask-2)"></path>
                            <path d="M404.223274,178.09596 L407.847088,178.09596 L407.847088,145.550505 L404.223274,145.550505 L404.223274,178.09596 Z" id="Fill-212" fill="#CFD7E6" mask="url(#mask-2)"></path>
                            <path d="M498.442429,178.09596 L502.066242,178.09596 L502.066242,145.550505 L498.442429,145.550505 L498.442429,178.09596 Z" id="Fill-213" fill="#CFD7E6" mask="url(#mask-2)"></path>
                            <path d="M1.97996117,145.550505 L523.809124,145.550505 L523.809124,138.318182 L1.97996117,138.318182 L1.97996117,145.550505 Z" id="Fill-214" fill="#CFD7E6" mask="url(#mask-2)"></path>
                            <path d="M1.97996117,145.550505 L523.809124,145.550505" id="Stroke-215" stroke="#4D6892" stroke-width="2" stroke-linecap="round" stroke-linejoin="round" mask="url(#mask-2)"></path>
                            <path d="M1.97996117,116.621212 L523.809124,116.621212" id="Stroke-216" stroke="#4D6892" stroke-width="2" stroke-linecap="round" stroke-linejoin="round" mask="url(#mask-2)"></path>
                            <path id="Stroke-217" stroke="#4D6892" stroke-width="2" stroke-linecap="round" stroke-linejoin="round" mask="url(#mask-2)" d="M30.9704702,178.09596 L30.9704702,145.550505"></path>
                            <path d="M27.3466566,178.09596 L27.3466566,145.550505" id="Stroke-218" stroke="#4D6892" stroke-width="2" stroke-linecap="round" stroke-linejoin="round" mask="url(#mask-2)"></path>
                            <path d="M125.189625,178.09596 L125.189625,145.550505" id="Stroke-219" stroke="#4D6892" stroke-width="2" stroke-linecap="round" stroke-linejoin="round" mask="url(#mask-2)"></path>
                            <path d="M121.565811,178.09596 L121.565811,145.550505" id="Stroke-220" stroke="#4D6892" stroke-width="2" stroke-linecap="round" stroke-linejoin="round" mask="url(#mask-2)"></path>
                            <path d="M219.408779,178.09596 L219.408779,145.550505" id="Stroke-221" stroke="#4D6892" stroke-width="2" stroke-linecap="round" stroke-linejoin="round" mask="url(#mask-2)"></path>
                            <path d="M215.784965,178.09596 L215.784965,145.550505" id="Stroke-222" stroke="#4D6892" stroke-width="2" stroke-linecap="round" stroke-linejoin="round" mask="url(#mask-2)"></path>
                            <path d="M313.627934,178.09596 L313.627934,145.550505" id="Stroke-223" stroke="#4D6892" stroke-width="2" stroke-linecap="round" stroke-linejoin="round" mask="url(#mask-2)"></path>
                            <path d="M310.00412,178.09596 L310.00412,145.550505" id="Stroke-224" stroke="#4D6892" stroke-width="2" stroke-linecap="round" stroke-linejoin="round" mask="url(#mask-2)"></path>
                            <path d="M407.847088,178.09596 L407.847088,145.550505" id="Stroke-225" stroke="#4D6892" stroke-width="2" stroke-linecap="round" stroke-linejoin="round" mask="url(#mask-2)"></path>
                            <path d="M404.223274,178.09596 L404.223274,145.550505" id="Stroke-226" stroke="#4D6892" stroke-width="2" stroke-linecap="round" stroke-linejoin="round" mask="url(#mask-2)"></path>
                            <path d="M502.066242,178.09596 L502.066242,145.550505" id="Stroke-227" stroke="#4D6892" stroke-width="2" stroke-linecap="round" stroke-linejoin="round" mask="url(#mask-2)"></path>
                            <path d="M498.442429,178.09596 L498.442429,145.550505" id="Stroke-228" stroke="#4D6892" stroke-width="2" stroke-linecap="round" stroke-linejoin="round" mask="url(#mask-2)"></path>
                            <path d="M217.596872,138.318182 L217.596872,116.621212" id="Stroke-229" stroke="#4D6892" stroke-width="2" stroke-linecap="round" stroke-linejoin="round" mask="url(#mask-2)"></path>
                            <path d="M311.816027,138.318182 L311.816027,116.621212" id="Stroke-230" stroke="#4D6892" stroke-width="2" stroke-linecap="round" stroke-linejoin="round" mask="url(#mask-2)"></path>
                            <path d="M406.035181,138.318182 L406.035181,116.621212" id="Stroke-231" stroke="#4D6892" stroke-width="2" stroke-linecap="round" stroke-linejoin="round" mask="url(#mask-2)"></path>
                            <path d="M500.254336,138.318182 L500.254336,116.621212" id="Stroke-232" stroke="#4D6892" stroke-width="2" stroke-linecap="round" stroke-linejoin="round" mask="url(#mask-2)"></path>
                            <path d="M123.377718,138.318182 L123.377718,116.621212" id="Stroke-233" stroke="#4D6892" stroke-width="2" stroke-linecap="round" stroke-linejoin="round" mask="url(#mask-2)"></path>
                            <path d="M29.1585634,138.318182 L29.1585634,116.621212" id="Stroke-234" stroke="#4D6892" stroke-width="2" stroke-linecap="round" stroke-linejoin="round" mask="url(#mask-2)"></path>
                            <path d="M523.809124,138.318182 L1.97996117,138.318182" id="Stroke-235" stroke="#4D6892" stroke-width="2" stroke-linecap="round" stroke-linejoin="round" mask="url(#mask-2)"></path>
                            <path d="M353.489884,160.015152 C353.489884,166.006679 358.357571,170.863636 364.361324,170.863636 C370.365078,170.863636 375.232765,166.006679 375.232765,160.015152 C375.232765,154.023624 370.365078,149.166667 364.361324,149.166667 C358.357571,149.166667 353.489884,154.023624 353.489884,160.015152" id="Fill-236" fill="#FBB326" mask="url(#mask-2)"></path>
                            <path d="M364.361324,178.09596 L364.361324,163.631313" id="Stroke-237" stroke="#4D6892" stroke-width="2" stroke-linecap="round" stroke-linejoin="round" mask="url(#mask-2)"></path>
                            <path d="M353.489884,160.015152 C353.489884,166.006679 358.357571,170.863636 364.361324,170.863636 C370.365078,170.863636 375.232765,166.006679 375.232765,160.015152 C375.232765,154.023624 370.365078,149.166667 364.361324,149.166667 C358.357571,149.166667 353.489884,154.023624 353.489884,160.015152 L353.489884,160.015152 Z" id="Stroke-238" stroke="#4D6892" stroke-width="2" stroke-linecap="round" stroke-linejoin="round" mask="url(#mask-2)"></path>
                            <path d="M259.270729,160.015152 C259.270729,166.006679 264.138417,170.863636 270.14217,170.863636 C276.145923,170.863636 281.013611,166.006679 281.013611,160.015152 C281.013611,154.023624 276.145923,149.166667 270.14217,149.166667 C264.138417,149.166667 259.270729,154.023624 259.270729,160.015152" id="Fill-239" fill="#FBB326" mask="url(#mask-2)"></path>
                            <path d="M270.14217,178.09596 L270.14217,163.631313" id="Stroke-240" stroke="#4D6892" stroke-width="2" stroke-linecap="round" stroke-linejoin="round" mask="url(#mask-2)"></path>
                            <path d="M259.270729,160.015152 C259.270729,166.006679 264.138417,170.863636 270.14217,170.863636 C276.145923,170.863636 281.013611,166.006679 281.013611,160.015152 C281.013611,154.023624 276.145923,149.166667 270.14217,149.166667 C264.138417,149.166667 259.270729,154.023624 259.270729,160.015152 L259.270729,160.015152 Z" id="Stroke-241" stroke="#4D6892" stroke-width="2" stroke-linecap="round" stroke-linejoin="round" mask="url(#mask-2)"></path>
                            <path d="M259.270729,170.863636 C259.270729,172.860662 260.893292,174.479798 262.894543,174.479798 C264.895794,174.479798 266.518356,172.860662 266.518356,170.863636 C266.518356,168.866611 264.895794,167.247475 262.894543,167.247475 C260.893292,167.247475 259.270729,168.866611 259.270729,170.863636" id="Fill-242" fill="#FFC857" mask="url(#mask-2)"></path>
                            <path d="M259.270729,170.863636 C259.270729,172.860662 260.893292,174.479798 262.894543,174.479798 C264.895794,174.479798 266.518356,172.860662 266.518356,170.863636 C266.518356,168.866611 264.895794,167.247475 262.894543,167.247475 C260.893292,167.247475 259.270729,168.866611 259.270729,170.863636 L259.270729,170.863636 Z" id="Stroke-243" stroke="#4D6892" stroke-width="2" stroke-linecap="round" stroke-linejoin="round" mask="url(#mask-2)"></path>
                            <path d="M262.894543,170.863636 L262.894543,178.09596" id="Stroke-244" stroke="#4D6892" stroke-width="2" stroke-linecap="round" stroke-linejoin="round" mask="url(#mask-2)"></path>
                            <path d="M5.60377481,170.863636 C5.60377481,172.860662 7.22633736,174.479798 9.22758844,174.479798 C11.2288395,174.479798 12.8514021,172.860662 12.8514021,170.863636 C12.8514021,168.866611 11.2288395,167.247475 9.22758844,167.247475 C7.22633736,167.247475 5.60377481,168.866611 5.60377481,170.863636" id="Fill-245" fill="#FFC857" mask="url(#mask-2)"></path>
                            <path d="M5.60377481,170.863636 C5.60377481,172.860662 7.22633736,174.479798 9.22758844,174.479798 C11.2288395,174.479798 12.8514021,172.860662 12.8514021,170.863636 C12.8514021,168.866611 11.2288395,167.247475 9.22758844,167.247475 C7.22633736,167.247475 5.60377481,168.866611 5.60377481,170.863636 L5.60377481,170.863636 Z" id="Stroke-246" stroke="#4D6892" stroke-width="2" stroke-linecap="round" stroke-linejoin="round" mask="url(#mask-2)"></path>
                            <path d="M9.22758844,170.863636 L9.22758844,178.09596" id="Stroke-247" stroke="#4D6892" stroke-width="2" stroke-linecap="round" stroke-linejoin="round" mask="url(#mask-2)"></path>
                            <path d="M505.690056,170.863636 C505.690056,172.860662 507.312619,174.479798 509.31387,174.479798 C511.315121,174.479798 512.937683,172.860662 512.937683,170.863636 C512.937683,168.866611 511.315121,167.247475 509.31387,167.247475 C507.312619,167.247475 505.690056,168.866611 505.690056,170.863636" id="Fill-248" fill="#FBB326" mask="url(#mask-2)"></path>
                            <path d="M505.690056,170.863636 C505.690056,172.860662 507.312619,174.479798 509.31387,174.479798 C511.315121,174.479798 512.937683,172.860662 512.937683,170.863636 C512.937683,168.866611 511.315121,167.247475 509.31387,167.247475 C507.312619,167.247475 505.690056,168.866611 505.690056,170.863636 L505.690056,170.863636 Z" id="Stroke-249" stroke="#4D6892" stroke-width="2" stroke-linecap="round" stroke-linejoin="round" mask="url(#mask-2)"></path>
                            <path d="M509.31387,170.863636 L509.31387,178.09596" id="Stroke-250" stroke="#4D6892" stroke-width="2" stroke-linecap="round" stroke-linejoin="round" mask="url(#mask-2)"></path>
                            <path d="M293.696959,169.055556 C293.696959,172.051093 296.130802,174.479798 299.132679,174.479798 C302.134556,174.479798 304.568399,172.051093 304.568399,169.055556 C304.568399,166.060018 302.134556,163.631313 299.132679,163.631313 C296.130802,163.631313 293.696959,166.060018 293.696959,169.055556" id="Fill-251" fill="#FFC857" mask="url(#mask-2)"></path>
                            <path d="M299.132679,178.09596 L299.132679,170.863636" id="Stroke-252" stroke="#4D6892" stroke-width="2" stroke-linecap="round" stroke-linejoin="round" mask="url(#mask-2)"></path>
                            <path d="M293.696959,169.055556 C293.696959,172.051093 296.130802,174.479798 299.132679,174.479798 C302.134556,174.479798 304.568399,172.051093 304.568399,169.055556 C304.568399,166.060018 302.134556,163.631313 299.132679,163.631313 C296.130802,163.631313 293.696959,166.060018 293.696959,169.055556 L293.696959,169.055556 Z" id="Stroke-253" stroke="#4D6892" stroke-width="2" stroke-linecap="round" stroke-linejoin="round" mask="url(#mask-2)"></path>
                            <path d="M1.97996117,178.09596 L523.809124,178.09596" id="Stroke-254" stroke="#4D6892" stroke-width="2" stroke-linecap="round" stroke-linejoin="round" mask="url(#mask-2)"></path>
                            <path d="M473.075733,163.631313 C473.075733,167.625364 476.320858,170.863636 480.323361,170.863636 C484.325863,170.863636 487.570988,167.625364 487.570988,163.631313 C487.570988,159.637263 484.325863,156.39899 480.323361,156.39899 C476.320858,156.39899 473.075733,159.637263 473.075733,163.631313" id="Fill-255" fill="#FFC857" mask="url(#mask-2)"></path>
                            <path d="M480.323361,178.09596 L480.323361,167.247475" id="Stroke-256" stroke="#4D6892" stroke-width="2" stroke-linecap="round" stroke-linejoin="round" mask="url(#mask-2)"></path>
                            <path d="M473.075733,163.631313 C473.075733,167.625364 476.320858,170.863636 480.323361,170.863636 C484.325863,170.863636 487.570988,167.625364 487.570988,163.631313 C487.570988,159.637263 484.325863,156.39899 480.323361,156.39899 C476.320858,156.39899 473.075733,159.637263 473.075733,163.631313 L473.075733,163.631313 Z" id="Stroke-257" stroke="#4D6892" stroke-width="2" stroke-linecap="round" stroke-linejoin="round" mask="url(#mask-2)"></path>
                            <path d="M204.913525,113.005051 L204.913525,84.0757576" id="Stroke-258" stroke="#4D6892" stroke-width="2" stroke-linecap="round" stroke-linejoin="round" stroke-dasharray="0,4" mask="url(#mask-2)"></path>
                            <path d="M52.713352,76.8434343 L52.713352,49.7222222" id="Stroke-259" stroke="#4D6892" stroke-width="2" stroke-linecap="round" stroke-linejoin="round" stroke-dasharray="0,4" mask="url(#mask-2)"></path>
                            <path d="M34.5942839,76.8434343 L34.5942839,71.4191919" id="Stroke-260" stroke="#4D6892" stroke-width="2" stroke-linecap="round" stroke-linejoin="round" stroke-dasharray="0,4" mask="url(#mask-2)"></path>
                            <path d="M203.101618,62.3787879 C203.101618,63.3773005 203.912899,64.1868687 204.913525,64.1868687 C205.91415,64.1868687 206.725431,63.3773005 206.725431,62.3787879 C206.725431,61.3793712 205.91415,60.5707071 204.913525,60.5707071 C203.912899,60.5707071 203.101618,61.3793712 203.101618,62.3787879" id="Fill-263" fill="#FFFFFF" mask="url(#mask-2)"></path>
                            <path d="M63.5847929,8.13636364 C63.5847929,12.1304141 70.8324202,26.2171717 70.8324202,26.2171717 C70.8324202,26.2171717 78.0800475,12.1304141 78.0800475,8.13636364 C78.0800475,4.14231313 74.8349223,0.904040404 70.8324202,0.904040404 C66.829918,0.904040404 63.5847929,4.14231313 63.5847929,8.13636364" id="Fill-265" fill="#4BA2F2" mask="url(#mask-2)"></path>
                            <path d="M63.5847929,8.13636364 C63.5847929,12.1304141 70.8324202,26.2171717 70.8324202,26.2171717 C70.8324202,26.2171717 78.0800475,12.1304141 78.0800475,8.13636364 C78.0800475,4.14231313 74.8349223,0.904040404 70.8324202,0.904040404 C66.829918,0.904040404 63.5847929,4.14231313 63.5847929,8.13636364 L63.5847929,8.13636364 Z" id="Stroke-266" stroke="#4D6892" stroke-width="2" stroke-linecap="round" stroke-linejoin="round" mask="url(#mask-2)"></path>
                            <path d="M69.0205134,8.13636364 C69.0205134,9.13487626 69.8317947,9.94444444 70.8324202,9.94444444 C71.8330457,9.94444444 72.644327,9.13487626 72.644327,8.13636364 C72.644327,7.13694697 71.8330457,6.32828283 70.8324202,6.32828283 C69.8317947,6.32828283 69.0205134,7.13694697 69.0205134,8.13636364" id="Fill-267" fill="#FFFFFF" mask="url(#mask-2)"></path>
                            <path d="M69.0205134,8.13636364 C69.0205134,9.13487626 69.8317947,9.94444444 70.8324202,9.94444444 C71.8330457,9.94444444 72.644327,9.13487626 72.644327,8.13636364 C72.644327,7.13694697 71.8330457,6.32828283 70.8324202,6.32828283 C69.8317947,6.32828283 69.0205134,7.13694697 69.0205134,8.13636364 L69.0205134,8.13636364 Z" id="Stroke-268" stroke="#4D6892" stroke-width="2" stroke-linecap="round" stroke-linejoin="round" mask="url(#mask-2)"></path>
                            <path d="M429.58997,8.13636364 C429.58997,12.1304141 436.837597,26.2171717 436.837597,26.2171717 C436.837597,26.2171717 444.085224,12.1304141 444.085224,8.13636364 C444.085224,4.14231313 440.840099,0.904040404 436.837597,0.904040404 C432.835095,0.904040404 429.58997,4.14231313 429.58997,8.13636364" id="Fill-269" fill="#FFC857" mask="url(#mask-2)"></path>
                            <path d="M429.58997,8.13636364 C429.58997,12.1304141 436.837597,26.2171717 436.837597,26.2171717 C436.837597,26.2171717 444.085224,12.1304141 444.085224,8.13636364 C444.085224,4.14231313 440.840099,0.904040404 436.837597,0.904040404 C432.835095,0.904040404 429.58997,4.14231313 429.58997,8.13636364 L429.58997,8.13636364 Z" id="Stroke-270" stroke="#4D6892" stroke-width="2" stroke-linecap="round" stroke-linejoin="round" mask="url(#mask-2)"></path>
                            <path d="M435.02569,8.13636364 C435.02569,9.13487626 435.836972,9.94444444 436.837597,9.94444444 C437.838223,9.94444444 438.649504,9.13487626 438.649504,8.13636364 C438.649504,7.13694697 437.838223,6.32828283 436.837597,6.32828283 C435.836972,6.32828283 435.02569,7.13694697 435.02569,8.13636364" id="Fill-271" fill="#FFFFFF" mask="url(#mask-2)"></path>
                            <path d="M435.02569,8.13636364 C435.02569,9.13487626 435.836972,9.94444444 436.837597,9.94444444 C437.838223,9.94444444 438.649504,9.13487626 438.649504,8.13636364 C438.649504,7.13694697 437.838223,6.32828283 436.837597,6.32828283 C435.836972,6.32828283 435.02569,7.13694697 435.02569,8.13636364 L435.02569,8.13636364 Z" id="Stroke-272" stroke="#4D6892" stroke-width="2" stroke-linecap="round" stroke-linejoin="round" mask="url(#mask-2)"></path>
                            <path d="M52.713352,39.4749242 C55.047088,39.4749242 56.9405306,37.5881919 56.9405306,35.2575758 C56.9405306,32.9265076 55.047088,31.0397753 52.713352,31.0397753 L52.713352,22.6010101 C59.7168248,22.6010101 65.3966997,28.2666313 65.3966997,35.2575758 C65.3966997,42.2480682 59.7168248,47.9136894 52.713352,47.9136894 C49.2100302,47.9136894 46.0391933,46.496154 43.7439603,44.2080278 L49.7246117,38.2404571 C50.4892364,39.0034672 51.5455781,39.4749242 52.713352,39.4749242" id="Fill-273" fill="#FBB326" mask="url(#mask-2)"></path>
                            <path d="M49.7247929,32.2744232 L43.7441415,26.3068525 C46.0389215,24.0182742 49.2097584,22.6011909 52.7135332,22.6011909 L52.7135332,31.0399561 C51.5453063,31.0399561 50.4889646,31.5114131 49.7247929,32.2744232" id="Fill-274" fill="#FFFFFF" mask="url(#mask-2)"></path>
                            <path d="M43.7440509,26.3067621 L49.7247023,32.2743328 C48.9587187,33.039151 48.486264,34.0928101 48.486264,35.2576662 C48.486264,36.4220702 48.9587187,37.4757293 49.7247023,38.2400955 L43.7440509,44.2081182 C41.4510828,41.9159237 40.0300949,38.7517823 40.0300949,35.2576662 C40.0300949,31.762646 41.4510828,28.5985045 43.7440509,26.3067621" id="Fill-275" fill="#FFC857" mask="url(#mask-2)"></path>
                            <path d="M40.0300043,35.2575758 C40.0300043,42.2480682 45.7080673,47.9136894 52.713352,47.9136894 C59.7168248,47.9136894 65.3966997,42.2480682 65.3966997,35.2575758 C65.3966997,28.2666313 59.7168248,22.6010101 52.713352,22.6010101 C45.7080673,22.6010101 40.0300043,28.2666313 40.0300043,35.2575758 L40.0300043,35.2575758 Z" id="Stroke-276" stroke="#4D6892" stroke-width="2" stroke-linecap="round" stroke-linejoin="round" mask="url(#mask-2)"></path>
                            <path d="M48.4861734,35.2575758 C48.4861734,37.5881919 50.3778041,39.4749242 52.713352,39.4749242 C55.047088,39.4749242 56.9405306,37.5881919 56.9405306,35.2575758 C56.9405306,32.9265076 55.047088,31.0397753 52.713352,31.0397753 C50.3778041,31.0397753 48.4861734,32.9265076 48.4861734,35.2575758 L48.4861734,35.2575758 Z" id="Stroke-277" stroke="#4D6892" stroke-width="2" stroke-linecap="round" stroke-linejoin="round" mask="url(#mask-2)"></path>
                            <path d="M52.713352,31.0397753 L52.713352,22.6010101" id="Stroke-278" stroke="#4D6892" stroke-width="2" stroke-linecap="round" stroke-linejoin="round" mask="url(#mask-2)"></path>
                            <path d="M49.7247929,32.2744232 L43.7441415,26.3068525" id="Stroke-279" stroke="#4D6892" stroke-width="2" stroke-linecap="round" stroke-linejoin="round" mask="url(#mask-2)"></path>
                            <path d="M49.7247929,38.2402763 L43.7441415,44.207847" id="Stroke-280" stroke="#4D6892" stroke-width="2" stroke-linecap="round" stroke-linejoin="round" mask="url(#mask-2)"></path>
                            <path d="M286.449331,86.7874268 L286.449331,84.979346 L290.241199,84.1684217 C290.322735,83.7453308 290.437791,83.3348965 290.576402,82.9348586 L287.695923,80.3380025 L288.601877,78.7722045 L292.297261,79.9632778 C292.576747,79.6418914 292.87843,79.341298 293.200496,79.0619495 L292.00645,75.3748207 L293.575561,74.4703283 L296.177912,77.3447247 C296.579249,77.2068586 296.990099,77.0920455 297.414538,77.0102298 L298.226726,73.2268207 L300.038632,73.2268207 L300.85082,77.0102298 C301.275259,77.0920455 301.686109,77.2068586 302.087446,77.3447247 L304.689797,74.4703283 L306.258909,75.3743687 L305.064862,79.0619495 C305.386928,79.341298 305.688611,79.6418914 305.968097,79.9632778 L309.663481,78.7722045 L310.570341,80.3380025 L307.689862,82.9353106 C307.827567,83.3348965 307.942623,83.7453308 308.024159,84.1684217 L311.816027,84.9788939 L311.816027,86.7874268 L308.024159,87.597899 C307.942623,88.0214419 307.827567,88.4314242 307.689862,88.8314621 L310.570341,91.4287702 L309.663481,92.9945682 L305.968097,91.8030429 C305.688611,92.1244293 305.387834,92.4254747 305.065768,92.7043712 L306.259814,96.3928561 L304.689797,97.2959924 L302.087446,94.421596 C301.687015,94.5599141 301.275259,94.6747273 300.85082,94.7560909 L300.038632,98.539952 L298.226726,98.539952 L297.414538,94.7560909 C296.990099,94.6747273 296.578343,94.5599141 296.177912,94.421596 L293.575561,97.2959924 L292.00645,96.391952 L293.200496,92.7043712 C292.877524,92.4254747 292.575841,92.1244293 292.296355,91.8030429 L288.601877,92.9936641 L287.695923,91.4287702 L290.576402,88.8319141 C290.437791,88.4323283 290.322735,88.0214419 290.241199,87.597899 L286.449331,86.7874268 Z" id="Fill-281" fill="#CFD7E6" mask="url(#mask-2)"></path>
                            <path d="M286.449331,86.7874268 L286.449331,84.979346 L290.241199,84.1684217 C290.322735,83.7453308 290.437791,83.3348965 290.576402,82.9348586 L287.695923,80.3380025 L288.601877,78.7722045 L292.297261,79.9632778 C292.576747,79.6418914 292.87843,79.341298 293.200496,79.0619495 L292.00645,75.3748207 L293.575561,74.4703283 L296.177912,77.3447247 C296.579249,77.2068586 296.990099,77.0920455 297.414538,77.0102298 L298.226726,73.2268207 L300.038632,73.2268207 L300.85082,77.0102298 C301.275259,77.0920455 301.686109,77.2068586 302.087446,77.3447247 L304.689797,74.4703283 L306.258909,75.3743687 L305.064862,79.0619495 C305.386928,79.341298 305.688611,79.6418914 305.968097,79.9632778 L309.663481,78.7722045 L310.570341,80.3380025 L307.689862,82.9353106 C307.827567,83.3348965 307.942623,83.7453308 308.024159,84.1684217 L311.816027,84.9788939 L311.816027,86.7874268 L308.024159,87.597899 C307.942623,88.0214419 307.827567,88.4314242 307.689862,88.8314621 L310.570341,91.4287702 L309.663481,92.9945682 L305.968097,91.8030429 C305.688611,92.1244293 305.387834,92.4254747 305.065768,92.7043712 L306.259814,96.3928561 L304.689797,97.2959924 L302.087446,94.421596 C301.687015,94.5599141 301.275259,94.6747273 300.85082,94.7560909 L300.038632,98.539952 L298.226726,98.539952 L297.414538,94.7560909 C296.990099,94.6747273 296.578343,94.5599141 296.177912,94.421596 L293.575561,97.2959924 L292.00645,96.391952 L293.200496,92.7043712 C292.877524,92.4254747 292.575841,92.1244293 292.296355,91.8030429 L288.601877,92.9936641 L287.695923,91.4287702 L290.576402,88.8319141 C290.437791,88.4323283 290.322735,88.0214419 290.241199,87.597899 L286.449331,86.7874268 L286.449331,86.7874268 Z" id="Stroke-282" stroke="#4D6892" stroke-width="2" stroke-linecap="round" stroke-linejoin="round" mask="url(#mask-2)"></path>
                            <path d="M295.508865,85.8833864 C295.508865,87.8813157 297.130522,89.499548 299.132679,89.499548 C301.134836,89.499548 302.756493,87.8813157 302.756493,85.8833864 C302.756493,83.8850051 301.134836,82.2667727 299.132679,82.2667727 C297.130522,82.2667727 295.508865,83.8850051 295.508865,85.8833864" id="Fill-283" fill="#FFFFFF" mask="url(#mask-2)"></path>
                            <path d="M295.508865,85.8833864 C295.508865,87.8813157 297.130522,89.499548 299.132679,89.499548 C301.134836,89.499548 302.756493,87.8813157 302.756493,85.8833864 C302.756493,83.8850051 301.134836,82.2667727 299.132679,82.2667727 C297.130522,82.2667727 295.508865,83.8850051 295.508865,85.8833864 L295.508865,85.8833864 Z" id="Stroke-284" stroke="#4D6892" stroke-width="2" stroke-linecap="round" stroke-linejoin="round" mask="url(#mask-2)"></path>
                            <path d="M40.0300043,64.1873207 L43.6538179,64.1873207 L43.6538179,56.9549975 L40.0300043,56.9549975 L40.0300043,64.1873207 Z" id="Fill-285" fill="#CFD7E6" mask="url(#mask-2)"></path>
                            <path d="M32.782377,64.1873207 L36.4061907,64.1873207 L36.4061907,51.5307551 L32.782377,51.5307551 L32.782377,64.1873207 Z" id="Fill-286" fill="#FBB326" mask="url(#mask-2)"></path>
                            <path d="M25.5347498,64.1873207 L29.1585634,64.1873207 L29.1585634,46.1065126 L25.5347498,46.1065126 L25.5347498,64.1873207 Z" id="Fill-287" fill="#4BA2F2" mask="url(#mask-2)"></path>
                            <path d="M43.6538179,67.8034823 L25.5347498,67.8034823" id="Stroke-288" stroke="#4D6892" stroke-width="2" stroke-linecap="round" stroke-linejoin="round" mask="url(#mask-2)"></path>
                            <path d="M40.0300043,64.1873207 L43.6538179,64.1873207 L43.6538179,56.9549975 L40.0300043,56.9549975 L40.0300043,64.1873207 Z" id="Stroke-289" stroke="#4D6892" stroke-width="2" stroke-linecap="round" stroke-linejoin="round" mask="url(#mask-2)"></path>
                            <path d="M32.782377,64.1873207 L36.4061907,64.1873207 L36.4061907,51.5307551 L32.782377,51.5307551 L32.782377,64.1873207 Z" id="Stroke-290" stroke="#4D6892" stroke-width="2" stroke-linecap="round" stroke-linejoin="round" mask="url(#mask-2)"></path>
                            <path d="M25.5347498,64.1873207 L29.1585634,64.1873207 L29.1585634,46.1065126 L25.5347498,46.1065126 L25.5347498,64.1873207 Z" id="Stroke-291" stroke="#4D6892" stroke-width="2" stroke-linecap="round" stroke-linejoin="round" mask="url(#mask-2)"></path>
                            <path d="M469.45192,33.4494949 L469.45192,51.530303 L454.956665,51.530303 L451.332852,55.1464646 L451.332852,51.530303 L444.085224,51.530303 L444.085224,33.4494949 L469.45192,33.4494949 Z" id="Fill-292" fill="#FBB326" mask="url(#mask-2)"></path>
                            <path d="M462.204292,40.6818182 L451.332852,40.6818182" id="Stroke-293" stroke="#4D6892" stroke-width="2" stroke-linecap="round" stroke-linejoin="round" mask="url(#mask-2)"></path>
                            <path d="M462.204292,44.2979798 L451.332852,44.2979798" id="Stroke-294" stroke="#4D6892" stroke-width="2" stroke-linecap="round" stroke-linejoin="round" mask="url(#mask-2)"></path>
                            <path d="M469.45192,33.4494949 L469.45192,51.530303 L454.956665,51.530303 L451.332852,55.1464646 L451.332852,51.530303 L444.085224,51.530303 L444.085224,33.4494949 L469.45192,33.4494949 L469.45192,33.4494949 Z" id="Stroke-295" stroke="#4D6892" stroke-width="2" stroke-linecap="round" stroke-linejoin="round" mask="url(#mask-2)"></path>
                            <path d="M451.332852,58.7626263 L451.332852,65.9949495" id="Stroke-296" stroke="#4D6892" stroke-width="2" stroke-linecap="round" stroke-linejoin="round" stroke-dasharray="0,4" mask="url(#mask-2)"></path>
                            <path d="M436.837597,65.9949495 L436.837597,26.2171717" id="Stroke-297" stroke="#4D6892" stroke-width="2" stroke-linecap="round" stroke-linejoin="round" stroke-dasharray="0,4" mask="url(#mask-2)"></path>
                            <path d="M158,85.7777778 L158,46" id="Stroke-297-Copy" stroke="#4D6892" stroke-width="2" stroke-linecap="round" stroke-linejoin="round" stroke-dasharray="0,4" mask="url(#mask-2)"></path>
                            <path d="M70.8324202,76.8434343 L70.8324202,29.8333333" id="Stroke-298" stroke="#4D6892" stroke-width="2" stroke-linecap="round" stroke-linejoin="round" stroke-dasharray="0,4" mask="url(#mask-2)"></path>
                            <path id="Stroke-299" stroke="#4D6892" stroke-width="2" stroke-linecap="round" stroke-linejoin="round" mask="url(#mask-2)"></path>
                            <path d="M299.132679,109.388889 L299.132679,103.964646" id="Stroke-300" stroke="#4D6892" stroke-width="2" stroke-linecap="round" stroke-linejoin="round" stroke-dasharray="0,4" mask="url(#mask-2)"></path>
                            <path id="Stroke-301" stroke="#4D6892" stroke-width="2" stroke-linecap="round" stroke-linejoin="round" mask="url(#mask-2)"></path>
                        </g>
                    </g>
                    <g id="Group-7" transform="translate(343.000000, 17.000000)">
                        <g id="Page-1">
                            <g id="Group-21">
                                <path d="M1.41324058,10.5448718 C1.41324058,9.92788462 1.85016087,9.16910256 2.38412464,8.85903846 L14.5583638,1.78455128 C15.0923275,1.47426282 15.9670667,1.47291667 16.501929,1.78141026 L28.6725739,8.79935897 C29.2076609,9.10785256 29.6452551,9.8650641 29.6452551,10.4820513 L29.6452551,24.5179487 C29.6452551,25.1349359 29.2076609,25.8921474 28.6725739,26.200641 L16.501929,33.2185897 C15.9670667,33.5270833 15.0907551,33.5286538 14.5547696,33.2219551 L2.38771884,26.2603205 C1.85173333,25.9536218 1.41324058,25.1977564 1.41324058,24.5807692 L1.41324058,10.5448718 L1.41324058,10.5448718 Z" id="Stroke-19" stroke="#4D6892" stroke-width="1.57499996" fill="#4BA2F2"></path>
                                <path d="M15.5292703,33.4294872 L15.5292703,17.275641 L15.5292703,17.5 L1.68485,9.59875 L15.2484732,17.6541346 L29.4006471,9.57721154" id="Stroke-1" stroke="#4D6892" stroke-width="1.12499997"></path>
                                <path d="M17.2140529,17.5 C17.2140529,18.4292949 16.4597196,19.1826923 15.5292703,19.1826923 C14.598821,19.1826923 13.8444877,18.4292949 13.8444877,17.5 C13.8444877,16.5707051 14.598821,15.8173077 15.5292703,15.8173077 C16.4597196,15.8173077 17.2140529,16.5707051 17.2140529,17.5" id="Fill-3" fill="#4D6892"></path>
                                <path d="M17.2140529,33.3173077 C17.2140529,34.2466026 16.4597196,35 15.5292703,35 C14.598821,35 13.8444877,34.2466026 13.8444877,33.3173077 C13.8444877,32.3880128 14.598821,31.6346154 15.5292703,31.6346154 C16.4597196,31.6346154 17.2140529,32.3880128 17.2140529,33.3173077" id="Fill-5" fill="#4D6892"></path>
                                <path d="M17.2971014,1.68269231 C17.2971014,2.61198718 16.5427681,3.36538462 15.6123188,3.36538462 C14.6818696,3.36538462 13.9275362,2.61198718 13.9275362,1.68269231 C13.9275362,0.753397436 14.6818696,0 15.6123188,0 C16.5427681,0 17.2971014,0.753397436 17.2971014,1.68269231" id="Fill-7" fill="#4D6892"></path>
                                <g id="Group-11" transform="translate(27.405797, 23.782051)">
                                    <mask id="mask-4" fill="white">
                                        <use xlink:href="#path-3"></use>
                                    </mask>
                                    <g id="Clip-10"></g>
                                    <path d="M3.51115435,1.83227244 C3.51115435,2.76156731 2.75682101,3.51496474 1.82637174,3.51496474 C0.895922464,3.51496474 0.14158913,2.76156731 0.14158913,1.83227244 C0.14158913,0.902977564 0.895922464,0.149580128 1.82637174,0.149580128 C2.75682101,0.149580128 3.51115435,0.902977564 3.51115435,1.83227244" id="Fill-9" fill="#4D6892" mask="url(#mask-4)"></path>
                                </g>
                                <path d="M3.36956522,25.6143237 C3.36956522,26.5436186 2.61523188,27.297016 1.68478261,27.297016 C0.754333333,27.297016 0,26.5436186 0,25.6143237 C0,24.6850288 0.754333333,23.9316314 1.68478261,23.9316314 C2.61523188,23.9316314 3.36956522,24.6850288 3.36956522,25.6143237" id="Fill-12" fill="#4D6892"></path>
                                <g id="Group-16" transform="translate(27.405797, 7.852564)">
                                    <mask id="mask-6" fill="white">
                                        <use xlink:href="#path-5"></use>
                                    </mask>
                                    <g id="Clip-15"></g>
                                    <path d="M3.51115435,1.72475962 C3.51115435,2.65405449 2.75682101,3.40745192 1.82637174,3.40745192 C0.895922464,3.40745192 0.14158913,2.65405449 0.14158913,1.72475962 C0.14158913,0.795464744 0.895922464,0.0420673077 1.82637174,0.0420673077 C2.75682101,0.0420673077 3.51115435,0.795464744 3.51115435,1.72475962" id="Fill-14" fill="#4D6892" mask="url(#mask-6)"></path>
                                </g>
                                <path d="M3.54729855,9.57732372 C3.54729855,10.5066186 2.79296522,11.260016 1.86251594,11.260016 C0.932066667,11.260016 0.177733333,10.5066186 0.177733333,9.57732372 C0.177733333,8.64802885 0.932066667,7.89463141 1.86251594,7.89463141 C2.79296522,7.89463141 3.54729855,8.64802885 3.54729855,9.57732372" id="Fill-17" fill="#4D6892"></path>
                            </g>
                        </g>
                        <g id="Page-1" transform="translate(10.000000, 19.000000)">
                            <g id="Group-33">
                                <path d="M50,4 C50,6.209 48.209,8 46,8 C43.791,8 42,6.209 42,4 C42,1.791 43.791,0 46,0 C48.209,0 50,1.791 50,4 L50,4 Z" id="Fill-2" fill="#FFFFFF"></path>
                                <path d="M0,38 C0,35.791 1.791,34 4,34 C6.209,34 8,35.791 8,38 C8,40.209 6.209,42 4,42 C1.791,42 0,40.209 0,38" id="Fill-4" fill="#FFFFFF"></path>
                                <path d="M56,27 C56,25.343 54.656,24 53,24 L27,24 C25.344,24 24,25.343 24,27 L24,45 C24,46.657 25.344,48 27,48 L53,48 C54.656,48 56,46.657 56,45 L56,27 Z" id="Fill-18" fill="#FFFFFF"></path>
                                <path d="M56,27 C56,25.343 54.656,24 53,24 L27,24 C25.344,24 24,25.343 24,27 L24,45 C24,46.657 25.344,48 27,48 L53,48 C54.656,48 56,46.657 56,45 L56,27 L56,27 Z" id="Stroke-19" stroke="#4D6892" stroke-width="2"></path>
                                <path d="M44,48 L44,52" id="Stroke-20" stroke="#4D6892" stroke-width="2"></path>
                                <path d="M36,52 L36,48" id="Stroke-21" stroke="#4D6892" stroke-width="2"></path>
                                <path d="M27,45 L53,45 L53,27 L27,27 L27,45 Z" id="Fill-22" fill="#FFB957"></path>
                                <path d="M39,42 L41,42" id="Stroke-23" stroke="#4D6892" stroke-width="2"></path>
                                <path d="M35,42 L37,42" id="Stroke-24" stroke="#4D6892" stroke-width="2"></path>
                                <path d="M43,42 L45,42" id="Stroke-25" stroke="#4D6892" stroke-width="2"></path>
                                <path d="M46,11 L46,21" id="Stroke-27" stroke="#4D6892" stroke-width="2"></path>
                                <path d="M29,4 L39,4" id="Stroke-28" stroke="#4D6892" stroke-width="2"></path>
                                <path d="M50,4 C50,6.209 48.209,8 46,8 C43.791,8 42,6.209 42,4 C42,1.791 43.791,0 46,0 C48.209,0 50,1.791 50,4 L50,4 Z" id="Stroke-29" stroke="#4D6892" stroke-width="2"></path>
                                <path d="M4,31 L4,21" id="Stroke-30" stroke="#4D6892" stroke-width="2"></path>
                                <path d="M21,38 L11,38" id="Stroke-31" stroke="#4D6892" stroke-width="2"></path>
                                <path d="M0,38 C0,35.791 1.791,34 4,34 C6.209,34 8,35.791 8,38 C8,40.209 6.209,42 4,42 C1.791,42 0,40.209 0,38 L0,38 Z" id="Stroke-32" stroke="#4D6892" stroke-width="2"></path>
                            </g>
                        </g>
                    </g>
                    <g id="ico-sec-chat" transform="translate(139.000000, 3.000000)">
                        <g id="Group-6">
                            <g id="Group-24">
                                <path d="M36.0645161,16.9655172 C36.0645161,17.745931 35.4437903,18.3793103 34.6774194,18.3793103 L10.4032258,18.3793103 L4.85483871,24.0344828 L4.85483871,18.3793103 L1.38709677,18.3793103 C0.621419355,18.3793103 0,17.745931 0,16.9655172 L0,1.4137931 C0,0.632672414 0.621419355,0 1.38709677,0 L34.6774194,0 C35.4437903,0 36.0645161,0.632672414 36.0645161,1.4137931 L36.0645161,16.9655172 L36.0645161,16.9655172 Z" id="Fill-2" fill="#FFFFFF"></path>
                                <path d="M4.85483871,21.2068966 L34.6774194,21.2068966 C35.4437903,21.2068966 36.0645161,21.839569 36.0645161,22.6206897 L36.0645161,25.4482759 L43,25.4482759 L36.0645161,32.5172414 L36.0645161,39.5862069 C36.0645161,40.3666207 35.4437903,41 34.6774194,41 L6.24193548,41 C5.47625806,41 4.85483871,40.3666207 4.85483871,39.5862069 L4.85483871,26.1551724 L4.85483871,21.2068966 Z" id="Fill-4" fill="#FFFFFF"></path>
                                <path d="M36.0645161,16.9655172 C36.0645161,17.745931 35.4437903,18.3793103 34.6774194,18.3793103 L10.4032258,18.3793103 L4.85483871,24.0344828 L4.85483871,18.3793103 L1.38709677,18.3793103 C0.621419355,18.3793103 0,17.745931 0,16.9655172 L0,1.4137931 C0,0.632672414 0.621419355,0 1.38709677,0 L34.6774194,0 C35.4437903,0 36.0645161,0.632672414 36.0645161,1.4137931 L36.0645161,16.9655172 L36.0645161,16.9655172 Z" id="Stroke-6" stroke="#4D6892" stroke-width="1.39999998" stroke-linejoin="round"></path>
                                <path d="M11.0967742,21.2068966 L34.6774194,21.2068966 C35.4437903,21.2068966 36.0645161,21.839569 36.0645161,22.6206897 L36.0645161,25.4482759 L43,25.4482759 L36.0645161,32.5172414 L36.0645161,39.5862069 C36.0645161,40.3666207 35.4437903,41 34.6774194,41 L6.24193548,41 C5.47625806,41 4.85483871,40.3666207 4.85483871,39.5862069 L4.85483871,26.1551724" id="Stroke-8" stroke="#4D6892" stroke-width="1.39999998" stroke-linejoin="round"></path>
                                <path d="M9.01612903,6.36206897 L27.0483871,6.36206897 L27.0483871,2.12068966 L9.01612903,2.12068966 L9.01612903,6.36206897 Z" id="Fill-10" fill="#FFC857"></path>
                                <path d="M6.93548387,31.8103448 L33.983871,31.8103448 L33.983871,27.5689655 L6.93548387,27.5689655 L6.93548387,31.8103448 Z" id="Fill-12" fill="#4BA2F2"></path>
                                <path d="M2.08064516,8.48275862 L33.983871,8.48275862" id="Stroke-13" stroke="#4D6892" stroke-width="1.39999998" stroke-linejoin="round"></path>
                                <path d="M2.08064516,11.3103448 L33.983871,11.3103448" id="Stroke-14" stroke="#4D6892" stroke-width="1.39999998" stroke-linejoin="round"></path>
                                <path d="M6.93548387,33.9310345 L33.983871,33.9310345" id="Stroke-15" stroke="#4D6892" stroke-width="1.39999998" stroke-linejoin="round"></path>
                                <path d="M6.93548387,36.7586207 L27.0483871,36.7586207" id="Stroke-16" stroke="#4D6892" stroke-width="1.39999998" stroke-linejoin="round"></path>
                                <path d="M2.08064516,14.137931 L13.1774194,14.137931" id="Stroke-17" stroke="#4D6892" stroke-width="1.39999998" stroke-linejoin="round"></path>
                                <path d="M17.3387097,4.24137931 L18.7258065,4.24137931" id="Stroke-18" stroke="#4D6892" stroke-width="1.39999998" stroke-linejoin="round"></path>
                                <path d="M20.1129032,4.24137931 L21.5,4.24137931" id="Stroke-19" stroke="#4D6892" stroke-width="1.39999998" stroke-linejoin="round"></path>
                                <path d="M14.5645161,4.24137931 L15.9516129,4.24137931" id="Stroke-20" stroke="#4D6892" stroke-width="1.39999998" stroke-linejoin="round"></path>
                                <path d="M13.8709677,25.4482759 L15.2580645,25.4482759" id="Stroke-21" stroke="#4D6892" stroke-width="1.39999998" stroke-linejoin="round"></path>
                                <path d="M16.6451613,25.4482759 L18.0322581,25.4482759" id="Stroke-22" stroke="#4D6892" stroke-width="1.39999998" stroke-linejoin="round"></path>
                                <path d="M11.0967742,25.4482759 L12.483871,25.4482759" id="Stroke-23" stroke="#4D6892" stroke-width="1.39999998" stroke-linejoin="round"></path>
                            </g>
                        </g>
                    </g>
                    <g id="Group-29" transform="translate(195.000000, 53.000000)">
                        <path d="M10.5,0 C6.2475,0 2.8,3.40059524 2.8,7.5952381 L2.8,12.4285714 L7,12.4285714 L7,7.5952381 C7,5.68814286 8.5666,4.14285714 10.5,4.14285714 C12.4334,4.14285714 14,5.68814286 14,7.5952381 L14,12.4285714 L18.2,12.4285714 L18.2,7.5952381 C18.2,3.40059524 14.7525,0 10.5,0" id="Fill-11" fill="#FFFFFF"></path>
                        <path d="M21,26.9285714 C21,28.072 20.0592,29 18.9,29 L2.1,29 C0.9408,29 0,28.072 0,26.9285714 L0,14.5 C0,13.3565714 0.9408,12.4285714 2.1,12.4285714 L18.9,12.4285714 C20.0592,12.4285714 21,13.3565714 21,14.5 L21,26.9285714 Z" id="Fill-13" fill="#FFFFFF"></path>
                        <path d="M21,26.9285714 C21,28.072 20.0592,29 18.9,29 L2.1,29 C0.9408,29 0,28.072 0,26.9285714 L0,14.5 C0,13.3565714 0.9408,12.4285714 2.1,12.4285714 L18.9,12.4285714 C20.0592,12.4285714 21,13.3565714 21,14.5 L21,26.9285714 L21,26.9285714 Z" id="Stroke-21-Copy" stroke="#4D6892" stroke-width="1.79999995" fill="#FFFFFF"></path>
                        <path d="M10.5,21.4047619 L6.3,21.4047619 L10.5,17.2619048 L14.7,17.2619048 L10.5,21.4047619 Z" id="Fill-15" fill="#FFC857"></path>
                        <path d="M21,21.4047619 L13.3,21.4047619 L17.5,17.2619048 L21,17.2619048 L21,21.4047619 Z" id="Fill-17" fill="#FFC857"></path>
                        <path d="M0,17.2619048 L7.7,17.2619048 L3.5,21.4047619 L0,21.4047619 L0,17.2619048 Z" id="Fill-19" fill="#FFC857"></path>
                        <path d="M21,26.9285714 C21,28.072 20.0592,29 18.9,29 L2.1,29 C0.9408,29 0,28.072 0,26.9285714 L0,14.5 C0,13.3565714 0.9408,12.4285714 2.1,12.4285714 L18.9,12.4285714 C20.0592,12.4285714 21,13.3565714 21,14.5 L21,26.9285714 L21,26.9285714 Z" id="Stroke-21" stroke="#4D6892" stroke-width="1.79999995"></path>
                        <path d="M14,12.4285714 L14,7.5952381 C14,5.68814286 12.4334,4.14285714 10.5,4.14285714 C8.5666,4.14285714 7,5.68814286 7,7.5952381 L7,12.4285714" id="Stroke-23" stroke="#4D6892" stroke-width="1.79999995"></path>
                        <path d="M18.2,12.4285714 L18.2,7.5952381 C18.2,3.40059524 14.7525,0 10.5,0 C6.2475,0 2.8,3.40059524 2.8,7.5952381 L2.8,12.4285714" id="Stroke-25" stroke="#4D6892" stroke-width="1.79999995"></path>
                        <path d="M0,26.2380952 L21,26.2380952" id="Stroke-27" stroke="#4D6892" stroke-width="1.79999995"></path>
                    </g>
                </g>
                <g id="Group-4" transform="translate(276.000000, 53.000000)">
                    <rect id="Rectangle-36" stroke="#CFD7E6" stroke-width="0.797999976" fill="#FFFFFF" filter="url(#filter-7)" x="0" y="0" width="47" height="47" rx="7.18199979"></rect>
                    <g id="Page-1-Copy" transform="translate(9.791667, 9.791667)">
                        <path d="M4.14113519,3.164625 C3.8627037,3.02566667 0.330827778,5.945 0.330827778,8.0928125 C0.325953704,11.0284583 4.45063889,17.679125 5.14519444,20.2516667 C5.74287778,22.4580833 4.13138704,25.1061458 4.57431852,25.226375 C4.97886667,25.4861667 8.82694815,21.5892917 8.97682593,19.9278333 C9.16996111,17.2821875 4.48353889,9.56758333 4.11006296,7.57564583 C3.67687963,5.2508125 4.45307593,3.21658333 4.14113519,3.164625 L4.14113519,3.164625 Z" id="Fill-1" fill="#1A5099"></path>
                        <path d="M12.9565074,0.127479167 C12.6019185,-0.0495416667 8.0964463,3.66970833 8.0964463,6.41202083 C8.09157222,10.1554375 13.3513074,18.6373333 14.2365611,21.9149375 C14.9981352,24.7285417 12.9443222,28.1058333 13.5060593,28.256875 C14.0251481,28.58675 18.9296852,23.6217083 19.1228204,21.499875 C19.3701796,18.1274167 13.3915185,8.29097917 12.915687,5.74683333 C12.3636981,2.7894375 13.3513074,0.193333333 12.9565074,0.127479167 L12.9565074,0.127479167 Z" id="Fill-2" fill="#4BA2F2"></path>
                        <path d="M22.0545759,3.164625 C21.7785815,3.02566667 18.2442685,5.945 18.2442685,8.0928125 C18.2400037,11.0284583 22.3640796,17.679125 23.0592444,20.2516667 C23.6563185,22.4580833 22.045437,25.1061458 22.4877593,25.226375 C22.8947444,25.4861667 26.7434352,21.5892917 26.8908759,19.9278333 C27.0834019,17.2821875 22.3975889,9.56758333 22.0235037,7.57564583 C21.5909296,5.2508125 22.3665167,3.21658333 22.0545759,3.164625 L22.0545759,3.164625 Z" id="Fill-3" fill="#1A5099"></path>
                    </g>
                </g>
            </g>
        </g>
    </g>
</svg>